<svg width="384" height="240" viewBox="0 0 384 240" fill="none" xmlns="http://www.w3.org/2000/svg">
<rect width="384" height="240" fill="#F4EBFF"/>
<path opacity="0.5" d="M349.615 151.674C344.35 149.6 338.319 149.728 332.575 149.089C326.799 148.483 320.577 146.696 317.769 142.356C315.184 138.336 316.269 133.23 318.981 129.305C321.725 125.38 325.874 122.38 329.767 119.285C338.638 112.201 346.68 104.064 351.115 94.4265C355.551 84.7576 355.934 73.3655 350.03 64.3029C344.127 55.2722 331.171 49.4007 319.492 52.0493C313.652 53.3895 308.674 56.5806 303.185 58.7186C297.697 60.8566 290.868 61.8458 285.922 58.9101C280.976 55.9743 279.667 50.3899 276.859 45.8586C272.009 38.1043 262.276 33.2858 252.288 31.2436C237.705 28.2759 221.782 30.5734 209.113 37.4661C202.061 41.3273 197.051 47.0393 191.913 52.847C186.68 58.7186 180.266 64.2391 171.554 62.8989C162.875 61.5905 153.62 57.8889 146.153 53.581C130.421 44.5503 112.073 38.1363 93.1499 38.2001C74.2269 38.2639 54.7615 45.5714 44.4544 59.1653C34.1153 72.7593 35.0407 92.7034 48.6985 103.904C53.5808 107.893 59.7076 110.669 64.3985 114.817C69.0893 118.966 72.2166 125.348 69.1851 130.517C64.941 137.729 53.134 137.346 44.0714 139.484C30.8924 142.612 20.9682 153.844 21.0001 165.555C21.032 177.266 31.0519 188.435 44.231 191.499C48.9857 192.584 54.0914 192.743 58.495 194.658C62.8987 196.572 66.345 201.199 64.1751 204.965C63.2497 206.56 61.5584 207.709 60.5692 209.273C58.2397 212.974 61.0798 217.825 65.3558 219.931C69.5999 222.037 74.7694 222.165 79.7156 222.197C149.153 222.835 218.59 223.462 288.028 224.079C298.335 224.175 308.897 224.239 318.534 221.08C331.458 216.836 340.968 207.39 349.041 197.753C355.04 190.573 360.688 182.787 361.965 174.043C363.241 165.268 358.965 155.376 349.615 151.674Z" fill="url(#paint0_linear_950_69581)"/>
<path d="M350.184 54.6972C349.035 49.2724 346.227 51.1232 341.472 49.4639C336.717 47.8045 338.09 41.8692 335.154 40.0184C331.229 37.5931 327.623 39.8588 325.166 43.0499C321.113 48.3789 318.337 44.071 313.487 46.209C310.71 47.4535 311.891 49.1767 308.126 49.8787C305.509 50.3574 302.637 49.2086 300.052 49.9106C298.138 50.4531 296.733 51.3466 296.319 53.1974C296.872 53.4527 297.435 53.6867 298.01 53.8995C305.254 56.5161 315.146 55.6545 322.485 56.0375C324.974 56.1651 350.981 58.5265 350.184 54.6972Z" fill="url(#paint1_linear_950_69581)"/>
<path d="M78.6362 50.4523C77.0088 48.4738 74.5835 47.6442 72.2222 48.2505C69.6374 48.8887 68.2014 51.3458 65.7762 52.335C61.5959 54.0582 55.8201 50.6437 52.6291 55.0793C48.736 60.5041 45.7364 56.4515 45.7364 60.1212C45.7364 63.7909 72.6051 61.0785 85.8799 61.3019C87.7945 61.3019 96.0913 61.1742 92.5173 57.1854C91.4004 55.9728 89.8368 55.7494 88.337 55.4622C86.4224 55.0793 81.8272 54.8879 80.4232 53.3881C79.6892 52.5903 79.402 51.4096 78.7 50.548C78.6787 50.5055 78.6575 50.4736 78.6362 50.4523Z" fill="url(#paint2_linear_950_69581)"/>
<path opacity="0.2" d="M315.894 177.992H259.891C258.71 177.992 257.721 177.035 257.721 175.823C257.721 174.642 258.71 173.685 259.891 173.685H315.894C317.074 173.685 318.064 174.642 318.064 175.823C318.064 177.035 317.074 177.992 315.894 177.992Z" fill="white"/>
<path opacity="0.53" d="M322.627 186.48H266.624C265.411 186.48 264.454 185.523 264.454 184.311C264.454 183.13 265.411 182.141 266.624 182.141H322.627C323.807 182.141 324.797 183.13 324.797 184.311C324.797 185.523 323.807 186.48 322.627 186.48Z" fill="white"/>
<path opacity="0.53" d="M306.703 203.457H266.624C265.411 203.457 264.454 202.5 264.454 201.287C264.454 200.106 265.411 199.117 266.624 199.117H306.703C307.884 199.117 308.873 200.106 308.873 201.287C308.873 202.5 307.884 203.457 306.703 203.457Z" fill="white"/>
<path opacity="0.2" d="M328.913 194.969H272.91C271.698 194.969 270.74 194.011 270.74 192.799C270.74 191.618 271.698 190.629 272.91 190.629H328.913C330.094 190.629 331.051 191.618 331.051 192.799C331.051 194.011 330.094 194.969 328.913 194.969Z" fill="white"/>
<path opacity="0.2" d="M97.1505 107.131H41.1475C39.9349 107.131 38.9775 106.174 38.9775 104.961C38.9775 103.78 39.9349 102.791 41.1475 102.791H97.1505C98.3312 102.791 99.3205 103.78 99.3205 104.961C99.3205 106.174 98.3312 107.131 97.1505 107.131Z" fill="white"/>
<path opacity="0.53" d="M103.852 115.618H47.8809C46.6683 115.618 45.7109 114.661 45.7109 113.448C45.7109 112.268 46.6683 111.278 47.8809 111.278H103.852C105.065 111.278 106.022 112.268 106.022 113.448C106.022 114.661 105.065 115.618 103.852 115.618Z" fill="white"/>
<path opacity="0.53" d="M87.9286 132.595H47.8809C46.6683 132.595 45.7109 131.637 45.7109 130.425C45.7109 129.244 46.6683 128.255 47.8809 128.255H87.9286C89.1413 128.255 90.0986 129.244 90.0986 130.425C90.0986 131.637 89.1413 132.595 87.9286 132.595Z" fill="white"/>
<path opacity="0.2" d="M110.138 124.107H54.1351C52.9544 124.107 51.9971 123.15 51.9971 121.937C51.9971 120.757 52.9544 119.768 54.1351 119.768H110.138C111.351 119.768 112.308 120.757 112.308 121.937C112.308 123.15 111.351 124.107 110.138 124.107Z" fill="white"/>
<path d="M281.609 161.993L282.471 161.61C282.631 161.547 282.822 161.61 282.886 161.77C282.982 161.929 282.886 162.121 282.726 162.185L281.865 162.568C281.705 162.663 281.514 162.568 281.418 162.408C281.354 162.249 281.418 162.057 281.609 161.993Z" fill="white"/>
<path d="M284.45 160.621L285.28 160.174C285.439 160.078 285.663 160.142 285.726 160.302C285.822 160.461 285.758 160.653 285.599 160.748L284.769 161.195C284.61 161.291 284.418 161.227 284.322 161.067C284.227 160.908 284.29 160.716 284.45 160.621Z" fill="white"/>
<path d="M287.194 159.025L287.96 158.483H287.992C288.12 158.387 288.343 158.419 288.439 158.578C288.566 158.738 288.503 158.961 288.343 159.057L287.545 159.599C287.386 159.695 287.194 159.631 287.067 159.504C286.971 159.344 287.003 159.121 287.162 159.025H287.194Z" fill="white"/>
<path d="M289.747 157.207L290.513 156.6C290.672 156.473 290.896 156.505 290.991 156.664C291.119 156.824 291.087 157.047 290.96 157.143L290.194 157.749C290.034 157.877 289.811 157.845 289.683 157.685C289.587 157.526 289.619 157.334 289.747 157.207Z" fill="white"/>
<path d="M292.204 155.164L292.906 154.526C293.033 154.398 293.257 154.398 293.416 154.558C293.544 154.685 293.512 154.909 293.385 155.036L292.682 155.706C292.523 155.834 292.3 155.834 292.172 155.674C292.044 155.547 292.044 155.323 292.172 155.164H292.204Z" fill="white"/>
<path d="M294.47 152.962L295.108 152.26C295.236 152.133 295.491 152.101 295.619 152.26C295.778 152.388 295.778 152.611 295.651 152.771L294.98 153.473C294.853 153.633 294.629 153.633 294.47 153.473C294.342 153.345 294.31 153.122 294.47 152.962Z" fill="white"/>
<path d="M296.544 150.601L297.15 149.867C297.278 149.708 297.533 149.676 297.692 149.803C297.852 149.931 297.884 150.154 297.756 150.314H297.724L297.118 151.08C296.99 151.239 296.767 151.271 296.607 151.144C296.448 150.984 296.416 150.761 296.544 150.601Z" fill="white"/>
<path d="M298.49 148.08L299.001 147.314L299.033 147.282C299.128 147.123 299.384 147.091 299.543 147.187C299.735 147.314 299.766 147.57 299.639 147.729L299.096 148.527C298.969 148.686 298.745 148.75 298.554 148.623C298.394 148.495 298.362 148.272 298.458 148.08H298.49Z" fill="white"/>
<path d="M300.213 145.431L300.692 144.633V144.601C300.82 144.41 301.043 144.346 301.235 144.474C301.426 144.569 301.49 144.825 301.362 145.016L300.883 145.846C300.756 146.037 300.532 146.101 300.341 145.973C300.15 145.878 300.086 145.622 300.213 145.431Z" fill="white"/>
<path d="M301.745 142.687L302.16 141.826H302.192C302.288 141.634 302.511 141.539 302.703 141.634C302.926 141.73 302.99 141.985 302.894 142.177L302.447 143.038C302.352 143.23 302.128 143.325 301.937 143.23C301.713 143.102 301.649 142.879 301.745 142.687Z" fill="white"/>
<path d="M303.085 139.814L303.468 138.921C303.532 138.73 303.787 138.602 304.011 138.698C304.202 138.793 304.298 139.017 304.234 139.24L303.851 140.134C303.755 140.357 303.532 140.453 303.309 140.357C303.085 140.261 302.99 140.038 303.085 139.814Z" fill="white"/>
<path d="M304.234 136.847L304.521 135.953C304.617 135.73 304.841 135.602 305.064 135.698C305.287 135.762 305.415 135.985 305.319 136.209L305.032 137.134C304.936 137.358 304.713 137.485 304.49 137.389C304.266 137.326 304.17 137.102 304.234 136.879V136.847Z" fill="white"/>
<path d="M305.16 133.848L305.383 132.922H305.415C305.447 132.699 305.702 132.539 305.926 132.603C306.149 132.667 306.277 132.89 306.245 133.114L305.989 134.071C305.926 134.294 305.702 134.422 305.479 134.358C305.224 134.294 305.096 134.071 305.16 133.848Z" fill="white"/>
<path d="M305.862 130.752L306.053 129.827C306.085 129.572 306.309 129.412 306.564 129.476C306.787 129.508 306.947 129.731 306.915 129.987L306.724 130.944C306.692 131.167 306.468 131.327 306.213 131.263C305.99 131.231 305.83 131.008 305.862 130.784V130.752Z" fill="white"/>
<path d="M306.34 127.625L306.436 126.7H306.468C306.468 126.444 306.691 126.253 306.947 126.285C307.202 126.317 307.361 126.54 307.33 126.795L307.234 127.753C307.202 127.976 306.979 128.167 306.755 128.136C306.5 128.104 306.34 127.88 306.34 127.657V127.625Z" fill="white"/>
<path d="M306.596 124.498L306.628 123.54C306.628 123.285 306.851 123.094 307.106 123.094C307.33 123.094 307.553 123.317 307.521 123.572L307.489 124.53C307.489 124.785 307.298 124.976 307.042 124.976C306.787 124.976 306.596 124.753 306.596 124.498Z" fill="white"/>
<path d="M306.596 121.338L306.564 120.381C306.532 120.126 306.755 119.902 306.978 119.902C307.234 119.902 307.457 120.094 307.457 120.349L307.521 121.306C307.521 121.562 307.329 121.785 307.074 121.785C306.819 121.785 306.627 121.594 306.596 121.338Z" fill="white"/>
<path d="M306.372 118.179L306.245 117.254C306.213 116.999 306.372 116.775 306.628 116.711C306.883 116.68 307.106 116.871 307.138 117.126L307.266 118.084C307.298 118.339 307.138 118.562 306.883 118.594C306.628 118.626 306.404 118.467 306.372 118.211V118.179Z" fill="white"/>
<path d="M305.862 115.084L305.67 114.159H305.638C305.606 113.903 305.766 113.648 306.021 113.584C306.245 113.552 306.5 113.712 306.564 113.935L306.755 114.892C306.819 115.148 306.659 115.403 306.404 115.435C306.149 115.499 305.926 115.339 305.862 115.084Z" fill="white"/>
<path d="M305.096 112.021L304.809 111.127C304.745 110.872 304.873 110.617 305.128 110.521C305.351 110.457 305.638 110.585 305.702 110.84L305.989 111.766C306.053 112.021 305.926 112.276 305.67 112.34C305.447 112.436 305.16 112.276 305.096 112.053V112.021Z" fill="white"/>
<path d="M304.075 109.054L303.724 108.16H303.692C303.596 107.905 303.724 107.65 303.979 107.554C304.202 107.458 304.49 107.554 304.585 107.809L304.936 108.703C305.032 108.958 304.936 109.213 304.681 109.309C304.458 109.405 304.171 109.309 304.075 109.054Z" fill="white"/>
<path d="M302.798 106.181L302.351 105.319C302.256 105.064 302.319 104.777 302.575 104.681C302.798 104.554 303.085 104.649 303.213 104.873L303.66 105.734C303.755 105.99 303.66 106.277 303.436 106.372C303.213 106.5 302.926 106.404 302.798 106.181Z" fill="white"/>
<path d="M301.298 103.405L300.788 102.575C300.66 102.352 300.724 102.065 300.947 101.937C301.171 101.778 301.458 101.842 301.617 102.065L302.096 102.895C302.256 103.118 302.192 103.437 301.937 103.565C301.713 103.692 301.426 103.629 301.298 103.405Z" fill="white"/>
<path d="M299.575 100.756L299.001 99.9905C298.842 99.7672 298.905 99.4481 299.097 99.3204C299.32 99.1609 299.639 99.1928 299.799 99.4162L300.341 100.214C300.501 100.405 300.469 100.724 300.246 100.884C300.022 101.044 299.735 100.98 299.575 100.756Z" fill="white"/>
<path d="M297.661 98.2676L297.022 97.5337C296.863 97.3103 296.863 97.0231 297.086 96.8316C297.278 96.6721 297.597 96.704 297.756 96.8955L298.394 97.6294C298.554 97.8528 298.554 98.14 298.331 98.3315C298.139 98.491 297.82 98.4591 297.661 98.2676Z" fill="white"/>
<path d="M295.554 95.9064L294.884 95.2362C294.693 95.0129 294.693 94.7257 294.884 94.5342C295.076 94.3428 295.395 94.3428 295.586 94.5342L296.256 95.2362C296.448 95.4277 296.448 95.7149 296.256 95.9064C296.065 96.0978 295.746 96.0978 295.554 95.9064Z" fill="white"/>
<path d="M293.289 93.7039L292.555 93.0976V93.0657C292.364 92.9062 292.332 92.587 292.523 92.3637C292.683 92.1722 293.002 92.1403 293.193 92.3318H293.225L293.927 92.97C294.151 93.1614 294.151 93.4805 293.991 93.672C293.8 93.8635 293.48 93.8954 293.289 93.7039Z" fill="white"/>
<path d="M290.864 91.6935L290.098 91.1191C289.874 90.9277 289.843 90.6086 290.002 90.4171C290.162 90.1937 290.481 90.1299 290.704 90.3214L291.47 90.8958C291.693 91.0553 291.725 91.3744 291.566 91.5978C291.406 91.8212 291.087 91.8531 290.864 91.6935Z" fill="white"/>
<path d="M288.311 89.8426L287.513 89.3001H287.481C287.258 89.1725 287.194 88.8534 287.354 88.5981C287.513 88.3747 287.801 88.3109 288.056 88.4705L288.854 89.0129C289.077 89.1406 289.141 89.4597 289.013 89.6831C288.854 89.9384 288.534 90.0022 288.311 89.8426Z" fill="white"/>
<path d="M285.63 88.1832L284.801 87.7046H284.769C284.545 87.5769 284.45 87.2578 284.577 87.0025C284.737 86.7792 285.024 86.6834 285.279 86.8111L286.109 87.2897C286.364 87.4174 286.46 87.7365 286.3 87.9918C286.173 88.2151 285.854 88.3109 285.63 88.1832Z" fill="white"/>
<path d="M282.822 86.684L281.961 86.301C281.705 86.1734 281.61 85.8543 281.705 85.599C281.833 85.3437 282.152 85.248 282.407 85.3756L283.269 85.7905C283.524 85.8862 283.62 86.2053 283.524 86.4606C283.397 86.7159 283.078 86.8116 282.822 86.684Z" fill="white"/>
<path d="M279.95 85.4073L279.057 85.0882C278.769 84.9605 278.642 84.6733 278.737 84.4181C278.865 84.1628 279.152 84.0032 279.408 84.1309L280.333 84.4819C280.588 84.5776 280.716 84.8648 280.62 85.1201C280.524 85.4073 280.205 85.5349 279.95 85.4392V85.4073Z" fill="white"/>
<path d="M276.982 84.354L276.057 84.0987V84.0668C275.77 84.003 275.642 83.7158 275.706 83.4286C275.802 83.1733 276.089 83.0137 276.344 83.0775L277.27 83.3647C277.557 83.4605 277.716 83.7477 277.621 84.0349C277.557 84.2902 277.238 84.4497 276.982 84.354Z" fill="white"/>
<path d="M273.919 83.5244L273.025 83.301H272.994C272.706 83.2372 272.547 82.9819 272.611 82.6947C272.674 82.4075 272.962 82.2161 273.217 82.2799L274.174 82.5032C274.461 82.5671 274.621 82.8543 274.557 83.1415C274.493 83.3967 274.238 83.5882 273.951 83.5244H273.919Z" fill="white"/>
<path d="M270.856 82.9185L269.898 82.759C269.611 82.7271 269.42 82.4718 269.452 82.1846C269.484 81.8974 269.771 81.7059 270.058 81.7378L271.015 81.8655C271.303 81.9293 271.494 82.1846 271.43 82.4718C271.398 82.759 271.143 82.9504 270.856 82.9185Z" fill="white"/>
<path d="M267.729 82.5353L266.771 82.4714C266.484 82.4395 266.261 82.2162 266.293 81.929C266.293 81.6418 266.548 81.4184 266.835 81.4503L267.792 81.5141C268.08 81.5141 268.303 81.7694 268.271 82.0566C268.271 82.3438 268.016 82.5672 267.729 82.5353Z" fill="white"/>
<path d="M264.569 82.4079L263.612 82.4398C263.325 82.4398 263.101 82.2164 263.101 81.9292C263.069 81.642 263.325 81.3867 263.58 81.3867H264.569C264.856 81.3867 265.08 81.6101 265.08 81.8973C265.08 82.1845 264.856 82.4079 264.569 82.4079Z" fill="white"/>
<path d="M261.41 82.5678L260.485 82.6635C260.197 82.6635 259.942 82.4721 259.91 82.1849C259.878 81.8977 260.102 81.6424 260.357 81.6105L261.346 81.5148C261.633 81.4828 261.857 81.7062 261.889 81.9934C261.921 82.2806 261.729 82.5359 261.442 82.5678H261.41Z" fill="white"/>
<path d="M258.315 82.9504L257.39 83.1419H257.358C257.071 83.1738 256.815 83.0142 256.752 82.727C256.72 82.4398 256.911 82.1845 257.166 82.1207L258.124 81.9293C258.411 81.8974 258.666 82.0888 258.73 82.3441C258.794 82.6313 258.602 82.9185 258.315 82.9504Z" fill="white"/>
<path d="M255.22 83.6201L254.294 83.8434C254.007 83.9073 253.752 83.7477 253.656 83.4605C253.592 83.2052 253.752 82.918 254.039 82.8542L254.964 82.5989C255.252 82.5351 255.539 82.6947 255.603 82.9819C255.666 83.2371 255.507 83.5243 255.22 83.5882V83.6201Z" fill="white"/>
<path d="M252.188 84.4822L251.295 84.7693H251.263C251.008 84.8651 250.72 84.7055 250.625 84.4502C250.529 84.163 250.689 83.8759 250.944 83.7801L251.869 83.4929C252.156 83.3972 252.444 83.5567 252.507 83.812C252.603 84.0992 252.476 84.3864 252.188 84.4502V84.4822Z" fill="white"/>
<path d="M249.22 85.535L248.327 85.886C248.072 85.9818 247.753 85.8541 247.657 85.5988C247.561 85.3435 247.689 85.0244 247.944 84.9287L248.837 84.5777C249.093 84.482 249.412 84.6096 249.508 84.8649C249.603 85.1202 249.476 85.4074 249.22 85.535Z" fill="white"/>
<path d="M246.316 86.7799L245.455 87.1628C245.199 87.2904 244.88 87.1947 244.753 86.9394C244.625 86.6841 244.753 86.365 245.008 86.2374L245.87 85.8225C246.125 85.7268 246.444 85.8225 246.572 86.0778C246.667 86.3331 246.572 86.6522 246.316 86.7799Z" fill="white"/>
<path d="M243.476 88.1838L242.615 88.6306C242.36 88.7582 242.072 88.6625 241.945 88.4072C241.785 88.1519 241.881 87.8328 242.136 87.7052L242.998 87.2584C243.253 87.1308 243.54 87.2265 243.7 87.4818C243.827 87.7371 243.732 88.0243 243.476 88.1519V88.1838Z" fill="white"/>
<path d="M240.701 89.7156L239.871 90.1943C239.647 90.3219 239.328 90.2581 239.169 90.0028C239.041 89.7795 239.105 89.4604 239.36 89.3008L240.19 88.8221C240.413 88.6626 240.732 88.7583 240.892 89.0136C241.02 89.237 240.956 89.5561 240.701 89.7156Z" fill="white"/>
<path d="M237.988 91.3427L237.19 91.8532V91.8851C236.935 92.0128 236.647 91.949 236.488 91.7256C236.328 91.4703 236.392 91.1512 236.647 91.0236L237.445 90.4811C237.669 90.3534 237.988 90.4172 238.147 90.6406C238.307 90.8959 238.243 91.1831 237.988 91.3427Z" fill="white"/>
<path d="M235.339 93.0981L234.542 93.6406C234.318 93.8001 233.999 93.7363 233.84 93.5129C233.68 93.2896 233.744 92.9705 233.967 92.8109L234.765 92.2684C234.988 92.1089 235.307 92.1408 235.467 92.3961C235.627 92.6194 235.563 92.9385 235.339 93.0981Z" fill="white"/>
<path d="M232.755 94.9163L231.957 95.4907C231.733 95.6503 231.414 95.5865 231.255 95.3631C231.095 95.1397 231.127 94.8206 231.382 94.6611L232.148 94.0867C232.372 93.9271 232.691 93.9909 232.85 94.2143C233.01 94.4377 232.978 94.7568 232.755 94.9163Z" fill="white"/>
<path d="M230.17 96.7998L229.404 97.3742C229.18 97.5657 228.861 97.5018 228.702 97.2785C228.542 97.0551 228.574 96.736 228.798 96.5764L229.563 96.002C229.787 95.8106 230.106 95.8744 230.265 96.0978C230.457 96.3211 230.393 96.6403 230.17 96.7998Z" fill="white"/>
<path d="M227.649 98.7457L226.883 99.3201C226.659 99.5116 226.34 99.4478 226.181 99.2244C226.021 99.001 226.053 98.6819 226.277 98.5224L227.01 97.948C227.234 97.7565 227.553 97.7884 227.744 98.0118C227.904 98.2352 227.872 98.5543 227.649 98.7457Z" fill="white"/>
<path d="M225.128 100.692L224.394 101.299C224.171 101.458 223.852 101.426 223.66 101.203C223.501 100.98 223.533 100.66 223.756 100.501L224.522 99.8946C224.713 99.7351 225.032 99.767 225.224 99.9904C225.383 100.214 225.352 100.533 225.128 100.692Z" fill="white"/>
<path d="M222.639 102.671L221.905 103.277C221.682 103.437 221.362 103.405 221.171 103.213C221.011 102.99 221.043 102.671 221.267 102.479L222.001 101.905C222.224 101.714 222.543 101.745 222.735 101.969C222.894 102.192 222.862 102.511 222.639 102.671Z" fill="white"/>
<path d="M220.15 104.681L219.384 105.256C219.16 105.447 218.841 105.415 218.682 105.192C218.49 104.968 218.554 104.649 218.777 104.458L219.511 103.884C219.735 103.692 220.054 103.724 220.213 103.947C220.405 104.171 220.373 104.49 220.15 104.681Z" fill="white"/>
<path d="M217.629 106.659L216.895 107.234C216.672 107.425 216.353 107.361 216.161 107.138C216.002 106.947 216.034 106.628 216.257 106.436L217.023 105.862C217.214 105.67 217.533 105.734 217.725 105.926C217.884 106.149 217.852 106.468 217.629 106.659Z" fill="white"/>
<path d="M215.108 108.606L214.342 109.181C214.119 109.372 213.8 109.309 213.64 109.085C213.481 108.862 213.513 108.575 213.736 108.383L214.502 107.809C214.725 107.649 215.044 107.681 215.204 107.904C215.363 108.128 215.332 108.447 215.108 108.606Z" fill="white"/>
<path d="M212.555 110.553L211.79 111.096C211.566 111.287 211.247 111.224 211.088 111C210.928 110.777 210.96 110.458 211.183 110.298L211.949 109.724C212.172 109.564 212.492 109.596 212.651 109.819C212.843 110.043 212.779 110.362 212.555 110.553Z" fill="white"/>
<path d="M209.97 112.404L209.172 112.978C208.949 113.138 208.63 113.074 208.47 112.851C208.311 112.627 208.375 112.308 208.598 112.149L209.396 111.606C209.619 111.447 209.938 111.479 210.098 111.734C210.257 111.957 210.194 112.245 209.97 112.404Z" fill="white"/>
<path d="M207.322 114.254L206.524 114.765C206.301 114.924 205.981 114.861 205.822 114.637C205.662 114.414 205.726 114.095 205.981 113.935L206.779 113.393C207.003 113.233 207.322 113.297 207.481 113.552C207.609 113.776 207.545 114.095 207.322 114.254Z" fill="white"/>
<path d="M204.641 115.977L203.812 116.488C203.588 116.616 203.269 116.552 203.11 116.328C202.982 116.073 203.046 115.786 203.301 115.626L204.099 115.116C204.354 114.988 204.641 115.052 204.801 115.275C204.929 115.531 204.865 115.818 204.641 115.977Z" fill="white"/>
<path d="M201.865 117.605L201.035 118.084C200.78 118.212 200.493 118.148 200.365 117.892C200.237 117.669 200.301 117.35 200.557 117.222L201.386 116.744C201.61 116.616 201.929 116.712 202.056 116.935C202.184 117.19 202.12 117.478 201.865 117.605Z" fill="white"/>
<path d="M199.057 119.137L198.195 119.583C197.94 119.711 197.653 119.615 197.525 119.36C197.397 119.137 197.493 118.849 197.748 118.722L198.61 118.275C198.833 118.147 199.152 118.243 199.248 118.498C199.376 118.722 199.28 119.009 199.057 119.137Z" fill="white"/>
<path d="M196.153 120.573L195.291 120.956C195.036 121.084 194.749 120.956 194.653 120.733C194.526 120.477 194.653 120.19 194.877 120.094H194.909L195.77 119.68C195.993 119.584 196.281 119.68 196.408 119.903C196.504 120.158 196.408 120.445 196.153 120.573Z" fill="white"/>
<path d="M193.249 121.849L192.356 122.232C192.101 122.328 191.813 122.2 191.718 121.977C191.622 121.722 191.75 121.434 191.973 121.339L192.866 120.988C193.122 120.892 193.377 120.988 193.505 121.243C193.6 121.466 193.473 121.753 193.249 121.849Z" fill="white"/>
<path d="M190.25 123.062L189.356 123.381C189.101 123.477 188.846 123.349 188.75 123.094C188.654 122.871 188.782 122.583 189.037 122.488L189.931 122.169C190.154 122.073 190.441 122.2 190.537 122.456C190.633 122.679 190.505 122.966 190.25 123.062Z" fill="white"/>
<path d="M187.218 124.115L186.325 124.434C186.069 124.498 185.814 124.37 185.718 124.115C185.655 123.891 185.782 123.604 186.038 123.54L186.931 123.221C187.186 123.158 187.442 123.285 187.537 123.54C187.601 123.764 187.473 124.051 187.218 124.115Z" fill="white"/>
<path d="M184.155 125.073L183.229 125.36C183.006 125.424 182.751 125.264 182.687 125.041C182.591 124.786 182.751 124.53 183.006 124.466L183.899 124.179C184.155 124.115 184.41 124.275 184.474 124.498C184.57 124.754 184.41 125.009 184.155 125.073Z" fill="white"/>
<path d="M181.091 125.934L180.134 126.157C179.91 126.221 179.655 126.062 179.591 125.838C179.528 125.583 179.687 125.328 179.91 125.264H179.942L180.836 125.041H180.868C181.091 124.977 181.346 125.136 181.41 125.36C181.474 125.615 181.314 125.87 181.091 125.934Z" fill="white"/>
<path d="M177.964 126.668L177.007 126.86C176.783 126.892 176.528 126.732 176.464 126.509C176.432 126.253 176.592 126.03 176.815 125.966L177.772 125.775C177.996 125.711 178.251 125.871 178.315 126.126C178.347 126.349 178.187 126.604 177.964 126.668Z" fill="white"/>
<path d="M174.805 127.275L173.848 127.434C173.624 127.466 173.401 127.306 173.337 127.083C173.305 126.828 173.465 126.604 173.72 126.572V126.541L174.645 126.381C174.901 126.349 175.124 126.509 175.156 126.764C175.22 126.987 175.06 127.243 174.805 127.275Z" fill="white"/>
<path d="M171.646 127.785L170.688 127.913C170.433 127.945 170.21 127.753 170.178 127.53C170.146 127.275 170.337 127.051 170.561 127.019L171.518 126.892C171.773 126.86 171.965 127.019 172.029 127.275C172.061 127.53 171.869 127.721 171.646 127.785Z" fill="white"/>
<path d="M168.455 128.167L167.497 128.263C167.242 128.263 167.051 128.104 167.019 127.848C166.987 127.625 167.178 127.402 167.402 127.402L168.359 127.306C168.614 127.274 168.806 127.433 168.838 127.689C168.869 127.912 168.678 128.135 168.455 128.167Z" fill="white"/>
<path d="M165.264 128.423L164.306 128.487C164.051 128.487 163.86 128.327 163.828 128.104C163.828 127.849 164.019 127.657 164.242 127.625L165.2 127.562C165.423 127.562 165.647 127.721 165.647 127.976C165.678 128.2 165.487 128.423 165.264 128.423Z" fill="white"/>
<path d="M162.041 128.582L161.083 128.614C160.86 128.614 160.669 128.423 160.669 128.199C160.637 127.976 160.828 127.784 161.083 127.753H162.009H162.041C162.264 127.721 162.456 127.912 162.456 128.135C162.487 128.391 162.296 128.582 162.041 128.582Z" fill="white"/>
<path d="M158.85 128.615H157.892C157.669 128.615 157.478 128.423 157.478 128.2C157.478 127.977 157.669 127.785 157.892 127.785H158.85C159.073 127.785 159.265 127.977 159.265 128.2C159.265 128.455 159.073 128.647 158.85 128.615Z" fill="white"/>
<path d="M155.627 128.551L154.67 128.519C154.446 128.519 154.287 128.328 154.287 128.072C154.287 127.849 154.478 127.689 154.701 127.689H154.733L155.659 127.721H155.691C155.914 127.753 156.074 127.945 156.074 128.168C156.074 128.391 155.882 128.583 155.627 128.551Z" fill="white"/>
<path d="M152.435 128.359L151.478 128.295C151.255 128.263 151.095 128.072 151.095 127.848C151.127 127.625 151.319 127.465 151.542 127.497L152.499 127.561C152.723 127.593 152.882 127.784 152.882 128.008C152.85 128.231 152.659 128.391 152.435 128.359Z" fill="white"/>
<path d="M149.245 128.071L148.287 127.944C148.064 127.944 147.904 127.72 147.936 127.529C147.968 127.306 148.16 127.146 148.383 127.178L149.34 127.274C149.564 127.306 149.723 127.497 149.691 127.72C149.659 127.944 149.468 128.103 149.245 128.071Z" fill="white"/>
<path d="M146.053 127.657L145.128 127.497C144.905 127.466 144.745 127.274 144.777 127.051C144.809 126.859 145.032 126.7 145.224 126.732L146.181 126.859C146.404 126.891 146.564 127.115 146.532 127.338C146.5 127.529 146.277 127.689 146.053 127.657Z" fill="white"/>
<path d="M142.894 127.115L141.969 126.955C141.746 126.891 141.618 126.7 141.65 126.476C141.682 126.285 141.905 126.125 142.097 126.189L143.054 126.349C143.245 126.412 143.405 126.604 143.373 126.827C143.309 127.019 143.118 127.178 142.894 127.115Z" fill="white"/>
<path d="M139.767 126.477L138.842 126.253C138.618 126.221 138.491 125.998 138.555 125.807C138.586 125.583 138.778 125.456 139.001 125.519L139.927 125.743C140.15 125.775 140.278 125.998 140.214 126.189C140.182 126.381 139.959 126.54 139.767 126.477Z" fill="white"/>
<path d="M136.64 125.71L135.714 125.455C135.523 125.423 135.395 125.2 135.459 125.008C135.523 124.817 135.714 124.689 135.906 124.753L136.831 124.976C137.055 125.04 137.15 125.232 137.118 125.455C137.055 125.646 136.863 125.774 136.64 125.71Z" fill="white"/>
<path d="M133.576 124.817L132.651 124.53C132.459 124.498 132.364 124.274 132.427 124.083C132.491 123.891 132.683 123.796 132.874 123.86L133.768 124.147H133.8C133.991 124.179 134.087 124.402 134.023 124.593C133.959 124.785 133.768 124.881 133.576 124.817Z" fill="white"/>
<path d="M130.513 123.828L129.62 123.509C129.428 123.445 129.332 123.254 129.396 123.062C129.46 122.871 129.683 122.775 129.843 122.839H129.875L130.768 123.158C130.96 123.222 131.056 123.445 130.992 123.605C130.928 123.796 130.704 123.892 130.545 123.828H130.513Z" fill="white"/>
<path d="M127.514 122.711L126.62 122.36C126.461 122.297 126.365 122.105 126.429 121.914C126.524 121.754 126.716 121.658 126.875 121.722L127.769 122.073C127.96 122.169 128.024 122.36 127.96 122.52C127.897 122.711 127.705 122.807 127.514 122.711Z" fill="white"/>
<path d="M124.578 121.498L123.684 121.115C123.525 121.019 123.461 120.828 123.525 120.668C123.589 120.509 123.78 120.413 123.94 120.509H123.972L124.833 120.892C124.993 120.956 125.089 121.147 124.993 121.339C124.929 121.498 124.738 121.562 124.578 121.498Z" fill="white"/>
<path d="M121.674 120.158L120.812 119.711C120.653 119.648 120.589 119.456 120.653 119.297C120.717 119.137 120.908 119.073 121.068 119.169L121.929 119.584C122.089 119.648 122.153 119.839 122.089 119.999C122.025 120.158 121.834 120.222 121.674 120.158Z" fill="white"/>
<path d="M118.802 118.69L117.972 118.244C117.812 118.148 117.749 117.957 117.844 117.829C117.908 117.669 118.1 117.605 118.259 117.701L119.089 118.148C119.248 118.244 119.312 118.403 119.216 118.563C119.153 118.722 118.961 118.786 118.802 118.69Z" fill="white"/>
<path d="M116.026 117.127L115.196 116.616C115.068 116.52 115.005 116.361 115.1 116.201C115.196 116.074 115.356 116.01 115.515 116.106L116.313 116.616C116.472 116.68 116.504 116.872 116.441 117.031C116.345 117.159 116.153 117.191 116.026 117.127Z" fill="white"/>
<path d="M113.313 115.403L112.515 114.829C112.388 114.733 112.356 114.574 112.452 114.446C112.547 114.318 112.707 114.286 112.866 114.35V114.382L113.632 114.925C113.76 115.02 113.792 115.18 113.728 115.308C113.632 115.435 113.441 115.467 113.313 115.403Z" fill="white"/>
<path d="M110.729 113.457L109.995 112.85C109.867 112.755 109.867 112.563 109.963 112.467C110.059 112.34 110.218 112.34 110.346 112.435L111.08 113.042C111.207 113.137 111.239 113.297 111.143 113.425C111.048 113.552 110.856 113.552 110.729 113.457Z" fill="white"/>
<path d="M108.335 111.319L107.665 110.617C107.569 110.521 107.569 110.33 107.665 110.234C107.793 110.138 107.952 110.138 108.048 110.234V110.266L108.718 110.936C108.846 111.032 108.814 111.223 108.718 111.319C108.622 111.415 108.463 111.415 108.335 111.319Z" fill="white"/>
<path d="M106.229 108.894L105.654 108.128C105.559 108 105.591 107.841 105.686 107.745C105.814 107.681 105.974 107.713 106.037 107.809H106.069L106.612 108.575C106.708 108.702 106.676 108.862 106.58 108.958C106.452 109.022 106.293 109.022 106.229 108.894Z" fill="white"/>
<path d="M104.442 106.181L103.995 105.319C103.931 105.224 103.995 105.064 104.123 105C104.219 104.936 104.378 105 104.442 105.096V105.128L104.889 105.958C104.953 106.085 104.889 106.245 104.793 106.309C104.665 106.372 104.506 106.309 104.442 106.181Z" fill="white"/>
<path d="M103.166 103.246L102.879 102.288C102.847 102.193 102.911 102.033 103.038 102.001C103.166 101.969 103.294 102.033 103.325 102.161V102.193L103.613 103.086C103.645 103.214 103.581 103.342 103.453 103.405C103.325 103.437 103.198 103.373 103.166 103.246Z" fill="white"/>
<path d="M102.463 100.086L102.368 99.0967C102.368 99.001 102.463 98.8734 102.591 98.8734C102.719 98.8415 102.814 98.9372 102.814 99.0648V99.0967L102.91 100.022C102.91 100.15 102.846 100.277 102.719 100.277C102.591 100.277 102.463 100.214 102.463 100.086Z" fill="white"/>
<path d="M102.4 96.8314L102.496 95.8741C102.528 95.7783 102.623 95.6826 102.751 95.6826C102.847 95.7145 102.942 95.8103 102.91 95.9379L102.847 96.8633V96.8952C102.815 96.9909 102.719 97.0867 102.591 97.0867C102.496 97.0548 102.4 96.959 102.4 96.8633V96.8314Z" fill="white"/>
<path d="M102.942 93.6727L103.198 92.7473C103.23 92.6515 103.357 92.5877 103.453 92.6196C103.549 92.6515 103.613 92.7473 103.581 92.843L103.325 93.7684C103.293 93.8641 103.198 93.928 103.07 93.8961C102.974 93.8961 102.91 93.7684 102.942 93.6727Z" fill="white"/>
<path d="M103.995 90.6409L104.41 89.7474C104.442 89.6517 104.57 89.6198 104.634 89.6836C104.729 89.7155 104.761 89.8112 104.729 89.907L104.314 90.7686C104.283 90.8643 104.187 90.8962 104.091 90.8643C103.995 90.8324 103.963 90.7047 103.995 90.6409Z" fill="white"/>
<path d="M105.527 87.8009L106.069 87.0031C106.101 86.9393 106.197 86.9074 106.293 86.9393C106.357 87.0031 106.357 87.0988 106.325 87.1626L105.782 87.9604C105.75 88.0561 105.655 88.0561 105.559 88.0242C105.495 87.9604 105.463 87.8647 105.527 87.8009Z" fill="white"/>
<path d="M107.442 85.2474L108.112 84.5134C108.176 84.4815 108.24 84.4496 108.303 84.5134C108.367 84.5772 108.367 84.673 108.335 84.7049H108.303L107.665 85.4388C107.633 85.5026 107.538 85.5026 107.474 85.4388C107.41 85.375 107.41 85.2793 107.442 85.2474Z" fill="white"/>
<path d="M109.771 83.014L110.537 82.4077C110.569 82.3758 110.665 82.3758 110.697 82.4396C110.728 82.4715 110.728 82.5672 110.665 82.5991L109.931 83.2054C109.867 83.2374 109.803 83.2374 109.739 83.1735C109.707 83.1416 109.707 83.0459 109.771 83.014Z" fill="white"/>
<path d="M112.42 81.1953L113.249 80.7166C113.313 80.6847 113.377 80.7166 113.409 80.7804C113.441 80.8124 113.409 80.8762 113.345 80.9081L112.515 81.3867C112.452 81.4187 112.388 81.3867 112.356 81.3229C112.324 81.291 112.356 81.2272 112.42 81.1953Z" fill="white"/>
<path d="M115.324 79.8544C115.643 79.7587 115.93 79.631 116.249 79.5672C116.281 79.5353 116.345 79.5672 116.345 79.631C116.377 79.6629 116.345 79.7268 116.281 79.7268C115.994 79.8225 115.675 79.9182 115.387 80.014C115.324 80.0459 115.292 80.014 115.26 79.982C115.26 79.9182 115.26 79.8544 115.324 79.8544Z" fill="white"/>
<path d="M118.419 79.0573L119.376 78.9297C119.408 78.9297 119.472 78.9616 119.472 78.9935C119.472 79.0254 119.44 79.0892 119.408 79.0892L118.451 79.2169C118.419 79.2169 118.355 79.185 118.355 79.1531C118.355 79.1212 118.387 79.0573 118.419 79.0573Z" fill="white"/>
<path d="M121.61 78.8018L122.568 78.8337C122.599 78.8337 122.631 78.8656 122.631 78.8975C122.631 78.9294 122.599 78.9613 122.568 78.9613L121.61 78.9294C121.578 78.9294 121.546 78.8975 121.546 78.8656C121.546 78.8337 121.578 78.8018 121.61 78.8018Z" fill="white"/>
<path d="M124.801 79.0576L125.758 79.2172C125.78 79.2384 125.79 79.2597 125.79 79.281C125.769 79.3023 125.748 79.3129 125.727 79.3129L124.801 79.1533C124.769 79.1533 124.737 79.1214 124.737 79.0895C124.769 79.0576 124.769 79.0576 124.801 79.0576Z" fill="white"/>
<path d="M127.928 79.7598L128.822 80.0789C128.843 80.0789 128.854 80.0895 128.854 80.1108C128.832 80.1108 128.822 80.1108 128.822 80.1108L127.896 79.8236C127.875 79.8236 127.875 79.8129 127.896 79.7917C127.896 79.7704 127.907 79.7598 127.928 79.7598Z" fill="white"/>
<path d="M130.896 80.9082L131.758 81.323C131.758 81.3443 131.758 81.355 131.758 81.355L130.896 80.9401C130.896 80.9401 130.896 80.9295 130.896 80.9082Z" fill="white"/>
<path d="M230.71 68.3546L109.311 61.3347C106.519 61.1951 104 64.2464 104 66.8057V223.131C104 226.681 107.63 227.399 110.428 227.113L230.71 214.828C232.904 214.602 234.679 212.595 234.679 210.334V72.6356C234.679 70.3755 232.904 68.4609 230.71 68.3546Z" fill="url(#paint3_linear_950_69581)"/>
<path d="M232.704 67.1119L111.066 61.129C108.274 60.9894 105.994 62.9704 105.994 65.5563V223.098C105.994 225.677 108.274 227.539 111.066 227.253L232.704 214.729C234.905 214.503 236.68 212.475 236.68 210.202V71.4262C236.68 69.1527 234.905 67.2249 232.704 67.1119Z" fill="#D8DEE8"/>
<path style="mix-blend-mode:multiply" opacity="0.3" d="M111.066 225.112C109.564 225.265 108.334 224.254 108.334 222.865V65.6623C108.334 64.2663 109.564 63.196 111.066 63.2692L232.704 69.0127C233.894 69.0659 234.858 70.1162 234.858 71.346V210.381C234.858 211.611 233.894 212.714 232.704 212.834L111.066 225.112Z" fill="url(#paint4_linear_950_69581)"/>
<path d="M224.867 209.104L120.832 219.128V74.0908L224.867 78.0063V209.104Z" fill="white"/>
<g style="mix-blend-mode:multiply" opacity="0.3">
<path d="M183.252 78.7184L141.678 79.2369L142.609 69.8638C142.682 68.6406 143.559 67.6435 144.716 67.464L151.763 66.3804C152.587 66.2541 153.305 65.709 153.664 64.918L154.428 63.2627L172.849 64.3994L183.252 78.7184Z" fill="#97A6B7"/>
</g>
<path fill-rule="evenodd" clip-rule="evenodd" d="M207.024 81.0584C207.151 81.7431 206.566 82.4345 205.874 82.4079L142.669 80.3073C141.884 80.2807 141.446 79.5095 141.805 78.7982L146.192 70.0832C146.744 68.993 147.914 68.295 149.11 68.3482L156.396 68.6806C159.64 68.8202 162.691 66.54 163.502 63.3824L165.377 56.0833C165.723 54.7405 167.019 53.7833 168.382 53.863L170.635 53.996C171.812 54.0691 173.015 53.4642 173.7 52.3607C173.946 51.9685 174.092 51.5297 174.159 51.0843C174.604 48.0796 177.369 45.8128 180.341 46.0122C183.286 46.2116 185.313 48.771 184.908 51.7358C184.675 53.4376 185.779 54.9001 187.447 54.9998L189.628 55.1327C190.937 55.2125 191.881 56.2761 191.835 57.6057L191.582 64.7984C191.469 67.8962 193.683 70.3491 196.694 70.4821L203.342 70.7812C204.412 70.8278 205.263 71.5723 205.456 72.6359L207.024 81.0584ZM181.245 50.7453C181.371 49.8745 180.773 49.1166 179.902 49.0568C179.031 49.0036 178.227 49.6684 178.101 50.5459C177.974 51.43 178.579 52.1878 179.443 52.241C180.314 52.2942 181.119 51.6228 181.245 50.7453Z" fill="url(#paint5_linear_950_69581)"/>
<path fill-rule="evenodd" clip-rule="evenodd" d="M207.397 81.2508C207.523 81.9355 206.938 82.6269 206.247 82.6003L143.041 80.5063C142.264 80.4797 141.818 79.7086 142.177 78.9906L146.571 70.2756C147.116 69.1854 148.293 68.4941 149.483 68.5472L156.769 68.873C160.013 69.0192 163.071 66.7391 163.882 63.5815L165.75 56.2824C166.095 54.9329 167.392 53.9757 168.754 54.0554L171.008 54.195C172.185 54.2615 173.388 53.6566 174.073 52.5597C174.318 52.1609 174.471 51.7221 174.538 51.2767C174.977 48.272 177.749 46.0052 180.713 46.2113C183.658 46.4107 185.693 48.97 185.28 51.9348C185.048 53.63 186.158 55.0991 187.82 55.1988L190.007 55.3251C191.31 55.4049 192.26 56.4685 192.214 57.798L191.955 64.9908C191.842 68.0952 194.055 70.5415 197.073 70.6811L203.714 70.9736C204.784 71.0268 205.635 71.7713 205.835 72.8283L207.397 81.2508ZM181.618 50.9444C181.744 50.0669 181.139 49.309 180.275 49.2559C179.404 49.196 178.593 49.8608 178.467 50.7449C178.34 51.6224 178.945 52.3802 179.816 52.4334C180.687 52.4866 181.491 51.8218 181.618 50.9444Z" fill="#97A6B7"/>
<g style="mix-blend-mode:soft-light" opacity="0.5">
<path d="M195.019 76.8367C189.375 73.3534 185.054 75.8197 181.538 71.8976C177.775 67.6963 180.315 62.1655 176.426 59.5529C173.933 57.8777 171.706 59.3535 168.808 58.9015C167.751 58.7353 166.614 58.3165 165.437 57.4922L163.882 63.5814C163.071 66.739 160.013 69.0192 156.769 68.8729L149.483 68.5472C148.293 68.494 147.116 69.1853 146.571 70.2756L142.177 78.9906C141.818 79.7085 142.264 80.4796 143.041 80.5062L200.483 82.4141C199.034 80.114 197.239 78.2062 195.019 76.8367Z" fill="white"/>
</g>
<path d="M214.649 98.747L133.442 98.4545V94.5059L214.649 95.0377V98.747Z" fill="#D8DEE8"/>
<path d="M214.649 122.613L133.442 123.836V119.887L214.649 118.896V122.613Z" fill="#D8DEE8"/>
<path d="M214.649 132.95L133.442 134.831V130.882L214.649 129.24V132.95Z" fill="#D8DEE8"/>
<path d="M214.649 143.293L133.442 145.826V141.884L214.649 139.577V143.293Z" fill="#D8DEE8"/>
<path d="M214.649 153.364L133.442 156.542V152.879L214.649 149.921V153.364Z" fill="#D8DEE8"/>
<path d="M214.649 163.708L133.442 167.544V163.874L214.649 160.258V163.708Z" fill="#D8DEE8"/>
<path d="M168.82 192.804L133.442 195.177V194.047L168.82 191.707V192.804Z" fill="#D8DEE8"/>
<path d="M214.649 174.312L194.939 175.402V172.437L214.649 171.394V174.312Z" fill="#D8DEE8"/>
<path d="M214.649 182.002L194.939 183.206V180.247L214.649 179.084V182.002Z" fill="#D8DEE8"/>
<path d="M214.649 189.687L194.939 191.01V187.786L214.649 186.51V189.687Z" fill="#D8DEE8"/>
<path d="M140.675 196.879C140.675 196.879 141.06 196.208 141.758 195.044C142.111 194.466 142.536 193.768 143.041 192.97C143.54 192.173 144.111 191.282 144.75 190.325C145.394 189.367 146.099 188.33 146.91 187.287C147.322 186.762 147.754 186.236 148.26 185.731C148.386 185.605 148.526 185.485 148.672 185.366C148.825 185.246 148.978 185.126 149.19 185.033C149.297 184.987 149.423 184.947 149.582 184.947C149.662 184.947 149.749 184.96 149.835 185C149.922 185.033 150.001 185.086 150.061 185.153C150.3 185.425 150.3 185.711 150.34 185.851C150.467 186.582 150.526 187.333 150.5 188.111C150.493 188.497 150.46 188.882 150.4 189.281C150.334 189.673 150.247 190.072 150.094 190.478C150.008 190.684 149.915 190.89 149.755 191.102C149.669 191.209 149.569 191.315 149.423 191.402C149.283 191.495 149.084 191.541 148.911 191.515C148.738 191.495 148.592 191.408 148.499 191.335L148.472 191.315L148.439 191.282C148.412 191.262 148.393 191.242 148.373 191.215C148.328 191.176 148.284 191.129 148.24 191.076C148.16 190.969 148.087 190.837 148.047 190.677C148 190.511 148 190.331 148.034 190.172C148.1 189.853 148.253 189.633 148.393 189.447C148.539 189.268 148.698 189.115 148.858 188.982C149.177 188.716 149.503 188.51 149.842 188.317C150.506 187.945 151.198 187.666 151.902 187.44C152.6 187.227 153.312 187.067 154.056 187.041C154.422 187.034 154.808 187.054 155.206 187.214C155.399 187.293 155.612 187.426 155.771 187.646C155.789 187.677 155.807 187.708 155.825 187.739C155.845 187.765 155.864 187.799 155.871 187.812L155.931 187.932L156.051 188.171C156.21 188.49 156.356 188.796 156.516 189.075C156.675 189.347 156.848 189.593 157.041 189.76C157.234 189.926 157.447 190.006 157.693 190.026C157.939 190.032 158.204 189.979 158.47 189.879C159.009 189.68 159.534 189.354 160.033 189.002C160.544 188.643 161.043 188.297 161.535 187.965C161.781 187.799 162.027 187.639 162.286 187.493C162.539 187.347 162.805 187.207 163.097 187.114C163.396 187.014 163.715 186.994 163.988 187.021C164.26 187.041 164.5 187.094 164.726 187.134C164.841 187.156 164.954 187.176 165.065 187.194C165.171 187.214 165.291 187.24 165.351 187.24C165.51 187.253 165.65 187.227 165.756 187.16C165.862 187.094 165.949 186.988 166.015 186.861C166.082 186.728 166.122 186.569 166.142 186.416C166.182 186.097 166.135 185.791 166.042 185.545C165.956 185.292 165.816 185.106 165.676 184.973C165.537 184.834 165.384 184.761 165.251 184.714C165.125 184.668 165.012 184.654 164.938 184.641C164.865 184.634 164.825 184.634 164.825 184.634C164.732 184.634 164.666 184.548 164.673 184.448C164.679 184.362 164.746 184.289 164.819 184.269C164.819 184.269 164.865 184.262 164.952 184.249C165.045 184.235 165.184 184.222 165.364 184.249C165.543 184.269 165.763 184.335 165.995 184.488C166.221 184.634 166.447 184.88 166.614 185.213C166.773 185.545 166.88 185.957 166.853 186.442C166.84 186.682 166.793 186.941 166.68 187.2C166.567 187.46 166.374 187.725 166.108 187.892C165.849 188.064 165.543 188.124 165.264 188.111C165.105 188.104 165.012 188.078 164.892 188.064C164.781 188.042 164.668 188.02 164.553 187.998C164.327 187.958 164.101 187.912 163.888 187.898C163.669 187.878 163.483 187.892 163.277 187.958C162.864 188.098 162.392 188.404 161.92 188.716C161.442 189.042 160.95 189.387 160.438 189.753C159.913 190.119 159.348 190.484 158.69 190.73C158.357 190.856 157.992 190.943 157.606 190.93C157.413 190.916 157.214 190.876 157.028 190.803C156.835 190.73 156.662 190.617 156.509 190.491C156.21 190.232 155.991 189.913 155.805 189.593C155.625 189.274 155.472 188.955 155.313 188.643L155.2 188.417L155.14 188.297C155.127 188.277 155.12 188.271 155.12 188.264C155.116 188.255 155.111 188.246 155.107 188.237C155.06 188.177 154.98 188.118 154.867 188.071C154.641 187.978 154.336 187.951 154.03 187.958C153.398 187.985 152.733 188.131 152.089 188.33C151.437 188.536 150.792 188.809 150.194 189.141C149.888 189.308 149.602 189.5 149.35 189.706C149.223 189.813 149.104 189.926 149.017 190.032C148.924 190.145 148.865 190.258 148.858 190.318C148.851 190.345 148.851 190.358 148.858 190.378C148.865 190.398 148.871 190.424 148.898 190.464C148.911 190.482 148.929 190.5 148.951 190.517L148.978 190.544L148.991 190.557L149.017 190.577C149.057 190.611 149.071 190.604 149.071 190.611C149.064 190.604 149.044 190.617 149.057 190.611C149.071 190.604 149.097 190.577 149.13 190.531C149.204 190.444 149.27 190.311 149.33 190.165C149.45 189.866 149.529 189.52 149.582 189.175C149.642 188.829 149.669 188.477 149.682 188.131C149.709 187.426 149.656 186.728 149.543 186.07L149.523 185.944L149.516 185.911L149.509 185.891C149.509 185.877 149.503 185.864 149.503 185.857C149.489 185.811 149.476 185.791 149.483 185.804C149.496 185.818 149.536 185.831 149.529 185.831C149.529 185.824 149.489 185.831 149.45 185.851C149.356 185.891 149.237 185.97 149.117 186.064C149.004 186.157 148.884 186.256 148.771 186.369C148.319 186.815 147.901 187.32 147.502 187.825C146.704 188.836 145.993 189.839 145.348 190.783C144.052 192.671 143.035 194.293 142.317 195.43C141.599 196.567 141.206 197.225 141.206 197.225C141.107 197.391 140.907 197.451 140.761 197.351C140.615 197.251 140.575 197.045 140.675 196.879Z" fill="#97A6B7"/>
<path d="M212.715 219.675C212.715 219.675 213.167 221.523 213.18 222.188C213.194 222.859 205.835 223.79 205.722 223.298C205.609 222.806 206.838 221.908 207.729 221.556C208.62 221.204 211.226 220.24 211.226 220.24L212.715 219.675Z" fill="url(#paint6_linear_950_69581)"/>
<path d="M210.767 217.952L211.193 220.258C211.193 220.258 212.097 220.757 212.815 220.258L212.994 217.692L210.767 217.952Z" fill="url(#paint7_linear_950_69581)"/>
<path d="M226.136 221.648C226.136 221.648 226.595 223.496 226.608 224.168C226.622 224.833 219.263 225.763 219.15 225.271C219.03 224.779 220.266 223.882 221.157 223.53C222.041 223.177 224.654 222.213 224.654 222.213L226.136 221.648Z" fill="url(#paint8_linear_950_69581)"/>
<path d="M224.195 219.927L224.621 222.234C224.621 222.234 225.525 222.733 226.243 222.234L226.416 219.675L224.195 219.927Z" fill="url(#paint9_linear_950_69581)"/>
<path d="M207.244 157.107C206.526 158.906 205.81 160.708 205.097 162.511C205.203 172.443 205.722 183.219 206.865 194.692C207.709 203.228 208.813 211.291 210.082 218.843C211.235 218.697 212.389 218.551 213.546 218.404C214.948 214.948 216.524 209.756 216.211 203.52C215.879 197.026 213.845 196.321 213.473 190.105C212.987 182.042 216.192 179.629 217.209 169.804C217.601 166.048 217.681 161.175 216.657 155.358C213.519 155.943 210.382 156.526 207.244 157.107Z" fill="url(#paint10_linear_950_69581)"/>
<path style="mix-blend-mode:multiply" opacity="0.3" d="M216.657 155.358C214.964 155.673 213.269 155.988 211.571 156.302C208.926 161.906 208.513 167.543 209.251 169.97C210.295 173.393 212.402 174.351 212.575 177.861C212.741 181.331 210.774 182.394 209.803 186.582C209.132 189.481 209.577 192.06 210.494 197.105C212.343 207.263 215.068 210.195 213.267 213.718C212.755 214.722 211.784 215.938 209.777 216.975C209.876 217.6 209.976 218.225 210.082 218.843C211.235 218.697 212.389 218.551 213.546 218.404C214.948 214.948 216.524 209.756 216.211 203.52C215.879 197.026 213.845 196.321 213.473 190.105C212.987 182.042 216.191 179.629 217.209 169.804C217.601 166.048 217.681 161.175 216.657 155.358Z" fill="url(#paint11_linear_950_69581)"/>
<path d="M212.09 159.859C214.39 168.474 216.558 177.714 218.459 187.553C220.752 199.426 222.368 210.667 223.491 221.13C224.763 221.064 226.037 220.997 227.313 220.931C231.528 210.62 231.295 203.879 230.218 199.565C229.806 197.903 228.789 194.659 228.217 189.733C227.825 186.297 227.832 183.657 227.852 180.487C227.905 173.533 228.51 171.971 228.191 166.679C227.898 161.714 227.712 159.201 226.183 157.851C222.142 154.295 212.795 159.46 212.09 159.859Z" fill="url(#paint12_linear_950_69581)"/>
<path d="M175.102 139.842C175.102 139.842 172.304 139.603 171.898 139.151C171.493 138.699 171.227 138.672 171.167 138.26C171.107 137.842 169.931 138.041 170.422 138.945C170.908 139.849 169.804 139.37 169.585 139.351C169.086 139.304 167.185 139.244 167.238 139.364C167.291 139.483 166.387 140.667 167.737 141.278C168.92 141.817 168.574 141.577 169.346 141.617C170.11 141.651 172.496 140.873 172.496 140.873L174.537 141.032L175.102 139.842Z" fill="url(#paint13_linear_950_69581)"/>
<path d="M173.461 138.541C173.337 139.471 173.212 140.404 173.088 141.339C174.943 142.881 179.045 145.846 184.742 146.292C194.793 147.076 204.764 139.637 206.619 131.268C207.536 127.127 206.785 121.31 204.213 120.379C203.501 120.12 202.424 120.153 200.211 121.642C194.301 125.611 193.796 130.823 190.532 134.353C188.185 136.885 183.565 139.458 173.461 138.541Z" fill="url(#paint14_linear_950_69581)"/>
<path d="M204.266 164.359C202.89 162.438 204.259 160.364 204.299 156.508C204.345 152.141 202.617 151.549 200.39 144.489C198.908 139.796 197.485 135.289 198.309 129.818C198.708 127.192 199.386 122.738 202.83 120.339C204.611 119.102 207.164 119.009 212.203 118.87C218.438 118.697 221.549 118.61 223.963 119.641C224.315 119.794 231.667 123.058 232.651 129.26C233.655 135.575 226.801 136.984 226.555 145.526C226.449 149.369 227.652 155.159 228.436 158.915C229.188 162.518 229.58 163.429 228.948 164.585C227.433 167.384 222.068 167.051 211.332 166.387C207.124 166.127 205.296 165.795 204.266 164.359Z" fill="url(#paint15_linear_950_69581)"/>
<path style="mix-blend-mode:multiply" opacity="0.3" d="M218.943 144.769C219.522 146.384 221.237 147.488 222.679 151.417C222.992 152.261 225.212 158.297 223.098 159.999C221.875 160.983 220.579 159.407 217.421 159.447C211.95 159.507 209.723 164.286 206.067 163.322C205.429 163.156 204.578 162.757 203.681 161.76C203.594 162.731 203.694 163.562 204.266 164.36C205.296 165.795 207.124 166.128 211.332 166.387C222.068 167.052 227.432 167.384 228.948 164.586C229.58 163.429 229.187 162.518 228.436 158.915C227.652 155.159 226.449 149.369 226.555 145.527C226.801 136.985 233.655 135.575 232.651 129.26C232.378 127.572 231.634 126.109 230.696 124.859C222.201 129.114 217.115 139.69 218.943 144.769Z" fill="url(#paint16_linear_950_69581)"/>
<path d="M236.201 164.287C236.201 164.287 237.91 164.865 238.089 167.697C237.81 167.671 237.158 167.684 237.158 167.684C237.158 167.684 237.278 165.63 236.062 165.211C236.161 164.972 236.201 164.287 236.201 164.287Z" fill="url(#paint17_linear_950_69581)"/>
<path d="M229.859 164.022C229.903 164.54 229.948 165.061 229.992 165.584C230.849 165.365 231.787 165.105 232.79 165.072C234.1 165.026 235.29 165.185 236.347 165.451C236.393 165.385 236.493 165.232 236.54 164.972C236.613 164.567 236.487 164.221 236.467 164.161C235.928 163.962 235.343 163.796 234.718 163.676C232.91 163.337 231.275 163.616 229.859 164.022Z" fill="url(#paint18_linear_950_69581)"/>
<path d="M229.779 164.473C229.779 164.281 229.793 164.048 229.859 164.021C229.919 163.995 229.999 164.168 230.039 164.261C230.052 164.3 230.085 164.4 230.105 164.699C230.132 165.092 230.098 165.284 230.072 165.404C230.052 165.477 230.025 165.583 229.992 165.583C229.959 165.583 229.932 165.517 229.892 165.384C229.839 165.205 229.773 164.905 229.779 164.473Z" fill="url(#paint19_linear_950_69581)"/>
<path d="M228.184 167.744C228.55 167.817 229.427 168.023 229.427 168.023C229.427 168.023 228.855 166.188 229.939 165.357C229.966 165.218 229.992 164.998 229.959 164.739C229.932 164.533 229.879 164.367 229.833 164.254C229.374 164.507 228.37 165.357 228.184 167.744Z" fill="url(#paint20_linear_950_69581)"/>
<path d="M220.605 168.149C220.605 168.149 220.652 167.179 222.194 167.199C222.434 167.378 222.447 168.169 222.447 168.169L220.605 168.149Z" fill="url(#paint21_linear_950_69581)"/>
<path d="M219.236 187.295L223.451 189.781L225.984 180.388L221.802 167.811L220.606 168.15L218.791 186.304C218.744 186.716 218.924 187.109 219.236 187.295Z" fill="url(#paint22_linear_950_69581)"/>
<path style="mix-blend-mode:multiply" opacity="0.3" d="M225.983 180.388L221.802 167.811L220.605 168.15C220.905 169.266 221.044 171.081 221.111 172.092C221.39 176.386 222.327 177.576 221.875 180.574C221.496 183.067 220.672 183.412 220.745 185.088C220.825 186.909 221.882 188.425 223.145 189.601L223.451 189.781L225.983 180.388Z" fill="url(#paint23_linear_950_69581)"/>
<path d="M221.802 167.811L244.231 168.05L247.641 187.361L223.45 189.781L221.802 167.811Z" fill="url(#paint24_linear_950_69581)"/>
<g style="mix-blend-mode:multiply" opacity="0.2">
<path d="M244.231 168.049L236.826 167.97C236.693 168.369 236.48 168.92 236.174 169.545C232.804 176.386 224.98 177.27 225.126 178.413C225.339 180.115 242.523 177.649 242.948 179.935C243.154 181.032 239.598 183.585 235.849 184.582C231.302 185.792 227.925 184.376 225.665 187.022C224.893 187.919 224.554 188.97 224.388 189.674L247.642 187.361L244.231 168.049Z" fill="url(#paint25_linear_950_69581)"/>
</g>
<path d="M222.195 167.199C221.935 167.192 221.57 167.159 221.171 167.385C221.091 167.432 221.011 167.491 220.945 167.545L221.131 167.478C221.423 167.398 221.829 167.518 221.982 167.817C222.168 168.176 222.234 169.02 222.274 169.433C222.387 170.622 223.099 177.981 223.099 177.981C223.152 178.6 223.617 179.065 224.169 179.052L244.943 177.868C245.096 177.862 245.249 177.815 245.375 177.709C245.641 177.503 245.76 177.137 245.701 176.791L244.677 168.289C244.59 167.797 244.218 167.445 243.786 167.438L222.195 167.199Z" fill="url(#paint26_linear_950_69581)"/>
<path d="M222.427 167.2C222.161 167.2 221.855 167.16 221.509 167.246C221.416 167.273 221.27 167.313 221.204 167.372C221.204 167.372 221.935 167.2 222.207 167.818C222.38 168.19 222.46 169.021 222.5 169.44C222.62 170.623 223.324 177.975 223.324 177.975C223.377 178.6 223.843 179.066 224.394 179.052L245.388 178.501C245.541 178.494 245.693 178.447 245.82 178.341C246.079 178.135 246.199 177.769 246.139 177.424L244.889 168.29C244.803 167.805 244.43 167.446 244.005 167.446L222.427 167.2Z" fill="url(#paint27_linear_950_69581)"/>
<path style="mix-blend-mode:multiply" opacity="0.1" d="M246.139 177.424L244.889 168.29C244.803 167.805 244.43 167.446 244.005 167.446L222.427 167.2C222.161 167.2 221.855 167.16 221.509 167.246C221.416 167.273 221.27 167.313 221.204 167.372C221.204 167.372 221.935 167.2 222.207 167.818C222.234 167.878 222.261 167.951 222.281 168.024C224.388 168.13 226.482 168.09 228.563 168.25C232.644 168.549 236.726 168.589 240.495 170.271C241.692 170.803 242.509 172.697 242.183 173.568C241.951 174.193 241.153 174.146 240.874 174.971C240.581 175.842 241.286 176.427 240.987 177.038C240.681 177.683 239.737 177.377 238.208 177.836C237.364 178.095 236.712 178.467 236.307 178.74L245.388 178.501C245.541 178.494 245.693 178.447 245.82 178.341C246.079 178.135 246.199 177.769 246.139 177.424Z" fill="url(#paint28_linear_950_69581)"/>
<path d="M236.267 180.254L233.635 180.919L233.356 180.939C233.077 180.966 232.837 180.72 232.824 180.394L232.704 177.323C232.698 176.997 232.917 176.731 233.196 176.724L233.482 176.718L236.121 177.057C236.374 177.05 236.586 176.917 236.6 177.216L236.706 180.088C236.719 180.387 236.513 180.234 236.267 180.254Z" fill="url(#paint29_linear_950_69581)"/>
<path d="M236.467 180.681L233.555 180.94C233.269 180.967 233.03 180.721 233.016 180.395L232.903 177.324C232.89 176.998 233.109 176.732 233.395 176.725L236.314 176.679C236.566 176.672 236.779 176.918 236.792 177.217L236.899 180.089C236.912 180.388 236.712 180.654 236.467 180.681Z" fill="url(#paint30_linear_950_69581)"/>
<path d="M232.943 160.099C232.943 160.099 232.697 161.721 232.452 161.874C232.212 162.026 231.448 162.884 231.601 163.436C231.754 163.987 231.169 165.244 232.259 165.55C233.342 165.849 234.592 166.175 234.718 165.204C234.838 164.233 234.532 163.13 234.565 162.306C234.599 161.475 235.024 160.65 235.024 160.65L232.943 160.099Z" fill="url(#paint31_linear_950_69581)"/>
<path d="M222.68 119.156C221.231 126.236 222.48 130.823 223.996 133.761C227.061 139.717 232.332 141.12 233.21 146.398C233.841 150.207 234.114 157.719 232.259 160.159C233.934 160.823 234.107 160.79 235.37 160.79C237.065 159.82 240.681 153.358 242.204 145.115C244.052 135.117 236.321 123.304 222.68 119.156Z" fill="url(#paint32_linear_950_69581)"/>
<path d="M218.16 119.076C217.442 118.783 213.952 118.072 213.174 116.563C212.316 114.888 212.03 112.581 212.03 112.581C212.03 112.581 209.617 113.219 209.97 114.469C210.322 115.712 209.724 118.564 208.341 119.202C207.37 119.647 206.174 119.827 205.915 120.126C205.884 120.131 205.866 120.135 205.861 120.139C205.662 120.259 206.28 121.216 208.773 122.606C217.362 121.309 218.266 119.84 218.299 119.335C218.339 119.222 218.299 119.136 218.16 119.076Z" fill="url(#paint33_linear_950_69581)"/>
<path d="M208.806 111.996C207.689 111.066 207.53 110.953 207.39 110.614C206.825 109.238 207.762 107.217 209.165 106.625C209.238 106.592 210.176 106.206 210.574 106.599C210.913 106.924 210.495 107.456 210.767 108.121C211.026 108.746 211.585 108.746 212.682 109.504C213.586 110.129 214.144 110.514 214.317 111.112C214.663 112.336 213.3 114.263 211.964 114.323C211.478 114.343 211.326 114.11 208.806 111.996Z" fill="url(#paint34_linear_950_69581)"/>
<path d="M211.844 114.531C211.844 114.531 210.847 115.86 209.132 115.588C207.603 115.335 207.709 111.858 208.766 111.22C209.119 111.007 209.784 110.967 210.302 111.174C210.614 111.287 210.708 111.433 211.213 111.619C211.678 111.785 211.818 111.745 211.951 111.878C212.117 112.051 212.217 112.437 211.818 113.42C212.137 113.148 212.502 113.068 212.742 113.208C212.775 113.234 212.875 113.314 212.928 113.427C213.101 113.846 212.695 114.311 211.844 114.531Z" fill="url(#paint35_linear_950_69581)"/>
<path d="M211.126 122.313C211.126 122.313 210.641 124.906 209.876 124.953C209.118 125.006 208.567 125.105 208.567 125.105L207.716 121.935C207.716 121.935 208.819 122.839 211.126 122.313Z" fill="url(#paint36_linear_950_69581)"/>
<path d="M210.242 124.739C210.242 124.739 211.93 143.692 217.847 146.73C217.694 147.334 217.847 152.267 217.847 152.267C217.847 152.267 212.329 150.605 212.017 150.711C211.698 150.825 205.336 140.275 208.567 125.105L210.242 124.739Z" fill="url(#paint37_linear_950_69581)"/>
<path d="M164.932 140.427C164.932 140.427 167.657 138.373 168.561 138.253C168.867 138.214 169.013 138.094 169.339 138.466C169.698 138.885 174.258 137.988 173.022 139.211C171.785 140.427 170.895 141.571 169.233 141.65C167.571 141.73 165.61 142.229 165.271 142.455C164.932 142.674 164.932 140.427 164.932 140.427Z" fill="url(#paint38_linear_950_69581)"/>
<path d="M119.555 126.355C118.99 126.568 110.408 129.985 108.64 138.946C108.5 139.671 107.117 147.369 112.342 152.806C118.199 158.902 129.466 158.756 133.94 153.657C134.984 152.467 135.536 151.151 135.848 150.041L134.665 146.91C133.229 145.175 131.268 144.763 130.224 144.503C127.645 143.865 125.697 145.015 124.222 143.772C123.404 143.088 123.244 142.097 123.098 141.213C122.6 138.195 124.301 136.34 124.428 134.486C124.521 133.096 125.006 130.052 123.191 128.064C122.041 126.808 120.452 126.468 119.555 126.355Z" fill="url(#paint39_linear_950_69581)"/>
<path d="M116.211 226.222C116.112 225.67 114.33 225.172 113.446 225.909C113.007 226.275 112.708 227.02 112.961 227.352C113.054 227.478 112.675 227.691 113.034 227.698C114.237 227.711 116.311 226.767 116.211 226.222Z" fill="url(#paint40_linear_950_69581)"/>
<path d="M114.343 226.422L112.508 226.163C113.359 225.139 113.2 221.889 113.2 221.889L115.147 222.321C115.147 222.321 114.928 223.218 114.549 224.534C114.423 224.986 114.363 225.691 114.343 226.422Z" fill="url(#paint41_linear_950_69581)"/>
<path d="M114.503 226.195C114.503 226.195 112.302 225.69 112.063 226.122C111.824 226.561 111.637 227.731 113.033 227.698C114.436 227.658 114.629 226.567 114.503 226.195Z" fill="url(#paint42_linear_950_69581)"/>
<path d="M141.346 228.29C141.173 227.758 139.339 227.512 138.568 228.369C138.189 228.795 137.989 229.573 138.288 229.865C138.401 229.978 138.056 230.244 138.415 230.197C139.605 230.038 141.526 228.815 141.346 228.29Z" fill="url(#paint43_linear_950_69581)"/>
<path d="M139.531 228.749H137.677C138.375 227.618 137.763 224.421 137.763 224.421L139.757 224.574C139.757 224.574 139.658 225.491 139.472 226.847C139.405 227.313 139.445 228.024 139.531 228.749Z" fill="url(#paint44_linear_950_69581)"/>
<path d="M144.324 158.775C145.181 161.607 146.405 166.174 147.196 171.911C149.443 188.257 144.663 188.776 145.554 206.897C145.84 212.674 140.548 226.009 140.076 226.308C139.85 226.328 139.611 226.341 139.345 226.335C138.886 226.321 138.235 226.248 137.483 226.022C136.646 225.883 133.621 217.686 134.319 212.82C134.818 209.37 134.672 205.674 134.386 198.275C134.339 197.078 131.268 174.955 131.268 174.955C130.337 183.145 129.267 190.098 128.336 195.496C125.345 212.827 115.633 223.317 115.121 223.483C115.021 223.523 114.11 223.855 113.366 223.363C113.034 223.144 112.921 222.865 112.921 222.865C112.661 222.659 113 205.561 115.958 192.691C120.266 174.011 118.392 169.644 119.754 161.301C120.931 154.082 144.324 158.775 144.324 158.775Z" fill="url(#paint45_linear_950_69581)"/>
<path d="M145.474 161.601C142.888 162.924 136.241 165.297 128.31 164.121C124.687 163.582 121.789 162.379 119.755 161.302C120.001 160.551 120.193 159.839 120.346 159.168C121.43 154.275 120.107 151.37 119.436 148.671C118.352 144.284 118.332 144.616 117.441 141.14C115.965 135.396 115.719 129.533 116.737 128.33C119.469 125.092 124.388 124.973 126.947 124.9C129.806 124.813 136.367 123.809 139.983 127.06C140.05 127.12 139.305 127.512 139.671 127.938C140.01 128.336 141.173 129.726 142.224 131.6C142.988 132.963 143.673 134.552 144.371 136.912C145.328 140.176 145.753 143.054 145.946 144.896C145.999 145.407 146.039 145.833 146.066 146.172C146.724 154.86 146.066 158.876 145.474 161.601Z" fill="url(#paint46_linear_950_69581)"/>
<path d="M139.658 228.502C139.658 228.502 137.404 228.31 137.225 228.775C137.052 229.24 137.032 230.43 138.414 230.198C139.791 229.958 139.83 228.855 139.658 228.502Z" fill="url(#paint47_linear_950_69581)"/>
<path d="M134.26 121.669C135.09 120.26 134.718 118.651 134.638 118.306C134.286 116.85 134.16 116.63 133.887 116.318L133.502 115.919C133.502 115.919 133.482 115.899 133.455 115.879C133.189 115.7 132.199 115.401 131.986 115.394C131.301 115.361 129.912 117.807 129.114 121.589C129.048 121.722 128.984 121.858 128.922 121.995C128.523 122.853 128.184 123.697 127.898 124.521C123.278 124.907 122.633 125.452 122.613 125.764C122.566 126.422 125.205 127.187 127.18 127.473C131.501 128.111 135.941 126.967 135.921 126.163C135.908 125.811 135.051 125.359 131.394 124.88C131.479 124.273 131.563 123.666 131.647 123.059C131.946 122.992 133.648 122.706 134.26 121.669Z" fill="url(#paint48_linear_950_69581)"/>
<path d="M135.13 115.214C134.818 116.37 133.941 117.454 133.615 117.58C133.568 117.6 133.329 117.7 133.076 117.926C133.036 117.959 133.003 117.992 132.97 118.045C132.525 118.704 133.455 119.867 133.143 120.133C132.917 120.326 132.219 119.8 132.066 119.98C131.926 120.153 132.478 120.724 132.319 120.924C132.192 121.077 131.833 120.811 131.507 121.01C131.348 121.11 131.355 121.223 131.115 121.595C130.976 121.801 130.803 122.027 130.683 122.14C130.105 122.712 128.908 122.659 128.769 122.333C128.722 122.24 128.795 122.194 128.802 121.921C128.802 121.921 128.809 121.668 128.716 121.356C128.583 120.904 128.091 120.478 127.632 119.913C126.781 118.876 126.668 118.152 126.641 117.906C126.628 117.826 126.628 117.76 126.622 117.713C126.575 116.789 126.907 115.539 127.499 114.875C128.483 113.758 129.766 114.755 131.288 113.791C133.043 112.687 132.764 110.454 133.568 110.434C134.446 110.401 135.702 113.086 135.13 115.214Z" fill="#26264F"/>
<path d="M132.804 119.753C132.625 119.288 132.026 119.521 131.893 120.026C131.754 120.525 132.1 121.176 132.598 121.203C133.097 121.236 133.044 120.378 132.804 119.753Z" fill="url(#paint49_linear_950_69581)"/>
<path d="M120.665 157.4C120.661 157.4 120.656 157.4 120.652 157.4C120.585 157.394 120.532 157.334 120.539 157.267C120.878 154.236 120.253 152.029 119.695 150.088C119.562 149.609 119.429 149.151 119.316 148.699C118.698 146.212 118.432 145.255 118.146 144.238C117.96 143.573 117.767 142.889 117.468 141.745C117.454 141.679 117.488 141.612 117.554 141.599C117.621 141.579 117.687 141.619 117.707 141.685C118.006 142.829 118.192 143.507 118.378 144.172C118.664 145.189 118.937 146.146 119.555 148.639C119.668 149.091 119.794 149.543 119.934 150.021C120.492 151.982 121.124 154.209 120.785 157.294C120.778 157.354 120.725 157.4 120.665 157.4Z" fill="url(#paint50_linear_950_69581)"/>
<path d="M132.797 118.85L133.223 119.88C133.223 119.88 133.655 121.116 134.22 120.651C134.679 120.272 134.765 120.305 134.778 120.332C134.785 120.339 134.785 120.345 134.785 120.345C134.792 120.345 134.798 120.099 134.805 119.88C134.911 120.179 135.044 120.651 135.044 121.236C135.044 121.801 135.044 122.413 134.599 122.878C134.572 122.905 134.087 123.403 133.429 123.377C133.429 123.377 133.17 123.37 132.192 122.918C132.192 122.918 133.535 122.399 133.602 122.213C133.788 121.701 133.136 121.223 132.884 120C132.784 119.528 132.784 119.122 132.797 118.85Z" fill="#26264F"/>
<path style="mix-blend-mode:multiply" opacity="0.3" d="M145.474 161.601C142.888 162.924 136.24 165.297 128.31 164.12C124.687 163.582 121.789 162.379 119.754 161.302C120 160.551 120.193 159.839 120.346 159.168C125.618 162.864 127.825 159.268 131.228 158.423C134.771 157.546 139.325 159.367 136.553 151.191C133.781 143.008 138.381 143.599 138.381 143.599L145.946 144.896C145.999 145.407 146.039 145.833 146.066 146.172C146.724 154.86 146.066 158.875 145.474 161.601Z" fill="url(#paint51_linear_950_69581)"/>
<path d="M164.978 140.116C166.015 140.834 166.567 141.817 166.853 142.442C166.095 144.224 164.373 147.534 160.81 149.974C154.96 153.976 146.391 154.109 140.422 149.549C133.296 144.098 132.099 133.654 135.097 129.174C135.443 128.662 136.573 126.967 138.335 126.774C139.445 126.654 140.96 127.113 143.347 129.905C148.326 135.741 146.571 139.378 149.509 141.086C153.923 143.645 160.478 136.965 164.978 140.116Z" fill="url(#paint52_linear_950_69581)"/>
<path d="M144.902 152.055C144.894 152.055 144.885 152.055 144.876 152.055C144.809 152.035 137.79 150.426 134.639 141.725C134.612 141.665 134.645 141.592 134.712 141.572C134.772 141.545 134.845 141.578 134.865 141.645C137.969 150.207 144.863 151.796 144.929 151.816C144.996 151.829 145.035 151.895 145.022 151.962C145.009 152.015 144.962 152.055 144.902 152.055Z" fill="url(#paint53_linear_950_69581)"/>
<path d="M171.606 138.606C171.606 138.606 171.081 137.609 170.356 138.101C169.632 138.586 168.621 138.926 169.293 139.098C169.971 139.271 171.606 138.606 171.606 138.606Z" fill="url(#paint54_linear_950_69581)"/>
<path d="M239.977 73.1931C239.977 85.3516 230.464 94.9175 218.312 94.5453C205.662 94.1597 195.019 83.231 195.019 70.1618C195.019 57.0859 205.662 47.5932 218.312 48.916C230.464 50.1791 239.977 61.028 239.977 73.1931Z" fill="url(#paint55_linear_950_69581)"/>
<path d="M243.261 72.1422C243.261 84.3007 233.748 93.8733 221.596 93.4944C208.946 93.1088 198.303 82.1868 198.303 69.1109C198.303 56.035 208.946 46.5489 221.596 47.8651C233.748 49.1282 243.261 59.9771 243.261 72.1422Z" fill="url(#paint56_linear_950_69581)"/>
<path d="M242.303 72.0755C242.303 83.7022 233.203 92.836 221.596 92.4571C209.531 92.0649 199.406 81.6415 199.406 69.1838C199.406 56.7262 209.531 47.6655 221.596 48.902C233.203 50.0919 242.303 60.4489 242.303 72.0755Z" fill="url(#paint57_linear_950_69581)"/>
<path d="M241.619 72.0297C241.619 83.2774 232.817 92.0922 221.596 91.7133C209.949 91.3277 200.184 81.2566 200.184 69.2377C200.184 57.2188 209.949 48.4639 221.596 49.6472C232.817 50.7839 241.619 60.7886 241.619 72.0297Z" fill="url(#paint58_linear_950_69581)"/>
<path fill-rule="evenodd" clip-rule="evenodd" d="M221.477 53.4711C222.075 53.5309 222.56 54.0694 222.56 54.6743V56.7417C223.752 56.8747 224.949 57.083 226.15 57.3666C227.032 57.5749 227.907 57.8209 228.776 58.1045C229.301 58.2773 229.653 58.8025 229.6 59.3476L229.347 61.9468C229.281 62.6315 228.603 63.037 227.958 62.7512C227.386 62.4941 226.799 62.2748 226.196 62.0931C225.142 61.774 224.032 61.5679 222.866 61.4748L222.56 61.4482V67.3779C225.678 68.2488 227.965 69.4187 229.44 70.8945C230.91 72.3636 231.647 74.1917 231.647 76.3854C231.647 78.7653 230.836 80.6665 229.208 82.0957C227.572 83.5383 225.279 84.3493 222.314 84.5288V86.8089C222.314 87.4205 221.829 87.8925 221.231 87.8659H221.211C220.612 87.8459 220.127 87.3274 220.127 86.7225V84.4689L219.642 84.4423C218.25 84.3803 216.919 84.2385 215.647 84.0169C214.707 83.8529 213.788 83.6424 212.888 83.3854C212.343 83.2258 211.971 82.7073 212.024 82.1556L212.323 78.8185C212.383 78.0939 213.107 77.6751 213.792 77.9476C214.594 78.2623 215.405 78.5282 216.225 78.7453C217.501 79.0821 218.795 79.2971 220.107 79.3902L220.127 72.7957C217.136 72.0578 214.895 70.961 213.426 69.5118C211.944 68.0493 211.206 66.188 211.206 63.9145C211.206 61.5679 212.01 59.7531 213.612 58.4834C215.208 57.2137 217.468 56.5888 220.393 56.5888V54.4682C220.393 53.8633 220.878 53.4179 221.477 53.4711ZM220.393 61.3884C219.471 61.4549 218.751 61.7075 218.233 62.1462C217.718 62.5894 217.459 63.1833 217.455 63.9278C217.459 64.6324 217.699 65.2219 218.173 65.6961C218.651 66.1703 219.391 66.547 220.393 66.8262V61.3884ZM222.314 73.3342V79.3769C223.316 79.3813 224.085 79.142 224.621 78.6589C225.162 78.1803 225.432 77.5022 225.432 76.6247C225.432 75.8226 225.182 75.1578 224.681 74.6305C224.18 74.1031 223.391 73.671 222.314 73.3342Z" fill="url(#paint59_linear_950_69581)"/>
<path style="mix-blend-mode:multiply" opacity="0.3" d="M217.966 74.7821C218.645 68.1012 224.787 65.2694 223.989 59.127C223.491 55.3378 220.619 52.1403 217.415 49.6475C207.703 50.6712 200.184 58.7148 200.184 69.238C200.184 81.2569 209.949 91.328 221.596 91.7136C222.726 91.7535 223.83 91.6936 224.9 91.554C220.28 86.9539 217.388 80.5256 217.966 74.7821Z" fill="url(#paint60_linear_950_69581)"/>
<defs>
<linearGradient id="paint0_linear_950_69581" x1="-89.2354" y1="325.459" x2="203.743" y2="-58.28" gradientUnits="userSpaceOnUse">
<stop stop-color="#B37CFF"/>
<stop offset="1" stop-color="#F895E7"/>
</linearGradient>
<linearGradient id="paint1_linear_950_69581" x1="350.197" y1="39.0049" x2="296.322" y2="39.0049" gradientUnits="userSpaceOnUse">
<stop stop-color="#ED539F"/>
<stop offset="1" stop-color="#A061C2"/>
</linearGradient>
<linearGradient id="paint2_linear_950_69581" x1="93.4066" y1="48.051" x2="45.7319" y2="48.051" gradientUnits="userSpaceOnUse">
<stop stop-color="#ED539F"/>
<stop offset="1" stop-color="#A061C2"/>
</linearGradient>
<linearGradient id="paint3_linear_950_69581" x1="104" y1="61.3278" x2="234.68" y2="61.3278" gradientUnits="userSpaceOnUse">
<stop stop-color="#444B8C"/>
<stop offset="0.996" stop-color="#26264F"/>
</linearGradient>
<linearGradient id="paint4_linear_950_69581" x1="108.331" y1="63.2626" x2="234.857" y2="63.2626" gradientUnits="userSpaceOnUse">
<stop offset="0.004" stop-color="#E38DDD"/>
<stop offset="1" stop-color="#9571F6"/>
</linearGradient>
<linearGradient id="paint5_linear_950_69581" x1="141.676" y1="46.0018" x2="207.04" y2="46.0018" gradientUnits="userSpaceOnUse">
<stop stop-color="#444B8C"/>
<stop offset="0.996" stop-color="#26264F"/>
</linearGradient>
<linearGradient id="paint6_linear_950_69581" x1="198.423" y1="176.469" x2="217.926" y2="246.852" gradientUnits="userSpaceOnUse">
<stop stop-color="#311944"/>
<stop offset="1" stop-color="#893976"/>
</linearGradient>
<linearGradient id="paint7_linear_950_69581" x1="210.055" y1="224.52" x2="210.194" y2="212.825" gradientUnits="userSpaceOnUse">
<stop stop-color="#FFC444"/>
<stop offset="0.996" stop-color="#F36F56"/>
</linearGradient>
<linearGradient id="paint8_linear_950_69581" x1="208.856" y1="167.643" x2="228.36" y2="238.026" gradientUnits="userSpaceOnUse">
<stop stop-color="#311944"/>
<stop offset="1" stop-color="#893976"/>
</linearGradient>
<linearGradient id="paint9_linear_950_69581" x1="223.504" y1="224.671" x2="223.643" y2="212.977" gradientUnits="userSpaceOnUse">
<stop stop-color="#FFC444"/>
<stop offset="0.996" stop-color="#F36F56"/>
</linearGradient>
<linearGradient id="paint10_linear_950_69581" x1="205.097" y1="155.358" x2="217.48" y2="155.358" gradientUnits="userSpaceOnUse">
<stop stop-color="#444B8C"/>
<stop offset="0.996" stop-color="#26264F"/>
</linearGradient>
<linearGradient id="paint11_linear_950_69581" x1="205.097" y1="155.358" x2="217.48" y2="155.358" gradientUnits="userSpaceOnUse">
<stop stop-color="#444B8C"/>
<stop offset="0.996" stop-color="#26264F"/>
</linearGradient>
<linearGradient id="paint12_linear_950_69581" x1="212.088" y1="156.608" x2="230.885" y2="156.608" gradientUnits="userSpaceOnUse">
<stop stop-color="#444B8C"/>
<stop offset="0.996" stop-color="#26264F"/>
</linearGradient>
<linearGradient id="paint13_linear_950_69581" x1="168.432" y1="134.583" x2="183.619" y2="150.041" gradientUnits="userSpaceOnUse">
<stop stop-color="#FFC444"/>
<stop offset="0.996" stop-color="#F36F56"/>
</linearGradient>
<linearGradient id="paint14_linear_950_69581" x1="237.925" y1="107.661" x2="174.125" y2="172.89" gradientUnits="userSpaceOnUse">
<stop offset="0.004" stop-color="#6165D7"/>
<stop offset="1" stop-color="#AA80F9"/>
</linearGradient>
<linearGradient id="paint15_linear_950_69581" x1="220.565" y1="222.108" x2="172.334" y2="152.865" gradientUnits="userSpaceOnUse">
<stop offset="0.004" stop-color="#6165D7"/>
<stop offset="1" stop-color="#AA80F9"/>
</linearGradient>
<linearGradient id="paint16_linear_950_69581" x1="232.894" y1="231.432" x2="166.194" y2="135.674" gradientUnits="userSpaceOnUse">
<stop stop-color="#AA80F9"/>
<stop offset="0.996" stop-color="#6165D7"/>
</linearGradient>
<linearGradient id="paint17_linear_950_69581" x1="236.063" y1="164.29" x2="238.089" y2="164.29" gradientUnits="userSpaceOnUse">
<stop stop-color="#FFC444"/>
<stop offset="0.996" stop-color="#F36F56"/>
</linearGradient>
<linearGradient id="paint18_linear_950_69581" x1="232.423" y1="170.51" x2="232.957" y2="162.566" gradientUnits="userSpaceOnUse">
<stop offset="0.1" stop-color="#311944"/>
<stop offset="1" stop-color="#893976"/>
</linearGradient>
<linearGradient id="paint19_linear_950_69581" x1="231.291" y1="162.775" x2="237.833" y2="166.282" gradientUnits="userSpaceOnUse">
<stop offset="0.1" stop-color="#311944"/>
<stop offset="1" stop-color="#893976"/>
</linearGradient>
<linearGradient id="paint20_linear_950_69581" x1="228.187" y1="164.255" x2="229.975" y2="164.255" gradientUnits="userSpaceOnUse">
<stop stop-color="#FFC444"/>
<stop offset="0.996" stop-color="#F36F56"/>
</linearGradient>
<linearGradient id="paint21_linear_950_69581" x1="222.028" y1="175.095" x2="218.385" y2="141.789" gradientUnits="userSpaceOnUse">
<stop offset="0.1" stop-color="#311944"/>
<stop offset="1" stop-color="#893976"/>
</linearGradient>
<linearGradient id="paint22_linear_950_69581" x1="227.774" y1="211.446" x2="200.294" y2="196.144" gradientUnits="userSpaceOnUse">
<stop stop-color="#311944"/>
<stop offset="1" stop-color="#893976"/>
</linearGradient>
<linearGradient id="paint23_linear_950_69581" x1="255.549" y1="146.612" x2="262.401" y2="158.101" gradientUnits="userSpaceOnUse">
<stop stop-color="#311944"/>
<stop offset="1" stop-color="#893976"/>
</linearGradient>
<linearGradient id="paint24_linear_950_69581" x1="243.159" y1="155.715" x2="245.664" y2="189.325" gradientUnits="userSpaceOnUse">
<stop offset="0.1" stop-color="#311944"/>
<stop offset="1" stop-color="#893976"/>
</linearGradient>
<linearGradient id="paint25_linear_950_69581" x1="233.611" y1="158.313" x2="256.703" y2="176.106" gradientUnits="userSpaceOnUse">
<stop stop-color="#311944"/>
<stop offset="1" stop-color="#893976"/>
</linearGradient>
<linearGradient id="paint26_linear_950_69581" x1="224.155" y1="167.439" x2="231.577" y2="167.15" gradientUnits="userSpaceOnUse">
<stop offset="0.1" stop-color="#311944"/>
<stop offset="1" stop-color="#893976"/>
</linearGradient>
<linearGradient id="paint27_linear_950_69581" x1="232.63" y1="198.953" x2="230.011" y2="169.513" gradientUnits="userSpaceOnUse">
<stop offset="0.1" stop-color="#311944"/>
<stop offset="1" stop-color="#893976"/>
</linearGradient>
<linearGradient id="paint28_linear_950_69581" x1="233.879" y1="204.998" x2="229.531" y2="165.252" gradientUnits="userSpaceOnUse">
<stop stop-color="#311944"/>
<stop offset="1" stop-color="#893976"/>
</linearGradient>
<linearGradient id="paint29_linear_950_69581" x1="242.738" y1="186.309" x2="228.584" y2="178.91" gradientUnits="userSpaceOnUse">
<stop stop-color="#FFC444"/>
<stop offset="0.996" stop-color="#F36F56"/>
</linearGradient>
<linearGradient id="paint30_linear_950_69581" x1="232.309" y1="174.933" x2="246.443" y2="179.991" gradientUnits="userSpaceOnUse">
<stop stop-color="#FFC444"/>
<stop offset="0.996" stop-color="#F36F56"/>
</linearGradient>
<linearGradient id="paint31_linear_950_69581" x1="229.26" y1="174.417" x2="228.132" y2="161.744" gradientUnits="userSpaceOnUse">
<stop stop-color="#FFC444"/>
<stop offset="0.996" stop-color="#F36F56"/>
</linearGradient>
<linearGradient id="paint32_linear_950_69581" x1="232.674" y1="222.278" x2="181.651" y2="149.028" gradientUnits="userSpaceOnUse">
<stop offset="0.004" stop-color="#6165D7"/>
<stop offset="1" stop-color="#AA80F9"/>
</linearGradient>
<linearGradient id="paint33_linear_950_69581" x1="208.048" y1="123.823" x2="208.048" y2="111.704" gradientUnits="userSpaceOnUse">
<stop stop-color="#FFC444"/>
<stop offset="0.996" stop-color="#F36F56"/>
</linearGradient>
<linearGradient id="paint34_linear_950_69581" x1="210.27" y1="124.074" x2="204.227" y2="108.726" gradientUnits="userSpaceOnUse">
<stop stop-color="#444B8C"/>
<stop offset="0.996" stop-color="#3E4177"/>
</linearGradient>
<linearGradient id="paint35_linear_950_69581" x1="200.451" y1="115.262" x2="215.123" y2="107.271" gradientUnits="userSpaceOnUse">
<stop stop-color="#FFC444"/>
<stop offset="0.996" stop-color="#F36F56"/>
</linearGradient>
<linearGradient id="paint36_linear_950_69581" x1="208.603" y1="112.324" x2="207.497" y2="128.527" gradientUnits="userSpaceOnUse">
<stop stop-color="#444B8C"/>
<stop offset="0.996" stop-color="#26264F"/>
</linearGradient>
<linearGradient id="paint37_linear_950_69581" x1="249.922" y1="142.982" x2="249.922" y2="109.695" gradientUnits="userSpaceOnUse">
<stop stop-color="#444B8C"/>
<stop offset="0.996" stop-color="#26264F"/>
</linearGradient>
<linearGradient id="paint38_linear_950_69581" x1="169.62" y1="133.05" x2="176.63" y2="149.892" gradientUnits="userSpaceOnUse">
<stop stop-color="#FFC444"/>
<stop offset="0.996" stop-color="#F36F56"/>
</linearGradient>
<linearGradient id="paint39_linear_950_69581" x1="146.222" y1="152.504" x2="137.623" y2="118.108" gradientUnits="userSpaceOnUse">
<stop stop-color="#FF9085"/>
<stop offset="1" stop-color="#FB6FBB"/>
</linearGradient>
<linearGradient id="paint40_linear_950_69581" x1="116.924" y1="223.328" x2="112.563" y2="226.226" gradientUnits="userSpaceOnUse">
<stop stop-color="#444B8C"/>
<stop offset="0.996" stop-color="#26264F"/>
</linearGradient>
<linearGradient id="paint41_linear_950_69581" x1="117.877" y1="227.893" x2="118.735" y2="221.823" gradientUnits="userSpaceOnUse">
<stop stop-color="#FFC444"/>
<stop offset="0.996" stop-color="#F36F56"/>
</linearGradient>
<linearGradient id="paint42_linear_950_69581" x1="116.895" y1="223.12" x2="112.342" y2="226.145" gradientUnits="userSpaceOnUse">
<stop stop-color="#444B8C"/>
<stop offset="0.996" stop-color="#26264F"/>
</linearGradient>
<linearGradient id="paint43_linear_950_69581" x1="141.651" y1="225.325" x2="137.739" y2="228.805" gradientUnits="userSpaceOnUse">
<stop stop-color="#444B8C"/>
<stop offset="0.996" stop-color="#26264F"/>
</linearGradient>
<linearGradient id="paint44_linear_950_69581" x1="143.234" y1="229.711" x2="143.234" y2="223.581" gradientUnits="userSpaceOnUse">
<stop stop-color="#FFC444"/>
<stop offset="0.996" stop-color="#F36F56"/>
</linearGradient>
<linearGradient id="paint45_linear_950_69581" x1="222.045" y1="178.958" x2="167.199" y2="289.628" gradientUnits="userSpaceOnUse">
<stop stop-color="#444B8C"/>
<stop offset="0.996" stop-color="#26264F"/>
</linearGradient>
<linearGradient id="paint46_linear_950_69581" x1="142.998" y1="190.804" x2="78.287" y2="145.8" gradientUnits="userSpaceOnUse">
<stop stop-color="#FF9085"/>
<stop offset="1" stop-color="#FB6FBB"/>
</linearGradient>
<linearGradient id="paint47_linear_950_69581" x1="141.593" y1="225.123" x2="137.509" y2="228.756" gradientUnits="userSpaceOnUse">
<stop stop-color="#444B8C"/>
<stop offset="0.996" stop-color="#26264F"/>
</linearGradient>
<linearGradient id="paint48_linear_950_69581" x1="119.986" y1="122.473" x2="128.334" y2="106.168" gradientUnits="userSpaceOnUse">
<stop stop-color="#FFC444"/>
<stop offset="0.996" stop-color="#F36F56"/>
</linearGradient>
<linearGradient id="paint49_linear_950_69581" x1="137.485" y1="111.503" x2="112.183" y2="143.335" gradientUnits="userSpaceOnUse">
<stop stop-color="#FFC444"/>
<stop offset="0.996" stop-color="#F36F56"/>
</linearGradient>
<linearGradient id="paint50_linear_950_69581" x1="117.465" y1="141.593" x2="120.881" y2="141.593" gradientUnits="userSpaceOnUse">
<stop stop-color="#FF9085"/>
<stop offset="1" stop-color="#FB6FBB"/>
</linearGradient>
<linearGradient id="paint51_linear_950_69581" x1="119.753" y1="143.591" x2="146.34" y2="143.591" gradientUnits="userSpaceOnUse">
<stop stop-color="#FF9085"/>
<stop offset="1" stop-color="#FB6FBB"/>
</linearGradient>
<linearGradient id="paint52_linear_950_69581" x1="96.5156" y1="197.49" x2="184.557" y2="136.261" gradientUnits="userSpaceOnUse">
<stop stop-color="#FF9085"/>
<stop offset="1" stop-color="#FB6FBB"/>
</linearGradient>
<linearGradient id="paint53_linear_950_69581" x1="134.629" y1="141.564" x2="145.026" y2="141.564" gradientUnits="userSpaceOnUse">
<stop stop-color="#FF9085"/>
<stop offset="1" stop-color="#FB6FBB"/>
</linearGradient>
<linearGradient id="paint54_linear_950_69581" x1="169.528" y1="136.867" x2="174.325" y2="141.75" gradientUnits="userSpaceOnUse">
<stop stop-color="#FFC444"/>
<stop offset="0.996" stop-color="#F36F56"/>
</linearGradient>
<linearGradient id="paint55_linear_950_69581" x1="216.436" y1="102.372" x2="182.718" y2="113.193" gradientUnits="userSpaceOnUse">
<stop stop-color="#FCB148"/>
<stop offset="0.318" stop-color="#FFC444"/>
<stop offset="0.866" stop-color="#F8924F"/>
<stop offset="1" stop-color="#F8924F"/>
</linearGradient>
<linearGradient id="paint56_linear_950_69581" x1="262.56" y1="52.7213" x2="230.881" y2="122.612" gradientUnits="userSpaceOnUse">
<stop stop-color="#FFDB44"/>
<stop offset="1" stop-color="#FEEF06"/>
</linearGradient>
<linearGradient id="paint57_linear_950_69581" x1="202.185" y1="111.93" x2="197.002" y2="83.6163" gradientUnits="userSpaceOnUse">
<stop stop-color="#FCB148"/>
<stop offset="0.318" stop-color="#FFC444"/>
<stop offset="0.866" stop-color="#F8924F"/>
<stop offset="1" stop-color="#F8924F"/>
</linearGradient>
<linearGradient id="paint58_linear_950_69581" x1="241.73" y1="48.1678" x2="265.829" y2="99.3242" gradientUnits="userSpaceOnUse">
<stop stop-color="#FCB148"/>
<stop offset="0.318" stop-color="#FFC444"/>
<stop offset="0.866" stop-color="#F8924F"/>
<stop offset="1" stop-color="#F8924F"/>
</linearGradient>
<linearGradient id="paint59_linear_950_69581" x1="247.588" y1="43.0306" x2="258.415" y2="83.6107" gradientUnits="userSpaceOnUse">
<stop stop-color="#FFDB44"/>
<stop offset="1" stop-color="#FEEF06"/>
</linearGradient>
<linearGradient id="paint60_linear_950_69581" x1="245.842" y1="44.2981" x2="267.239" y2="89.7197" gradientUnits="userSpaceOnUse">
<stop stop-color="#FCB148"/>
<stop offset="0.318" stop-color="#FFC444"/>
<stop offset="0.866" stop-color="#F8924F"/>
<stop offset="1" stop-color="#F8924F"/>
</linearGradient>
</defs>
</svg>
