<svg width="384" height="240" viewBox="0 0 384 240" fill="none" xmlns="http://www.w3.org/2000/svg">
<rect width="384" height="240" fill="#F4EBFF"/>
<path opacity="0.5" d="M349.615 151.674C344.35 149.6 338.319 149.728 332.575 149.089C326.799 148.483 320.577 146.696 317.769 142.356C315.184 138.336 316.269 133.23 318.981 129.305C321.725 125.38 325.874 122.38 329.767 119.285C338.638 112.201 346.68 104.064 351.115 94.4265C355.551 84.7576 355.934 73.3655 350.03 64.3029C344.127 55.2722 331.171 49.4007 319.492 52.0493C313.652 53.3895 308.674 56.5806 303.185 58.7186C297.697 60.8566 290.868 61.8458 285.922 58.9101C280.976 55.9743 279.667 50.3899 276.859 45.8586C272.009 38.1043 262.276 33.2858 252.288 31.2436C237.705 28.2759 221.782 30.5734 209.113 37.4661C202.061 41.3273 197.051 47.0393 191.913 52.847C186.68 58.7186 180.266 64.2391 171.554 62.8989C162.875 61.5905 153.62 57.8889 146.153 53.581C130.421 44.5503 112.073 38.1363 93.1499 38.2001C74.2269 38.2639 54.7615 45.5714 44.4544 59.1653C34.1153 72.7593 35.0407 92.7034 48.6985 103.904C53.5808 107.893 59.7076 110.669 64.3985 114.817C69.0893 118.966 72.2166 125.348 69.1851 130.517C64.941 137.729 53.134 137.346 44.0714 139.484C30.8924 142.612 20.9682 153.844 21.0001 165.555C21.032 177.266 31.0519 188.435 44.231 191.499C48.9857 192.584 54.0914 192.743 58.495 194.658C62.8987 196.572 66.345 201.199 64.1751 204.965C63.2497 206.56 61.5584 207.709 60.5692 209.273C58.2397 212.974 61.0798 217.825 65.3558 219.931C69.5999 222.037 74.7694 222.165 79.7156 222.197C149.153 222.835 218.59 223.462 288.028 224.079C298.335 224.175 308.897 224.239 318.534 221.08C331.458 216.836 340.968 207.39 349.041 197.753C355.04 190.573 360.688 182.787 361.965 174.043C363.241 165.268 358.965 155.376 349.615 151.674Z" fill="url(#paint0_linear_950_70059)"/>
<path d="M272.337 64.6972C273.486 59.2724 276.294 61.1232 281.048 59.4639C285.803 57.8045 284.431 51.8692 287.367 50.0184C291.292 47.5931 294.898 49.8588 297.355 53.0499C301.407 58.3789 304.184 54.071 309.034 56.209C311.81 57.4535 310.63 59.1767 314.395 59.8787C317.012 60.3574 319.884 59.2086 322.468 59.9106C324.383 60.4531 325.787 61.3466 326.202 63.1974C325.649 63.4527 325.085 63.6867 324.511 63.8995C317.267 66.5161 307.375 65.6545 300.035 66.0375C297.546 66.1651 271.539 68.5265 272.337 64.6972Z" fill="url(#paint1_linear_950_70059)"/>
<path d="M88.6367 31.4523C87.0092 29.4738 84.584 28.6442 82.2226 29.2505C79.6379 29.8887 78.2019 32.3458 75.7767 33.335C71.5964 35.0582 65.8206 31.6437 62.6296 36.0793C58.7365 41.5041 55.7369 37.4515 55.7369 41.1212C55.7369 44.7909 82.6056 42.0785 95.8804 42.3019C97.795 42.3019 106.092 42.1742 102.518 38.1854C101.401 36.9728 99.8373 36.7494 98.3375 36.4622C96.4229 36.0793 91.8277 35.8879 90.4237 34.3881C89.6897 33.5903 89.4025 32.4096 88.7005 31.548C88.6792 31.5055 88.658 31.4736 88.6367 31.4523Z" fill="url(#paint2_linear_950_70059)"/>
<path opacity="0.2" d="M355.894 177.992H299.891C298.71 177.992 297.721 177.035 297.721 175.823C297.721 174.642 298.71 173.685 299.891 173.685H355.894C357.074 173.685 358.064 174.642 358.064 175.823C358.064 177.035 357.074 177.992 355.894 177.992Z" fill="white"/>
<path opacity="0.53" d="M362.627 186.48H306.624C305.411 186.48 304.454 185.523 304.454 184.311C304.454 183.13 305.411 182.141 306.624 182.141H362.627C363.807 182.141 364.797 183.13 364.797 184.311C364.797 185.523 363.807 186.48 362.627 186.48Z" fill="white"/>
<path opacity="0.53" d="M346.703 203.457H306.624C305.411 203.457 304.454 202.5 304.454 201.287C304.454 200.106 305.411 199.117 306.624 199.117H346.703C347.884 199.117 348.873 200.106 348.873 201.287C348.873 202.5 347.884 203.457 346.703 203.457Z" fill="white"/>
<path opacity="0.2" d="M368.913 194.969H312.91C311.698 194.969 310.74 194.011 310.74 192.799C310.74 191.618 311.698 190.629 312.91 190.629H368.913C370.094 190.629 371.051 191.618 371.051 192.799C371.051 194.011 370.094 194.969 368.913 194.969Z" fill="white"/>
<path opacity="0.2" d="M97.1505 107.131H41.1475C39.9349 107.131 38.9775 106.174 38.9775 104.961C38.9775 103.78 39.9349 102.791 41.1475 102.791H97.1505C98.3312 102.791 99.3205 103.78 99.3205 104.961C99.3205 106.174 98.3312 107.131 97.1505 107.131Z" fill="white"/>
<path opacity="0.53" d="M103.852 115.618H47.8809C46.6683 115.618 45.7109 114.661 45.7109 113.448C45.7109 112.268 46.6683 111.278 47.8809 111.278H103.852C105.065 111.278 106.022 112.268 106.022 113.448C106.022 114.661 105.065 115.618 103.852 115.618Z" fill="white"/>
<path opacity="0.53" d="M87.9286 132.595H47.8809C46.6683 132.595 45.7109 131.637 45.7109 130.425C45.7109 129.244 46.6683 128.255 47.8809 128.255H87.9286C89.1413 128.255 90.0986 129.244 90.0986 130.425C90.0986 131.637 89.1413 132.595 87.9286 132.595Z" fill="white"/>
<path opacity="0.2" d="M110.138 124.107H54.1351C52.9544 124.107 51.9971 123.15 51.9971 121.937C51.9971 120.757 52.9544 119.768 54.1351 119.768H110.138C111.351 119.768 112.308 120.757 112.308 121.937C112.308 123.15 111.351 124.107 110.138 124.107Z" fill="white"/>
<path d="M97.2827 221.993L96.4211 221.61C96.2615 221.547 96.0701 221.61 96.0062 221.77C95.9105 221.929 96.0062 222.121 96.1658 222.185L97.0274 222.568C97.1869 222.663 97.3784 222.568 97.4741 222.408C97.5379 222.249 97.4741 222.057 97.2827 221.993Z" fill="white"/>
<path d="M94.4426 220.621L93.6129 220.174C93.4534 220.078 93.23 220.142 93.1662 220.302C93.0705 220.461 93.1343 220.653 93.2938 220.748L94.1235 221.195C94.2831 221.291 94.4745 221.227 94.5703 221.067C94.666 220.908 94.6022 220.716 94.4426 220.621Z" fill="white"/>
<path d="M91.6979 219.025L90.9321 218.483H90.9001C90.7725 218.387 90.5491 218.419 90.4534 218.578C90.3258 218.738 90.3896 218.961 90.5491 219.057L91.3469 219.599C91.5064 219.695 91.6979 219.631 91.8255 219.504C91.9213 219.344 91.8894 219.121 91.7298 219.025H91.6979Z" fill="white"/>
<path d="M89.1452 217.207L88.3793 216.6C88.2198 216.473 87.9964 216.505 87.9007 216.664C87.773 216.824 87.8049 217.047 87.9326 217.143L88.6984 217.749C88.858 217.877 89.0813 217.845 89.209 217.685C89.3047 217.526 89.2728 217.334 89.1452 217.207Z" fill="white"/>
<path d="M86.6883 215.164L85.9862 214.526C85.8586 214.398 85.6352 214.398 85.4757 214.558C85.348 214.685 85.3799 214.909 85.5076 215.036L86.2096 215.706C86.3692 215.834 86.5925 215.834 86.7202 215.674C86.8478 215.547 86.8478 215.323 86.7202 215.164H86.6883Z" fill="white"/>
<path d="M84.4222 212.962L83.784 212.26C83.6564 212.133 83.4011 212.101 83.2735 212.26C83.1139 212.388 83.1139 212.611 83.2416 212.771L83.9117 213.473C84.0393 213.633 84.2627 213.633 84.4222 213.473C84.5499 213.345 84.5818 213.122 84.4222 212.962Z" fill="white"/>
<path d="M82.3485 210.601L81.7422 209.867C81.6145 209.708 81.3593 209.676 81.1997 209.803C81.0402 209.931 81.0083 210.154 81.1359 210.314H81.1678L81.7741 211.08C81.9018 211.239 82.1251 211.271 82.2847 211.144C82.4442 210.984 82.4761 210.761 82.3485 210.601Z" fill="white"/>
<path d="M80.4015 208.08L79.891 207.314L79.8591 207.282C79.7633 207.123 79.508 207.091 79.3485 207.187C79.157 207.314 79.1251 207.57 79.2528 207.729L79.7952 208.527C79.9229 208.686 80.1463 208.75 80.3377 208.623C80.4973 208.495 80.5292 208.272 80.4334 208.08H80.4015Z" fill="white"/>
<path d="M78.6787 205.431L78.2001 204.633V204.601C78.0724 204.41 77.8491 204.346 77.6576 204.474C77.4661 204.569 77.4023 204.825 77.5299 205.016L78.0086 205.846C78.1362 206.037 78.3596 206.101 78.5511 205.973C78.7425 205.878 78.8064 205.622 78.6787 205.431Z" fill="white"/>
<path d="M77.1469 202.687L76.732 201.826H76.7001C76.6044 201.634 76.381 201.539 76.1896 201.634C75.9662 201.73 75.9023 201.985 75.9981 202.177L76.4448 203.038C76.5405 203.23 76.7639 203.325 76.9554 203.23C77.1787 203.102 77.2426 202.879 77.1469 202.687Z" fill="white"/>
<path d="M75.8068 199.814L75.4239 198.921C75.3601 198.73 75.1047 198.602 74.8814 198.698C74.6899 198.793 74.5942 199.017 74.658 199.24L75.0409 200.134C75.1367 200.357 75.3601 200.453 75.5834 200.357C75.8068 200.261 75.9025 200.038 75.8068 199.814Z" fill="white"/>
<path d="M74.6578 196.847L74.3706 195.953C74.2749 195.73 74.0515 195.602 73.8282 195.698C73.6048 195.762 73.4771 195.985 73.5729 196.209L73.8601 197.134C73.9558 197.358 74.1792 197.485 74.4025 197.389C74.6259 197.326 74.7217 197.102 74.6578 196.879V196.847Z" fill="white"/>
<path d="M73.7323 193.848L73.5089 192.922H73.477C73.4451 192.699 73.1898 192.539 72.9664 192.603C72.743 192.667 72.6154 192.89 72.6473 193.114L72.9026 194.071C72.9664 194.294 73.1898 194.422 73.4132 194.358C73.6685 194.294 73.7961 194.071 73.7323 193.848Z" fill="white"/>
<path d="M73.0301 190.752L72.8387 189.827C72.8067 189.572 72.5833 189.412 72.3281 189.476C72.1047 189.508 71.9451 189.731 71.977 189.987L72.1685 190.944C72.2004 191.167 72.4238 191.327 72.6791 191.263C72.9025 191.231 73.062 191.008 73.0301 190.784V190.752Z" fill="white"/>
<path d="M72.5518 187.625L72.456 186.7H72.4241C72.4241 186.444 72.2007 186.253 71.9454 186.285C71.6902 186.317 71.5306 186.54 71.5625 186.795L71.6582 187.753C71.6902 187.976 71.9135 188.167 72.1369 188.136C72.3922 188.104 72.5518 187.88 72.5518 187.657V187.625Z" fill="white"/>
<path d="M72.2964 184.498L72.2645 183.54C72.2645 183.285 72.0411 183.094 71.7858 183.094C71.5625 183.094 71.3391 183.317 71.371 183.572L71.4029 184.53C71.4029 184.785 71.5943 184.976 71.8496 184.976C72.1049 184.976 72.2964 184.753 72.2964 184.498Z" fill="white"/>
<path d="M72.2966 181.338L72.3285 180.381C72.3604 180.126 72.137 179.902 71.9137 179.902C71.6584 179.902 71.435 180.094 71.435 180.349L71.3712 181.306C71.3712 181.562 71.5626 181.785 71.8179 181.785C72.0732 181.785 72.2647 181.594 72.2966 181.338Z" fill="white"/>
<path d="M72.5197 178.179L72.6473 177.254C72.6792 176.999 72.5197 176.775 72.2644 176.711C72.0091 176.68 71.7858 176.871 71.7538 177.126L71.6262 178.084C71.5943 178.339 71.7538 178.562 72.0091 178.594C72.2644 178.626 72.4878 178.467 72.5197 178.211V178.179Z" fill="white"/>
<path d="M73.0304 175.084L73.2219 174.159H73.2538C73.2857 173.903 73.1261 173.648 72.8709 173.584C72.6475 173.552 72.3922 173.712 72.3284 173.935L72.1369 174.892C72.0731 175.148 72.2326 175.403 72.4879 175.435C72.7432 175.499 72.9666 175.339 73.0304 175.084Z" fill="white"/>
<path d="M73.7962 172.021L74.0833 171.127C74.1472 170.872 74.0195 170.617 73.7642 170.521C73.5409 170.457 73.2537 170.585 73.1899 170.84L72.9027 171.766C72.8388 172.021 72.9665 172.276 73.2218 172.34C73.4451 172.436 73.7324 172.276 73.7962 172.053V172.021Z" fill="white"/>
<path d="M74.8172 169.054L75.1682 168.16H75.2001C75.2959 167.905 75.1683 167.65 74.913 167.554C74.6896 167.458 74.4024 167.554 74.3067 167.809L73.9557 168.703C73.8599 168.958 73.9556 169.213 74.2109 169.309C74.4343 169.405 74.7215 169.309 74.8172 169.054Z" fill="white"/>
<path d="M76.094 166.181L76.5408 165.319C76.6365 165.064 76.5726 164.777 76.3174 164.681C76.094 164.554 75.8068 164.649 75.6791 164.873L75.2324 165.734C75.1367 165.99 75.2324 166.277 75.4558 166.372C75.6792 166.5 75.9664 166.404 76.094 166.181Z" fill="white"/>
<path d="M77.5933 163.405L78.1039 162.575C78.2315 162.352 78.1677 162.065 77.9443 161.937C77.721 161.778 77.4337 161.842 77.2742 162.065L76.7955 162.895C76.636 163.118 76.6998 163.437 76.9551 163.565C77.1785 163.692 77.4656 163.629 77.5933 163.405Z" fill="white"/>
<path d="M79.3166 160.756L79.891 159.991C80.0506 159.767 79.9867 159.448 79.7953 159.32C79.5719 159.161 79.2528 159.193 79.0933 159.416L78.5508 160.214C78.3912 160.405 78.4231 160.724 78.6465 160.884C78.8699 161.044 79.1571 160.98 79.3166 160.756Z" fill="white"/>
<path d="M81.2315 158.268L81.8697 157.534C82.0293 157.31 82.0293 157.023 81.8059 156.832C81.6145 156.672 81.2954 156.704 81.1358 156.895L80.4976 157.629C80.338 157.853 80.338 158.14 80.5614 158.331C80.7529 158.491 81.072 158.459 81.2315 158.268Z" fill="white"/>
<path d="M83.3377 155.906L84.0078 155.236C84.1992 155.013 84.1992 154.726 84.0078 154.534C83.8163 154.343 83.4972 154.343 83.3057 154.534L82.6356 155.236C82.4442 155.428 82.4442 155.715 82.6356 155.906C82.8271 156.098 83.1462 156.098 83.3377 155.906Z" fill="white"/>
<path d="M85.6031 153.704L86.337 153.098V153.066C86.5285 152.906 86.5604 152.587 86.3689 152.364C86.2094 152.172 85.8903 152.14 85.6988 152.332H85.6669L84.9649 152.97C84.7415 153.161 84.7415 153.481 84.901 153.672C85.0925 153.863 85.4116 153.895 85.6031 153.704Z" fill="white"/>
<path d="M88.0285 151.694L88.7943 151.119C89.0177 150.928 89.0496 150.609 88.89 150.417C88.7305 150.194 88.4114 150.13 88.188 150.321L87.4221 150.896C87.1988 151.055 87.1669 151.374 87.3264 151.598C87.486 151.821 87.8051 151.853 88.0285 151.694Z" fill="white"/>
<path d="M90.581 149.843L91.3788 149.3H91.4107C91.634 149.172 91.6979 148.853 91.5383 148.598C91.3788 148.375 91.0916 148.311 90.8363 148.47L90.0385 149.013C89.8151 149.141 89.7513 149.46 89.879 149.683C90.0385 149.938 90.3576 150.002 90.581 149.843Z" fill="white"/>
<path d="M93.2619 148.183L94.0915 147.705H94.1234C94.3468 147.577 94.4425 147.258 94.3149 147.003C94.1553 146.779 93.8682 146.683 93.6129 146.811L92.7832 147.29C92.5279 147.417 92.4322 147.736 92.5917 147.992C92.7194 148.215 93.0385 148.311 93.2619 148.183Z" fill="white"/>
<path d="M96.0699 146.684L96.9314 146.301C97.1867 146.173 97.2825 145.854 97.1867 145.599C97.0591 145.344 96.74 145.248 96.4847 145.376L95.6231 145.79C95.3678 145.886 95.2721 146.205 95.3678 146.461C95.4955 146.716 95.8146 146.812 96.0699 146.684Z" fill="white"/>
<path d="M98.9415 145.407L99.835 145.088C100.122 144.961 100.25 144.673 100.154 144.418C100.026 144.163 99.7393 144.003 99.484 144.131L98.5586 144.482C98.3033 144.578 98.1757 144.865 98.2714 145.12C98.3671 145.407 98.6862 145.535 98.9415 145.439V145.407Z" fill="white"/>
<path d="M101.91 144.354L102.835 144.099V144.067C103.122 144.003 103.25 143.716 103.186 143.429C103.09 143.173 102.803 143.014 102.548 143.078L101.622 143.365C101.335 143.46 101.176 143.748 101.271 144.035C101.335 144.29 101.654 144.45 101.91 144.354Z" fill="white"/>
<path d="M104.973 143.524L105.867 143.301H105.899C106.186 143.237 106.345 142.982 106.281 142.695C106.218 142.408 105.93 142.216 105.675 142.28L104.718 142.503C104.431 142.567 104.271 142.854 104.335 143.141C104.399 143.397 104.654 143.588 104.941 143.524H104.973Z" fill="white"/>
<path d="M108.036 142.919L108.994 142.759C109.281 142.727 109.472 142.472 109.44 142.185C109.408 141.897 109.121 141.706 108.834 141.738L107.877 141.865C107.59 141.929 107.398 142.185 107.462 142.472C107.494 142.759 107.749 142.95 108.036 142.919Z" fill="white"/>
<path d="M111.164 142.535L112.121 142.471C112.408 142.44 112.631 142.216 112.599 141.929C112.599 141.642 112.344 141.418 112.057 141.45L111.1 141.514C110.813 141.514 110.589 141.769 110.621 142.057C110.621 142.344 110.876 142.567 111.164 142.535Z" fill="white"/>
<path d="M114.323 142.408L115.28 142.44C115.567 142.44 115.791 142.216 115.791 141.929C115.823 141.642 115.567 141.387 115.312 141.387H114.323C114.036 141.387 113.812 141.61 113.812 141.897C113.812 142.184 114.036 142.408 114.323 142.408Z" fill="white"/>
<path d="M117.482 142.568L118.407 142.664C118.695 142.664 118.95 142.472 118.982 142.185C119.014 141.898 118.79 141.642 118.535 141.61L117.546 141.515C117.259 141.483 117.035 141.706 117.003 141.993C116.971 142.281 117.163 142.536 117.45 142.568H117.482Z" fill="white"/>
<path d="M120.577 142.95L121.502 143.142H121.534C121.821 143.174 122.077 143.014 122.141 142.727C122.172 142.44 121.981 142.185 121.726 142.121L120.768 141.929C120.481 141.897 120.226 142.089 120.162 142.344C120.098 142.631 120.29 142.918 120.577 142.95Z" fill="white"/>
<path d="M123.672 143.62L124.598 143.843C124.885 143.907 125.14 143.748 125.236 143.461C125.3 143.205 125.14 142.918 124.853 142.854L123.928 142.599C123.641 142.535 123.353 142.695 123.289 142.982C123.226 143.237 123.385 143.524 123.672 143.588V143.62Z" fill="white"/>
<path d="M126.704 144.482L127.597 144.769H127.629C127.884 144.865 128.172 144.706 128.267 144.45C128.363 144.163 128.204 143.876 127.948 143.78L127.023 143.493C126.736 143.397 126.448 143.557 126.385 143.812C126.289 144.099 126.417 144.386 126.704 144.45V144.482Z" fill="white"/>
<path d="M129.672 145.535L130.565 145.886C130.82 145.982 131.14 145.854 131.235 145.599C131.331 145.344 131.203 145.024 130.948 144.929L130.055 144.578C129.799 144.482 129.48 144.61 129.384 144.865C129.289 145.12 129.416 145.407 129.672 145.535Z" fill="white"/>
<path d="M132.576 146.78L133.437 147.163C133.693 147.29 134.012 147.195 134.139 146.939C134.267 146.684 134.139 146.365 133.884 146.237L133.023 145.823C132.767 145.727 132.448 145.823 132.32 146.078C132.225 146.333 132.32 146.652 132.576 146.78Z" fill="white"/>
<path d="M135.416 148.184L136.277 148.631C136.533 148.758 136.82 148.663 136.947 148.407C137.107 148.152 137.011 147.833 136.756 147.705L135.894 147.258C135.639 147.131 135.352 147.227 135.192 147.482C135.065 147.737 135.16 148.024 135.416 148.152V148.184Z" fill="white"/>
<path d="M138.192 149.716L139.021 150.194C139.245 150.322 139.564 150.258 139.723 150.003C139.851 149.779 139.787 149.46 139.532 149.301L138.702 148.822C138.479 148.663 138.16 148.758 138 149.014C137.872 149.237 137.936 149.556 138.192 149.716Z" fill="white"/>
<path d="M140.904 151.343L141.702 151.853V151.885C141.957 152.013 142.245 151.949 142.404 151.726C142.564 151.47 142.5 151.151 142.245 151.024L141.447 150.481C141.224 150.353 140.904 150.417 140.745 150.641C140.585 150.896 140.649 151.183 140.904 151.343Z" fill="white"/>
<path d="M143.553 153.098L144.35 153.641C144.574 153.8 144.893 153.736 145.052 153.513C145.212 153.29 145.148 152.97 144.925 152.811L144.127 152.268C143.904 152.109 143.585 152.141 143.425 152.396C143.265 152.619 143.329 152.939 143.553 153.098Z" fill="white"/>
<path d="M146.138 154.916L146.935 155.491C147.159 155.65 147.478 155.586 147.637 155.363C147.797 155.14 147.765 154.821 147.51 154.661L146.744 154.087C146.52 153.927 146.201 153.991 146.042 154.214C145.882 154.438 145.914 154.757 146.138 154.916Z" fill="white"/>
<path d="M148.722 156.8L149.488 157.374C149.712 157.566 150.031 157.502 150.19 157.278C150.35 157.055 150.318 156.736 150.095 156.576L149.329 156.002C149.105 155.811 148.786 155.874 148.627 156.098C148.435 156.321 148.499 156.64 148.722 156.8Z" fill="white"/>
<path d="M151.243 158.746L152.009 159.32C152.233 159.512 152.552 159.448 152.711 159.224C152.871 159.001 152.839 158.682 152.616 158.522L151.882 157.948C151.658 157.757 151.339 157.788 151.148 158.012C150.988 158.235 151.02 158.554 151.243 158.746Z" fill="white"/>
<path d="M153.764 160.692L154.498 161.299C154.721 161.458 155.04 161.426 155.232 161.203C155.391 160.98 155.359 160.66 155.136 160.501L154.37 159.895C154.179 159.735 153.86 159.767 153.668 159.99C153.509 160.214 153.541 160.533 153.764 160.692Z" fill="white"/>
<path d="M156.253 162.671L156.987 163.277C157.211 163.437 157.53 163.405 157.721 163.213C157.881 162.99 157.849 162.671 157.625 162.479L156.891 161.905C156.668 161.714 156.349 161.745 156.157 161.969C155.998 162.192 156.03 162.511 156.253 162.671Z" fill="white"/>
<path d="M158.742 164.681L159.508 165.256C159.732 165.447 160.051 165.415 160.21 165.192C160.402 164.968 160.338 164.649 160.115 164.458L159.381 163.884C159.157 163.692 158.838 163.724 158.679 163.947C158.487 164.171 158.519 164.49 158.742 164.681Z" fill="white"/>
<path d="M161.263 166.659L161.997 167.234C162.22 167.425 162.539 167.361 162.731 167.138C162.89 166.947 162.858 166.628 162.635 166.436L161.869 165.862C161.678 165.67 161.359 165.734 161.167 165.926C161.008 166.149 161.04 166.468 161.263 166.659Z" fill="white"/>
<path d="M163.784 168.606L164.55 169.181C164.773 169.372 165.092 169.309 165.252 169.085C165.411 168.862 165.379 168.575 165.156 168.383L164.39 167.809C164.167 167.649 163.848 167.681 163.688 167.904C163.529 168.128 163.561 168.447 163.784 168.606Z" fill="white"/>
<path d="M166.337 170.553L167.103 171.096C167.326 171.287 167.645 171.224 167.805 171C167.964 170.777 167.932 170.458 167.709 170.298L166.943 169.724C166.72 169.564 166.401 169.596 166.241 169.819C166.049 170.043 166.113 170.362 166.337 170.553Z" fill="white"/>
<path d="M168.922 172.404L169.72 172.978C169.943 173.138 170.262 173.074 170.422 172.851C170.581 172.627 170.517 172.308 170.294 172.149L169.496 171.606C169.273 171.447 168.954 171.479 168.794 171.734C168.635 171.957 168.698 172.245 168.922 172.404Z" fill="white"/>
<path d="M171.57 174.254L172.368 174.765C172.592 174.924 172.911 174.861 173.07 174.637C173.23 174.414 173.166 174.095 172.911 173.935L172.113 173.393C171.89 173.233 171.57 173.297 171.411 173.552C171.283 173.776 171.347 174.095 171.57 174.254Z" fill="white"/>
<path d="M174.251 175.977L175.08 176.488C175.304 176.616 175.623 176.552 175.782 176.328C175.91 176.073 175.846 175.786 175.591 175.626L174.793 175.116C174.538 174.988 174.251 175.052 174.091 175.275C173.963 175.531 174.027 175.818 174.251 175.977Z" fill="white"/>
<path d="M177.027 177.605L177.857 178.084C178.112 178.212 178.399 178.148 178.527 177.892C178.655 177.669 178.591 177.35 178.336 177.222L177.506 176.744C177.282 176.616 176.963 176.712 176.836 176.935C176.708 177.19 176.772 177.478 177.027 177.605Z" fill="white"/>
<path d="M179.835 179.137L180.697 179.583C180.952 179.711 181.239 179.615 181.367 179.36C181.495 179.137 181.399 178.849 181.144 178.722L180.282 178.275C180.059 178.147 179.74 178.243 179.644 178.498C179.516 178.722 179.612 179.009 179.835 179.137Z" fill="white"/>
<path d="M182.739 180.573L183.601 180.956C183.856 181.084 184.143 180.956 184.239 180.733C184.366 180.477 184.239 180.19 184.015 180.094H183.984L183.122 179.68C182.899 179.584 182.611 179.68 182.484 179.903C182.388 180.158 182.484 180.445 182.739 180.573Z" fill="white"/>
<path d="M185.643 181.849L186.536 182.232C186.791 182.328 187.079 182.2 187.174 181.977C187.27 181.722 187.142 181.434 186.919 181.339L186.026 180.988C185.77 180.892 185.515 180.988 185.387 181.243C185.292 181.466 185.419 181.753 185.643 181.849Z" fill="white"/>
<path d="M188.642 183.062L189.536 183.381C189.791 183.477 190.046 183.349 190.142 183.094C190.238 182.871 190.11 182.583 189.855 182.488L188.961 182.169C188.738 182.073 188.451 182.2 188.355 182.456C188.259 182.679 188.387 182.966 188.642 183.062Z" fill="white"/>
<path d="M191.674 184.115L192.567 184.434C192.823 184.498 193.078 184.37 193.174 184.115C193.237 183.891 193.11 183.604 192.855 183.54L191.961 183.221C191.706 183.158 191.451 183.285 191.355 183.54C191.291 183.764 191.419 184.051 191.674 184.115Z" fill="white"/>
<path d="M194.737 185.073L195.663 185.36C195.886 185.424 196.141 185.264 196.205 185.041C196.301 184.786 196.141 184.53 195.886 184.466L194.993 184.179C194.737 184.115 194.482 184.275 194.418 184.498C194.323 184.754 194.482 185.009 194.737 185.073Z" fill="white"/>
<path d="M197.801 185.934L198.758 186.157C198.982 186.221 199.237 186.062 199.301 185.838C199.365 185.583 199.205 185.328 198.982 185.264H198.95L198.056 185.041H198.024C197.801 184.977 197.546 185.136 197.482 185.36C197.418 185.615 197.578 185.87 197.801 185.934Z" fill="white"/>
<path d="M200.928 186.668L201.886 186.86C202.109 186.892 202.364 186.732 202.428 186.509C202.46 186.253 202.3 186.03 202.077 185.966L201.12 185.775C200.896 185.711 200.641 185.871 200.577 186.126C200.545 186.349 200.705 186.604 200.928 186.668Z" fill="white"/>
<path d="M204.087 187.275L205.044 187.434C205.268 187.466 205.491 187.306 205.555 187.083C205.587 186.828 205.427 186.604 205.172 186.572V186.541L204.247 186.381C203.991 186.349 203.768 186.509 203.736 186.764C203.672 186.987 203.832 187.243 204.087 187.275Z" fill="white"/>
<path d="M207.246 187.785L208.204 187.913C208.459 187.945 208.682 187.753 208.714 187.53C208.746 187.275 208.555 187.051 208.331 187.019L207.374 186.892C207.119 186.86 206.927 187.019 206.863 187.275C206.832 187.53 207.023 187.721 207.246 187.785Z" fill="white"/>
<path d="M210.437 188.167L211.395 188.263C211.65 188.263 211.842 188.104 211.873 187.848C211.905 187.625 211.714 187.402 211.491 187.402L210.533 187.306C210.278 187.274 210.086 187.433 210.055 187.689C210.023 187.912 210.214 188.135 210.437 188.167Z" fill="white"/>
<path d="M213.628 188.423L214.586 188.487C214.841 188.487 215.033 188.327 215.064 188.104C215.064 187.849 214.873 187.657 214.65 187.625L213.692 187.562C213.469 187.562 213.246 187.721 213.246 187.976C213.214 188.2 213.405 188.423 213.628 188.423Z" fill="white"/>
<path d="M216.851 188.582L217.809 188.614C218.032 188.614 218.224 188.423 218.224 188.199C218.255 187.976 218.064 187.784 217.809 187.753H216.883H216.851C216.628 187.721 216.437 187.912 216.437 188.135C216.405 188.391 216.596 188.582 216.851 188.582Z" fill="white"/>
<path d="M220.042 188.615H221C221.223 188.615 221.415 188.423 221.415 188.2C221.415 187.977 221.223 187.785 221 187.785H220.042C219.819 187.785 219.628 187.977 219.628 188.2C219.628 188.455 219.819 188.647 220.042 188.615Z" fill="white"/>
<path d="M223.265 188.551L224.223 188.519C224.446 188.519 224.605 188.328 224.605 188.072C224.605 187.849 224.414 187.689 224.191 187.689H224.159L223.233 187.721H223.201C222.978 187.753 222.818 187.945 222.818 188.168C222.818 188.391 223.01 188.583 223.265 188.551Z" fill="white"/>
<path d="M226.457 188.359L227.414 188.295C227.637 188.263 227.797 188.072 227.797 187.848C227.765 187.625 227.573 187.465 227.35 187.497L226.393 187.561C226.169 187.593 226.01 187.784 226.01 188.008C226.042 188.231 226.233 188.391 226.457 188.359Z" fill="white"/>
<path d="M229.648 188.071L230.605 187.944C230.828 187.944 230.988 187.72 230.956 187.529C230.924 187.306 230.733 187.146 230.509 187.178L229.552 187.274C229.328 187.306 229.169 187.497 229.201 187.72C229.233 187.944 229.424 188.103 229.648 188.071Z" fill="white"/>
<path d="M232.839 187.657L233.764 187.497C233.987 187.466 234.147 187.274 234.115 187.051C234.083 186.859 233.86 186.7 233.668 186.732L232.711 186.859C232.488 186.891 232.328 187.115 232.36 187.338C232.392 187.529 232.615 187.689 232.839 187.657Z" fill="white"/>
<path d="M235.998 187.115L236.923 186.955C237.146 186.891 237.274 186.7 237.242 186.476C237.21 186.285 236.987 186.125 236.795 186.189L235.838 186.349C235.647 186.412 235.487 186.604 235.519 186.827C235.583 187.019 235.774 187.178 235.998 187.115Z" fill="white"/>
<path d="M239.125 186.477L240.05 186.253C240.274 186.221 240.401 185.998 240.338 185.807C240.306 185.583 240.114 185.456 239.891 185.519L238.965 185.743C238.742 185.775 238.614 185.998 238.678 186.189C238.71 186.381 238.934 186.54 239.125 186.477Z" fill="white"/>
<path d="M242.252 185.71L243.178 185.455C243.369 185.423 243.497 185.2 243.433 185.008C243.369 184.817 243.178 184.689 242.986 184.753L242.061 184.976C241.838 185.04 241.742 185.232 241.774 185.455C241.838 185.646 242.029 185.774 242.252 185.71Z" fill="white"/>
<path d="M245.316 184.817L246.241 184.53C246.433 184.498 246.529 184.274 246.465 184.083C246.401 183.891 246.209 183.796 246.018 183.86L245.124 184.147H245.093C244.901 184.179 244.805 184.402 244.869 184.593C244.933 184.785 245.124 184.881 245.316 184.817Z" fill="white"/>
<path d="M248.379 183.828L249.273 183.509C249.464 183.445 249.56 183.254 249.496 183.062C249.432 182.871 249.209 182.775 249.049 182.839H249.017L248.124 183.158C247.932 183.222 247.837 183.445 247.9 183.605C247.964 183.796 248.188 183.892 248.347 183.828H248.379Z" fill="white"/>
<path d="M251.378 182.711L252.272 182.36C252.431 182.297 252.527 182.105 252.463 181.914C252.368 181.754 252.176 181.658 252.017 181.722L251.123 182.073C250.932 182.169 250.868 182.36 250.932 182.52C250.996 182.711 251.187 182.807 251.378 182.711Z" fill="white"/>
<path d="M254.314 181.498L255.208 181.115C255.367 181.019 255.431 180.828 255.367 180.668C255.303 180.509 255.112 180.413 254.952 180.509H254.92L254.059 180.892C253.899 180.956 253.804 181.147 253.899 181.339C253.963 181.498 254.155 181.562 254.314 181.498Z" fill="white"/>
<path d="M257.218 180.158L258.08 179.711C258.239 179.648 258.303 179.456 258.239 179.297C258.175 179.137 257.984 179.073 257.824 179.169L256.963 179.584C256.803 179.648 256.739 179.839 256.803 179.999C256.867 180.158 257.059 180.222 257.218 180.158Z" fill="white"/>
<path d="M260.09 178.69L260.92 178.244C261.08 178.148 261.144 177.957 261.048 177.829C260.984 177.669 260.793 177.605 260.633 177.701L259.803 178.148C259.644 178.244 259.58 178.403 259.676 178.563C259.739 178.722 259.931 178.786 260.09 178.69Z" fill="white"/>
<path d="M262.866 177.127L263.696 176.616C263.824 176.52 263.888 176.361 263.792 176.201C263.696 176.074 263.537 176.01 263.377 176.106L262.579 176.616C262.42 176.68 262.388 176.872 262.452 177.031C262.547 177.159 262.739 177.191 262.866 177.127Z" fill="white"/>
<path d="M265.579 175.403L266.377 174.829C266.504 174.733 266.536 174.574 266.44 174.446C266.345 174.318 266.185 174.286 266.026 174.35V174.382L265.26 174.925C265.132 175.02 265.1 175.18 265.164 175.308C265.26 175.435 265.451 175.467 265.579 175.403Z" fill="white"/>
<path d="M268.163 173.457L268.897 172.85C269.025 172.755 269.025 172.563 268.929 172.467C268.834 172.34 268.674 172.34 268.546 172.435L267.812 173.042C267.685 173.137 267.653 173.297 267.749 173.425C267.844 173.552 268.036 173.552 268.163 173.457Z" fill="white"/>
<path d="M270.557 171.319L271.227 170.617C271.323 170.521 271.323 170.33 271.227 170.234C271.099 170.138 270.94 170.138 270.844 170.234V170.266L270.174 170.936C270.046 171.032 270.078 171.223 270.174 171.319C270.27 171.415 270.429 171.415 270.557 171.319Z" fill="white"/>
<path d="M272.663 168.894L273.238 168.128C273.333 168 273.301 167.841 273.206 167.745C273.078 167.681 272.919 167.713 272.855 167.809H272.823L272.28 168.575C272.185 168.702 272.216 168.862 272.312 168.958C272.44 169.022 272.599 169.022 272.663 168.894Z" fill="white"/>
<path d="M274.45 166.181L274.897 165.319C274.961 165.224 274.897 165.064 274.769 165C274.673 164.936 274.514 165 274.45 165.096V165.128L274.003 165.958C273.94 166.085 274.003 166.245 274.099 166.309C274.227 166.372 274.386 166.309 274.45 166.181Z" fill="white"/>
<path d="M275.726 163.246L276.013 162.288C276.045 162.193 275.981 162.033 275.854 162.001C275.726 161.969 275.599 162.033 275.567 162.161V162.193L275.279 163.086C275.248 163.214 275.311 163.342 275.439 163.405C275.567 163.437 275.694 163.373 275.726 163.246Z" fill="white"/>
<path d="M276.429 160.086L276.524 159.097C276.524 159.001 276.429 158.873 276.301 158.873C276.173 158.841 276.078 158.937 276.078 159.065V159.097L275.982 160.022C275.982 160.15 276.046 160.277 276.173 160.277C276.301 160.277 276.429 160.214 276.429 160.086Z" fill="white"/>
<path d="M276.492 156.831L276.396 155.874C276.365 155.778 276.269 155.683 276.141 155.683C276.045 155.715 275.95 155.81 275.982 155.938L276.045 156.863V156.895C276.077 156.991 276.173 157.087 276.301 157.087C276.396 157.055 276.492 156.959 276.492 156.863V156.831Z" fill="white"/>
<path d="M275.95 153.673L275.694 152.747C275.663 152.652 275.535 152.588 275.439 152.62C275.343 152.652 275.28 152.747 275.311 152.843L275.567 153.768C275.599 153.864 275.694 153.928 275.822 153.896C275.918 153.896 275.982 153.768 275.95 153.673Z" fill="white"/>
<path d="M274.897 150.641L274.482 149.747C274.45 149.652 274.322 149.62 274.259 149.684C274.163 149.716 274.131 149.811 274.163 149.907L274.578 150.769C274.61 150.864 274.705 150.896 274.801 150.864C274.897 150.832 274.929 150.705 274.897 150.641Z" fill="white"/>
<path d="M273.365 147.801L272.823 147.003C272.791 146.939 272.695 146.907 272.599 146.939C272.535 147.003 272.535 147.099 272.567 147.163L273.11 147.96C273.142 148.056 273.237 148.056 273.333 148.024C273.397 147.96 273.429 147.865 273.365 147.801Z" fill="white"/>
<path d="M271.45 145.247L270.78 144.513C270.716 144.481 270.652 144.45 270.589 144.513C270.525 144.577 270.525 144.673 270.557 144.705H270.589L271.227 145.439C271.259 145.503 271.354 145.503 271.418 145.439C271.482 145.375 271.482 145.279 271.45 145.247Z" fill="white"/>
<path d="M269.121 143.014L268.355 142.408C268.323 142.376 268.227 142.376 268.196 142.44C268.164 142.471 268.164 142.567 268.227 142.599L268.961 143.205C269.025 143.237 269.089 143.237 269.153 143.174C269.185 143.142 269.185 143.046 269.121 143.014Z" fill="white"/>
<path d="M266.472 141.195L265.643 140.717C265.579 140.685 265.515 140.717 265.483 140.78C265.451 140.812 265.483 140.876 265.547 140.908L266.377 141.387C266.441 141.419 266.504 141.387 266.536 141.323C266.568 141.291 266.536 141.227 266.472 141.195Z" fill="white"/>
<path d="M263.568 139.854C263.249 139.759 262.962 139.631 262.643 139.567C262.611 139.535 262.547 139.567 262.547 139.631C262.515 139.663 262.547 139.727 262.611 139.727C262.898 139.822 263.217 139.918 263.505 140.014C263.568 140.046 263.6 140.014 263.632 139.982C263.632 139.918 263.632 139.854 263.568 139.854Z" fill="white"/>
<path d="M260.473 139.057L259.516 138.93C259.484 138.93 259.42 138.962 259.42 138.994C259.42 139.025 259.452 139.089 259.484 139.089L260.441 139.217C260.473 139.217 260.537 139.185 260.537 139.153C260.537 139.121 260.505 139.057 260.473 139.057Z" fill="white"/>
<path d="M257.282 138.802L256.325 138.834C256.293 138.834 256.261 138.866 256.261 138.897C256.261 138.929 256.293 138.961 256.325 138.961L257.282 138.929C257.314 138.929 257.346 138.897 257.346 138.866C257.346 138.834 257.314 138.802 257.282 138.802Z" fill="white"/>
<path d="M254.091 139.058L253.134 139.217C253.112 139.238 253.102 139.26 253.102 139.281C253.123 139.302 253.144 139.313 253.166 139.313L254.091 139.153C254.123 139.153 254.155 139.121 254.155 139.09C254.123 139.058 254.123 139.058 254.091 139.058Z" fill="white"/>
<path d="M250.964 139.76L250.07 140.079C250.049 140.079 250.038 140.09 250.038 140.111C250.06 140.111 250.07 140.111 250.07 140.111L250.996 139.824C251.017 139.824 251.017 139.813 250.996 139.792C250.996 139.77 250.985 139.76 250.964 139.76Z" fill="white"/>
<path d="M247.996 140.908L247.135 141.323C247.135 141.344 247.135 141.355 247.135 141.355L247.996 140.94C247.996 140.94 247.996 140.929 247.996 140.908Z" fill="white"/>
<path d="M247.983 54.2204L116.69 46.9275C113.661 46.7847 110.94 49.949 110.94 52.6133V214.971C110.94 218.664 114.869 219.407 117.89 219.107L247.983 206.35C250.362 206.114 252.276 204.028 252.276 201.685V58.6633C252.276 56.3204 250.362 54.3275 247.983 54.2204Z" fill="#97A6B7"/>
<path d="M250.14 52.9274L118.59 46.7131C115.561 46.5702 113.104 48.6274 113.104 51.3131V214.935C113.104 217.621 115.561 219.549 118.59 219.249L250.14 206.249C252.519 206.014 254.433 203.906 254.433 201.549V57.406C254.433 55.0488 252.519 53.0417 250.14 52.9274Z" fill="#D8DEE8"/>
<path opacity="0.74" d="M118.59 217.035C116.954 217.192 115.625 216.142 115.625 214.699V51.4203C115.625 49.9774 116.954 48.856 118.59 48.9346L250.14 54.8989C251.426 54.956 252.469 56.0489 252.469 57.3203V201.735C252.469 203.014 251.426 204.149 250.14 204.278L118.59 217.035Z" fill="white"/>
<path d="M241.662 200.406L129.147 210.813V60.1768L241.662 64.2411V200.406Z" fill="white"/>
<g style="mix-blend-mode:multiply" opacity="0.3">
<path d="M196.662 64.984L151.69 65.5197L152.697 55.7839C152.776 54.5196 153.726 53.4768 154.983 53.2911L162.597 52.1696C163.497 52.0339 164.269 51.4696 164.661 50.6482L165.483 48.9268L185.404 50.1125L196.662 64.984Z" fill="#97A6B7"/>
</g>
<path fill-rule="evenodd" clip-rule="evenodd" d="M222.362 67.4128C222.505 68.12 221.869 68.8414 221.119 68.8128L152.761 66.6343C151.919 66.6057 151.44 65.8057 151.826 65.0628L156.576 56.0128C157.169 54.8842 158.44 54.1556 159.733 54.2128L167.611 54.5556C171.119 54.7056 174.426 52.3342 175.297 49.0556L177.326 41.477C177.697 40.077 179.097 39.0842 180.576 39.1627L183.012 39.3056C184.283 39.377 185.583 38.7484 186.326 37.6056C186.59 37.1984 186.754 36.7413 186.826 36.277C187.297 33.1556 190.297 30.8056 193.504 31.0127C196.69 31.2198 198.89 33.877 198.447 36.9627C198.19 38.7199 199.39 40.2485 201.19 40.3485L203.554 40.4842C204.962 40.5627 205.99 41.6699 205.94 43.0556L205.662 50.5199C205.54 53.7414 207.933 56.2914 211.197 56.4271L218.383 56.7414C219.54 56.7914 220.462 57.5628 220.669 58.6628L222.362 67.4128ZM194.483 35.9342C194.619 35.0199 193.969 34.2341 193.033 34.177C192.09 34.1199 191.219 34.8127 191.076 35.727C190.94 36.6413 191.597 37.427 192.533 37.4842C193.476 37.5342 194.347 36.8413 194.483 35.9342Z" fill="url(#paint3_linear_950_70059)"/>
<path fill-rule="evenodd" clip-rule="evenodd" d="M222.769 67.613C222.905 68.3273 222.276 69.0416 221.526 69.0201L153.169 66.8344C152.319 66.813 151.84 66.0058 152.233 65.2701L156.983 56.213C157.576 55.0844 158.84 54.3629 160.133 54.4129L168.019 54.7558C171.526 54.9058 174.826 52.5344 175.704 49.2558L177.726 41.6772C178.104 40.2772 179.504 39.2843 180.983 39.37L183.412 39.5058C184.69 39.5843 185.99 38.9557 186.726 37.8129C186.997 37.3986 187.155 36.9415 187.226 36.4772C187.705 33.3629 190.705 31.0057 193.912 31.2129C197.097 31.4272 199.29 34.0843 198.847 37.1629C198.597 38.9272 199.797 40.4486 201.597 40.5486L203.955 40.6843C205.369 40.77 206.397 41.8772 206.347 43.2558L206.069 50.7272C205.947 53.9487 208.34 56.4915 211.597 56.6344L218.783 56.9415C219.947 56.9915 220.862 57.763 221.076 58.863L222.769 67.613ZM194.89 36.1343C195.026 35.2272 194.376 34.4414 193.433 34.3772C192.497 34.32 191.619 35.0129 191.483 35.9272C191.347 36.8415 191.997 37.6272 192.94 37.6843C193.883 37.7415 194.755 37.0486 194.89 36.1343Z" fill="#97A6B7"/>
<g style="mix-blend-mode:soft-light" opacity="0.5">
<path d="M209.376 63.0275C203.283 59.4132 198.605 61.9704 194.805 57.8989C190.733 53.5346 193.476 47.7846 189.269 45.0774C186.576 43.3417 184.169 44.8703 181.04 44.3989C179.89 44.2274 178.662 43.7917 177.39 42.9346L175.704 49.256C174.826 52.5346 171.526 54.906 168.019 54.756L160.133 54.4203C158.84 54.3632 157.576 55.0846 156.983 56.2132L152.233 65.2704C151.84 66.0061 152.319 66.8132 153.169 66.8347L215.29 68.8204C213.726 66.4347 211.783 64.4489 209.376 63.0275Z" fill="white"/>
</g>
<path fill-rule="evenodd" clip-rule="evenodd" d="M155.062 142.085L143.54 142.456V131.77L155.062 131.499V142.085ZM144.533 132.735V141.428L154.062 141.12V132.513L144.533 132.735Z" fill="#D8DEE8"/>
<path d="M231.533 139.606L159.304 141.949V131.399L231.533 129.691V139.606Z" fill="#D8DEE8"/>
<path fill-rule="evenodd" clip-rule="evenodd" d="M155.062 157.514L143.54 158.035V147.342L155.062 146.928V157.514ZM144.533 148.299V156.992L154.062 156.563V147.956L144.533 148.299Z" fill="#D8DEE8"/>
<path d="M231.533 154.056L159.304 157.321V146.77L231.533 144.135V154.056Z" fill="#D8DEE8"/>
<path fill-rule="evenodd" clip-rule="evenodd" d="M155.062 172.942L143.54 173.614V162.921L155.062 162.356V172.942ZM144.533 163.864V172.556L154.062 171.999V163.392L144.533 163.864Z" fill="#D8DEE8"/>
<path d="M231.533 168.499L159.304 172.692V162.142L231.533 158.585V168.499Z" fill="#D8DEE8"/>
<path fill-rule="evenodd" clip-rule="evenodd" d="M155.062 188.37L143.54 189.185V178.499L155.062 177.777V188.37ZM144.533 179.434V188.12L154.062 187.449V178.842L144.533 179.434Z" fill="#D8DEE8"/>
<path d="M231.533 182.949L159.304 188.071V177.521L231.533 173.035V182.949Z" fill="#D8DEE8"/>
<path fill-rule="evenodd" clip-rule="evenodd" d="M143.54 122.356C143.411 122.356 143.283 122.306 143.19 122.213C143.097 122.12 143.04 121.991 143.04 121.856V71.9697C143.04 71.834 143.097 71.7054 143.197 71.6126C143.29 71.5197 143.419 71.4697 143.554 71.4697L189.362 72.6412C189.626 72.6483 189.84 72.8697 189.84 73.1412V121.148C189.84 121.42 189.626 121.641 189.354 121.648L143.547 122.356C143.547 122.356 143.545 122.356 143.54 122.356ZM144.04 72.4769V121.356L188.847 120.663V73.6269L144.04 72.4769Z" fill="#D8DEE8"/>
<path d="M231.533 80.32L196.54 79.6129V73.3271L231.533 74.22V80.32Z" fill="#D8DEE8"/>
<path d="M231.533 93.8632L196.54 93.5774V90.4346L231.533 90.8131V93.8632Z" fill="#D8DEE8"/>
<path d="M231.533 98.8847L196.54 98.7561V95.6133L231.533 95.8347V98.8847Z" fill="#D8DEE8"/>
<path d="M231.533 103.906L196.54 103.935V100.792L231.533 100.856V103.906Z" fill="#D8DEE8"/>
<path d="M160.311 92.7557C159.99 92.4842 159.411 91.9985 159.133 91.2057C158.747 90.0985 159.311 89.4699 159.211 88.2771C159.111 87.0985 158.476 86.7628 157.79 85.4699C157.404 84.7271 155.99 82.0628 157.083 79.877C158.061 77.9199 160.883 76.6842 162.819 77.2842C164.447 77.7913 164.476 79.2842 166.254 79.6199C167.719 79.8913 168.204 78.9699 169.661 79.3913C170.183 79.5413 170.854 80.0913 172.211 81.1842C173.261 82.0342 173.783 82.4628 173.983 82.8842C174.497 83.9985 174.054 85.1842 173.826 85.7771C173.276 87.2271 172.583 87.2414 172.133 88.4342C171.519 90.0771 172.554 90.7985 172.133 91.9128C171.111 94.6485 163.054 95.0557 160.311 92.7557Z" fill="url(#paint4_linear_950_70059)"/>
<path d="M145.326 120.084V100.956L151.997 100.027L180.483 99.7627L187.69 100.898V119.491L145.326 120.084Z" fill="#D8DEE8"/>
<path d="M167.919 87.8271C168.252 90.7653 168.583 93.701 168.911 96.6343C168.997 97.4272 169.676 98.0558 170.526 98.1272C173.861 98.3986 177.183 99.4986 180.483 99.7629L165.69 104.256L151.997 100.027C155.597 99.5486 158.569 98.8843 161.211 98.1272C161.883 97.9343 162.376 97.3915 162.454 96.7343C162.688 94.9153 162.919 93.0962 163.147 91.2772L167.919 87.8271Z" fill="url(#paint5_linear_950_70059)"/>
<path d="M172.476 89.8061C172.262 90.7561 171.197 91.899 170.783 91.8133C170.369 91.7275 170.205 90.8918 170.419 89.9347C170.633 88.9847 171.14 88.2847 171.555 88.3704C171.969 88.4561 172.69 88.8561 172.476 89.8061Z" fill="url(#paint6_linear_950_70059)"/>
<path d="M158.862 89.6561C159.076 90.6204 160.169 91.799 160.59 91.7204C161.012 91.6418 161.176 90.799 160.954 89.8347C160.74 88.8704 160.226 88.149 159.804 88.2275C159.383 88.299 158.647 88.6918 158.862 89.6561Z" fill="url(#paint7_linear_950_70059)"/>
<path d="M171.533 87.5486C171.533 91.8486 168.926 96.8701 165.69 96.8558C162.44 96.8343 159.797 91.7343 159.797 87.3986C159.797 83.0629 162.44 81.1629 165.69 81.22C168.926 81.2771 171.533 83.2557 171.533 87.5486Z" fill="url(#paint8_linear_950_70059)"/>
<path d="M158.369 84.8063C158.461 85.5634 158.926 86.892 160.069 87.3206C161.169 87.7348 162.211 87.042 167.169 85.3277C168.026 85.0277 168.397 84.9134 168.847 85.042C170.854 85.6348 170.547 90.0563 171.269 90.092C171.84 90.1206 173.111 87.3706 172.19 84.7134C171.326 82.242 168.997 81.0705 168.426 80.7991C168.176 80.6777 164.319 78.8848 161.09 80.742C160.619 81.0062 158.083 82.5491 158.369 84.8063Z" fill="url(#paint9_linear_950_70059)"/>
<path d="M149.233 140.642C148.933 140.656 148.654 140.521 148.497 140.292L145.604 136.028C145.347 135.664 145.475 135.164 145.883 134.928C146.29 134.685 146.825 134.785 147.075 135.156L149.218 138.306L153.361 131.649C153.597 131.271 154.118 131.128 154.525 131.342C154.933 131.556 155.068 132.035 154.833 132.414L149.975 140.228C149.825 140.471 149.547 140.628 149.24 140.642C149.24 140.642 149.237 140.642 149.233 140.642Z" fill="url(#paint10_linear_950_70059)"/>
<path d="M149.233 172.063C148.933 172.077 148.654 171.956 148.497 171.727L145.604 167.542C145.347 167.177 145.475 166.685 145.883 166.435C146.29 166.177 146.825 166.27 147.075 166.627L149.218 169.727L153.361 162.963C153.597 162.577 154.118 162.42 154.525 162.62C154.933 162.827 155.068 163.299 154.833 163.692L149.975 171.627C149.825 171.877 149.547 172.042 149.24 172.063C149.24 172.063 149.237 172.063 149.233 172.063Z" fill="url(#paint11_linear_950_70059)"/>
<path d="M149.233 156.427C148.933 156.434 148.654 156.306 148.497 156.077L145.604 151.856C145.347 151.492 145.475 150.999 145.883 150.749C146.29 150.506 146.825 150.599 147.075 150.963L149.218 154.092L153.361 147.377C153.597 146.992 154.118 146.849 154.525 147.056C154.933 147.256 155.068 147.734 154.833 148.12L149.975 155.999C149.825 156.249 149.547 156.406 149.24 156.42C149.24 156.425 149.237 156.427 149.233 156.427Z" fill="url(#paint12_linear_950_70059)"/>
<path d="M149.233 186.349C148.933 186.371 148.654 186.249 148.497 186.021L145.604 181.871C145.347 181.513 145.475 181.013 145.883 180.756C146.29 180.499 146.825 180.585 147.075 180.942L149.218 184.013L153.361 177.206C153.597 176.813 154.118 176.649 154.525 176.849C154.933 177.042 155.068 177.52 154.833 177.913L149.975 185.906C149.825 186.156 149.547 186.328 149.24 186.349C149.24 186.349 149.237 186.349 149.233 186.349Z" fill="url(#paint13_linear_950_70059)"/>
<path d="M197.669 219.264C197.669 219.264 197.126 221.457 197.105 222.257C197.09 223.049 205.84 224.157 205.976 223.571C206.119 222.985 204.647 221.921 203.59 221.499C202.533 221.078 199.433 219.935 199.433 219.935L197.669 219.264Z" fill="url(#paint14_linear_950_70059)"/>
<path d="M199.976 217.213L199.476 219.956C199.476 219.956 198.397 220.549 197.54 219.956L197.333 216.913L199.976 217.213Z" fill="url(#paint15_linear_950_70059)"/>
<path d="M181.697 221.613C181.697 221.613 181.162 223.806 181.14 224.606C181.126 225.399 189.876 226.506 190.012 225.92C190.147 225.335 188.683 224.27 187.626 223.849C186.569 223.428 183.469 222.285 183.469 222.285L181.697 221.613Z" fill="url(#paint16_linear_950_70059)"/>
<path d="M184.012 219.564L183.512 222.307C183.512 222.307 182.433 222.899 181.576 222.307L181.369 219.264L184.012 219.564Z" fill="url(#paint17_linear_950_70059)"/>
<path d="M204.169 144.871C205.021 147.009 205.871 149.149 206.719 151.292C206.598 163.107 205.976 175.914 204.619 189.557C203.612 199.707 202.298 209.3 200.79 218.271C199.419 218.1 198.048 217.928 196.676 217.757C195.005 213.643 193.133 207.464 193.512 200.057C193.897 192.328 196.319 191.492 196.762 184.1C197.34 174.521 193.533 171.65 192.312 159.964C191.847 155.499 191.762 149.707 192.976 142.785C196.705 143.48 200.436 144.176 204.169 144.871Z" fill="url(#paint18_linear_950_70059)"/>
<path style="mix-blend-mode:multiply" opacity="0.3" d="M192.976 142.785C194.99 143.161 197.005 143.538 199.019 143.914C202.169 150.571 202.655 157.278 201.783 160.157C200.54 164.235 198.033 165.371 197.833 169.542C197.633 173.671 199.969 174.935 201.126 179.914C201.919 183.364 201.39 186.428 200.298 192.428C198.105 204.507 194.862 207.993 197.005 212.185C197.619 213.371 198.769 214.828 201.155 216.057C201.033 216.8 200.919 217.543 200.79 218.271C199.419 218.1 198.048 217.928 196.676 217.757C195.005 213.643 193.133 207.464 193.512 200.057C193.897 192.328 196.319 191.492 196.762 184.1C197.34 174.521 193.533 171.65 192.312 159.964C191.847 155.499 191.762 149.707 192.976 142.785Z" fill="url(#paint19_linear_950_70059)"/>
<path d="M198.404 148.135C195.669 158.385 193.09 169.371 190.833 181.064C188.104 195.185 186.183 208.549 184.847 220.992C183.333 220.916 181.819 220.838 180.304 220.757C175.297 208.499 175.569 200.485 176.847 195.349C177.34 193.371 178.547 189.514 179.226 183.664C179.697 179.578 179.683 176.442 179.661 172.671C179.604 164.399 178.876 162.542 179.254 156.249C179.611 150.342 179.826 147.356 181.647 145.749C186.447 141.521 197.561 147.663 198.404 148.135Z" fill="url(#paint20_linear_950_70059)"/>
<path d="M207.712 153.492C209.347 151.206 207.719 148.742 207.669 144.156C207.612 138.956 209.669 138.256 212.319 129.863C214.083 124.284 215.776 118.927 214.79 112.413C214.312 109.292 213.512 103.999 209.419 101.149C207.304 99.6772 204.262 99.5629 198.269 99.3987C190.862 99.1915 187.154 99.0915 184.283 100.32C183.869 100.499 175.126 104.377 173.962 111.756C172.769 119.263 180.912 120.942 181.204 131.099C181.333 135.663 179.897 142.549 178.969 147.013C178.069 151.299 177.604 152.377 178.354 153.763C180.162 157.085 186.54 156.692 199.304 155.899C204.312 155.592 206.483 155.199 207.712 153.492Z" fill="url(#paint21_linear_950_70059)"/>
<path style="mix-blend-mode:multiply" opacity="0.3" d="M190.254 130.192C189.569 132.113 187.533 133.427 185.812 138.099C185.44 139.106 182.797 146.285 185.319 148.306C186.776 149.47 188.312 147.606 192.069 147.649C198.576 147.72 201.219 153.406 205.569 152.256C206.319 152.056 207.333 151.585 208.405 150.399C208.505 151.556 208.39 152.542 207.712 153.492C206.483 155.199 204.312 155.592 199.304 155.899C186.54 156.692 180.162 157.085 178.354 153.763C177.604 152.378 178.069 151.299 178.969 147.013C179.897 142.549 181.333 135.663 181.204 131.099C180.912 120.942 172.769 119.263 173.962 111.756C174.276 109.749 175.162 108.013 176.283 106.527C186.383 111.585 192.426 124.156 190.254 130.192Z" fill="url(#paint22_linear_950_70059)"/>
<path d="M175.883 143.999L177.869 145.499C178.276 145.099 179.212 144.292 180.59 144.106C182.147 143.892 183.862 144.513 183.862 144.999C183.862 145.392 182.762 145.706 182.597 145.749C181.226 146.135 180.269 145.649 179.683 146.142C179.483 146.313 179.212 146.649 178.64 146.928C178.49 147.006 178.333 147.07 178.255 147.092C177.34 147.37 175.933 145.699 175.819 145.549L175.883 143.999Z" fill="url(#paint23_linear_950_70059)"/>
<path d="M184.247 117.106C186.047 113.613 187.54 108.156 185.812 99.7344C169.597 104.67 160.397 118.713 162.597 130.606C164.412 140.413 173.426 145.835 175.44 146.985C176.016 145.918 176.593 144.849 177.169 143.777C174.955 140.877 172.54 136.663 173.297 132.134C174.34 125.856 180.605 124.184 184.247 117.106Z" fill="url(#paint24_linear_950_70059)"/>
<path d="M198.476 91.9199C198.476 91.9199 198.133 94.6628 197.119 96.6556C196.197 98.4557 192.047 99.2985 191.19 99.6485C190.333 99.9985 192.597 101.399 194.954 101.827C197.304 102.263 204.126 102.263 205.419 101.463C206.719 100.663 204.504 100.549 202.862 99.7914C201.219 99.0342 200.504 95.6414 200.926 94.1628C201.34 92.6842 198.476 91.9199 198.476 91.9199Z" fill="url(#paint25_linear_950_70059)"/>
<path d="M202.312 91.2271C203.64 90.1128 203.826 89.9914 203.99 89.5842C204.662 87.9485 203.548 85.5414 201.883 84.8414C201.798 84.8056 200.683 84.3414 200.205 84.8056C199.798 85.1985 200.298 85.8271 199.976 86.6199C199.669 87.3628 199.005 87.3628 197.705 88.2628C196.626 89.0057 195.962 89.4628 195.762 90.1771C195.34 91.6342 196.969 93.9271 198.562 93.9914C199.133 94.02 199.312 93.7414 202.312 91.2271Z" fill="url(#paint26_linear_950_70059)"/>
<path d="M198.697 94.2343C198.697 94.2343 199.883 95.82 201.919 95.4915C203.74 95.1986 203.612 91.0629 202.362 90.2986C201.94 90.0486 201.147 90.0057 200.526 90.2414C200.162 90.3843 200.055 90.5557 199.447 90.77C198.897 90.9771 198.726 90.9271 198.569 91.0843C198.376 91.2914 198.255 91.7486 198.733 92.9129C198.347 92.5914 197.919 92.4986 197.633 92.67C197.59 92.6914 197.469 92.7914 197.412 92.9272C197.197 93.42 197.683 93.9843 198.697 94.2343Z" fill="url(#paint27_linear_950_70059)"/>
<path d="M243.233 222.235C243.233 222.235 243.448 223.95 243.305 224.528C243.155 225.1 238.169 225.514 236.476 225.314C234.783 225.114 237.483 223.385 238.562 223.064C239.641 222.735 243.233 222.235 243.233 222.235Z" fill="url(#paint28_linear_950_70059)"/>
<path d="M240.719 219.371L241.247 222.814C241.247 222.814 242.583 223.421 243.233 222.821L243.304 219.221L240.719 219.371Z" fill="url(#paint29_linear_950_70059)"/>
<path d="M268.848 219.221C268.848 219.221 267.791 220.006 268.069 220.942C268.355 221.885 270.826 225.657 272.584 226.728C274.348 227.792 273.791 225.564 273.284 224.178C272.769 222.792 271.462 219.728 270.948 219.221C270.441 218.706 268.848 219.221 268.848 219.221Z" fill="url(#paint30_linear_950_70059)"/>
<path d="M266.94 215.435C267.455 216.863 267.948 218.035 268.333 218.899C269.183 220.813 269.648 221.535 270.176 222.156C270.64 222.699 271.726 223.856 272.019 223.663C272.319 223.463 271.519 222.056 269.983 217.935C269.762 217.342 269.055 215.435 269.055 215.435H266.94Z" fill="url(#paint31_linear_950_70059)"/>
<path d="M230.269 155.827C229.904 159.413 229.554 164.977 230.076 171.734C230.762 180.534 232.519 186.099 234.726 195.485C236.076 201.22 237.89 209.656 239.54 220.213C239.919 220.427 241.04 221.006 242.49 220.792C243.297 220.67 243.905 220.349 244.262 220.12C248.576 206.935 247.297 198.763 245.219 193.67C244.333 191.506 243.255 189.792 242.676 186.456C241.919 182.042 242.862 179.577 244.197 169.356C245.155 162.07 244.99 160.942 244.355 159.849C241.812 155.484 234.026 155.57 230.269 155.827Z" fill="url(#paint32_linear_950_70059)"/>
<path d="M203.44 118.935C203.44 118.935 202.833 116.556 201.826 115.928C200.819 115.306 199.39 114.635 199.069 114.356C198.74 114.085 198.354 114.906 199.297 115.535C200.24 116.163 200.24 116.163 200.24 116.163C200.261 116.342 200.233 116.478 200.197 116.57C200.054 117.013 199.54 117.32 198.911 117.378C196.504 117.885 195.561 117.906 195.19 117.799C195.133 117.785 194.926 117.72 194.84 117.813C194.697 117.963 194.954 118.435 195.061 118.599C195.711 119.599 197.976 120.028 199.676 119.249C200.297 118.963 200.533 118.663 200.983 118.735C201.704 118.856 202.147 119.806 202.404 120.592L203.44 118.935Z" fill="url(#paint33_linear_950_70059)"/>
<path d="M245.119 157.356C247.762 171.006 250.362 178.178 252.319 182.235C252.804 183.235 254.419 186.464 255.947 191.085C257.297 195.178 257.862 198.192 258.154 199.521C259.062 203.699 261.319 209.814 267.376 217.828C267.454 217.871 268.483 218.457 269.476 217.935C269.976 217.671 270.219 217.25 270.319 217.05C269.526 209.392 268.619 202.957 267.833 197.985C267.662 196.942 266.933 192.385 265.79 186.357C265.34 183.999 264.69 180.549 263.904 176.999C262.926 172.585 261.426 166.571 259.112 159.371C254.45 158.699 249.785 158.028 245.119 157.356Z" fill="url(#paint34_linear_950_70059)"/>
<path d="M201.49 119.685C202.176 119.075 202.864 118.466 203.555 117.856C203.805 118.106 207.469 121.685 212.597 120.599C216.133 119.856 218.169 116.956 219.469 115.106C223.39 109.549 221.047 105.47 225.262 101.692C226.433 100.642 228.733 99.3705 230.233 99.7562C233.819 100.678 235.876 111.449 232.412 119.913C231.712 121.621 227.862 131.035 219.126 132.056C212.076 132.878 204.597 127.906 201.49 119.685Z" fill="white"/>
<path d="M242.869 103.37C241.369 101.984 238.504 100.384 237.062 96.6701C236.633 95.5558 235.097 91.5915 237.362 88.5629C238.704 86.7629 241.197 85.5415 243.397 85.9772C245.276 86.3486 245.569 87.6558 248.762 90.2915C250.004 91.313 252.004 92.963 254.226 93.8772C258.033 95.4487 260.326 93.9701 264.147 94.1415C268.847 94.3487 274.305 96.9701 276.933 100.777C281.597 107.549 274.84 114.413 279.947 122.342C281.626 124.934 282.447 124.356 286.419 129.377C290.39 134.413 292.376 136.935 292.026 140.013C291.533 144.299 286.919 148.385 282.583 148.663C278.34 148.935 275.64 145.599 273.483 147.056C271.947 148.099 272.826 150.12 271.19 152.549C269.09 155.677 264.955 156.299 264.283 156.399C258.083 157.335 249.726 150.063 246.176 141.456C239.776 125.92 251.019 110.899 242.869 103.37Z" fill="url(#paint35_linear_950_70059)"/>
<path style="mix-blend-mode:multiply" opacity="0.3" d="M245.219 193.671C244.333 191.507 243.255 189.792 242.676 186.457C241.919 182.042 242.862 179.578 244.198 169.357C245.155 162.071 244.99 160.942 244.355 159.849C242.976 157.478 240.04 156.421 237.055 155.992C237.09 156.149 237.133 156.299 237.169 156.449C238.733 163.614 232.748 167.985 235.448 175.857C236.776 179.742 238.905 180.635 239.398 185.135C239.862 189.357 238.183 190.235 238.54 194.071C239.076 199.799 243.148 201.192 244.212 205.578C244.898 208.428 244.319 212.6 239.29 218.642C239.369 219.164 239.455 219.685 239.54 220.214C239.919 220.428 241.04 221.007 242.49 220.792C243.298 220.671 243.905 220.35 244.262 220.121C248.576 206.935 247.298 198.764 245.219 193.671Z" fill="url(#paint36_linear_950_70059)"/>
<path style="mix-blend-mode:multiply" opacity="0.15" d="M229.433 110.063C222.976 115.163 223.697 124.942 219.726 125.442C218.519 125.592 218.583 124.663 215.69 123.72C211.462 122.349 209.476 123.734 206.505 122.692C205.269 122.256 203.669 121.334 202.09 119.156C201.89 119.332 201.69 119.508 201.49 119.684C204.597 127.906 212.076 132.877 219.126 132.056C227.862 131.034 231.712 121.62 232.412 119.913C234.04 115.942 234.448 111.463 234.055 107.734C232.562 108.163 230.947 108.87 229.433 110.063Z" fill="url(#paint37_linear_950_70059)"/>
<path d="M224.755 102.335C225.147 101.721 226.405 100.021 231.74 98.7634C234.419 98.1348 239.362 97.0562 245.726 98.4062C254.469 100.256 259.912 105.506 261.962 107.706C260.283 108.799 255.655 112.135 253.362 118.456C252.647 120.428 250.54 127.156 253.555 133.456C255.29 137.085 258.362 139.814 260.697 141.878C264.198 144.985 266.012 145.464 267.183 148.242C268.462 151.271 267.176 152.749 268.762 154.828C270.469 157.049 272.462 156.014 275.355 158.271C278.312 160.578 277.255 162.478 279.948 165.028C283.862 168.728 289.048 167.528 289.29 169.192C289.498 170.628 285.812 172.571 282.683 173.364C276.476 174.921 271.069 172.299 269.462 171.492C265.005 169.256 265.776 167.806 262.376 166.099C256.69 163.242 252.805 166.421 239.855 166.749C232.84 166.928 229.29 166.964 227.347 164.592C225.576 162.428 226.505 160.049 227.569 149.799C227.912 146.378 228.633 139.214 228.633 135.128C228.64 132.714 227.797 128.771 226.126 120.885C226.026 120.421 225.119 116.163 224.39 110.471C223.733 105.349 223.826 103.771 224.755 102.335Z" fill="white"/>
<g style="mix-blend-mode:multiply" opacity="0.15">
<path d="M279.948 165.028C277.255 162.478 278.312 160.578 275.355 158.271C272.462 156.014 270.469 157.05 268.762 154.828C267.176 152.75 268.462 151.271 267.183 148.242C266.012 145.464 264.198 144.985 260.698 141.878C258.362 139.814 255.29 137.085 253.555 133.457C250.54 127.157 252.647 120.428 253.362 118.457C255.655 112.135 260.283 108.799 261.962 107.707C261.805 107.535 261.612 107.335 261.405 107.128C250.355 108.649 243.905 115.035 243.112 116.928C241.269 121.299 244.183 122.907 244.262 135.514C244.297 141.542 243.647 143.921 245.597 146.435C247.84 149.314 250.412 148.421 253.647 152.185C256.133 155.078 255.733 156.907 258.055 158.128C260.555 159.435 262.14 157.907 264.955 158.507C269.655 159.514 270.662 164.935 273.769 167.9C276.119 170.142 280.469 171.707 289.033 170.028C289.233 169.735 289.333 169.457 289.29 169.192C289.048 167.528 283.862 168.728 279.948 165.028Z" fill="url(#paint38_linear_950_70059)"/>
</g>
<path d="M232.069 117.627C232.069 117.627 244.176 101.813 251.062 100.077C249.448 99.4056 247.676 98.8199 245.726 98.4056C240.262 97.2485 235.84 97.877 233.012 98.477C232.362 100.563 229.812 109.377 232.069 117.627Z" fill="url(#paint39_linear_950_70059)"/>
<path d="M246.462 120.328C245.29 122.821 250.69 128.635 256.691 131.392C257.912 131.957 266.698 135.992 270.612 132.114C273.841 128.907 271.755 122.271 271.012 119.899C267.348 108.271 256.112 102.356 251.405 100.221C247.89 109.006 249.962 112.921 250.776 114.149C251.626 115.421 253.998 118.106 256.526 120.471C258.298 122.135 259.405 122.942 259.255 123.199C259.069 123.521 256.991 122.914 248.912 118.985C247.976 119.135 246.862 119.478 246.462 120.328Z" fill="white"/>
<path d="M242.14 91.5703C242.14 91.5703 242.698 96.0275 244.34 97.0489C245.99 98.0703 248.648 99.4061 248.94 99.7632C249.233 100.127 238.748 101.256 233.555 98.6346C235.269 98.2775 235.733 98.1418 235.733 98.1418C236.198 98.0132 237.062 97.7703 237.933 97.2775C238.526 96.9346 239.476 96.2775 240.355 95.0346L240.333 92.5703L242.14 91.5703Z" fill="url(#paint40_linear_950_70059)"/>
<path d="M242.39 93.1488C242.39 93.1488 241.319 94.6202 239.633 94.006C238.126 93.4631 239.026 89.5702 240.226 89.1274C240.619 88.9774 241.354 89.0417 241.84 89.3488C242.183 89.5631 243.104 90.7059 242.576 91.9845C242.962 91.8702 243.29 91.9702 243.376 92.1631C243.483 92.3988 243.162 92.7274 243.09 92.7988C242.833 93.056 242.533 93.1274 242.39 93.1488Z" fill="url(#paint41_linear_950_70059)"/>
<path d="M226.483 105.742L240.783 107.078C241.083 107.106 241.333 107.32 241.419 107.606L246.755 126.242C246.898 126.735 246.498 127.213 245.99 127.171L231.569 125.899C231.269 125.871 231.012 125.656 230.933 125.363L225.712 106.663C225.576 106.17 225.976 105.692 226.483 105.742Z" fill="url(#paint42_linear_950_70059)"/>
<path d="M248.505 119.742C248.505 119.742 243.576 114.706 241.576 113.956C239.569 113.213 241.348 118.527 242.519 119.277C243.69 120.027 244.155 120.313 245.069 120.427C245.983 120.542 245.983 120.542 245.983 120.542L247.183 121.184C247.183 121.184 248.733 120.999 248.505 119.742Z" fill="url(#paint43_linear_950_70059)"/>
<path style="mix-blend-mode:multiply" opacity="0.3" d="M235.998 121.856C235.462 118.913 237.126 116.628 235.533 113.87C233.89 111.028 231.019 111.506 228.948 109.163C228.29 108.42 227.705 107.363 227.412 105.828L226.483 105.742C225.976 105.692 225.576 106.17 225.712 106.663L230.933 125.363C231.012 125.656 231.269 125.871 231.569 125.899L238.89 126.542C237.026 124.871 236.262 123.263 235.998 121.856Z" fill="url(#paint44_linear_950_70059)"/>
<defs>
<linearGradient id="paint0_linear_950_70059" x1="-89.2354" y1="325.459" x2="203.743" y2="-58.28" gradientUnits="userSpaceOnUse">
<stop stop-color="#B37CFF"/>
<stop offset="1" stop-color="#F895E7"/>
</linearGradient>
<linearGradient id="paint1_linear_950_70059" x1="272.324" y1="49.0049" x2="326.199" y2="49.0049" gradientUnits="userSpaceOnUse">
<stop stop-color="#ED539F"/>
<stop offset="1" stop-color="#A061C2"/>
</linearGradient>
<linearGradient id="paint2_linear_950_70059" x1="103.407" y1="29.051" x2="55.7324" y2="29.051" gradientUnits="userSpaceOnUse">
<stop stop-color="#ED539F"/>
<stop offset="1" stop-color="#A061C2"/>
</linearGradient>
<linearGradient id="paint3_linear_950_70059" x1="151.69" y1="31.0011" x2="222.384" y2="31.0011" gradientUnits="userSpaceOnUse">
<stop stop-color="#444B8C"/>
<stop offset="0.996" stop-color="#26264F"/>
</linearGradient>
<linearGradient id="paint4_linear_950_70059" x1="185.203" y1="74.101" x2="169.558" y2="101.741" gradientUnits="userSpaceOnUse">
<stop stop-color="#444B8C"/>
<stop offset="0.996" stop-color="#26264F"/>
</linearGradient>
<linearGradient id="paint5_linear_950_70059" x1="150.607" y1="106.033" x2="189.558" y2="40.9264" gradientUnits="userSpaceOnUse">
<stop stop-color="#FFC444"/>
<stop offset="0.996" stop-color="#F36F56"/>
</linearGradient>
<linearGradient id="paint6_linear_950_70059" x1="167.385" y1="93.3004" x2="172.95" y2="69.6182" gradientUnits="userSpaceOnUse">
<stop stop-color="#FFC444"/>
<stop offset="0.996" stop-color="#F36F56"/>
</linearGradient>
<linearGradient id="paint7_linear_950_70059" x1="164.608" y1="95.6767" x2="158.962" y2="71.6508" gradientUnits="userSpaceOnUse">
<stop stop-color="#FFC444"/>
<stop offset="0.996" stop-color="#F36F56"/>
</linearGradient>
<linearGradient id="paint8_linear_950_70059" x1="154.954" y1="93.6532" x2="155.541" y2="69.121" gradientUnits="userSpaceOnUse">
<stop stop-color="#FFC444"/>
<stop offset="0.996" stop-color="#F36F56"/>
</linearGradient>
<linearGradient id="paint9_linear_950_70059" x1="176.96" y1="76.1927" x2="166.427" y2="94.8023" gradientUnits="userSpaceOnUse">
<stop stop-color="#444B8C"/>
<stop offset="0.996" stop-color="#26264F"/>
</linearGradient>
<linearGradient id="paint10_linear_950_70059" x1="145.473" y1="131.243" x2="154.95" y2="131.243" gradientUnits="userSpaceOnUse">
<stop stop-color="#FF9085"/>
<stop offset="1" stop-color="#FB6FBB"/>
</linearGradient>
<linearGradient id="paint11_linear_950_70059" x1="145.473" y1="162.535" x2="154.95" y2="162.535" gradientUnits="userSpaceOnUse">
<stop stop-color="#FF9085"/>
<stop offset="1" stop-color="#FB6FBB"/>
</linearGradient>
<linearGradient id="paint12_linear_950_70059" x1="145.473" y1="146.959" x2="154.95" y2="146.959" gradientUnits="userSpaceOnUse">
<stop stop-color="#FF9085"/>
<stop offset="1" stop-color="#FB6FBB"/>
</linearGradient>
<linearGradient id="paint13_linear_950_70059" x1="145.473" y1="176.765" x2="154.95" y2="176.765" gradientUnits="userSpaceOnUse">
<stop stop-color="#FF9085"/>
<stop offset="1" stop-color="#FB6FBB"/>
</linearGradient>
<linearGradient id="paint14_linear_950_70059" x1="214.657" y1="167.889" x2="191.465" y2="251.58" gradientUnits="userSpaceOnUse">
<stop stop-color="#311944"/>
<stop offset="1" stop-color="#893976"/>
</linearGradient>
<linearGradient id="paint15_linear_950_70059" x1="200.824" y1="225.026" x2="200.659" y2="211.121" gradientUnits="userSpaceOnUse">
<stop stop-color="#FFC444"/>
<stop offset="0.996" stop-color="#F36F56"/>
</linearGradient>
<linearGradient id="paint16_linear_950_70059" x1="202.25" y1="157.394" x2="179.059" y2="241.086" gradientUnits="userSpaceOnUse">
<stop stop-color="#311944"/>
<stop offset="1" stop-color="#893976"/>
</linearGradient>
<linearGradient id="paint17_linear_950_70059" x1="184.833" y1="225.205" x2="184.668" y2="211.3" gradientUnits="userSpaceOnUse">
<stop stop-color="#FFC444"/>
<stop offset="0.996" stop-color="#F36F56"/>
</linearGradient>
<linearGradient id="paint18_linear_950_70059" x1="206.72" y1="142.787" x2="191.996" y2="142.787" gradientUnits="userSpaceOnUse">
<stop stop-color="#444B8C"/>
<stop offset="0.996" stop-color="#26264F"/>
</linearGradient>
<linearGradient id="paint19_linear_950_70059" x1="206.72" y1="142.787" x2="191.996" y2="142.787" gradientUnits="userSpaceOnUse">
<stop stop-color="#444B8C"/>
<stop offset="0.996" stop-color="#26264F"/>
</linearGradient>
<linearGradient id="paint20_linear_950_70059" x1="198.407" y1="144.273" x2="176.056" y2="144.273" gradientUnits="userSpaceOnUse">
<stop stop-color="#444B8C"/>
<stop offset="0.996" stop-color="#26264F"/>
</linearGradient>
<linearGradient id="paint21_linear_950_70059" x1="188.327" y1="222.158" x2="245.678" y2="139.823" gradientUnits="userSpaceOnUse">
<stop offset="0.004" stop-color="#6165D7"/>
<stop offset="1" stop-color="#AA80F9"/>
</linearGradient>
<linearGradient id="paint22_linear_950_70059" x1="173.667" y1="233.245" x2="252.979" y2="119.382" gradientUnits="userSpaceOnUse">
<stop stop-color="#AA80F9"/>
<stop offset="0.996" stop-color="#6165D7"/>
</linearGradient>
<linearGradient id="paint23_linear_950_70059" x1="183.862" y1="143.999" x2="175.816" y2="143.999" gradientUnits="userSpaceOnUse">
<stop stop-color="#FFC444"/>
<stop offset="0.996" stop-color="#F36F56"/>
</linearGradient>
<linearGradient id="paint24_linear_950_70059" x1="171.94" y1="216.508" x2="230.549" y2="132.367" gradientUnits="userSpaceOnUse">
<stop offset="0.004" stop-color="#6165D7"/>
<stop offset="1" stop-color="#AA80F9"/>
</linearGradient>
<linearGradient id="paint25_linear_950_70059" x1="206.821" y1="102.247" x2="198.804" y2="90.4528" gradientUnits="userSpaceOnUse">
<stop stop-color="#FFC444"/>
<stop offset="0.996" stop-color="#F36F56"/>
</linearGradient>
<linearGradient id="paint26_linear_950_70059" x1="200.57" y1="105.587" x2="207.755" y2="87.3377" gradientUnits="userSpaceOnUse">
<stop stop-color="#444B8C"/>
<stop offset="0.996" stop-color="#3E4177"/>
</linearGradient>
<linearGradient id="paint27_linear_950_70059" x1="212.245" y1="95.1075" x2="194.798" y2="85.6051" gradientUnits="userSpaceOnUse">
<stop stop-color="#FFC444"/>
<stop offset="0.996" stop-color="#F36F56"/>
</linearGradient>
<linearGradient id="paint28_linear_950_70059" x1="239.514" y1="208.038" x2="241.654" y2="246.566" gradientUnits="userSpaceOnUse">
<stop stop-color="#444B8C"/>
<stop offset="0.996" stop-color="#26264F"/>
</linearGradient>
<linearGradient id="paint29_linear_950_70059" x1="239.194" y1="226.644" x2="238.26" y2="183.913" gradientUnits="userSpaceOnUse">
<stop stop-color="#FFC444"/>
<stop offset="0.996" stop-color="#F36F56"/>
</linearGradient>
<linearGradient id="paint30_linear_950_70059" x1="275.919" y1="208.862" x2="277.673" y2="240.435" gradientUnits="userSpaceOnUse">
<stop stop-color="#444B8C"/>
<stop offset="0.996" stop-color="#26264F"/>
</linearGradient>
<linearGradient id="paint31_linear_950_70059" x1="262.942" y1="226.044" x2="262.025" y2="184.114" gradientUnits="userSpaceOnUse">
<stop stop-color="#FFC444"/>
<stop offset="0.996" stop-color="#F36F56"/>
</linearGradient>
<linearGradient id="paint32_linear_950_70059" x1="133.047" y1="133.016" x2="154.09" y2="104.774" gradientUnits="userSpaceOnUse">
<stop stop-color="#444B8C"/>
<stop offset="0.996" stop-color="#26264F"/>
</linearGradient>
<linearGradient id="paint33_linear_950_70059" x1="201.534" y1="115.064" x2="217.116" y2="156.799" gradientUnits="userSpaceOnUse">
<stop stop-color="#FFC444"/>
<stop offset="0.996" stop-color="#F36F56"/>
</linearGradient>
<linearGradient id="paint34_linear_950_70059" x1="176.171" y1="165.036" x2="248.364" y2="97.7107" gradientUnits="userSpaceOnUse">
<stop stop-color="#444B8C"/>
<stop offset="0.996" stop-color="#26264F"/>
</linearGradient>
<linearGradient id="paint35_linear_950_70059" x1="229.928" y1="171.191" x2="215.8" y2="151.177" gradientUnits="userSpaceOnUse">
<stop stop-color="#444B8C"/>
<stop offset="0.996" stop-color="#26264F"/>
</linearGradient>
<linearGradient id="paint36_linear_950_70059" x1="105.78" y1="109.823" x2="125.762" y2="83.0061" gradientUnits="userSpaceOnUse">
<stop stop-color="#444B8C"/>
<stop offset="0.996" stop-color="#26264F"/>
</linearGradient>
<linearGradient id="paint37_linear_950_70059" x1="201.491" y1="107.731" x2="234.193" y2="107.731" gradientUnits="userSpaceOnUse">
<stop stop-color="#AA80F9"/>
<stop offset="0.996" stop-color="#6165D7"/>
</linearGradient>
<linearGradient id="paint38_linear_950_70059" x1="305.716" y1="86.2841" x2="316.243" y2="150.661" gradientUnits="userSpaceOnUse">
<stop stop-color="#AA80F9"/>
<stop offset="0.996" stop-color="#6165D7"/>
</linearGradient>
<linearGradient id="paint39_linear_950_70059" x1="251.595" y1="101.26" x2="271.863" y2="225.21" gradientUnits="userSpaceOnUse">
<stop stop-color="#AA80F9"/>
<stop offset="0.996" stop-color="#6165D7"/>
</linearGradient>
<linearGradient id="paint40_linear_950_70059" x1="235.446" y1="96.3853" x2="251.325" y2="73.3353" gradientUnits="userSpaceOnUse">
<stop stop-color="#FFC444"/>
<stop offset="0.996" stop-color="#F36F56"/>
</linearGradient>
<linearGradient id="paint41_linear_950_70059" x1="237.904" y1="89.2622" x2="261.551" y2="75.0262" gradientUnits="userSpaceOnUse">
<stop stop-color="#FFC444"/>
<stop offset="0.996" stop-color="#F36F56"/>
</linearGradient>
<linearGradient id="paint42_linear_950_70059" x1="218.982" y1="161.584" x2="221.445" y2="139.966" gradientUnits="userSpaceOnUse">
<stop stop-color="#FF9085"/>
<stop offset="1" stop-color="#FB6FBB"/>
</linearGradient>
<linearGradient id="paint43_linear_950_70059" x1="248.197" y1="115.199" x2="255.719" y2="161.196" gradientUnits="userSpaceOnUse">
<stop stop-color="#FFC444"/>
<stop offset="0.996" stop-color="#F36F56"/>
</linearGradient>
<linearGradient id="paint44_linear_950_70059" x1="209.93" y1="158.124" x2="212.267" y2="137.612" gradientUnits="userSpaceOnUse">
<stop stop-color="#FF9085"/>
<stop offset="1" stop-color="#FB6FBB"/>
</linearGradient>
</defs>
</svg>
