<svg width="384" height="240" viewBox="0 0 384 240" fill="none" xmlns="http://www.w3.org/2000/svg">
<rect width="384" height="240" fill="#F4EBFF"/>
<path opacity="0.5" d="M349.615 151.674C344.35 149.6 338.319 149.728 332.575 149.089C326.799 148.483 320.577 146.696 317.769 142.356C315.184 138.336 316.269 133.23 318.981 129.305C321.725 125.38 325.874 122.38 329.767 119.285C338.638 112.201 346.68 104.064 351.115 94.4265C355.551 84.7576 355.934 73.3655 350.03 64.3029C344.127 55.2722 331.171 49.4007 319.492 52.0493C313.652 53.3895 308.674 56.5806 303.185 58.7186C297.697 60.8566 290.868 61.8458 285.922 58.9101C280.976 55.9743 279.667 50.3899 276.859 45.8586C272.009 38.1043 262.276 33.2858 252.288 31.2436C237.705 28.2759 221.782 30.5734 209.113 37.4661C202.061 41.3273 197.051 47.0393 191.913 52.847C186.68 58.7186 180.266 64.2391 171.554 62.8989C162.875 61.5905 153.62 57.8889 146.153 53.581C130.421 44.5503 112.073 38.1363 93.1499 38.2001C74.2269 38.2639 54.7615 45.5714 44.4544 59.1653C34.1153 72.7593 35.0407 92.7034 48.6985 103.904C53.5808 107.893 59.7076 110.669 64.3985 114.817C69.0893 118.966 72.2166 125.348 69.1851 130.517C64.941 137.729 53.134 137.346 44.0714 139.484C30.8924 142.612 20.9682 153.844 21.0001 165.555C21.032 177.266 31.0519 188.435 44.231 191.499C48.9857 192.584 54.0914 192.743 58.495 194.658C62.8987 196.572 66.345 201.199 64.1751 204.965C63.2497 206.56 61.5584 207.709 60.5692 209.273C58.2397 212.974 61.0798 217.825 65.3558 219.931C69.5999 222.037 74.7694 222.165 79.7156 222.197C149.153 222.835 218.59 223.462 288.028 224.079C298.335 224.175 308.897 224.239 318.534 221.08C331.458 216.836 340.968 207.39 349.041 197.753C355.04 190.573 360.688 182.787 361.965 174.043C363.241 165.268 358.965 155.376 349.615 151.674Z" fill="url(#paint0_linear_950_69820)"/>
<path d="M306.337 64.6972C307.486 59.2724 310.294 61.1232 315.048 59.4639C319.803 57.8045 318.431 51.8692 321.367 50.0184C325.292 47.5931 328.898 49.8588 331.355 53.0499C335.407 58.3789 338.184 54.071 343.034 56.209C345.81 57.4535 344.63 59.1767 348.395 59.8787C351.012 60.3574 353.884 59.2086 356.468 59.9106C358.383 60.4531 359.787 61.3466 360.202 63.1974C359.649 63.4527 359.085 63.6867 358.511 63.8995C351.267 66.5161 341.375 65.6545 334.035 66.0375C331.546 66.1651 305.539 68.5265 306.337 64.6972Z" fill="url(#paint1_linear_950_69820)"/>
<path d="M58.6377 70.4523C57.0102 68.4738 54.585 67.6442 52.2236 68.2505C49.6389 68.8887 48.2029 71.3458 45.7777 72.335C41.5974 74.0582 35.8216 70.6437 32.6305 75.0793C28.7374 80.5041 25.7378 76.4515 25.7378 80.1212C25.7378 83.7909 52.6065 81.0785 65.8813 81.3019C67.796 81.3019 76.0927 81.1742 72.5188 77.1854C71.4019 75.9728 69.8383 75.7494 68.3385 75.4622C66.4238 75.0793 61.8287 74.8879 60.4246 73.3881C59.6907 72.5903 59.4035 71.4096 58.7015 70.548C58.6802 70.5055 58.6589 70.4736 58.6377 70.4523Z" fill="url(#paint2_linear_950_69820)"/>
<path d="M56.2827 159.993L55.4211 159.61C55.2615 159.547 55.0701 159.61 55.0062 159.77C54.9105 159.929 55.0062 160.121 55.1658 160.185L56.0274 160.568C56.1869 160.663 56.3784 160.568 56.4741 160.408C56.5379 160.249 56.4741 160.057 56.2827 159.993Z" fill="white"/>
<path d="M53.4426 158.621L52.6129 158.174C52.4534 158.078 52.23 158.142 52.1662 158.302C52.0705 158.461 52.1343 158.653 52.2938 158.748L53.1235 159.195C53.2831 159.291 53.4745 159.227 53.5703 159.067C53.666 158.908 53.6022 158.716 53.4426 158.621Z" fill="white"/>
<path d="M50.6979 157.025L49.9321 156.483H49.9001C49.7725 156.387 49.5491 156.419 49.4534 156.578C49.3258 156.738 49.3896 156.961 49.5491 157.057L50.3469 157.599C50.5064 157.695 50.6979 157.631 50.8255 157.504C50.9213 157.344 50.8894 157.121 50.7298 157.025H50.6979Z" fill="white"/>
<path d="M48.1452 155.207L47.3793 154.6C47.2198 154.473 46.9964 154.505 46.9007 154.664C46.773 154.824 46.8049 155.047 46.9326 155.143L47.6984 155.749C47.858 155.877 48.0813 155.845 48.209 155.685C48.3047 155.526 48.2728 155.334 48.1452 155.207Z" fill="white"/>
<path d="M45.6883 153.164L44.9862 152.526C44.8586 152.398 44.6352 152.398 44.4757 152.558C44.348 152.685 44.3799 152.909 44.5076 153.036L45.2096 153.706C45.3692 153.834 45.5925 153.834 45.7202 153.674C45.8478 153.547 45.8478 153.323 45.7202 153.164H45.6883Z" fill="white"/>
<path d="M43.4222 150.962L42.784 150.26C42.6564 150.133 42.4011 150.101 42.2735 150.26C42.1139 150.388 42.1139 150.611 42.2416 150.771L42.9117 151.473C43.0393 151.633 43.2627 151.633 43.4222 151.473C43.5499 151.345 43.5818 151.122 43.4222 150.962Z" fill="white"/>
<path d="M41.3485 148.601L40.7422 147.867C40.6145 147.708 40.3593 147.676 40.1997 147.803C40.0402 147.931 40.0083 148.154 40.1359 148.314H40.1678L40.7741 149.08C40.9018 149.239 41.1251 149.271 41.2847 149.144C41.4442 148.984 41.4761 148.761 41.3485 148.601Z" fill="white"/>
<path d="M39.4015 146.08L38.891 145.314L38.8591 145.282C38.7633 145.123 38.508 145.091 38.3485 145.187C38.157 145.314 38.1251 145.57 38.2528 145.729L38.7952 146.527C38.9229 146.686 39.1463 146.75 39.3377 146.623C39.4973 146.495 39.5292 146.272 39.4334 146.08H39.4015Z" fill="white"/>
<path d="M37.6787 143.431L37.2001 142.633V142.601C37.0724 142.41 36.8491 142.346 36.6576 142.474C36.4661 142.569 36.4023 142.825 36.5299 143.016L37.0086 143.846C37.1362 144.037 37.3596 144.101 37.5511 143.973C37.7425 143.878 37.8064 143.622 37.6787 143.431Z" fill="white"/>
<path d="M36.1469 140.687L35.732 139.826H35.7001C35.6044 139.634 35.381 139.539 35.1896 139.634C34.9662 139.73 34.9023 139.985 34.9981 140.177L35.4448 141.038C35.5405 141.23 35.7639 141.325 35.9554 141.23C36.1787 141.102 36.2426 140.879 36.1469 140.687Z" fill="white"/>
<path d="M34.8068 137.814L34.4239 136.921C34.3601 136.73 34.1047 136.602 33.8814 136.698C33.6899 136.793 33.5942 137.017 33.658 137.24L34.0409 138.134C34.1367 138.357 34.3601 138.453 34.5834 138.357C34.8068 138.261 34.9025 138.038 34.8068 137.814Z" fill="white"/>
<path d="M33.6578 134.847L33.3706 133.953C33.2749 133.73 33.0515 133.602 32.8282 133.698C32.6048 133.762 32.4771 133.985 32.5729 134.209L32.8601 135.134C32.9558 135.358 33.1792 135.485 33.4025 135.389C33.6259 135.326 33.7217 135.102 33.6578 134.879V134.847Z" fill="white"/>
<path d="M32.7323 131.848L32.5089 130.922H32.477C32.4451 130.699 32.1898 130.539 31.9664 130.603C31.743 130.667 31.6154 130.89 31.6473 131.114L31.9026 132.071C31.9664 132.294 32.1898 132.422 32.4132 132.358C32.6685 132.294 32.7961 132.071 32.7323 131.848Z" fill="white"/>
<path d="M32.0301 128.752L31.8387 127.827C31.8067 127.572 31.5833 127.412 31.3281 127.476C31.1047 127.508 30.9451 127.731 30.977 127.987L31.1685 128.944C31.2004 129.167 31.4238 129.327 31.6791 129.263C31.9025 129.231 32.062 129.008 32.0301 128.784V128.752Z" fill="white"/>
<path d="M31.5518 125.625L31.456 124.7H31.4241C31.4241 124.444 31.2007 124.253 30.9454 124.285C30.6902 124.317 30.5306 124.54 30.5625 124.795L30.6582 125.753C30.6902 125.976 30.9135 126.167 31.1369 126.136C31.3922 126.104 31.5518 125.88 31.5518 125.657V125.625Z" fill="white"/>
<path d="M31.2964 122.498L31.2645 121.54C31.2645 121.285 31.0411 121.094 30.7858 121.094C30.5625 121.094 30.3391 121.317 30.371 121.572L30.4029 122.53C30.4029 122.785 30.5943 122.976 30.8496 122.976C31.1049 122.976 31.2964 122.753 31.2964 122.498Z" fill="white"/>
<path d="M31.2966 119.338L31.3285 118.381C31.3604 118.126 31.137 117.902 30.9137 117.902C30.6584 117.902 30.435 118.094 30.435 118.349L30.3712 119.306C30.3712 119.562 30.5626 119.785 30.8179 119.785C31.0732 119.785 31.2647 119.594 31.2966 119.338Z" fill="white"/>
<path d="M31.5197 116.179L31.6473 115.254C31.6792 114.999 31.5197 114.775 31.2644 114.711C31.0091 114.68 30.7858 114.871 30.7538 115.126L30.6262 116.084C30.5943 116.339 30.7538 116.562 31.0091 116.594C31.2644 116.626 31.4878 116.467 31.5197 116.211V116.179Z" fill="white"/>
<path d="M32.0304 113.084L32.2219 112.159H32.2538C32.2857 111.903 32.1261 111.648 31.8709 111.584C31.6475 111.552 31.3922 111.712 31.3284 111.935L31.1369 112.892C31.0731 113.148 31.2326 113.403 31.4879 113.435C31.7432 113.499 31.9666 113.339 32.0304 113.084Z" fill="white"/>
<path d="M32.7962 110.021L33.0833 109.127C33.1472 108.872 33.0195 108.617 32.7642 108.521C32.5409 108.457 32.2537 108.585 32.1899 108.84L31.9027 109.766C31.8388 110.021 31.9665 110.276 32.2218 110.34C32.4451 110.436 32.7324 110.276 32.7962 110.053V110.021Z" fill="white"/>
<path d="M33.8172 107.054L34.1682 106.16H34.2001C34.2959 105.905 34.1683 105.65 33.913 105.554C33.6896 105.458 33.4024 105.554 33.3067 105.809L32.9557 106.703C32.8599 106.958 32.9556 107.213 33.2109 107.309C33.4343 107.405 33.7215 107.309 33.8172 107.054Z" fill="white"/>
<path d="M35.094 104.181L35.5408 103.319C35.6365 103.064 35.5726 102.777 35.3174 102.681C35.094 102.554 34.8068 102.649 34.6791 102.873L34.2324 103.734C34.1367 103.99 34.2324 104.277 34.4558 104.372C34.6792 104.5 34.9664 104.404 35.094 104.181Z" fill="white"/>
<path d="M36.5933 101.405L37.1039 100.575C37.2315 100.352 37.1677 100.065 36.9443 99.9373C36.721 99.7777 36.4337 99.8415 36.2742 100.065L35.7955 100.895C35.636 101.118 35.6998 101.437 35.9551 101.565C36.1785 101.692 36.4656 101.629 36.5933 101.405Z" fill="white"/>
<path d="M38.3166 98.7564L38.891 97.9905C39.0506 97.7672 38.9867 97.4481 38.7953 97.3204C38.5719 97.1609 38.2528 97.1928 38.0933 97.4162L37.5508 98.2139C37.3912 98.4054 37.4231 98.7245 37.6465 98.884C37.8699 99.0436 38.1571 98.9798 38.3166 98.7564Z" fill="white"/>
<path d="M40.2315 96.2676L40.8697 95.5337C41.0293 95.3103 41.0293 95.0231 40.8059 94.8316C40.6145 94.6721 40.2954 94.704 40.1358 94.8955L39.4976 95.6294C39.338 95.8528 39.338 96.14 39.5614 96.3315C39.7529 96.491 40.072 96.4591 40.2315 96.2676Z" fill="white"/>
<path d="M42.3377 93.9064L43.0078 93.2362C43.1992 93.0129 43.1992 92.7257 43.0078 92.5342C42.8163 92.3428 42.4972 92.3428 42.3057 92.5342L41.6356 93.2362C41.4442 93.4277 41.4442 93.7149 41.6356 93.9064C41.8271 94.0978 42.1462 94.0978 42.3377 93.9064Z" fill="white"/>
<path d="M44.6031 91.7039L45.337 91.0976V91.0657C45.5285 90.9062 45.5604 90.587 45.3689 90.3637C45.2094 90.1722 44.8903 90.1403 44.6988 90.3318H44.6669L43.9649 90.97C43.7415 91.1614 43.7415 91.4805 43.901 91.672C44.0925 91.8635 44.4116 91.8954 44.6031 91.7039Z" fill="white"/>
<path d="M47.0285 89.6935L47.7943 89.1191C48.0177 88.9277 48.0496 88.6086 47.89 88.4171C47.7305 88.1937 47.4114 88.1299 47.188 88.3214L46.4221 88.8958C46.1988 89.0553 46.1669 89.3744 46.3264 89.5978C46.486 89.8212 46.8051 89.8531 47.0285 89.6935Z" fill="white"/>
<path d="M49.581 87.8426L50.3788 87.3001H50.4107C50.634 87.1725 50.6979 86.8534 50.5383 86.5981C50.3788 86.3747 50.0916 86.3109 49.8363 86.4705L49.0385 87.0129C48.8151 87.1406 48.7513 87.4597 48.879 87.6831C49.0385 87.9384 49.3576 88.0022 49.581 87.8426Z" fill="white"/>
<path d="M52.2619 86.1832L53.0915 85.7046H53.1234C53.3468 85.5769 53.4425 85.2578 53.3149 85.0025C53.1553 84.7792 52.8682 84.6834 52.6129 84.8111L51.7832 85.2897C51.5279 85.4174 51.4322 85.7365 51.5917 85.9918C51.7194 86.2151 52.0385 86.3109 52.2619 86.1832Z" fill="white"/>
<path d="M55.0699 84.684L55.9314 84.301C56.1867 84.1734 56.2825 83.8543 56.1867 83.599C56.0591 83.3437 55.74 83.248 55.4847 83.3756L54.6231 83.7905C54.3678 83.8862 54.2721 84.2053 54.3678 84.4606C54.4955 84.7159 54.8146 84.8116 55.0699 84.684Z" fill="white"/>
<path d="M57.9415 83.4073L58.835 83.0882C59.1222 82.9605 59.2498 82.6733 59.1541 82.4181C59.0265 82.1628 58.7393 82.0032 58.484 82.1309L57.5586 82.4819C57.3033 82.5776 57.1757 82.8648 57.2714 83.1201C57.3671 83.4073 57.6862 83.5349 57.9415 83.4392V83.4073Z" fill="white"/>
<path d="M60.9096 82.354L61.835 82.0987V82.0668C62.1222 82.003 62.2499 81.7158 62.186 81.4286C62.0903 81.1733 61.8031 81.0137 61.5478 81.0775L60.6224 81.3647C60.3352 81.4605 60.1757 81.7477 60.2714 82.0349C60.3352 82.2902 60.6543 82.4497 60.9096 82.354Z" fill="white"/>
<path d="M63.9731 81.5244L64.8666 81.301H64.8985C65.1857 81.2372 65.3453 80.9819 65.2814 80.6947C65.2176 80.4075 64.9304 80.2161 64.6752 80.2799L63.7178 80.5032C63.4306 80.5671 63.2711 80.8543 63.3349 81.1415C63.3987 81.3967 63.654 81.5882 63.9412 81.5244H63.9731Z" fill="white"/>
<path d="M67.0363 80.9185L67.9936 80.759C68.2808 80.7271 68.4723 80.4718 68.4404 80.1846C68.4085 79.8974 68.1213 79.7059 67.8341 79.7378L66.8768 79.8655C66.5896 79.9293 66.3981 80.1846 66.4619 80.4718C66.4938 80.759 66.7491 80.9504 67.0363 80.9185Z" fill="white"/>
<path d="M70.1635 80.5353L71.1208 80.4714C71.408 80.4395 71.6314 80.2162 71.5995 79.929C71.5995 79.6418 71.3442 79.4184 71.057 79.4503L70.0997 79.5141C69.8125 79.5141 69.5891 79.7694 69.621 80.0566C69.621 80.3438 69.8763 80.5672 70.1635 80.5353Z" fill="white"/>
<path d="M73.3228 80.4079L74.2802 80.4398C74.5674 80.4398 74.7907 80.2164 74.7907 79.9292C74.8227 79.642 74.5674 79.3867 74.3121 79.3867H73.3228C73.0357 79.3867 72.8123 79.6101 72.8123 79.8973C72.8123 80.1845 73.0357 80.4079 73.3228 80.4079Z" fill="white"/>
<path d="M76.482 80.5678L77.4074 80.6635C77.6946 80.6635 77.9499 80.4721 77.9818 80.1849C78.0137 79.8977 77.7903 79.6424 77.5351 79.6105L76.5458 79.5148C76.2586 79.4828 76.0353 79.7062 76.0034 79.9934C75.9714 80.2806 76.1629 80.5359 76.4501 80.5678H76.482Z" fill="white"/>
<path d="M79.577 80.9504L80.5024 81.1419H80.5343C80.8215 81.1738 81.0767 81.0142 81.1406 80.727C81.1725 80.4398 80.981 80.1845 80.7257 80.1207L79.7684 79.9293C79.4812 79.8974 79.2259 80.0888 79.1621 80.3441C79.0983 80.6313 79.2898 80.9185 79.577 80.9504Z" fill="white"/>
<path d="M82.6724 81.6201L83.5978 81.8434C83.885 81.9073 84.1403 81.7477 84.236 81.4605C84.2999 81.2052 84.1403 80.918 83.8531 80.8542L82.9277 80.5989C82.6405 80.5351 82.3533 80.6947 82.2895 80.9819C82.2257 81.2371 82.3852 81.5243 82.6724 81.5882V81.6201Z" fill="white"/>
<path d="M85.7037 82.4822L86.5972 82.7693H86.6291C86.8844 82.8651 87.1716 82.7055 87.2673 82.4502C87.3631 82.163 87.2035 81.8759 86.9482 81.7801L86.0228 81.4929C85.7356 81.3972 85.4484 81.5567 85.3846 81.812C85.2889 82.0992 85.4165 82.3864 85.7037 82.4502V82.4822Z" fill="white"/>
<path d="M88.6717 83.535L89.5652 83.886C89.8205 83.9818 90.1396 83.8541 90.2353 83.5988C90.331 83.3435 90.2034 83.0244 89.9481 82.9287L89.0546 82.5777C88.7993 82.482 88.4802 82.6096 88.3845 82.8649C88.2888 83.1202 88.4164 83.4074 88.6717 83.535Z" fill="white"/>
<path d="M91.5758 84.7799L92.4373 85.1628C92.6926 85.2904 93.0117 85.1947 93.1394 84.9394C93.267 84.6841 93.1394 84.365 92.8841 84.2374L92.0225 83.8225C91.7672 83.7268 91.4481 83.8225 91.3205 84.0778C91.2247 84.3331 91.3205 84.6522 91.5758 84.7799Z" fill="white"/>
<path d="M94.4157 86.1838L95.2773 86.6306C95.5325 86.7582 95.8197 86.6625 95.9474 86.4072C96.1069 86.1519 96.0112 85.8328 95.7559 85.7052L94.8943 85.2584C94.6391 85.1308 94.3519 85.2265 94.1923 85.4818C94.0647 85.7371 94.1604 86.0243 94.4157 86.1519V86.1838Z" fill="white"/>
<path d="M97.1916 87.7156L98.0213 88.1943C98.2446 88.3219 98.5637 88.2581 98.7233 88.0028C98.8509 87.7795 98.7871 87.4604 98.5318 87.3008L97.7021 86.8221C97.4788 86.6626 97.1597 86.7583 97.0001 87.0136C96.8725 87.237 96.9363 87.5561 97.1916 87.7156Z" fill="white"/>
<path d="M99.9044 89.3427L100.702 89.8532V89.8851C100.957 90.0128 101.245 89.949 101.404 89.7256C101.564 89.4703 101.5 89.1512 101.245 89.0236L100.447 88.4811C100.224 88.3534 99.9044 88.4172 99.7449 88.6406C99.5853 88.8959 99.6491 89.1831 99.9044 89.3427Z" fill="white"/>
<path d="M102.553 91.0981L103.35 91.6406C103.574 91.8001 103.893 91.7363 104.052 91.5129C104.212 91.2896 104.148 90.9705 103.925 90.8109L103.127 90.2684C102.904 90.1089 102.585 90.1408 102.425 90.3961C102.265 90.6194 102.329 90.9385 102.553 91.0981Z" fill="white"/>
<path d="M105.138 92.9163L105.935 93.4907C106.159 93.6503 106.478 93.5865 106.637 93.3631C106.797 93.1397 106.765 92.8206 106.51 92.6611L105.744 92.0867C105.52 91.9271 105.201 91.9909 105.042 92.2143C104.882 92.4377 104.914 92.7568 105.138 92.9163Z" fill="white"/>
<path d="M107.722 94.7998L108.488 95.3742C108.712 95.5657 109.031 95.5018 109.19 95.2785C109.35 95.0551 109.318 94.736 109.095 94.5764L108.329 94.002C108.105 93.8106 107.786 93.8744 107.627 94.0978C107.435 94.3211 107.499 94.6403 107.722 94.7998Z" fill="white"/>
<path d="M110.243 96.7457L111.009 97.3201C111.233 97.5116 111.552 97.4478 111.711 97.2244C111.871 97.001 111.839 96.6819 111.616 96.5224L110.882 95.948C110.658 95.7565 110.339 95.7884 110.148 96.0118C109.988 96.2352 110.02 96.5543 110.243 96.7457Z" fill="white"/>
<path d="M112.764 98.6924L113.498 99.2987C113.721 99.4583 114.04 99.4264 114.232 99.203C114.391 98.9796 114.359 98.6605 114.136 98.5009L113.37 97.8946C113.179 97.7351 112.86 97.767 112.668 97.9904C112.509 98.2138 112.541 98.5329 112.764 98.6924Z" fill="white"/>
<path d="M115.253 100.671L115.987 101.277C116.211 101.437 116.53 101.405 116.721 101.213C116.881 100.99 116.849 100.671 116.625 100.479L115.891 99.905C115.668 99.7136 115.349 99.7455 115.157 99.9688C114.998 100.192 115.03 100.511 115.253 100.671Z" fill="white"/>
<path d="M117.742 102.681L118.508 103.256C118.732 103.447 119.051 103.415 119.21 103.192C119.402 102.968 119.338 102.649 119.115 102.458L118.381 101.884C118.157 101.692 117.838 101.724 117.679 101.947C117.487 102.171 117.519 102.49 117.742 102.681Z" fill="white"/>
<path d="M120.263 104.659L120.997 105.234C121.22 105.425 121.539 105.361 121.731 105.138C121.89 104.947 121.858 104.628 121.635 104.436L120.869 103.862C120.678 103.67 120.359 103.734 120.167 103.926C120.008 104.149 120.04 104.468 120.263 104.659Z" fill="white"/>
<path d="M122.784 106.606L123.55 107.181C123.773 107.372 124.092 107.309 124.252 107.085C124.411 106.862 124.379 106.575 124.156 106.383L123.39 105.809C123.167 105.649 122.848 105.681 122.688 105.904C122.529 106.128 122.561 106.447 122.784 106.606Z" fill="white"/>
<path d="M125.337 108.553L126.103 109.096C126.326 109.287 126.645 109.224 126.805 109C126.964 108.777 126.932 108.458 126.709 108.298L125.943 107.724C125.72 107.564 125.401 107.596 125.241 107.819C125.049 108.043 125.113 108.362 125.337 108.553Z" fill="white"/>
<path d="M127.922 110.404L128.72 110.978C128.943 111.138 129.262 111.074 129.422 110.851C129.581 110.627 129.517 110.308 129.294 110.149L128.496 109.606C128.273 109.447 127.954 109.479 127.794 109.734C127.635 109.957 127.698 110.245 127.922 110.404Z" fill="white"/>
<path d="M130.57 112.254L131.368 112.765C131.592 112.924 131.911 112.861 132.07 112.637C132.23 112.414 132.166 112.095 131.911 111.935L131.113 111.393C130.89 111.233 130.57 111.297 130.411 111.552C130.283 111.776 130.347 112.095 130.57 112.254Z" fill="white"/>
<path d="M133.251 113.977L134.08 114.488C134.304 114.616 134.623 114.552 134.782 114.328C134.91 114.073 134.846 113.786 134.591 113.626L133.793 113.116C133.538 112.988 133.251 113.052 133.091 113.275C132.963 113.531 133.027 113.818 133.251 113.977Z" fill="white"/>
<path d="M136.027 115.605L136.857 116.084C137.112 116.212 137.399 116.148 137.527 115.892C137.655 115.669 137.591 115.35 137.336 115.222L136.506 114.744C136.282 114.616 135.963 114.712 135.836 114.935C135.708 115.19 135.772 115.478 136.027 115.605Z" fill="white"/>
<path d="M138.835 117.137L139.697 117.583C139.952 117.711 140.239 117.615 140.367 117.36C140.495 117.137 140.399 116.849 140.144 116.722L139.282 116.275C139.059 116.147 138.74 116.243 138.644 116.498C138.516 116.722 138.612 117.009 138.835 117.137Z" fill="white"/>
<path d="M141.739 118.573L142.601 118.956C142.856 119.084 143.143 118.956 143.239 118.733C143.366 118.477 143.239 118.19 143.015 118.094H142.984L142.122 117.68C141.899 117.584 141.611 117.68 141.484 117.903C141.388 118.158 141.484 118.445 141.739 118.573Z" fill="white"/>
<path d="M144.643 119.849L145.536 120.232C145.791 120.328 146.079 120.2 146.174 119.977C146.27 119.722 146.142 119.434 145.919 119.339L145.026 118.988C144.77 118.892 144.515 118.988 144.387 119.243C144.292 119.466 144.419 119.753 144.643 119.849Z" fill="white"/>
<path d="M147.642 121.062L148.536 121.381C148.791 121.477 149.046 121.349 149.142 121.094C149.238 120.871 149.11 120.583 148.855 120.488L147.961 120.169C147.738 120.073 147.451 120.2 147.355 120.456C147.259 120.679 147.387 120.966 147.642 121.062Z" fill="white"/>
<path d="M150.674 122.115L151.567 122.434C151.823 122.498 152.078 122.37 152.174 122.115C152.237 121.891 152.11 121.604 151.855 121.54L150.961 121.221C150.706 121.158 150.451 121.285 150.355 121.54C150.291 121.764 150.419 122.051 150.674 122.115Z" fill="white"/>
<path d="M153.737 123.073L154.663 123.36C154.886 123.424 155.141 123.264 155.205 123.041C155.301 122.786 155.141 122.53 154.886 122.466L153.993 122.179C153.737 122.115 153.482 122.275 153.418 122.498C153.323 122.754 153.482 123.009 153.737 123.073Z" fill="white"/>
<path d="M156.801 123.934L157.758 124.157C157.982 124.221 158.237 124.062 158.301 123.838C158.365 123.583 158.205 123.328 157.982 123.264H157.95L157.056 123.041H157.024C156.801 122.977 156.546 123.136 156.482 123.36C156.418 123.615 156.578 123.87 156.801 123.934Z" fill="white"/>
<path d="M159.928 124.668L160.886 124.86C161.109 124.892 161.364 124.732 161.428 124.509C161.46 124.253 161.3 124.03 161.077 123.966L160.12 123.775C159.896 123.711 159.641 123.871 159.577 124.126C159.545 124.349 159.705 124.604 159.928 124.668Z" fill="white"/>
<path d="M163.087 125.275L164.044 125.434C164.268 125.466 164.491 125.306 164.555 125.083C164.587 124.828 164.427 124.604 164.172 124.572V124.541L163.247 124.381C162.991 124.349 162.768 124.509 162.736 124.764C162.672 124.987 162.832 125.243 163.087 125.275Z" fill="white"/>
<path d="M166.246 125.785L167.204 125.913C167.459 125.945 167.682 125.753 167.714 125.53C167.746 125.275 167.555 125.051 167.331 125.019L166.374 124.892C166.119 124.86 165.927 125.019 165.863 125.275C165.832 125.53 166.023 125.721 166.246 125.785Z" fill="white"/>
<path d="M169.437 126.167L170.395 126.263C170.65 126.263 170.842 126.104 170.873 125.848C170.905 125.625 170.714 125.402 170.491 125.402L169.533 125.306C169.278 125.274 169.086 125.433 169.055 125.689C169.023 125.912 169.214 126.135 169.437 126.167Z" fill="white"/>
<path d="M172.628 126.423L173.586 126.487C173.841 126.487 174.033 126.327 174.064 126.104C174.064 125.849 173.873 125.657 173.65 125.625L172.692 125.562C172.469 125.562 172.246 125.721 172.246 125.976C172.214 126.2 172.405 126.423 172.628 126.423Z" fill="white"/>
<path d="M175.851 126.582L176.809 126.614C177.032 126.614 177.224 126.423 177.224 126.199C177.255 125.976 177.064 125.784 176.809 125.753H175.883H175.851C175.628 125.721 175.437 125.912 175.437 126.135C175.405 126.391 175.596 126.582 175.851 126.582Z" fill="white"/>
<path d="M179.042 126.615H180C180.223 126.615 180.415 126.423 180.415 126.2C180.415 125.977 180.223 125.785 180 125.785H179.042C178.819 125.785 178.628 125.977 178.628 126.2C178.628 126.455 178.819 126.647 179.042 126.615Z" fill="white"/>
<path d="M182.265 126.551L183.223 126.519C183.446 126.519 183.605 126.328 183.605 126.072C183.605 125.849 183.414 125.689 183.191 125.689H183.159L182.233 125.721H182.201C181.978 125.753 181.818 125.945 181.818 126.168C181.818 126.391 182.01 126.583 182.265 126.551Z" fill="white"/>
<path d="M185.457 126.359L186.414 126.295C186.637 126.263 186.797 126.072 186.797 125.848C186.765 125.625 186.573 125.465 186.35 125.497L185.393 125.561C185.169 125.593 185.01 125.784 185.01 126.008C185.042 126.231 185.233 126.391 185.457 126.359Z" fill="white"/>
<path d="M188.648 126.071L189.605 125.944C189.828 125.944 189.988 125.72 189.956 125.529C189.924 125.306 189.733 125.146 189.509 125.178L188.552 125.274C188.328 125.306 188.169 125.497 188.201 125.72C188.233 125.944 188.424 126.103 188.648 126.071Z" fill="white"/>
<path d="M191.839 125.657L192.764 125.497C192.987 125.466 193.147 125.274 193.115 125.051C193.083 124.859 192.86 124.7 192.668 124.732L191.711 124.859C191.488 124.891 191.328 125.115 191.36 125.338C191.392 125.529 191.615 125.689 191.839 125.657Z" fill="white"/>
<path d="M194.998 125.115L195.923 124.955C196.146 124.891 196.274 124.7 196.242 124.476C196.21 124.285 195.987 124.125 195.795 124.189L194.838 124.349C194.647 124.412 194.487 124.604 194.519 124.827C194.583 125.019 194.774 125.178 194.998 125.115Z" fill="white"/>
<path d="M198.125 124.477L199.05 124.253C199.274 124.221 199.401 123.998 199.338 123.807C199.306 123.583 199.114 123.456 198.891 123.519L197.965 123.743C197.742 123.775 197.614 123.998 197.678 124.189C197.71 124.381 197.934 124.54 198.125 124.477Z" fill="white"/>
<path d="M201.252 123.71L202.178 123.455C202.369 123.423 202.497 123.2 202.433 123.008C202.369 122.817 202.178 122.689 201.986 122.753L201.061 122.976C200.838 123.04 200.742 123.232 200.774 123.455C200.838 123.646 201.029 123.774 201.252 123.71Z" fill="white"/>
<path d="M204.316 122.817L205.241 122.53C205.433 122.498 205.529 122.274 205.465 122.083C205.401 121.891 205.209 121.796 205.018 121.86L204.124 122.147H204.093C203.901 122.179 203.805 122.402 203.869 122.593C203.933 122.785 204.124 122.881 204.316 122.817Z" fill="white"/>
<path d="M207.379 121.828L208.273 121.509C208.464 121.445 208.56 121.254 208.496 121.062C208.432 120.871 208.209 120.775 208.049 120.839H208.017L207.124 121.158C206.932 121.222 206.837 121.445 206.9 121.605C206.964 121.796 207.188 121.892 207.347 121.828H207.379Z" fill="white"/>
<path d="M210.378 120.711L211.272 120.36C211.431 120.297 211.527 120.105 211.463 119.914C211.368 119.754 211.176 119.658 211.017 119.722L210.123 120.073C209.932 120.169 209.868 120.36 209.932 120.52C209.996 120.711 210.187 120.807 210.378 120.711Z" fill="white"/>
<path d="M213.314 119.498L214.208 119.115C214.367 119.019 214.431 118.828 214.367 118.668C214.303 118.509 214.112 118.413 213.952 118.509H213.92L213.059 118.892C212.899 118.956 212.804 119.147 212.899 119.339C212.963 119.498 213.155 119.562 213.314 119.498Z" fill="white"/>
<path d="M216.218 118.158L217.08 117.711C217.239 117.648 217.303 117.456 217.239 117.297C217.175 117.137 216.984 117.073 216.824 117.169L215.963 117.584C215.803 117.648 215.739 117.839 215.803 117.999C215.867 118.158 216.059 118.222 216.218 118.158Z" fill="white"/>
<path d="M219.09 116.69L219.92 116.244C220.08 116.148 220.144 115.957 220.048 115.829C219.984 115.669 219.793 115.605 219.633 115.701L218.803 116.148C218.644 116.244 218.58 116.403 218.676 116.563C218.739 116.722 218.931 116.786 219.09 116.69Z" fill="white"/>
<path d="M221.866 115.127L222.696 114.616C222.824 114.52 222.888 114.361 222.792 114.201C222.696 114.074 222.537 114.01 222.377 114.106L221.579 114.616C221.42 114.68 221.388 114.872 221.452 115.031C221.547 115.159 221.739 115.191 221.866 115.127Z" fill="white"/>
<path d="M224.579 113.403L225.377 112.829C225.504 112.733 225.536 112.574 225.44 112.446C225.345 112.318 225.185 112.286 225.026 112.35V112.382L224.26 112.925C224.132 113.02 224.1 113.18 224.164 113.308C224.26 113.435 224.451 113.467 224.579 113.403Z" fill="white"/>
<path d="M227.163 111.457L227.897 110.85C228.025 110.755 228.025 110.563 227.929 110.467C227.834 110.34 227.674 110.34 227.546 110.435L226.812 111.042C226.685 111.137 226.653 111.297 226.749 111.425C226.844 111.552 227.036 111.552 227.163 111.457Z" fill="white"/>
<path d="M229.557 109.319L230.227 108.617C230.323 108.521 230.323 108.33 230.227 108.234C230.099 108.138 229.94 108.138 229.844 108.234V108.266L229.174 108.936C229.046 109.032 229.078 109.223 229.174 109.319C229.27 109.415 229.429 109.415 229.557 109.319Z" fill="white"/>
<path d="M231.663 106.894L232.238 106.128C232.333 106 232.301 105.841 232.206 105.745C232.078 105.681 231.919 105.713 231.855 105.809H231.823L231.28 106.575C231.185 106.702 231.216 106.862 231.312 106.958C231.44 107.022 231.599 107.022 231.663 106.894Z" fill="white"/>
<path d="M233.45 104.181L233.897 103.319C233.961 103.224 233.897 103.064 233.769 103C233.673 102.936 233.514 103 233.45 103.096V103.128L233.003 103.958C232.94 104.085 233.003 104.245 233.099 104.309C233.227 104.372 233.386 104.309 233.45 104.181Z" fill="white"/>
<path d="M234.726 101.246L235.013 100.288C235.045 100.193 234.981 100.033 234.854 100.001C234.726 99.9694 234.599 100.033 234.567 100.161V100.193L234.279 101.086C234.248 101.214 234.311 101.342 234.439 101.405C234.567 101.437 234.694 101.373 234.726 101.246Z" fill="white"/>
<path d="M235.429 98.086L235.524 97.0967C235.524 97.001 235.429 96.8734 235.301 96.8734C235.173 96.8415 235.078 96.9372 235.078 97.0648V97.0967L234.982 98.0221C234.982 98.1498 235.046 98.2774 235.173 98.2774C235.301 98.2774 235.429 98.2136 235.429 98.086Z" fill="white"/>
<path d="M235.492 94.8314L235.396 93.8741C235.365 93.7783 235.269 93.6826 235.141 93.6826C235.045 93.7145 234.95 93.8103 234.982 93.9379L235.045 94.8633V94.8952C235.077 94.9909 235.173 95.0867 235.301 95.0867C235.396 95.0548 235.492 94.959 235.492 94.8633V94.8314Z" fill="white"/>
<path d="M234.95 91.6727L234.694 90.7473C234.663 90.6515 234.535 90.5877 234.439 90.6196C234.343 90.6515 234.28 90.7473 234.311 90.843L234.567 91.7684C234.599 91.8641 234.694 91.928 234.822 91.8961C234.918 91.8961 234.982 91.7684 234.95 91.6727Z" fill="white"/>
<path d="M233.897 88.6409L233.482 87.7474C233.45 87.6517 233.322 87.6198 233.259 87.6836C233.163 87.7155 233.131 87.8112 233.163 87.907L233.578 88.7686C233.61 88.8643 233.705 88.8962 233.801 88.8643C233.897 88.8324 233.929 88.7047 233.897 88.6409Z" fill="white"/>
<path d="M232.365 85.8009L231.823 85.0031C231.791 84.9393 231.695 84.9074 231.599 84.9393C231.535 85.0031 231.535 85.0988 231.567 85.1626L232.11 85.9604C232.142 86.0561 232.237 86.0561 232.333 86.0242C232.397 85.9604 232.429 85.8647 232.365 85.8009Z" fill="white"/>
<path d="M230.45 83.2474L229.78 82.5134C229.716 82.4815 229.652 82.4496 229.589 82.5134C229.525 82.5772 229.525 82.673 229.557 82.7049H229.589L230.227 83.4388C230.259 83.5026 230.354 83.5026 230.418 83.4388C230.482 83.375 230.482 83.2793 230.45 83.2474Z" fill="white"/>
<path d="M228.121 81.014L227.355 80.4077C227.323 80.3758 227.227 80.3758 227.196 80.4396C227.164 80.4715 227.164 80.5672 227.227 80.5991L227.961 81.2054C228.025 81.2374 228.089 81.2374 228.153 81.1735C228.185 81.1416 228.185 81.0459 228.121 81.014Z" fill="white"/>
<path d="M225.472 79.1953L224.643 78.7166C224.579 78.6847 224.515 78.7166 224.483 78.7804C224.451 78.8124 224.483 78.8762 224.547 78.9081L225.377 79.3867C225.441 79.4187 225.504 79.3867 225.536 79.3229C225.568 79.291 225.536 79.2272 225.472 79.1953Z" fill="white"/>
<path d="M222.568 77.8544C222.249 77.7587 221.962 77.631 221.643 77.5672C221.611 77.5353 221.547 77.5672 221.547 77.631C221.515 77.6629 221.547 77.7268 221.611 77.7268C221.898 77.8225 222.217 77.9182 222.505 78.014C222.568 78.0459 222.6 78.014 222.632 77.982C222.632 77.9182 222.632 77.8544 222.568 77.8544Z" fill="white"/>
<path d="M219.473 77.0573L218.516 76.9297C218.484 76.9297 218.42 76.9616 218.42 76.9935C218.42 77.0254 218.452 77.0892 218.484 77.0892L219.441 77.2169C219.473 77.2169 219.537 77.185 219.537 77.1531C219.537 77.1212 219.505 77.0573 219.473 77.0573Z" fill="white"/>
<path d="M216.282 76.8018L215.325 76.8337C215.293 76.8337 215.261 76.8656 215.261 76.8975C215.261 76.9294 215.293 76.9613 215.325 76.9613L216.282 76.9294C216.314 76.9294 216.346 76.8975 216.346 76.8656C216.346 76.8337 216.314 76.8018 216.282 76.8018Z" fill="white"/>
<path d="M213.091 77.0576L212.134 77.2172C212.112 77.2384 212.102 77.2597 212.102 77.281C212.123 77.3023 212.144 77.3129 212.166 77.3129L213.091 77.1533C213.123 77.1533 213.155 77.1214 213.155 77.0895C213.123 77.0576 213.123 77.0576 213.091 77.0576Z" fill="white"/>
<path d="M209.964 77.7598L209.07 78.0789C209.049 78.0789 209.038 78.0895 209.038 78.1108C209.06 78.1108 209.07 78.1108 209.07 78.1108L209.996 77.8236C210.017 77.8236 210.017 77.8129 209.996 77.7917C209.996 77.7704 209.985 77.7598 209.964 77.7598Z" fill="white"/>
<path d="M206.996 78.9082L206.135 79.323C206.135 79.3443 206.135 79.355 206.135 79.355L206.996 78.9401C206.996 78.9401 206.996 78.9295 206.996 78.9082Z" fill="white"/>
<path opacity="0.2" d="M345.894 107.992H289.891C288.71 107.992 287.721 107.035 287.721 105.823C287.721 104.642 288.71 103.685 289.891 103.685H345.894C347.074 103.685 348.064 104.642 348.064 105.823C348.064 107.035 347.074 107.992 345.894 107.992Z" fill="white"/>
<path opacity="0.53" d="M352.627 116.48H296.624C295.411 116.48 294.454 115.523 294.454 114.311C294.454 113.13 295.411 112.141 296.624 112.141H352.627C353.807 112.141 354.797 113.13 354.797 114.311C354.797 115.523 353.807 116.48 352.627 116.48Z" fill="white"/>
<path opacity="0.53" d="M336.703 133.457H296.624C295.411 133.457 294.454 132.5 294.454 131.287C294.454 130.106 295.411 129.117 296.624 129.117H336.703C337.884 129.117 338.873 130.106 338.873 131.287C338.873 132.5 337.884 133.457 336.703 133.457Z" fill="white"/>
<path opacity="0.2" d="M358.913 124.969H302.91C301.698 124.969 300.74 124.011 300.74 122.799C300.74 121.618 301.698 120.629 302.91 120.629H358.913C360.094 120.629 361.051 121.618 361.051 122.799C361.051 124.011 360.094 124.969 358.913 124.969Z" fill="white"/>
<path opacity="0.2" d="M97.1505 153.131H41.1475C39.9349 153.131 38.9775 152.174 38.9775 150.961C38.9775 149.78 39.9349 148.791 41.1475 148.791H97.1505C98.3312 148.791 99.3205 149.78 99.3205 150.961C99.3205 152.174 98.3312 153.131 97.1505 153.131Z" fill="white"/>
<path opacity="0.53" d="M103.852 161.618H47.8809C46.6683 161.618 45.7109 160.661 45.7109 159.448C45.7109 158.268 46.6683 157.278 47.8809 157.278H103.852C105.065 157.278 106.022 158.268 106.022 159.448C106.022 160.661 105.065 161.618 103.852 161.618Z" fill="white"/>
<path opacity="0.53" d="M87.9286 178.595H47.8809C46.6683 178.595 45.7109 177.637 45.7109 176.425C45.7109 175.244 46.6683 174.255 47.8809 174.255H87.9286C89.1413 174.255 90.0986 175.244 90.0986 176.425C90.0986 177.637 89.1413 178.595 87.9286 178.595Z" fill="white"/>
<path opacity="0.2" d="M110.138 170.107H54.1351C52.9544 170.107 51.9971 169.15 51.9971 167.937C51.9971 166.757 52.9544 165.768 54.1351 165.768H110.138C111.351 165.768 112.308 166.757 112.308 167.937C112.308 169.15 111.351 170.107 110.138 170.107Z" fill="white"/>
<path d="M127.236 123.954H117.279C114.914 123.954 113 122.04 113 119.676V86.4189H127.236V123.954Z" fill="url(#paint3_linear_950_69820)"/>
<path d="M249.663 54.319L123.035 46.9905C120.121 46.8548 117.493 50.0334 117.493 52.7048V215.76C117.493 219.468 121.278 220.218 124.2 219.918L249.663 207.103C251.956 206.868 253.806 204.775 253.806 202.418V58.7833C253.806 56.4333 251.956 54.4333 249.663 54.319Z" fill="url(#paint4_linear_950_69820)"/>
<path d="M251.749 53.0262L124.871 46.7834C121.95 46.6405 119.579 48.7048 119.579 51.3976V215.732C119.579 218.425 121.95 220.36 124.871 220.06L251.749 207.003C254.042 206.768 255.892 204.653 255.892 202.282V57.5261C255.892 55.1476 254.042 53.1333 251.749 53.0262Z" fill="url(#paint5_linear_950_69820)"/>
<path style="mix-blend-mode:multiply" opacity="0.3" d="M124.871 217.833C123.293 217.99 122.014 216.94 122.014 215.49V51.5055C122.014 50.0555 123.293 48.9341 124.871 49.0127L251.749 55.0055C252.984 55.0626 253.992 56.1555 253.992 57.4412V202.468C253.992 203.754 252.984 204.897 251.749 205.026L124.871 217.833Z" fill="url(#paint6_linear_950_69820)"/>
<path d="M243.57 201.132L135.05 211.589V60.3047L243.57 64.3904V201.132Z" fill="white"/>
<g style="mix-blend-mode:multiply" opacity="0.3">
<path d="M200.164 65.1262L156.792 65.669L157.771 55.8905C157.842 54.6191 158.764 53.5763 159.971 53.3906L167.314 52.262C168.178 52.1263 168.921 51.5549 169.3 50.7406L170.1 49.0049L189.314 50.1906L200.164 65.1262Z" fill="#97A6B7"/>
</g>
<path fill-rule="evenodd" clip-rule="evenodd" d="M224.956 67.5694C225.092 68.2837 224.477 69.0051 223.756 68.9766L157.835 66.7909C157.014 66.7623 156.55 65.9552 156.928 65.2123L161.507 56.1267C162.085 54.9838 163.307 54.2624 164.549 54.3124L172.149 54.6553C175.535 54.8053 178.721 52.4267 179.564 49.1339L181.514 41.5197C181.878 40.1197 183.228 39.1197 184.656 39.2054L186.999 39.3411C188.228 39.4197 189.485 38.784 190.199 37.6411C190.456 37.2269 190.613 36.7697 190.678 36.3054C191.142 33.1698 194.028 30.8055 197.128 31.0126C200.199 31.2269 202.313 33.8912 201.892 36.984C201.649 38.7554 202.799 40.284 204.535 40.3911L206.813 40.5268C208.178 40.6054 209.17 41.7197 209.12 43.1054L208.849 50.6053C208.735 53.841 211.042 56.3981 214.185 56.541L221.113 56.8481C222.235 56.8981 223.12 57.6767 223.327 58.7838L224.956 67.5694ZM198.063 35.9554C198.199 35.0412 197.571 34.2483 196.663 34.1912C195.756 34.134 194.913 34.8269 194.778 35.7483C194.649 36.6626 195.278 37.4554 196.185 37.5054C197.092 37.5626 197.935 36.8697 198.063 35.9554Z" fill="url(#paint7_linear_950_69820)"/>
<path fill-rule="evenodd" clip-rule="evenodd" d="M225.349 67.7692C225.484 68.4835 224.87 69.2049 224.149 69.1835L158.221 66.9907C157.406 66.9621 156.942 66.1621 157.321 65.4192L161.899 56.3265C162.471 55.1908 163.692 54.4622 164.942 54.5193L172.542 54.8622C175.921 55.0122 179.113 52.6336 179.956 49.3408L181.906 41.7266C182.271 40.3195 183.621 39.3195 185.042 39.4052L187.392 39.548C188.62 39.6195 189.87 38.9909 190.585 37.8409C190.842 37.4338 190.999 36.9695 191.07 36.5052C191.528 33.3695 194.42 31.0053 197.513 31.2195C200.585 31.4267 202.706 34.0981 202.277 37.1909C202.035 38.9623 203.192 40.4909 204.927 40.5909L207.206 40.7266C208.57 40.8123 209.556 41.9194 209.506 43.3123L209.242 50.8122C209.127 54.0479 211.435 56.605 214.577 56.7407L221.506 57.055C222.627 57.105 223.513 57.8836 223.713 58.9907L225.349 67.7692ZM198.463 36.1481C198.592 35.2338 197.97 34.4481 197.063 34.3909C196.156 34.3267 195.306 35.0267 195.178 35.9409C195.042 36.8623 195.678 37.6481 196.585 37.7052C197.492 37.7623 198.328 37.0623 198.463 36.1481Z" fill="#97A6B7"/>
<g style="mix-blend-mode:soft-light" opacity="0.5">
<path d="M212.435 63.1625C206.556 59.5339 202.042 62.1053 198.378 58.0125C194.449 53.634 197.099 47.8626 193.042 45.1412C190.442 43.3912 188.12 44.934 185.099 44.4626C183.992 44.2841 182.813 43.8483 181.585 42.9912L179.956 49.3412C179.113 52.634 175.921 55.0125 172.542 54.8625L164.942 54.5197C163.692 54.4625 162.471 55.1911 161.899 56.3268L157.321 65.4196C156.942 66.1624 157.406 66.9624 158.221 66.991L218.134 68.9838C216.627 66.5839 214.749 64.5982 212.435 63.1625Z" fill="white"/>
</g>
<path d="M232.984 83.9257L192.892 83.4114V78.4258L232.984 79.1186V83.9257Z" fill="#D8DEE8"/>
<path d="M232.984 92.3406L192.892 92.1549V87.1621L232.984 87.5335V92.3406Z" fill="#D8DEE8"/>
<path d="M232.984 100.762L192.892 100.89V95.8975L232.984 95.9546V100.762Z" fill="#D8DEE8"/>
<path d="M232.984 109.176L192.892 109.626V104.633L232.984 104.369V109.176Z" fill="#D8DEE8"/>
<path d="M218.777 123.04L147.685 124.755V119.555L218.777 118.169V123.04Z" fill="#D8DEE8"/>
<path d="M218.777 131.569L147.685 133.847V128.654L218.777 126.697V131.569Z" fill="#D8DEE8"/>
<path d="M218.777 140.097L147.685 142.947V137.754L218.777 135.226V140.097Z" fill="#D8DEE8"/>
<path d="M218.777 148.632L147.685 152.047V146.854L218.777 143.754V148.632Z" fill="#D8DEE8"/>
<path d="M232.984 122.698L223.634 122.919V118.069L232.984 117.891V122.698Z" fill="#D8DEE8"/>
<path d="M232.984 131.112L223.634 131.412V126.562L232.984 126.305V131.112Z" fill="#D8DEE8"/>
<path d="M232.984 139.533L223.634 139.904V135.054L232.984 134.719V139.533Z" fill="#D8DEE8"/>
<path d="M232.984 147.947L223.634 148.397V143.547L232.984 143.14V147.947Z" fill="#D8DEE8"/>
<path d="M218.777 162.475L147.685 166.811V161.618L218.777 157.597V162.475Z" fill="#D8DEE8"/>
<path d="M218.777 171.004L147.685 175.911V170.718L218.777 166.133V171.004Z" fill="#D8DEE8"/>
<path d="M218.777 179.533L147.685 185.011V179.811L218.777 174.661V179.533Z" fill="#D8DEE8"/>
<path d="M218.777 188.061L147.685 194.111V188.911L218.777 183.189V188.061Z" fill="#D8DEE8"/>
<path d="M232.984 161.604L223.634 162.175V157.325L232.984 156.797V161.604Z" fill="#D8DEE8"/>
<path d="M232.984 170.018L223.634 170.668V165.818L232.984 165.211V170.018Z" fill="#D8DEE8"/>
<path d="M232.984 178.44L223.634 179.161V174.311L232.984 173.633V178.44Z" fill="#D8DEE8"/>
<path d="M232.984 186.854L223.634 187.647V182.797L232.984 182.047V186.854Z" fill="#D8DEE8"/>
<path d="M176.935 75.7408L118.707 74.4836C115.579 74.4193 113 76.9407 113 80.0764V120.426C113 117.383 115.443 114.905 118.486 114.855L176.935 113.933L189.271 94.8692L176.935 75.7408Z" fill="url(#paint8_linear_950_69820)"/>
<path d="M156.314 104.79C156.271 104.333 156.214 103.898 156.043 103.505C157.5 103.162 158.578 101.883 158.578 100.362C158.578 99.7405 158.4 99.1619 158.085 98.6691C159.221 98.1619 160.014 97.0405 160.014 95.7405C160.014 95.3263 159.935 94.9263 159.785 94.5548L159.828 94.4548L169.607 93.9048C171.393 93.8048 172.728 92.1406 172.535 90.262C172.364 88.5906 171.028 87.7263 169.428 87.712L152.364 87.5478L151.95 86.8121C150.507 84.2621 147.364 82.9121 144.864 84.3335L137.171 88.6977V106.34L148.378 108.762C149.921 109.098 156.714 109.14 156.314 104.79Z" fill="white"/>
<path d="M136.371 105.676V89.3117C136.371 88.7045 135.886 88.2045 135.293 88.1974L127.421 88.126C126.821 88.126 126.329 88.6188 126.329 89.2331V105.754C126.329 106.369 126.821 106.862 127.421 106.862L135.293 106.79C135.886 106.783 136.371 106.283 136.371 105.676Z" fill="white"/>
<path d="M197.049 216.125L196.849 219.304C196.849 219.304 197.306 219.782 198.171 219.446L199.121 216.325L197.049 216.125Z" fill="url(#paint9_linear_950_69820)"/>
<path d="M197.449 218.461C197.449 218.461 195.892 219.097 196.192 219.782C196.356 220.154 196.921 220.989 197.406 221.682C197.849 222.325 198.664 222.611 199.414 222.382C199.664 222.311 199.928 222.232 200.149 222.175C200.628 222.054 200.649 221.397 200.192 221.232C199.971 221.154 199.749 221.089 199.556 221.061C198.985 220.975 198.199 219.625 198.114 219.09C198.021 218.547 197.449 218.461 197.449 218.461Z" fill="url(#paint10_linear_950_69820)"/>
<path d="M193.706 185.611C195.999 186.404 204.477 189.611 206.37 196.961C206.47 197.354 206.727 198.447 206.742 200.233C206.785 207.647 202.47 213.933 199.335 217.582C198.344 217.568 197.354 217.552 196.363 217.532C195.87 215.64 195.42 212.804 196.128 209.618C197.213 204.747 200.027 203.483 199.485 201.097C198.499 196.754 188.42 197.411 187.47 193.518C187.128 192.118 187.878 189.733 193.706 185.611Z" fill="url(#paint11_linear_950_69820)"/>
<path d="M165.342 230.039L169.649 229.939C169.914 229.932 170.028 229.604 169.828 229.432C169.628 229.261 169.349 229.125 168.999 229.161C168.178 229.246 166.342 228.104 165.506 228.346C165.235 228.432 165.014 229.068 164.899 229.246C164.678 229.596 164.935 230.046 165.342 230.039Z" fill="url(#paint12_linear_950_69820)"/>
<path d="M167.278 226.732L165.506 228.347C165.506 228.347 166.128 228.811 167.028 228.611L168.842 227.368L167.278 226.732Z" fill="url(#paint13_linear_950_69820)"/>
<g style="mix-blend-mode:color-burn" opacity="0.3">
<path d="M201.313 204.761C202.506 201.546 203.928 197.589 202.299 195.339C200.649 193.068 197.042 194.989 193.421 193.154C192.078 192.475 190.692 191.261 189.542 189.054C187.513 191.154 187.235 192.568 187.471 193.518C188.421 197.411 198.499 196.754 199.485 201.096C200.028 203.482 197.213 204.746 196.128 209.618C195.521 212.361 195.771 214.839 196.163 216.682C196.521 214.968 197.063 213.168 197.906 211.354C199.206 208.539 200.063 208.139 201.313 204.761Z" fill="url(#paint14_linear_950_69820)"/>
</g>
<path d="M195.021 184.689C193.628 191.096 190.649 200.875 183.835 211.089C178.792 218.653 173.249 224.039 168.907 227.639C168.599 227.732 168.071 227.846 167.421 227.767C166.942 227.703 166.564 227.56 166.307 227.439C166.607 225.632 167.235 222.96 168.735 220.082C171.471 214.803 173.914 214.975 176.664 210.325C178.685 206.91 179.335 203.289 180.649 196.053C181.656 190.461 181.664 189.125 183.042 187.518C185.849 184.275 191.106 184.239 195.021 184.689Z" fill="url(#paint15_linear_950_69820)"/>
<g style="mix-blend-mode:multiply" opacity="0.3">
<path d="M169.785 221.275C170.764 219.732 172.499 218.125 175.921 214.954C179.457 211.675 179.321 212.268 180.021 211.304C183.135 206.968 181.449 202.332 182.221 196.739C182.649 193.625 184.028 189.547 188.035 184.982C186.156 185.332 184.356 186.075 183.042 187.518C181.435 189.297 181.556 191.032 180.649 196.054C179.335 203.289 178.685 206.911 176.664 210.325C173.914 214.975 171.471 214.804 168.735 220.082C167.235 222.961 166.607 225.632 166.307 227.439C166.564 227.561 166.942 227.703 167.421 227.768C167.807 227.811 168.142 227.789 168.421 227.746C168.192 224.082 169.285 222.054 169.785 221.275Z" fill="url(#paint16_linear_950_69820)"/>
</g>
<path d="M198.792 143.047C198.792 143.047 199.935 151.583 190.942 157.604L200.513 159.89C200.513 159.89 203.577 154.161 201.356 144.668L198.792 143.047Z" fill="url(#paint17_linear_950_69820)"/>
<path d="M200.47 144.668C200.47 144.668 200.992 143.397 200.906 142.825C200.82 142.247 199.456 141.482 198.528 140.697C197.599 139.904 198.563 141.49 198.778 141.847C198.992 142.211 199.756 142.754 199.642 143.975L200.47 144.668Z" fill="url(#paint18_linear_950_69820)"/>
<path d="M189.763 151.168C190.235 150.24 190.428 150.247 190.542 149.761C190.806 148.647 190.128 147.233 189.549 147.211C189.178 147.197 189.149 147.775 188.363 148.675C187.399 149.775 186.813 149.633 186.249 150.59C186.113 150.818 185.52 151.825 185.885 152.575C186.356 153.533 188.199 153.683 188.97 152.947C189.335 152.597 189.185 152.311 189.763 151.168Z" fill="url(#paint19_linear_950_69820)"/>
<path d="M188.378 152.169C188.378 152.169 188.707 153.926 188.471 155.362C188.264 156.654 185.864 157.997 185.407 158.383C184.949 158.769 186.628 159.183 188.164 158.983C189.699 158.783 193.914 157.433 194.556 156.683C195.192 155.933 193.806 156.304 192.642 156.162C191.478 156.019 190.364 154.062 190.335 153.069C190.299 152.069 188.378 152.169 188.378 152.169Z" fill="url(#paint20_linear_950_69820)"/>
<path d="M188.878 153.483C188.878 153.483 190.056 153.997 191.099 153.162C192.035 152.419 190.649 150.126 189.699 150.097C189.378 150.083 188.913 150.312 188.642 150.647C188.485 150.84 188.471 150.969 188.206 151.29C187.956 151.576 187.842 151.604 187.806 151.747C187.756 151.919 187.842 152.219 188.478 152.726C188.163 152.669 187.885 152.747 187.778 152.933C187.764 152.969 187.728 153.054 187.742 153.154C187.778 153.497 188.228 153.662 188.878 153.483Z" fill="url(#paint21_linear_950_69820)"/>
<path d="M214.756 147.362C214.756 147.362 215.471 147.262 215.249 145.897C215.078 144.833 215.206 144.476 215.456 144.662C215.713 144.854 215.749 145.469 215.749 145.469C215.749 145.469 216.663 144.683 217.042 143.654C217.421 142.633 217.663 143.497 217.749 144.012C217.828 144.526 217.206 146.119 216.856 146.412C216.506 146.712 215.992 148.026 215.992 148.026L214.756 147.362Z" fill="url(#paint22_linear_950_69820)"/>
<path d="M216.656 147.726C215.847 147.159 215.037 146.59 214.227 146.019C213.235 152.09 210.992 154.468 209.092 155.511C204.492 158.026 200.385 153.547 191.592 155.376C189.163 155.876 184.935 156.818 182.592 160.268C181.978 161.176 181.756 161.868 180.735 168.383C179.428 176.704 179.378 178.161 179.564 179.954C179.899 183.232 180.106 185.225 181.621 186.982C185.635 191.654 194.178 189.247 195.249 188.925C197.221 188.34 200.299 187.432 201.52 184.818C202.092 183.59 202.035 182.468 201.149 177.968C199.399 169.061 199.178 168.483 199.663 167.511C201.313 164.218 206.535 166.104 210.942 163.04C213.52 161.254 216.427 157.354 216.656 147.726Z" fill="url(#paint23_linear_950_69820)"/>
<path style="mix-blend-mode:multiply" opacity="0.3" d="M191.242 187.74C192.106 185.975 190.949 184.347 192.221 182.225C193.835 179.518 196.749 180.44 197.842 178.44C199.714 175.018 192.342 170.254 193.842 164.811C194.556 162.211 197.056 160.333 199.142 159.618C203.771 158.04 206.799 162.068 211.142 160.811C212.171 160.511 213.356 159.89 214.549 158.611C213.492 160.84 212.178 162.183 210.942 163.04C206.535 166.104 201.314 164.218 199.664 167.511C199.178 168.483 199.399 169.061 201.149 177.968C202.035 182.468 202.092 183.59 201.521 184.818C200.299 187.433 197.221 188.34 195.249 188.925C194.664 189.104 191.835 189.904 188.742 189.825C190.121 189.261 190.864 188.518 191.242 187.74Z" fill="url(#paint24_linear_950_69820)"/>
<path fill-rule="evenodd" clip-rule="evenodd" d="M228.834 131.369C228.084 132.376 227.27 133.326 226.399 134.19C226.47 134.283 226.534 134.383 226.599 134.483C227.784 136.454 227.156 139.169 225.192 140.547C223.227 141.918 220.677 141.433 219.484 139.461C219.42 139.361 219.37 139.254 219.32 139.147C218.22 139.654 217.085 140.076 215.935 140.404C215.949 140.526 215.956 140.647 215.963 140.769C216.006 143.168 214.185 145.276 211.892 145.483C209.599 145.683 207.699 143.911 207.649 141.511C207.649 141.39 207.656 141.268 207.663 141.147C206.513 141.026 205.37 140.811 204.242 140.49C204.192 140.611 204.142 140.726 204.085 140.833C202.977 143.011 200.449 143.954 198.442 142.933C196.428 141.911 195.692 139.319 196.799 137.14C196.856 137.026 196.92 136.919 196.985 136.811C196.37 136.326 195.789 135.811 195.242 135.269C193.199 136.376 189.578 135.454 188.442 133.576C187.256 131.604 187.885 128.89 189.842 127.511C189.949 127.44 190.056 127.376 190.156 127.311C189.742 126.19 189.413 125.033 189.178 123.84C189.056 123.862 188.942 123.883 188.82 123.89C186.528 124.097 184.628 122.319 184.578 119.926C184.528 117.526 186.349 115.419 188.649 115.212C188.763 115.204 188.878 115.204 188.999 115.204C189.185 113.983 189.463 112.769 189.842 111.569C189.735 111.526 189.628 111.483 189.52 111.426C187.513 110.404 186.778 107.812 187.885 105.633C188.992 103.455 191.513 102.519 193.528 103.54C193.635 103.59 193.728 103.655 193.828 103.712C194.578 102.697 195.392 101.755 196.263 100.883C196.199 100.79 196.128 100.697 196.07 100.597C194.878 98.626 195.506 95.9118 197.47 94.5332C199.435 93.1547 201.992 93.6404 203.177 95.6189C203.242 95.7189 203.292 95.8261 203.349 95.9332C204.449 95.4261 205.577 95.0046 206.727 94.6761C206.713 94.5546 206.706 94.4332 206.706 94.3046C206.656 91.9118 208.349 89.7333 213.37 89.8261C215.677 89.8761 214.963 91.169 215.013 93.5689C215.013 93.6904 215.013 93.8118 215.006 93.9332C216.156 94.0546 217.299 94.2689 218.427 94.5832C218.47 94.4689 218.52 94.3546 218.577 94.2403C219.684 92.0689 221.699 90.1047 226.384 92.3975C228.413 93.3832 226.97 95.7618 225.863 97.9403C225.806 98.0546 225.742 98.1617 225.677 98.2689C226.599 98.9903 227.449 99.7903 228.227 100.647C228.32 100.569 228.413 100.49 228.513 100.419C230.477 99.0474 233.034 99.5332 234.22 101.505C235.413 103.476 234.784 106.19 232.82 107.569C232.713 107.64 232.613 107.705 232.506 107.762C232.92 108.89 233.249 110.047 233.492 111.233C233.606 111.212 233.72 111.197 233.842 111.183C236.134 110.983 238.034 112.754 238.084 115.154C238.134 117.554 236.313 119.662 234.02 119.862C233.899 119.876 233.784 119.876 233.67 119.876C233.477 121.09 233.199 122.304 232.827 123.512C232.927 123.554 233.034 123.597 233.142 123.654C235.156 124.676 235.884 127.269 234.784 129.447C233.677 131.626 231.149 132.561 229.134 131.54C229.034 131.49 228.934 131.426 228.834 131.369ZM194.52 134.519C194.492 134.49 194.466 134.461 194.442 134.433C194.42 134.447 194.456 134.476 194.52 134.519ZM224.556 124.254C228.57 116.347 225.906 106.926 218.599 103.219C211.299 99.5117 202.12 102.919 198.106 110.826C194.092 118.733 196.756 128.147 204.063 131.854C211.363 135.569 220.542 132.161 224.556 124.254Z" fill="url(#paint25_linear_950_69820)"/>
<path d="M234.02 119.862C236.313 119.662 238.134 117.555 238.084 115.155C238.034 112.755 236.134 110.984 233.841 111.184C233.72 111.198 233.606 111.212 233.491 111.234C233.248 110.048 232.92 108.891 232.506 107.762C232.613 107.705 232.713 107.641 232.82 107.569C234.784 106.191 237.213 102.869 235.827 101.026C233.198 97.5336 230.477 99.0479 228.513 100.419C228.413 100.491 228.32 100.569 228.227 100.648C227.448 99.7908 226.598 98.9908 225.677 98.2694C225.741 98.1622 225.806 98.0551 225.863 97.9408C226.463 96.7551 226.52 95.448 226.12 94.3408C224.227 97.6765 222.356 101.026 220.513 104.398C226.341 108.669 228.198 117.083 224.556 124.255C221.47 130.333 215.334 133.748 209.341 133.319C209.077 134.012 208.813 134.705 208.527 135.39C207.756 137.255 206.87 139.076 205.984 140.905C206.542 141.009 207.101 141.09 207.663 141.148C207.656 141.269 207.649 141.39 207.649 141.512C207.699 143.912 209.156 145.947 213.313 145.726C215.613 145.605 216.006 143.169 215.963 140.769C215.956 140.648 215.949 140.526 215.934 140.405C217.084 140.076 218.22 139.655 219.32 139.148C219.37 139.255 219.42 139.362 219.484 139.462C220.677 141.433 224.798 142.276 226.763 140.898C228.727 139.526 227.784 136.455 226.598 134.483C226.534 134.383 226.47 134.283 226.398 134.19C227.27 133.326 228.084 132.376 228.834 131.369C228.934 131.426 229.034 131.49 229.134 131.54C231.148 132.562 233.677 131.626 234.784 129.448C235.884 127.269 235.156 124.676 233.141 123.655C233.034 123.598 232.927 123.555 232.827 123.512C233.198 122.305 233.477 121.091 233.67 119.876C233.784 119.876 233.898 119.876 234.02 119.862Z" fill="url(#paint26_linear_950_69820)"/>
<path fill-rule="evenodd" clip-rule="evenodd" d="M230.998 131.611C230.248 132.626 229.434 133.568 228.563 134.44C228.634 134.533 228.698 134.626 228.756 134.726C229.948 136.704 229.32 139.418 227.356 140.79C225.391 142.168 222.841 141.683 221.649 139.711C221.584 139.604 221.534 139.497 221.477 139.39C220.377 139.897 219.249 140.318 218.099 140.647C218.113 140.768 218.12 140.89 218.127 141.018C218.17 143.411 216.349 145.526 214.056 145.726C211.763 145.933 209.863 144.154 209.813 141.754C209.813 141.633 209.813 141.511 209.82 141.39C208.677 141.276 207.527 141.054 206.399 140.74C206.356 140.854 206.306 140.968 206.249 141.083C205.142 143.261 202.613 144.197 200.606 143.176C198.592 142.154 197.856 139.561 198.963 137.383C199.02 137.268 199.084 137.161 199.149 137.054C198.227 136.333 197.377 135.54 196.606 134.683C196.513 134.754 196.413 134.833 196.313 134.904C194.349 136.283 191.799 135.797 190.606 133.818C189.42 131.847 190.042 129.133 192.006 127.754C192.113 127.683 192.213 127.619 192.32 127.561C191.906 126.44 191.577 125.276 191.342 124.09C191.22 124.111 191.106 124.126 190.985 124.14C188.692 124.347 186.792 122.569 186.742 120.169C186.692 117.776 188.513 115.662 190.813 115.462C190.927 115.447 191.042 115.447 191.156 115.447C191.349 114.233 191.627 113.019 192.006 111.812C191.899 111.769 191.792 111.726 191.685 111.676C189.677 110.654 188.942 108.054 190.049 105.883C191.149 103.704 193.677 102.762 195.692 103.783C195.792 103.84 195.892 103.897 195.992 103.962C196.742 102.947 197.556 102.004 198.427 101.133C198.356 101.04 198.292 100.947 198.234 100.84C197.042 98.8688 197.67 96.1546 199.634 94.7831C201.599 93.4046 204.156 93.8903 205.342 95.8617C205.406 95.9688 205.456 96.0688 205.513 96.176C206.613 95.6688 207.742 95.2546 208.892 94.926C208.877 94.8046 208.87 94.676 208.87 94.5546C208.82 92.1546 210.642 90.0475 212.934 89.8475C215.227 89.6403 217.127 91.4189 217.177 93.8117C217.177 93.9331 217.177 94.0546 217.17 94.176C218.32 94.2974 219.463 94.5189 220.591 94.8331C220.634 94.7188 220.684 94.6046 220.741 94.4903C221.849 92.3117 224.377 91.376 226.384 92.3974C228.398 93.4189 229.134 96.0117 228.027 98.1902C227.97 98.2974 227.906 98.4045 227.841 98.5117C228.763 99.2402 229.613 100.033 230.384 100.89C230.484 100.812 230.577 100.74 230.677 100.669C232.641 99.2902 235.198 99.7759 236.384 101.747C237.57 103.726 236.948 106.44 234.984 107.812C234.877 107.883 234.777 107.947 234.67 108.012C235.084 109.133 235.413 110.297 235.648 111.483C235.77 111.462 235.884 111.44 236.006 111.433C238.298 111.226 240.198 113.004 240.248 115.397C240.298 117.797 238.477 119.904 236.177 120.111C236.063 120.119 235.948 120.126 235.834 120.126C235.641 121.34 235.363 122.554 234.984 123.761C235.091 123.804 235.198 123.847 235.306 123.897C237.313 124.919 238.048 127.511 236.941 129.69C235.841 131.869 233.313 132.804 231.298 131.783C231.198 131.733 231.098 131.676 230.998 131.611ZM226.72 124.497C230.734 116.59 228.07 107.176 220.763 103.469C213.463 99.7617 204.284 103.162 200.27 111.069C196.256 118.983 198.92 128.397 206.227 132.104C213.527 135.811 222.706 132.404 226.72 124.497Z" fill="url(#paint27_linear_950_69820)"/>
<path fill-rule="evenodd" clip-rule="evenodd" d="M282.655 195.897C281.72 197.425 280.684 198.868 279.555 200.211C279.663 200.332 279.77 200.461 279.87 200.59C281.805 203.247 281.255 207.175 278.641 209.368C276.027 211.568 272.348 211.197 270.413 208.547C270.313 208.411 270.22 208.268 270.134 208.125C268.634 208.982 267.084 209.718 265.491 210.325C265.527 210.497 265.556 210.668 265.577 210.847C265.941 214.239 263.627 217.461 260.398 218.039C257.163 218.618 254.249 216.332 253.877 212.939C253.863 212.768 253.856 212.597 253.849 212.418C252.206 212.397 250.556 212.225 248.913 211.925C248.863 212.089 248.806 212.261 248.741 212.425C247.441 215.654 243.977 217.304 240.999 216.104C238.013 214.911 236.649 211.325 237.942 208.097C238.013 207.925 238.084 207.768 238.163 207.611C237.234 207.001 236.346 206.347 235.499 205.647C232.742 207.468 227.484 206.618 225.642 204.09C223.706 201.44 224.256 197.511 226.87 195.318C227.006 195.204 227.149 195.097 227.292 194.997C226.563 193.454 225.949 191.854 225.463 190.197C225.299 190.24 225.135 190.282 224.963 190.311C221.735 190.89 218.82 188.604 218.449 185.211C218.085 181.818 220.399 178.604 223.627 178.025C223.799 177.997 223.956 177.975 224.12 177.961C224.242 176.211 224.485 174.454 224.863 172.697C224.706 172.654 224.549 172.604 224.399 172.54C221.413 171.347 220.049 167.761 221.349 164.533C222.642 161.304 226.106 159.654 229.092 160.854C229.242 160.911 229.392 160.99 229.534 161.061C230.477 159.533 231.513 158.09 232.634 156.747C232.527 156.626 232.42 156.497 232.32 156.361C230.392 153.711 230.942 149.783 233.549 147.583C236.163 145.39 239.849 145.754 241.784 148.404C241.884 148.54 241.977 148.69 242.063 148.833C243.563 147.976 245.113 147.24 246.699 146.626C246.67 146.454 246.641 146.283 246.62 146.104C246.249 142.711 248.384 139.412 255.52 138.919C258.791 138.69 257.948 140.619 258.313 144.011C258.334 144.19 258.341 144.361 258.348 144.533C259.991 144.561 261.641 144.726 263.277 145.033C263.334 144.861 263.391 144.697 263.456 144.526C264.748 141.297 267.363 138.269 274.298 140.926C277.298 142.076 275.548 145.633 274.248 148.861C274.184 149.026 274.105 149.183 274.027 149.347C275.427 150.261 276.727 151.276 277.941 152.397C278.063 152.276 278.184 152.154 278.32 152.04C280.934 149.847 284.62 150.211 286.548 152.861C288.484 155.511 287.934 159.44 285.32 161.64C285.184 161.754 285.048 161.854 284.905 161.961C285.634 163.497 286.241 165.104 286.734 166.761C286.898 166.711 287.063 166.676 287.227 166.64C290.455 166.061 293.377 168.347 293.741 171.74C294.112 175.133 291.791 178.354 288.563 178.933C288.398 178.961 288.234 178.975 288.07 178.99C287.955 180.74 287.705 182.497 287.327 184.254C287.484 184.304 287.641 184.354 287.798 184.411C290.777 185.611 292.141 189.197 290.848 192.425C289.555 195.654 286.084 197.297 283.105 196.104C282.948 196.04 282.805 195.968 282.655 195.897ZM234.377 204.668C234.334 204.63 234.294 204.594 234.256 204.561C234.234 204.582 234.284 204.618 234.377 204.668ZM275.691 186.34C280.398 174.625 275.434 161.604 264.613 157.254C253.791 152.911 241.206 158.89 236.499 170.611C231.799 182.333 236.756 195.354 247.584 199.697C258.406 204.04 270.991 198.061 275.691 186.34Z" fill="url(#paint28_linear_950_69820)"/>
<path d="M288.563 178.933C291.791 178.354 294.113 175.133 293.741 171.74C293.377 168.347 290.456 166.061 287.227 166.64C287.063 166.676 286.898 166.711 286.734 166.761C286.241 165.104 285.634 163.497 284.906 161.961C285.048 161.861 285.184 161.754 285.32 161.64C287.934 159.44 290.963 154.426 288.77 151.983C284.598 147.362 280.934 149.847 278.32 152.04C278.184 152.154 278.063 152.276 277.941 152.397C276.727 151.276 275.427 150.262 274.027 149.347C274.106 149.183 274.184 149.026 274.249 148.862C274.956 147.104 274.87 145.24 274.163 143.719C271.891 148.69 269.663 153.676 267.477 158.683C276.277 164.011 279.963 175.711 275.691 186.34C272.077 195.347 263.806 200.961 255.256 201.104C254.963 202.118 254.677 203.14 254.363 204.154C253.492 206.89 252.47 209.59 251.449 212.282C252.249 212.363 253.049 212.409 253.849 212.418C253.856 212.597 253.863 212.768 253.877 212.94C254.249 216.332 256.57 219.039 262.441 218.204C265.691 217.747 265.941 214.24 265.577 210.847C265.556 210.668 265.527 210.497 265.491 210.325C267.084 209.718 268.634 208.982 270.134 208.125C270.22 208.268 270.313 208.411 270.413 208.547C272.349 211.197 278.298 211.875 280.913 209.675C283.527 207.475 281.806 203.247 279.87 200.597C279.77 200.461 279.663 200.333 279.556 200.211C280.684 198.868 281.72 197.425 282.656 195.897C282.806 195.968 282.948 196.04 283.106 196.104C286.084 197.297 289.556 195.654 290.848 192.425C292.141 189.197 290.777 185.611 287.798 184.411C287.641 184.354 287.484 184.304 287.327 184.254C287.706 182.497 287.956 180.74 288.07 178.99C288.234 178.976 288.398 178.961 288.563 178.933Z" fill="url(#paint29_linear_950_69820)"/>
<path fill-rule="evenodd" clip-rule="evenodd" d="M285.756 195.968C284.82 197.504 283.784 198.946 282.656 200.282C282.763 200.411 282.87 200.532 282.97 200.668C284.906 203.318 284.356 207.246 281.741 209.446C279.127 211.646 275.441 211.275 273.513 208.625C273.413 208.489 273.32 208.346 273.234 208.196C271.734 209.061 270.184 209.796 268.591 210.403C268.627 210.575 268.656 210.746 268.677 210.925C269.041 214.318 266.727 217.539 263.491 218.118C260.263 218.696 257.349 216.411 256.977 213.018C256.963 212.846 256.956 212.668 256.949 212.496C255.306 212.475 253.656 212.303 252.013 212.003C251.963 212.168 251.906 212.339 251.842 212.503C250.542 215.732 247.077 217.382 244.099 216.182C241.113 214.989 239.749 211.403 241.042 208.175C241.113 208.004 241.184 207.846 241.263 207.689C239.87 206.775 238.563 205.754 237.356 204.632C237.235 204.754 237.106 204.875 236.977 204.989C234.363 207.189 230.677 206.818 228.742 204.168C226.806 201.518 227.356 197.589 229.97 195.389C230.106 195.275 230.249 195.175 230.392 195.075C229.663 193.532 229.049 191.925 228.563 190.275C228.399 190.318 228.235 190.361 228.063 190.389C224.835 190.968 221.92 188.682 221.549 185.289C221.185 181.897 223.499 178.675 226.727 178.104C226.892 178.068 227.056 178.054 227.22 178.039C227.335 176.29 227.585 174.532 227.963 172.775C227.806 172.732 227.649 172.682 227.499 172.618C224.513 171.425 223.149 167.84 224.442 164.611C225.742 161.382 229.206 159.733 232.185 160.932C232.342 160.99 232.492 161.061 232.635 161.14C233.577 159.611 234.613 158.168 235.735 156.825C235.627 156.697 235.52 156.575 235.42 156.44C233.492 153.79 234.042 149.861 236.649 147.661C239.263 145.468 242.949 145.833 244.884 148.483C244.984 148.618 245.077 148.761 245.163 148.911C246.656 148.054 248.213 147.318 249.799 146.704C249.77 146.533 249.742 146.361 249.72 146.183C249.349 142.79 251.67 139.568 254.899 138.997C258.127 138.418 261.041 140.697 261.413 144.09C261.434 144.268 261.441 144.44 261.441 144.611C263.091 144.64 264.741 144.804 266.377 145.111C266.434 144.94 266.484 144.768 266.556 144.604C267.849 141.376 271.32 139.733 274.298 140.926C277.277 142.126 278.648 145.711 277.348 148.94C277.284 149.104 277.206 149.261 277.127 149.425C278.527 150.333 279.827 151.354 281.034 152.475C281.163 152.354 281.284 152.233 281.42 152.118C284.034 149.925 287.72 150.29 289.648 152.94C291.584 155.59 291.034 159.518 288.42 161.718C288.284 161.832 288.141 161.933 288.006 162.032C288.734 163.575 289.341 165.182 289.834 166.832C289.998 166.79 290.163 166.747 290.327 166.718C293.555 166.14 296.477 168.425 296.841 171.818C297.213 175.211 294.891 178.432 291.663 179.011C291.498 179.039 291.334 179.054 291.17 179.068C291.055 180.818 290.805 182.575 290.427 184.332C290.584 184.382 290.741 184.425 290.898 184.489C293.877 185.689 295.241 189.275 293.948 192.504C292.655 195.732 289.184 197.375 286.206 196.182C286.048 196.118 285.906 196.046 285.756 195.968ZM278.791 186.418C283.498 174.697 278.534 161.675 267.713 157.333C256.892 152.99 244.306 158.968 239.599 170.69C234.899 182.411 239.856 195.432 250.684 199.775C261.506 204.118 274.091 198.139 278.791 186.418Z" fill="url(#paint30_linear_950_69820)"/>
<path d="M268.956 138.668L271.277 137.275H272.32C272.32 137.275 272.677 138.604 272.634 138.668C272.17 139.433 269.998 140.011 268.648 140.061C268.427 140.068 268.113 140.068 268.027 139.904C267.891 139.633 268.506 139.054 268.956 138.668Z" fill="url(#paint31_linear_950_69820)"/>
<path d="M271.313 135.762C271.32 136.569 271.284 137.14 271.084 137.39C270.941 137.569 272.313 137.969 272.32 137.276C272.327 136.826 272.398 136.04 272.47 135.812C272.084 135.793 271.698 135.776 271.313 135.762Z" fill="url(#paint32_linear_950_69820)"/>
<path d="M253.477 138.44L255.791 137.047H256.834C256.834 137.047 257.191 138.375 257.148 138.44C256.684 139.204 254.52 139.783 253.163 139.833C252.941 139.84 252.627 139.84 252.541 139.683C252.405 139.404 253.02 138.825 253.477 138.44Z" fill="url(#paint33_linear_950_69820)"/>
<path d="M256.491 135.54C256.155 136.19 255.798 136.911 255.598 137.169C255.455 137.34 256.598 137.697 256.834 137.047C257.027 136.526 257.577 135.826 257.648 135.597C257.263 135.578 256.877 135.559 256.491 135.54Z" fill="url(#paint34_linear_950_69820)"/>
<path d="M256.97 97.5761C257.862 103.533 258.448 110.947 257.92 119.412C257.534 125.662 256.612 131.219 255.541 135.926C256.255 136.111 256.97 136.297 257.684 136.483C258.577 136.276 259.834 135.833 260.698 134.74C261.841 133.297 261.32 131.969 262.134 129.576C262.905 127.29 263.827 127.169 264.748 125.212C265.955 122.654 265.219 121.083 265.305 117.662C265.455 111.876 267.684 111.426 268.405 104.248C268.784 100.483 268.969 98.3261 267.612 96.9404C265.712 94.9976 261.534 95.3404 256.97 97.5761Z" fill="url(#paint35_linear_950_69820)"/>
<path d="M261.891 96.3689C264.341 102.069 266.884 109.362 268.562 118.047C269.905 124.99 270.391 131.261 270.47 136.554C271.265 136.554 272.058 136.554 272.848 136.554C273.541 135.547 274.448 133.997 274.998 131.947C275.541 129.904 275.198 129.376 275.548 126.147C276.034 121.754 276.662 121.547 276.584 118.926C276.491 115.904 275.577 115.919 275.234 112.89C274.727 108.405 276.577 107.019 276.505 102.883C276.47 101.026 276.041 98.226 273.962 94.7832C269.939 95.3118 265.915 95.8403 261.891 96.3689Z" fill="url(#paint36_linear_950_69820)"/>
<path d="M230.606 95.6758L229.67 96.5043C229.67 96.5043 227.62 96.4186 226.884 96.6115C226.142 96.7972 224.87 97.44 224.87 97.44C224.87 97.44 225.192 97.9043 225.642 97.7329C226.092 97.5543 226.792 97.3115 226.927 97.3758C227.056 97.44 227.377 98.29 228.449 98.4329C229.527 98.5758 230.027 97.3115 230.027 97.3115L231.041 96.4472L230.606 95.6758Z" fill="url(#paint37_linear_950_69820)"/>
<path d="M241.306 73.8764C240.927 73.9264 240.184 74.1549 238.506 77.2763C236.334 81.312 235.763 84.2906 234.934 86.7405C234.156 89.0405 232.699 92.2048 229.691 95.6762C230.187 96.1952 230.684 96.7119 231.184 97.2262C235.441 97.119 237.548 95.7619 238.684 94.5476C240.348 92.7691 239.834 91.4048 241.841 88.712C244.191 85.5548 245.97 85.9691 246.784 83.8834C248.313 79.9835 243.998 73.5478 241.306 73.8764Z" fill="url(#paint38_linear_950_69820)"/>
<path d="M262.627 68.3404C260.191 67.5619 258.284 67.7762 254.884 68.1619C249.927 68.7262 246.741 70.369 243.984 71.7976C241.277 73.1975 240.563 73.9833 240.177 74.8904C239.277 77.0047 240.37 79.3118 241.07 80.726C242.848 84.3546 244.498 84.226 248.277 88.5903C251.591 92.4259 253.255 94.3473 254.348 97.1687C254.834 98.4116 255.305 100.026 256.848 100.976C258.348 101.897 260.048 101.697 261.02 101.576C265.091 101.04 265.455 98.4116 268.105 98.5973C270.22 98.7402 270.677 100.462 274.298 101.04C275.92 101.297 276.391 101.04 276.627 100.862C277.505 100.162 277.405 98.483 276.562 95.0831C275.277 89.8474 274.127 88.1474 273.048 84.0046C271.934 79.6975 272.791 80.076 271.855 77.6332C271.548 76.8118 268.97 70.3761 262.627 68.3404Z" fill="url(#paint39_linear_950_69820)"/>
<path d="M262.127 90.0407L253.541 80.6193C253.334 80.3479 252.991 80.2122 252.656 80.2622L242.82 81.8693C242.399 81.9407 242.206 82.4336 242.47 82.7693L250.463 93.0549C250.677 93.3335 251.027 93.4621 251.37 93.3978L261.57 91.5121C262.241 91.3764 262.541 90.5907 262.127 90.0407Z" fill="url(#paint40_linear_950_69820)"/>
<path d="M262.491 87.0114L260.648 86.2043C260.648 86.2043 259.948 85.2043 259.384 85.04C258.813 84.8686 256.777 85.1043 256.777 85.1043C256.777 85.1043 256.977 85.9043 257.377 86.04C257.777 86.1757 259.013 86.2757 259.213 86.6757C259.413 87.0757 260.148 87.3757 260.42 87.24C260.684 87.1114 262.391 87.6757 262.391 87.6757L262.491 87.0114Z" fill="url(#paint41_linear_950_69820)"/>
<path style="mix-blend-mode:multiply" opacity="0.3" d="M261.855 99.426C262.698 98.3974 262.241 97.1546 263.398 96.0975C265.291 94.3689 268.705 95.6475 268.884 95.0189C269.091 94.276 263.977 93.1975 263.398 90.2547C263.141 88.9261 264.105 88.6975 263.998 86.919C263.898 85.2547 262.855 83.8833 260.784 81.2047C259.141 79.0905 258.698 78.919 258.634 78.1048C258.455 75.6691 261.527 73.9762 262.805 73.1048C264.37 72.0405 265.998 71.4834 267.519 71.2334C270.362 73.8477 271.641 77.0691 271.855 77.6333C272.791 80.0762 271.934 79.6976 273.048 84.0047C274.127 88.1475 275.277 89.8475 276.562 95.0832C277.405 98.4832 277.505 100.162 276.627 100.862C276.391 101.04 275.919 101.297 274.298 101.04C270.677 100.462 270.219 98.7403 268.105 98.5974C265.455 98.4117 265.091 101.04 261.02 101.576C260.048 101.697 258.348 101.897 256.848 100.976C256.512 100.769 256.227 100.526 255.984 100.269C259.584 100.933 261.141 100.297 261.855 99.426Z" fill="url(#paint42_linear_950_69820)"/>
<path d="M245.22 65.7617C245.763 67.0688 247.798 70.3688 252.198 68.7474C253.377 68.3188 253.577 68.4688 253.648 68.5617C253.977 69.0045 251.62 71.9474 248.277 72.8474C246.241 73.3902 244.063 73.1188 243.948 72.5545C243.834 71.9831 245.291 72.0331 245.456 70.8402C245.57 70.0117 243.898 69.0188 243.034 68.4617C243.177 67.376 245.077 66.8474 245.22 65.7617Z" fill="url(#paint43_linear_950_69820)"/>
<path d="M241.556 68.3477C240.798 68.0977 240.191 67.2406 240.298 66.4049C240.398 65.6834 241.006 65.2263 241.37 64.9477C242.427 64.1477 244.148 63.712 245.277 64.3477C245.948 64.7263 246.084 66.262 246.127 66.5334C246.17 66.8334 246.02 67.0334 245.948 67.3263C245.848 67.7334 245.698 68.3691 245.463 69.4263C245.284 69.262 245.041 69.0691 244.741 68.8905C244.627 68.8191 244.17 68.5477 243.656 68.3977C242.627 68.1048 242.27 68.5763 241.556 68.3477Z" fill="url(#paint44_linear_950_69820)"/>
<path d="M246.055 68.2976C246.055 68.2976 246.048 69.8476 244.498 70.6476C243.113 71.3619 241.12 68.8047 241.591 67.7333C241.748 67.3762 242.263 66.9548 242.798 66.7976C243.12 66.7048 243.277 66.7476 243.798 66.5833C244.277 66.4333 244.37 66.3191 244.555 66.3405C244.791 66.3619 245.098 66.5833 245.37 67.519C245.462 67.1405 245.712 66.869 245.991 66.8333C246.034 66.8262 246.162 66.8262 246.27 66.8762C246.67 67.069 246.62 67.6476 246.055 68.2976Z" fill="url(#paint45_linear_950_69820)"/>
<path d="M254.762 69.1767C256.377 66.4553 263.955 67.4481 269.062 70.4266C270.719 71.3909 275.791 74.348 276.148 79.4766C276.184 80.0337 276.284 82.3051 274.955 84.4194C272.719 87.9836 267.434 89.5622 261.855 88.1765C261.912 87.5813 261.972 86.9836 262.034 86.3836C262.505 86.4051 264.398 86.4122 266.084 85.0194C266.419 84.7337 268.419 83.0765 268.105 81.5623C267.577 79.0266 261.248 80.4123 257.148 76.1409C255.305 74.2338 253.705 70.9624 254.762 69.1767Z" fill="url(#paint46_linear_950_69820)"/>
<defs>
<linearGradient id="paint0_linear_950_69820" x1="-89.2354" y1="325.459" x2="203.743" y2="-58.28" gradientUnits="userSpaceOnUse">
<stop stop-color="#B37CFF"/>
<stop offset="1" stop-color="#F895E7"/>
</linearGradient>
<linearGradient id="paint1_linear_950_69820" x1="306.324" y1="49.0049" x2="360.199" y2="49.0049" gradientUnits="userSpaceOnUse">
<stop stop-color="#ED539F"/>
<stop offset="1" stop-color="#A061C2"/>
</linearGradient>
<linearGradient id="paint2_linear_950_69820" x1="73.4081" y1="68.051" x2="25.7334" y2="68.051" gradientUnits="userSpaceOnUse">
<stop stop-color="#ED539F"/>
<stop offset="1" stop-color="#A061C2"/>
</linearGradient>
<linearGradient id="paint3_linear_950_69820" x1="170.549" y1="123.033" x2="140.555" y2="151.783" gradientUnits="userSpaceOnUse">
<stop stop-color="#AB316D"/>
<stop offset="1" stop-color="#792D3D"/>
</linearGradient>
<linearGradient id="paint4_linear_950_69820" x1="117.495" y1="46.9894" x2="253.807" y2="46.9894" gradientUnits="userSpaceOnUse">
<stop stop-color="#AB316D"/>
<stop offset="1" stop-color="#792D3D"/>
</linearGradient>
<linearGradient id="paint5_linear_950_69820" x1="263.004" y1="-16.0668" x2="365.738" y2="168.854" gradientUnits="userSpaceOnUse">
<stop stop-color="#FFC444"/>
<stop offset="0.996" stop-color="#F36F56"/>
</linearGradient>
<linearGradient id="paint6_linear_950_69820" x1="122.013" y1="49.0082" x2="253.993" y2="49.0082" gradientUnits="userSpaceOnUse">
<stop stop-color="#FFC444"/>
<stop offset="0.996" stop-color="#F36F56"/>
</linearGradient>
<linearGradient id="paint7_linear_950_69820" x1="156.795" y1="31.0031" x2="224.977" y2="31.0031" gradientUnits="userSpaceOnUse">
<stop stop-color="#444B8C"/>
<stop offset="0.996" stop-color="#26264F"/>
</linearGradient>
<linearGradient id="paint8_linear_950_69820" x1="210.849" y1="76.4538" x2="138.984" y2="145.339" gradientUnits="userSpaceOnUse">
<stop stop-color="#FF9085"/>
<stop offset="1" stop-color="#FB6FBB"/>
</linearGradient>
<linearGradient id="paint9_linear_950_69820" x1="196.332" y1="216.244" x2="199.028" y2="215.785" gradientUnits="userSpaceOnUse">
<stop offset="0.004" stop-color="#F36F56"/>
<stop offset="1" stop-color="#FFC444"/>
</linearGradient>
<linearGradient id="paint10_linear_950_69820" x1="203.149" y1="201.279" x2="199.328" y2="236.174" gradientUnits="userSpaceOnUse">
<stop stop-color="#444B8C"/>
<stop offset="0.996" stop-color="#26264F"/>
</linearGradient>
<linearGradient id="paint11_linear_950_69820" x1="228.737" y1="213.275" x2="191.442" y2="243.91" gradientUnits="userSpaceOnUse">
<stop stop-color="#AB316D"/>
<stop offset="1" stop-color="#792D3D"/>
</linearGradient>
<linearGradient id="paint12_linear_950_69820" x1="181.875" y1="193.664" x2="170.547" y2="222.741" gradientUnits="userSpaceOnUse">
<stop stop-color="#444B8C"/>
<stop offset="0.996" stop-color="#26264F"/>
</linearGradient>
<linearGradient id="paint13_linear_950_69820" x1="165.673" y1="226.581" x2="168.886" y2="226.884" gradientUnits="userSpaceOnUse">
<stop offset="0.004" stop-color="#F36F56"/>
<stop offset="1" stop-color="#FFC444"/>
</linearGradient>
<linearGradient id="paint14_linear_950_69820" x1="223.564" y1="238.29" x2="179.508" y2="223.415" gradientUnits="userSpaceOnUse">
<stop stop-color="#AB316D"/>
<stop offset="1" stop-color="#792D3D"/>
</linearGradient>
<linearGradient id="paint15_linear_950_69820" x1="207.393" y1="203.852" x2="190.155" y2="238.412" gradientUnits="userSpaceOnUse">
<stop stop-color="#AB316D"/>
<stop offset="1" stop-color="#792D3D"/>
</linearGradient>
<linearGradient id="paint16_linear_950_69820" x1="206.282" y1="205.321" x2="189.834" y2="238.297" gradientUnits="userSpaceOnUse">
<stop stop-color="#AB316D"/>
<stop offset="1" stop-color="#792D3D"/>
</linearGradient>
<linearGradient id="paint17_linear_950_69820" x1="183.529" y1="159.74" x2="184.162" y2="132.546" gradientUnits="userSpaceOnUse">
<stop stop-color="#AA80F9"/>
<stop offset="0.996" stop-color="#6165D7"/>
</linearGradient>
<linearGradient id="paint18_linear_950_69820" x1="196.276" y1="141.792" x2="195.845" y2="148.057" gradientUnits="userSpaceOnUse">
<stop offset="0.004" stop-color="#F36F56"/>
<stop offset="1" stop-color="#FFC444"/>
</linearGradient>
<linearGradient id="paint19_linear_950_69820" x1="192.074" y1="152.414" x2="192.282" y2="145.356" gradientUnits="userSpaceOnUse">
<stop stop-color="#444B8C"/>
<stop offset="0.996" stop-color="#26264F"/>
</linearGradient>
<linearGradient id="paint20_linear_950_69820" x1="192.05" y1="144.865" x2="194.101" y2="175.626" gradientUnits="userSpaceOnUse">
<stop offset="0.004" stop-color="#F36F56"/>
<stop offset="1" stop-color="#FFC444"/>
</linearGradient>
<linearGradient id="paint21_linear_950_69820" x1="183.139" y1="145.305" x2="192.633" y2="151.13" gradientUnits="userSpaceOnUse">
<stop offset="0.004" stop-color="#F36F56"/>
<stop offset="1" stop-color="#FFC444"/>
</linearGradient>
<linearGradient id="paint22_linear_950_69820" x1="211.311" y1="146.457" x2="210.089" y2="150.361" gradientUnits="userSpaceOnUse">
<stop offset="0.004" stop-color="#F36F56"/>
<stop offset="1" stop-color="#FFC444"/>
</linearGradient>
<linearGradient id="paint23_linear_950_69820" x1="146.952" y1="182.983" x2="184.179" y2="128.61" gradientUnits="userSpaceOnUse">
<stop stop-color="#AA80F9"/>
<stop offset="0.996" stop-color="#6165D7"/>
</linearGradient>
<linearGradient id="paint24_linear_950_69820" x1="183.487" y1="154.832" x2="176.564" y2="190.885" gradientUnits="userSpaceOnUse">
<stop stop-color="#AA80F9"/>
<stop offset="0.996" stop-color="#6165D7"/>
</linearGradient>
<linearGradient id="paint25_linear_950_69820" x1="243.677" y1="248.527" x2="205.836" y2="184.933" gradientUnits="userSpaceOnUse">
<stop stop-color="#311944"/>
<stop offset="1" stop-color="#893976"/>
</linearGradient>
<linearGradient id="paint26_linear_950_69820" x1="245.144" y1="253.744" x2="204.537" y2="185.503" gradientUnits="userSpaceOnUse">
<stop stop-color="#311944"/>
<stop offset="1" stop-color="#893976"/>
</linearGradient>
<linearGradient id="paint27_linear_950_69820" x1="233.825" y1="77.1866" x2="309.981" y2="185.522" gradientUnits="userSpaceOnUse">
<stop offset="0.004" stop-color="#E38DDD"/>
<stop offset="1" stop-color="#9571F6"/>
</linearGradient>
<linearGradient id="paint28_linear_950_69820" x1="318.406" y1="360.206" x2="256.756" y2="274.754" gradientUnits="userSpaceOnUse">
<stop stop-color="#311944"/>
<stop offset="1" stop-color="#893976"/>
</linearGradient>
<linearGradient id="paint29_linear_950_69820" x1="321.143" y1="367.419" x2="254.988" y2="275.723" gradientUnits="userSpaceOnUse">
<stop stop-color="#311944"/>
<stop offset="1" stop-color="#893976"/>
</linearGradient>
<linearGradient id="paint30_linear_950_69820" x1="282.938" y1="118.421" x2="404.545" y2="262.525" gradientUnits="userSpaceOnUse">
<stop offset="0.004" stop-color="#E38DDD"/>
<stop offset="1" stop-color="#9571F6"/>
</linearGradient>
<linearGradient id="paint31_linear_950_69820" x1="268.01" y1="137.277" x2="272.639" y2="137.277" gradientUnits="userSpaceOnUse">
<stop stop-color="#311944"/>
<stop offset="1" stop-color="#6B3976"/>
</linearGradient>
<linearGradient id="paint32_linear_950_69820" x1="269.67" y1="138.146" x2="273.883" y2="125.506" gradientUnits="userSpaceOnUse">
<stop stop-color="#FFC444"/>
<stop offset="0.996" stop-color="#F36F56"/>
</linearGradient>
<linearGradient id="paint33_linear_950_69820" x1="252.525" y1="137.05" x2="257.154" y2="137.05" gradientUnits="userSpaceOnUse">
<stop stop-color="#311944"/>
<stop offset="1" stop-color="#6B3976"/>
</linearGradient>
<linearGradient id="paint34_linear_950_69820" x1="254.868" y1="138.206" x2="259.425" y2="124.536" gradientUnits="userSpaceOnUse">
<stop stop-color="#FFC444"/>
<stop offset="0.996" stop-color="#F36F56"/>
</linearGradient>
<linearGradient id="paint35_linear_950_69820" x1="204.755" y1="72.9264" x2="194.138" y2="112.925" gradientUnits="userSpaceOnUse">
<stop stop-color="#311944"/>
<stop offset="1" stop-color="#6B3976"/>
</linearGradient>
<linearGradient id="paint36_linear_950_69820" x1="279.088" y1="94.784" x2="264.39" y2="94.784" gradientUnits="userSpaceOnUse">
<stop stop-color="#311944"/>
<stop offset="1" stop-color="#6B3976"/>
</linearGradient>
<linearGradient id="paint37_linear_950_69820" x1="224.435" y1="88.5296" x2="232.782" y2="117.062" gradientUnits="userSpaceOnUse">
<stop stop-color="#AB316D"/>
<stop offset="1" stop-color="#792D3D"/>
</linearGradient>
<linearGradient id="paint38_linear_950_69820" x1="293.564" y1="110.755" x2="235.588" y2="56.6084" gradientUnits="userSpaceOnUse">
<stop stop-color="#AA80F9"/>
<stop offset="0.996" stop-color="#6165D7"/>
</linearGradient>
<linearGradient id="paint39_linear_950_69820" x1="281.618" y1="75.0473" x2="253.041" y2="48.3568" gradientUnits="userSpaceOnUse">
<stop stop-color="#AA80F9"/>
<stop offset="0.996" stop-color="#6165D7"/>
</linearGradient>
<linearGradient id="paint40_linear_950_69820" x1="248.364" y1="79.0481" x2="238.278" y2="112.034" gradientUnits="userSpaceOnUse">
<stop stop-color="#FFC444"/>
<stop offset="0.996" stop-color="#F36F56"/>
</linearGradient>
<linearGradient id="paint41_linear_950_69820" x1="257.799" y1="83.5917" x2="262.328" y2="99.074" gradientUnits="userSpaceOnUse">
<stop stop-color="#AB316D"/>
<stop offset="1" stop-color="#792D3D"/>
</linearGradient>
<linearGradient id="paint42_linear_950_69820" x1="285.806" y1="68.7906" x2="254.92" y2="39.9439" gradientUnits="userSpaceOnUse">
<stop stop-color="#AA80F9"/>
<stop offset="0.996" stop-color="#6165D7"/>
</linearGradient>
<linearGradient id="paint43_linear_950_69820" x1="256.073" y1="71.7083" x2="244.084" y2="61.2052" gradientUnits="userSpaceOnUse">
<stop stop-color="#AB316D"/>
<stop offset="1" stop-color="#792D3D"/>
</linearGradient>
<linearGradient id="paint44_linear_950_69820" x1="249.16" y1="75.9379" x2="238.868" y2="68.4443" gradientUnits="userSpaceOnUse">
<stop stop-color="#444B8C"/>
<stop offset="0.996" stop-color="#26264F"/>
</linearGradient>
<linearGradient id="paint45_linear_950_69820" x1="242.025" y1="68.0118" x2="248.753" y2="79.8311" gradientUnits="userSpaceOnUse">
<stop stop-color="#AB316D"/>
<stop offset="1" stop-color="#792D3D"/>
</linearGradient>
<linearGradient id="paint46_linear_950_69820" x1="285.583" y1="76.9785" x2="255.418" y2="48.8058" gradientUnits="userSpaceOnUse">
<stop stop-color="#AA80F9"/>
<stop offset="0.996" stop-color="#6165D7"/>
</linearGradient>
</defs>
</svg>
