<svg width="384" height="240" viewBox="0 0 384 240" fill="none" xmlns="http://www.w3.org/2000/svg">
<g clip-path="url(#clip0_950_69296)">
<rect width="384" height="240" fill="#F4EBFF"/>
<path opacity="0.5" d="M349.615 151.674C344.35 149.6 338.319 149.728 332.575 149.089C326.799 148.483 320.577 146.696 317.769 142.356C315.184 138.336 316.269 133.23 318.981 129.305C321.725 125.38 325.874 122.38 329.767 119.285C338.638 112.201 346.68 104.064 351.115 94.4265C355.551 84.7576 355.934 73.3655 350.03 64.3029C344.127 55.2722 331.171 49.4007 319.492 52.0493C313.652 53.3895 308.674 56.5806 303.185 58.7186C297.697 60.8566 290.868 61.8458 285.922 58.9101C280.976 55.9743 279.667 50.3899 276.859 45.8586C272.009 38.1043 262.276 33.2858 252.288 31.2436C237.705 28.2759 221.782 30.5734 209.113 37.4661C202.061 41.3273 197.051 47.0393 191.913 52.847C186.68 58.7186 180.266 64.2391 171.554 62.8989C162.875 61.5905 153.62 57.8889 146.153 53.581C130.421 44.5503 112.073 38.1363 93.1499 38.2001C74.2269 38.2639 54.7615 45.5714 44.4544 59.1653C34.1153 72.7593 35.0407 92.7034 48.6985 103.904C53.5808 107.893 59.7076 110.669 64.3985 114.817C69.0893 118.966 72.2166 125.348 69.1851 130.517C64.941 137.729 53.134 137.346 44.0714 139.484C30.8924 142.612 20.9682 153.844 21.0001 165.555C21.032 177.266 31.0519 188.435 44.231 191.499C48.9857 192.584 54.0914 192.743 58.495 194.658C62.8987 196.572 66.345 201.199 64.1751 204.965C63.2497 206.56 61.5584 207.709 60.5692 209.273C58.2397 212.974 61.0798 217.825 65.3558 219.931C69.5999 222.037 74.7694 222.165 79.7156 222.197C149.153 222.835 218.59 223.462 288.028 224.079C298.335 224.175 308.897 224.239 318.534 221.08C331.458 216.836 340.968 207.39 349.041 197.753C355.04 190.573 360.688 182.787 361.965 174.043C363.241 165.268 358.965 155.376 349.615 151.674Z" fill="url(#paint0_linear_950_69296)"/>
<path d="M331.609 141.993L332.471 141.61C332.631 141.547 332.822 141.61 332.886 141.77C332.982 141.929 332.886 142.121 332.726 142.185L331.865 142.568C331.705 142.663 331.514 142.568 331.418 142.408C331.354 142.249 331.418 142.057 331.609 141.993Z" fill="white"/>
<path d="M334.45 140.621L335.28 140.174C335.439 140.078 335.663 140.142 335.726 140.302C335.822 140.461 335.758 140.653 335.599 140.748L334.769 141.195C334.61 141.291 334.418 141.227 334.322 141.067C334.227 140.908 334.29 140.716 334.45 140.621Z" fill="white"/>
<path d="M337.194 139.025L337.96 138.483H337.992C338.12 138.387 338.343 138.419 338.439 138.578C338.566 138.738 338.503 138.961 338.343 139.057L337.545 139.599C337.386 139.695 337.194 139.631 337.067 139.504C336.971 139.344 337.003 139.121 337.162 139.025H337.194Z" fill="white"/>
<path d="M339.747 137.207L340.513 136.6C340.672 136.473 340.896 136.505 340.991 136.664C341.119 136.824 341.087 137.047 340.96 137.143L340.194 137.749C340.034 137.877 339.811 137.845 339.683 137.685C339.587 137.526 339.619 137.334 339.747 137.207Z" fill="white"/>
<path d="M342.204 135.164L342.906 134.526C343.033 134.398 343.257 134.398 343.416 134.558C343.544 134.685 343.512 134.909 343.385 135.036L342.682 135.706C342.523 135.834 342.3 135.834 342.172 135.674C342.044 135.547 342.044 135.323 342.172 135.164H342.204Z" fill="white"/>
<path d="M344.47 132.962L345.108 132.26C345.236 132.133 345.491 132.101 345.619 132.26C345.778 132.388 345.778 132.611 345.651 132.771L344.98 133.473C344.853 133.633 344.629 133.633 344.47 133.473C344.342 133.345 344.31 133.122 344.47 132.962Z" fill="white"/>
<path d="M346.544 130.601L347.15 129.867C347.278 129.708 347.533 129.676 347.692 129.803C347.852 129.931 347.884 130.154 347.756 130.314H347.724L347.118 131.08C346.99 131.239 346.767 131.271 346.607 131.144C346.448 130.984 346.416 130.761 346.544 130.601Z" fill="white"/>
<path d="M348.49 128.08L349.001 127.314L349.033 127.282C349.128 127.123 349.384 127.091 349.543 127.187C349.735 127.314 349.766 127.57 349.639 127.729L349.096 128.527C348.969 128.686 348.745 128.75 348.554 128.623C348.394 128.495 348.362 128.272 348.458 128.08H348.49Z" fill="white"/>
<path d="M350.213 125.431L350.692 124.633V124.601C350.82 124.41 351.043 124.346 351.235 124.474C351.426 124.569 351.49 124.825 351.362 125.016L350.883 125.846C350.756 126.037 350.532 126.101 350.341 125.973C350.15 125.878 350.086 125.622 350.213 125.431Z" fill="white"/>
<path d="M351.745 122.687L352.16 121.826H352.192C352.288 121.634 352.511 121.539 352.703 121.634C352.926 121.73 352.99 121.985 352.894 122.177L352.447 123.038C352.352 123.23 352.128 123.325 351.937 123.23C351.713 123.102 351.649 122.879 351.745 122.687Z" fill="white"/>
<path d="M353.085 119.814L353.468 118.921C353.532 118.73 353.787 118.602 354.011 118.698C354.202 118.793 354.298 119.017 354.234 119.24L353.851 120.134C353.755 120.357 353.532 120.453 353.309 120.357C353.085 120.261 352.99 120.038 353.085 119.814Z" fill="white"/>
<path d="M354.234 116.847L354.521 115.953C354.617 115.73 354.841 115.602 355.064 115.698C355.287 115.762 355.415 115.985 355.319 116.209L355.032 117.134C354.936 117.358 354.713 117.485 354.49 117.389C354.266 117.326 354.17 117.102 354.234 116.879V116.847Z" fill="white"/>
<path d="M355.16 113.848L355.383 112.922H355.415C355.447 112.699 355.702 112.539 355.926 112.603C356.149 112.667 356.277 112.89 356.245 113.114L355.989 114.071C355.926 114.294 355.702 114.422 355.479 114.358C355.224 114.294 355.096 114.071 355.16 113.848Z" fill="white"/>
<path d="M355.862 110.752L356.053 109.827C356.085 109.572 356.309 109.412 356.564 109.476C356.787 109.508 356.947 109.731 356.915 109.987L356.724 110.944C356.692 111.167 356.468 111.327 356.213 111.263C355.99 111.231 355.83 111.008 355.862 110.784V110.752Z" fill="white"/>
<path d="M356.34 107.625L356.436 106.7H356.468C356.468 106.444 356.691 106.253 356.947 106.285C357.202 106.317 357.361 106.54 357.33 106.795L357.234 107.753C357.202 107.976 356.979 108.167 356.755 108.136C356.5 108.104 356.34 107.88 356.34 107.657V107.625Z" fill="white"/>
<path d="M356.596 104.498L356.628 103.54C356.628 103.285 356.851 103.094 357.106 103.094C357.33 103.094 357.553 103.317 357.521 103.572L357.489 104.53C357.489 104.785 357.298 104.976 357.042 104.976C356.787 104.976 356.596 104.753 356.596 104.498Z" fill="white"/>
<path d="M356.596 101.338L356.564 100.381C356.532 100.126 356.755 99.9023 356.978 99.9023C357.234 99.9023 357.457 100.094 357.457 100.349L357.521 101.306C357.521 101.562 357.329 101.785 357.074 101.785C356.819 101.785 356.627 101.594 356.596 101.338Z" fill="white"/>
<path d="M356.372 98.1794L356.245 97.254C356.213 96.9987 356.372 96.7753 356.628 96.7115C356.883 96.6796 357.106 96.871 357.138 97.1263L357.266 98.0836C357.298 98.3389 357.138 98.5623 356.883 98.5942C356.628 98.6261 356.404 98.4666 356.372 98.2113V98.1794Z" fill="white"/>
<path d="M355.862 95.0839L355.67 94.1585H355.638C355.606 93.9033 355.766 93.648 356.021 93.5841C356.245 93.5522 356.5 93.7118 356.564 93.9352L356.755 94.8925C356.819 95.1478 356.659 95.4031 356.404 95.435C356.149 95.4988 355.926 95.3392 355.862 95.0839Z" fill="white"/>
<path d="M355.096 92.0209L354.809 91.1274C354.745 90.8722 354.873 90.6169 355.128 90.5211C355.351 90.4573 355.638 90.585 355.702 90.8403L355.989 91.7657C356.053 92.0209 355.926 92.2762 355.67 92.34C355.447 92.4358 355.16 92.2762 355.096 92.0529V92.0209Z" fill="white"/>
<path d="M354.075 89.0538L353.724 88.1603H353.692C353.596 87.905 353.724 87.6497 353.979 87.554C354.202 87.4583 354.49 87.554 354.585 87.8093L354.936 88.7028C355.032 88.9581 354.936 89.2133 354.681 89.3091C354.458 89.4048 354.171 89.3091 354.075 89.0538Z" fill="white"/>
<path d="M352.798 86.181L352.351 85.3194C352.256 85.0641 352.319 84.7769 352.575 84.6812C352.798 84.5536 353.085 84.6493 353.213 84.8727L353.66 85.7342C353.755 85.9895 353.66 86.2767 353.436 86.3725C353.213 86.5001 352.926 86.4044 352.798 86.181Z" fill="white"/>
<path d="M351.298 83.4051L350.788 82.5755C350.66 82.3521 350.724 82.0649 350.947 81.9373C351.171 81.7777 351.458 81.8415 351.617 82.0649L352.096 82.8946C352.256 83.118 352.192 83.4371 351.937 83.5647C351.713 83.6923 351.426 83.6285 351.298 83.4051Z" fill="white"/>
<path d="M349.575 80.7564L349.001 79.9905C348.842 79.7672 348.905 79.4481 349.097 79.3204C349.32 79.1609 349.639 79.1928 349.799 79.4162L350.341 80.2139C350.501 80.4054 350.469 80.7245 350.246 80.884C350.022 81.0436 349.735 80.9798 349.575 80.7564Z" fill="white"/>
<path d="M347.661 78.2676L347.022 77.5337C346.863 77.3103 346.863 77.0231 347.086 76.8316C347.278 76.6721 347.597 76.704 347.756 76.8955L348.394 77.6294C348.554 77.8528 348.554 78.14 348.331 78.3315C348.139 78.491 347.82 78.4591 347.661 78.2676Z" fill="white"/>
<path d="M345.554 75.9064L344.884 75.2362C344.693 75.0129 344.693 74.7257 344.884 74.5342C345.076 74.3428 345.395 74.3428 345.586 74.5342L346.256 75.2362C346.448 75.4277 346.448 75.7149 346.256 75.9064C346.065 76.0978 345.746 76.0978 345.554 75.9064Z" fill="white"/>
<path d="M343.289 73.7039L342.555 73.0976V73.0657C342.364 72.9062 342.332 72.587 342.523 72.3637C342.683 72.1722 343.002 72.1403 343.193 72.3318H343.225L343.927 72.97C344.151 73.1614 344.151 73.4805 343.991 73.672C343.8 73.8635 343.48 73.8954 343.289 73.7039Z" fill="white"/>
<path d="M340.864 71.6935L340.098 71.1191C339.874 70.9277 339.843 70.6086 340.002 70.4171C340.162 70.1937 340.481 70.1299 340.704 70.3214L341.47 70.8958C341.693 71.0553 341.725 71.3744 341.566 71.5978C341.406 71.8212 341.087 71.8531 340.864 71.6935Z" fill="white"/>
<path d="M338.311 69.8426L337.513 69.3001H337.481C337.258 69.1725 337.194 68.8534 337.354 68.5981C337.513 68.3747 337.801 68.3109 338.056 68.4705L338.854 69.0129C339.077 69.1406 339.141 69.4597 339.013 69.6831C338.854 69.9384 338.534 70.0022 338.311 69.8426Z" fill="white"/>
<path d="M335.63 68.1832L334.801 67.7046H334.769C334.545 67.5769 334.45 67.2578 334.577 67.0025C334.737 66.7792 335.024 66.6834 335.279 66.8111L336.109 67.2897C336.364 67.4174 336.46 67.7365 336.3 67.9918C336.173 68.2151 335.854 68.3109 335.63 68.1832Z" fill="white"/>
<path d="M332.822 66.684L331.961 66.301C331.705 66.1734 331.61 65.8543 331.705 65.599C331.833 65.3437 332.152 65.248 332.407 65.3756L333.269 65.7905C333.524 65.8862 333.62 66.2053 333.524 66.4606C333.397 66.7159 333.078 66.8116 332.822 66.684Z" fill="white"/>
<path d="M329.95 65.4073L329.057 65.0882C328.769 64.9605 328.642 64.6733 328.737 64.4181C328.865 64.1628 329.152 64.0032 329.408 64.1309L330.333 64.4819C330.588 64.5776 330.716 64.8648 330.62 65.1201C330.524 65.4073 330.205 65.5349 329.95 65.4392V65.4073Z" fill="white"/>
<path d="M326.982 64.354L326.057 64.0987V64.0668C325.77 64.003 325.642 63.7158 325.706 63.4286C325.802 63.1733 326.089 63.0137 326.344 63.0775L327.27 63.3647C327.557 63.4605 327.716 63.7477 327.621 64.0349C327.557 64.2902 327.238 64.4497 326.982 64.354Z" fill="white"/>
<path d="M323.919 63.5244L323.025 63.301H322.994C322.706 63.2372 322.547 62.9819 322.611 62.6947C322.674 62.4075 322.962 62.2161 323.217 62.2799L324.174 62.5032C324.461 62.5671 324.621 62.8543 324.557 63.1415C324.493 63.3967 324.238 63.5882 323.951 63.5244H323.919Z" fill="white"/>
<path d="M320.856 62.9185L319.898 62.759C319.611 62.7271 319.42 62.4718 319.452 62.1846C319.484 61.8974 319.771 61.7059 320.058 61.7378L321.015 61.8655C321.303 61.9293 321.494 62.1846 321.43 62.4718C321.398 62.759 321.143 62.9504 320.856 62.9185Z" fill="white"/>
<path d="M317.729 62.5353L316.771 62.4714C316.484 62.4395 316.261 62.2162 316.293 61.929C316.293 61.6418 316.548 61.4184 316.835 61.4503L317.792 61.5141C318.08 61.5141 318.303 61.7694 318.271 62.0566C318.271 62.3438 318.016 62.5672 317.729 62.5353Z" fill="white"/>
<path d="M314.569 62.4079L313.612 62.4398C313.325 62.4398 313.101 62.2164 313.101 61.9292C313.069 61.642 313.325 61.3867 313.58 61.3867H314.569C314.856 61.3867 315.08 61.6101 315.08 61.8973C315.08 62.1845 314.856 62.4079 314.569 62.4079Z" fill="white"/>
<path d="M311.41 62.5678L310.485 62.6635C310.197 62.6635 309.942 62.4721 309.91 62.1849C309.878 61.8977 310.102 61.6424 310.357 61.6105L311.346 61.5148C311.633 61.4828 311.857 61.7062 311.889 61.9934C311.921 62.2806 311.729 62.5359 311.442 62.5678H311.41Z" fill="white"/>
<path d="M308.315 62.9504L307.39 63.1419H307.358C307.071 63.1738 306.815 63.0142 306.752 62.727C306.72 62.4398 306.911 62.1845 307.166 62.1207L308.124 61.9293C308.411 61.8974 308.666 62.0888 308.73 62.3441C308.794 62.6313 308.602 62.9185 308.315 62.9504Z" fill="white"/>
<path d="M305.22 63.6201L304.294 63.8434C304.007 63.9073 303.752 63.7477 303.656 63.4605C303.592 63.2052 303.752 62.918 304.039 62.8542L304.964 62.5989C305.252 62.5351 305.539 62.6947 305.603 62.9819C305.666 63.2371 305.507 63.5243 305.22 63.5882V63.6201Z" fill="white"/>
<path d="M302.188 64.4822L301.295 64.7693H301.263C301.008 64.8651 300.72 64.7055 300.625 64.4502C300.529 64.163 300.689 63.8759 300.944 63.7801L301.869 63.4929C302.156 63.3972 302.444 63.5567 302.507 63.812C302.603 64.0992 302.476 64.3864 302.188 64.4502V64.4822Z" fill="white"/>
<path d="M299.22 65.535L298.327 65.886C298.072 65.9818 297.753 65.8541 297.657 65.5988C297.561 65.3435 297.689 65.0244 297.944 64.9287L298.837 64.5777C299.093 64.482 299.412 64.6096 299.508 64.8649C299.603 65.1202 299.476 65.4074 299.22 65.535Z" fill="white"/>
<path d="M296.316 66.7799L295.455 67.1628C295.199 67.2904 294.88 67.1947 294.753 66.9394C294.625 66.6841 294.753 66.365 295.008 66.2374L295.87 65.8225C296.125 65.7268 296.444 65.8225 296.572 66.0778C296.667 66.3331 296.572 66.6522 296.316 66.7799Z" fill="white"/>
<path d="M293.476 68.1838L292.615 68.6306C292.36 68.7582 292.072 68.6625 291.945 68.4072C291.785 68.1519 291.881 67.8328 292.136 67.7052L292.998 67.2584C293.253 67.1308 293.54 67.2265 293.7 67.4818C293.827 67.7371 293.732 68.0243 293.476 68.1519V68.1838Z" fill="white"/>
<path d="M290.701 69.7156L289.871 70.1943C289.647 70.3219 289.328 70.2581 289.169 70.0028C289.041 69.7795 289.105 69.4604 289.36 69.3008L290.19 68.8221C290.413 68.6626 290.732 68.7583 290.892 69.0136C291.02 69.237 290.956 69.5561 290.701 69.7156Z" fill="white"/>
<path d="M287.988 71.3427L287.19 71.8532V71.8851C286.935 72.0128 286.647 71.949 286.488 71.7256C286.328 71.4703 286.392 71.1512 286.647 71.0236L287.445 70.4811C287.669 70.3534 287.988 70.4172 288.147 70.6406C288.307 70.8959 288.243 71.1831 287.988 71.3427Z" fill="white"/>
<path d="M285.339 73.0981L284.542 73.6406C284.318 73.8001 283.999 73.7363 283.84 73.5129C283.68 73.2896 283.744 72.9705 283.967 72.8109L284.765 72.2684C284.988 72.1089 285.307 72.1408 285.467 72.3961C285.627 72.6194 285.563 72.9385 285.339 73.0981Z" fill="white"/>
<path d="M282.755 74.9163L281.957 75.4907C281.733 75.6503 281.414 75.5865 281.255 75.3631C281.095 75.1397 281.127 74.8206 281.382 74.6611L282.148 74.0867C282.372 73.9271 282.691 73.9909 282.85 74.2143C283.01 74.4377 282.978 74.7568 282.755 74.9163Z" fill="white"/>
<path d="M280.17 76.7998L279.404 77.3742C279.18 77.5657 278.861 77.5018 278.702 77.2785C278.542 77.0551 278.574 76.736 278.798 76.5764L279.563 76.002C279.787 75.8106 280.106 75.8744 280.265 76.0978C280.457 76.3211 280.393 76.6403 280.17 76.7998Z" fill="white"/>
<path d="M277.649 78.7457L276.883 79.3201C276.659 79.5116 276.34 79.4478 276.181 79.2244C276.021 79.001 276.053 78.6819 276.277 78.5224L277.01 77.948C277.234 77.7565 277.553 77.7884 277.744 78.0118C277.904 78.2352 277.872 78.5543 277.649 78.7457Z" fill="white"/>
<path d="M275.128 80.6924L274.394 81.2987C274.171 81.4583 273.852 81.4264 273.66 81.203C273.501 80.9796 273.533 80.6605 273.756 80.5009L274.522 79.8946C274.713 79.7351 275.032 79.767 275.224 79.9904C275.383 80.2138 275.352 80.5329 275.128 80.6924Z" fill="white"/>
<path d="M272.639 82.6709L271.905 83.2772C271.682 83.4367 271.362 83.4048 271.171 83.2133C271.011 82.99 271.043 82.6709 271.267 82.4794L272.001 81.905C272.224 81.7136 272.543 81.7455 272.735 81.9688C272.894 82.1922 272.862 82.5113 272.639 82.6709Z" fill="white"/>
<path d="M270.15 84.6813L269.384 85.2557C269.16 85.4472 268.841 85.4152 268.682 85.1919C268.49 84.9685 268.554 84.6494 268.777 84.4579L269.511 83.8835C269.735 83.6921 270.054 83.724 270.213 83.9474C270.405 84.1707 270.373 84.4898 270.15 84.6813Z" fill="white"/>
<path d="M267.629 86.6595L266.895 87.2339C266.672 87.4253 266.353 87.3615 266.161 87.1381C266.002 86.9467 266.034 86.6276 266.257 86.4361L267.023 85.8617C267.214 85.6702 267.533 85.7341 267.725 85.9255C267.884 86.1489 267.852 86.468 267.629 86.6595Z" fill="white"/>
<path d="M265.108 88.6065L264.342 89.1809C264.119 89.3723 263.8 89.3085 263.64 89.0851C263.481 88.8618 263.513 88.5746 263.736 88.3831L264.502 87.8087C264.725 87.6492 265.044 87.6811 265.204 87.9044C265.363 88.1278 265.332 88.4469 265.108 88.6065Z" fill="white"/>
<path d="M262.555 90.5534L261.79 91.0959C261.566 91.2874 261.247 91.2235 261.088 91.0002C260.928 90.7768 260.96 90.4577 261.183 90.2981L261.949 89.7237C262.172 89.5642 262.492 89.5961 262.651 89.8195C262.843 90.0428 262.779 90.3619 262.555 90.5534Z" fill="white"/>
<path d="M259.97 92.4041L259.172 92.9785C258.949 93.138 258.63 93.0742 258.47 92.8508C258.311 92.6275 258.375 92.3083 258.598 92.1488L259.396 91.6063C259.619 91.4468 259.938 91.4787 260.098 91.734C260.257 91.9573 260.194 92.2445 259.97 92.4041Z" fill="white"/>
<path d="M257.322 94.2542L256.524 94.7648C256.301 94.9244 255.981 94.8605 255.822 94.6372C255.662 94.4138 255.726 94.0947 255.981 93.9351L256.779 93.3927C257.003 93.2331 257.322 93.2969 257.481 93.5522C257.609 93.7756 257.545 94.0947 257.322 94.2542Z" fill="white"/>
<path d="M254.641 95.9774L253.812 96.488C253.588 96.6156 253.269 96.5518 253.11 96.3284C252.982 96.0732 253.046 95.786 253.301 95.6264L254.099 95.1158C254.354 94.9882 254.641 95.052 254.801 95.2754C254.929 95.5307 254.865 95.8179 254.641 95.9774Z" fill="white"/>
<path d="M251.865 97.6053L251.035 98.0839C250.78 98.2116 250.493 98.1478 250.365 97.8925C250.237 97.6691 250.301 97.35 250.557 97.2224L251.386 96.7437C251.61 96.6161 251.929 96.7118 252.056 96.9352C252.184 97.1904 252.12 97.4776 251.865 97.6053Z" fill="white"/>
<path d="M249.057 99.1366L248.195 99.5834C247.94 99.711 247.653 99.6153 247.525 99.36C247.397 99.1366 247.493 98.8494 247.748 98.7218L248.61 98.275C248.833 98.1474 249.152 98.2431 249.248 98.4984C249.376 98.7218 249.28 99.009 249.057 99.1366Z" fill="white"/>
<path d="M246.153 100.573L245.291 100.956C245.036 101.084 244.749 100.956 244.653 100.733C244.526 100.477 244.653 100.19 244.877 100.094H244.909L245.77 99.6795C245.993 99.5838 246.281 99.6795 246.408 99.9029C246.504 100.158 246.408 100.445 246.153 100.573Z" fill="white"/>
<path d="M243.249 101.849L242.356 102.232C242.101 102.328 241.813 102.2 241.718 101.977C241.622 101.722 241.75 101.434 241.973 101.339L242.866 100.988C243.122 100.892 243.377 100.988 243.505 101.243C243.6 101.466 243.473 101.753 243.249 101.849Z" fill="white"/>
<path d="M240.25 103.062L239.356 103.381C239.101 103.477 238.846 103.349 238.75 103.094C238.654 102.871 238.782 102.583 239.037 102.488L239.931 102.169C240.154 102.073 240.441 102.2 240.537 102.456C240.633 102.679 240.505 102.966 240.25 103.062Z" fill="white"/>
<path d="M237.218 104.115L236.325 104.434C236.069 104.498 235.814 104.37 235.718 104.115C235.655 103.891 235.782 103.604 236.038 103.54L236.931 103.221C237.186 103.158 237.442 103.285 237.537 103.54C237.601 103.764 237.473 104.051 237.218 104.115Z" fill="white"/>
<path d="M234.155 105.073L233.229 105.36C233.006 105.424 232.751 105.264 232.687 105.041C232.591 104.786 232.751 104.53 233.006 104.466L233.899 104.179C234.155 104.115 234.41 104.275 234.474 104.498C234.57 104.754 234.41 105.009 234.155 105.073Z" fill="white"/>
<path d="M231.091 105.934L230.134 106.157C229.91 106.221 229.655 106.062 229.591 105.838C229.528 105.583 229.687 105.328 229.91 105.264H229.942L230.836 105.041H230.868C231.091 104.977 231.346 105.136 231.41 105.36C231.474 105.615 231.314 105.87 231.091 105.934Z" fill="white"/>
<path d="M227.964 106.668L227.007 106.86C226.783 106.892 226.528 106.732 226.464 106.509C226.432 106.253 226.592 106.03 226.815 105.966L227.772 105.775C227.996 105.711 228.251 105.871 228.315 106.126C228.347 106.349 228.187 106.604 227.964 106.668Z" fill="white"/>
<path d="M224.805 107.275L223.848 107.434C223.624 107.466 223.401 107.306 223.337 107.083C223.305 106.828 223.465 106.604 223.72 106.572V106.541L224.645 106.381C224.901 106.349 225.124 106.509 225.156 106.764C225.22 106.987 225.06 107.243 224.805 107.275Z" fill="white"/>
<path d="M221.646 107.785L220.688 107.913C220.433 107.945 220.21 107.753 220.178 107.53C220.146 107.275 220.337 107.051 220.561 107.019L221.518 106.892C221.773 106.86 221.965 107.019 222.029 107.275C222.061 107.53 221.869 107.721 221.646 107.785Z" fill="white"/>
<path d="M218.455 108.167L217.497 108.263C217.242 108.263 217.051 108.104 217.019 107.848C216.987 107.625 217.178 107.402 217.402 107.402L218.359 107.306C218.614 107.274 218.806 107.433 218.838 107.689C218.869 107.912 218.678 108.135 218.455 108.167Z" fill="white"/>
<path d="M215.264 108.423L214.306 108.487C214.051 108.487 213.86 108.327 213.828 108.104C213.828 107.849 214.019 107.657 214.242 107.625L215.2 107.562C215.423 107.562 215.647 107.721 215.647 107.976C215.678 108.2 215.487 108.423 215.264 108.423Z" fill="white"/>
<path d="M212.041 108.582L211.083 108.614C210.86 108.614 210.669 108.423 210.669 108.199C210.637 107.976 210.828 107.784 211.083 107.753H212.009H212.041C212.264 107.721 212.456 107.912 212.456 108.135C212.487 108.391 212.296 108.582 212.041 108.582Z" fill="white"/>
<path d="M208.85 108.615H207.892C207.669 108.615 207.478 108.423 207.478 108.2C207.478 107.977 207.669 107.785 207.892 107.785H208.85C209.073 107.785 209.265 107.977 209.265 108.2C209.265 108.455 209.073 108.647 208.85 108.615Z" fill="white"/>
<path d="M205.627 108.551L204.67 108.519C204.446 108.519 204.287 108.328 204.287 108.072C204.287 107.849 204.478 107.689 204.701 107.689H204.733L205.659 107.721H205.691C205.914 107.753 206.074 107.945 206.074 108.168C206.074 108.391 205.882 108.583 205.627 108.551Z" fill="white"/>
<path d="M202.435 108.359L201.478 108.295C201.255 108.263 201.095 108.072 201.095 107.848C201.127 107.625 201.319 107.465 201.542 107.497L202.499 107.561C202.723 107.593 202.882 107.784 202.882 108.008C202.85 108.231 202.659 108.391 202.435 108.359Z" fill="white"/>
<path d="M199.245 108.071L198.287 107.944C198.064 107.944 197.904 107.72 197.936 107.529C197.968 107.306 198.16 107.146 198.383 107.178L199.34 107.274C199.564 107.306 199.723 107.497 199.691 107.72C199.659 107.944 199.468 108.103 199.245 108.071Z" fill="white"/>
<path d="M196.053 107.657L195.128 107.497C194.905 107.466 194.745 107.274 194.777 107.051C194.809 106.859 195.032 106.7 195.224 106.732L196.181 106.859C196.404 106.891 196.564 107.115 196.532 107.338C196.5 107.529 196.277 107.689 196.053 107.657Z" fill="white"/>
<path d="M192.894 107.115L191.969 106.955C191.746 106.891 191.618 106.7 191.65 106.476C191.682 106.285 191.905 106.125 192.097 106.189L193.054 106.349C193.245 106.412 193.405 106.604 193.373 106.827C193.309 107.019 193.118 107.178 192.894 107.115Z" fill="white"/>
<path d="M189.767 106.477L188.842 106.253C188.618 106.221 188.491 105.998 188.555 105.807C188.586 105.583 188.778 105.456 189.001 105.519L189.927 105.743C190.15 105.775 190.278 105.998 190.214 106.189C190.182 106.381 189.959 106.54 189.767 106.477Z" fill="white"/>
<path d="M186.64 105.71L185.714 105.455C185.523 105.423 185.395 105.2 185.459 105.008C185.523 104.817 185.714 104.689 185.906 104.753L186.831 104.976C187.055 105.04 187.15 105.232 187.118 105.455C187.055 105.646 186.863 105.774 186.64 105.71Z" fill="white"/>
<path d="M183.576 104.817L182.651 104.53C182.459 104.498 182.364 104.274 182.427 104.083C182.491 103.891 182.683 103.796 182.874 103.86L183.768 104.147H183.8C183.991 104.179 184.087 104.402 184.023 104.593C183.959 104.785 183.768 104.881 183.576 104.817Z" fill="white"/>
<path d="M180.513 103.828L179.62 103.509C179.428 103.445 179.332 103.254 179.396 103.062C179.46 102.871 179.683 102.775 179.843 102.839H179.875L180.768 103.158C180.96 103.222 181.056 103.445 180.992 103.605C180.928 103.796 180.704 103.892 180.545 103.828H180.513Z" fill="white"/>
<path d="M177.514 102.711L176.62 102.36C176.461 102.297 176.365 102.105 176.429 101.914C176.524 101.754 176.716 101.658 176.875 101.722L177.769 102.073C177.96 102.169 178.024 102.36 177.96 102.52C177.897 102.711 177.705 102.807 177.514 102.711Z" fill="white"/>
<path d="M174.578 101.498L173.684 101.115C173.525 101.019 173.461 100.828 173.525 100.668C173.589 100.509 173.78 100.413 173.94 100.509H173.972L174.833 100.892C174.993 100.956 175.089 101.147 174.993 101.339C174.929 101.498 174.738 101.562 174.578 101.498Z" fill="white"/>
<path d="M171.674 100.158L170.812 99.7115C170.653 99.6477 170.589 99.4562 170.653 99.2967C170.717 99.1371 170.908 99.0733 171.068 99.169L171.929 99.5838C172.089 99.6477 172.153 99.8391 172.089 99.9987C172.025 100.158 171.834 100.222 171.674 100.158Z" fill="white"/>
<path d="M168.802 98.6905L167.972 98.2437C167.812 98.148 167.749 97.9565 167.844 97.8289C167.908 97.6693 168.1 97.6055 168.259 97.7012L169.089 98.148C169.248 98.2437 169.312 98.4033 169.216 98.5628C169.153 98.7224 168.961 98.7862 168.802 98.6905Z" fill="white"/>
<path d="M166.026 97.1268L165.196 96.6162C165.068 96.5205 165.005 96.3609 165.1 96.2014C165.196 96.0737 165.356 96.0099 165.515 96.1057L166.313 96.6162C166.472 96.68 166.504 96.8715 166.441 97.0311C166.345 97.1587 166.153 97.1906 166.026 97.1268Z" fill="white"/>
<path d="M163.313 95.4033L162.515 94.8289C162.388 94.7332 162.356 94.5736 162.452 94.446C162.547 94.3184 162.707 94.2864 162.866 94.3503V94.3822L163.632 94.9247C163.76 95.0204 163.792 95.1799 163.728 95.3076C163.632 95.4352 163.441 95.4671 163.313 95.4033Z" fill="white"/>
<path d="M160.729 93.4566L159.995 92.8503C159.867 92.7545 159.867 92.5631 159.963 92.4673C160.059 92.3397 160.218 92.3397 160.346 92.4354L161.08 93.0417C161.207 93.1375 161.239 93.297 161.143 93.4247C161.048 93.5523 160.856 93.5523 160.729 93.4566Z" fill="white"/>
<path d="M158.335 91.3189L157.665 90.6168C157.569 90.5211 157.569 90.3296 157.665 90.2339C157.793 90.1382 157.952 90.1382 158.048 90.2339V90.2658L158.718 90.9359C158.846 91.0317 158.814 91.2231 158.718 91.3189C158.622 91.4146 158.463 91.4146 158.335 91.3189Z" fill="white"/>
<path d="M156.229 88.8939L155.654 88.128C155.559 88.0004 155.591 87.8408 155.686 87.7451C155.814 87.6813 155.974 87.7132 156.037 87.8089H156.069L156.612 88.5748C156.708 88.7024 156.676 88.862 156.58 88.9577C156.452 89.0215 156.293 89.0215 156.229 88.8939Z" fill="white"/>
<path d="M154.442 86.181L153.995 85.3194C153.931 85.2237 153.995 85.0641 154.123 85.0003C154.219 84.9365 154.378 85.0003 154.442 85.096V85.1279L154.889 85.9576C154.953 86.0853 154.889 86.2448 154.793 86.3086C154.665 86.3725 154.506 86.3086 154.442 86.181Z" fill="white"/>
<path d="M153.166 83.2458L152.879 82.2885C152.847 82.1928 152.911 82.0332 153.038 82.0013C153.166 81.9694 153.294 82.0332 153.325 82.1608V82.1928L153.613 83.0863C153.645 83.2139 153.581 83.3415 153.453 83.4054C153.325 83.4373 153.198 83.3734 153.166 83.2458Z" fill="white"/>
<path d="M152.463 80.086L152.368 79.0967C152.368 79.001 152.463 78.8734 152.591 78.8734C152.719 78.8415 152.814 78.9372 152.814 79.0648V79.0967L152.91 80.0221C152.91 80.1498 152.846 80.2774 152.719 80.2774C152.591 80.2774 152.463 80.2136 152.463 80.086Z" fill="white"/>
<path d="M152.4 76.8314L152.496 75.8741C152.528 75.7783 152.623 75.6826 152.751 75.6826C152.847 75.7145 152.942 75.8103 152.91 75.9379L152.847 76.8633V76.8952C152.815 76.9909 152.719 77.0867 152.591 77.0867C152.496 77.0548 152.4 76.959 152.4 76.8633V76.8314Z" fill="white"/>
<path d="M152.942 73.6727L153.198 72.7473C153.23 72.6515 153.357 72.5877 153.453 72.6196C153.549 72.6515 153.613 72.7473 153.581 72.843L153.325 73.7684C153.293 73.8641 153.198 73.928 153.07 73.8961C152.974 73.8961 152.91 73.7684 152.942 73.6727Z" fill="white"/>
<path d="M153.995 70.6409L154.41 69.7474C154.442 69.6517 154.57 69.6198 154.634 69.6836C154.729 69.7155 154.761 69.8112 154.729 69.907L154.314 70.7686C154.283 70.8643 154.187 70.8962 154.091 70.8643C153.995 70.8324 153.963 70.7047 153.995 70.6409Z" fill="white"/>
<path d="M155.527 67.8009L156.069 67.0031C156.101 66.9393 156.197 66.9074 156.293 66.9393C156.357 67.0031 156.357 67.0988 156.325 67.1626L155.782 67.9604C155.75 68.0561 155.655 68.0561 155.559 68.0242C155.495 67.9604 155.463 67.8647 155.527 67.8009Z" fill="white"/>
<path d="M157.442 65.2474L158.112 64.5134C158.176 64.4815 158.24 64.4496 158.303 64.5134C158.367 64.5772 158.367 64.673 158.335 64.7049H158.303L157.665 65.4388C157.633 65.5026 157.538 65.5026 157.474 65.4388C157.41 65.375 157.41 65.2793 157.442 65.2474Z" fill="white"/>
<path d="M159.771 63.014L160.537 62.4077C160.569 62.3758 160.665 62.3758 160.697 62.4396C160.728 62.4715 160.728 62.5672 160.665 62.5991L159.931 63.2054C159.867 63.2374 159.803 63.2374 159.739 63.1735C159.707 63.1416 159.707 63.0459 159.771 63.014Z" fill="white"/>
<path d="M162.42 61.1953L163.249 60.7166C163.313 60.6847 163.377 60.7166 163.409 60.7804C163.441 60.8124 163.409 60.8762 163.345 60.9081L162.515 61.3867C162.452 61.4187 162.388 61.3867 162.356 61.3229C162.324 61.291 162.356 61.2272 162.42 61.1953Z" fill="white"/>
<path d="M165.324 59.8544C165.643 59.7587 165.93 59.631 166.249 59.5672C166.281 59.5353 166.345 59.5672 166.345 59.631C166.377 59.6629 166.345 59.7268 166.281 59.7268C165.994 59.8225 165.675 59.9182 165.387 60.014C165.324 60.0459 165.292 60.014 165.26 59.982C165.26 59.9182 165.26 59.8544 165.324 59.8544Z" fill="white"/>
<path d="M168.419 59.0573L169.376 58.9297C169.408 58.9297 169.472 58.9616 169.472 58.9935C169.472 59.0254 169.44 59.0892 169.408 59.0892L168.451 59.2169C168.419 59.2169 168.355 59.185 168.355 59.1531C168.355 59.1212 168.387 59.0573 168.419 59.0573Z" fill="white"/>
<path d="M171.61 58.8018L172.568 58.8337C172.599 58.8337 172.631 58.8656 172.631 58.8975C172.631 58.9294 172.599 58.9613 172.568 58.9613L171.61 58.9294C171.578 58.9294 171.546 58.8975 171.546 58.8656C171.546 58.8337 171.578 58.8018 171.61 58.8018Z" fill="white"/>
<path d="M174.801 59.0576L175.758 59.2172C175.78 59.2384 175.79 59.2597 175.79 59.281C175.769 59.3023 175.748 59.3129 175.727 59.3129L174.801 59.1533C174.769 59.1533 174.737 59.1214 174.737 59.0895C174.769 59.0576 174.769 59.0576 174.801 59.0576Z" fill="white"/>
<path d="M177.928 59.7598L178.822 60.0789C178.843 60.0789 178.854 60.0895 178.854 60.1108C178.832 60.1108 178.822 60.1108 178.822 60.1108L177.896 59.8236C177.875 59.8236 177.875 59.8129 177.896 59.7917C177.896 59.7704 177.907 59.7598 177.928 59.7598Z" fill="white"/>
<path d="M180.896 60.9082L181.758 61.323C181.758 61.3443 181.758 61.355 181.758 61.355L180.896 60.9401C180.896 60.9401 180.896 60.9295 180.896 60.9082Z" fill="white"/>
<path d="M306.336 34.6972C307.485 29.2724 310.293 31.1232 315.048 29.4639C319.803 27.8045 318.43 21.8692 321.366 20.0184C325.291 17.5931 328.897 19.8588 331.354 23.0499C335.407 28.3789 338.183 24.071 343.034 26.209C345.81 27.4535 344.629 29.1767 348.394 29.8787C351.011 30.3574 353.883 29.2086 356.468 29.9106C358.382 30.4531 359.787 31.3466 360.201 33.1974C359.648 33.4527 359.085 33.6867 358.51 33.8995C351.266 36.5161 341.374 35.6545 334.035 36.0375C331.546 36.1651 305.539 38.5265 306.336 34.6972Z" fill="url(#paint1_linear_950_69296)"/>
<path d="M270.501 39.4523C272.128 37.4738 274.554 36.6442 276.915 37.2505C279.5 37.8887 280.936 40.3458 283.361 41.335C287.541 43.0582 293.317 39.6437 296.508 44.0793C300.401 49.5041 303.401 45.4515 303.401 49.1212C303.401 52.7909 276.532 50.0785 263.257 50.3019C261.343 50.3019 253.046 50.1742 256.62 46.1854C257.737 44.9728 259.3 44.7494 260.8 44.4622C262.715 44.0793 267.31 43.8879 268.714 42.3881C269.448 41.5903 269.735 40.4096 270.437 39.548C270.458 39.5055 270.48 39.4736 270.501 39.4523Z" fill="url(#paint2_linear_950_69296)"/>
<path d="M134.346 56.2611L236.588 58.3672C242.236 58.4948 246.799 63.0261 246.959 68.6424L251.426 217.027C251.554 221.462 248.012 225.1 243.608 225.068L126.368 224.781C122.22 224.781 118.901 221.366 118.997 217.218L122.092 68.0361C122.22 61.3987 127.709 56.1334 134.346 56.2611Z" fill="url(#paint3_linear_950_69296)"/>
<path d="M143.696 222.642C143.653 222.664 143.6 222.674 143.536 222.674L130.453 222.228C126.017 222.068 122.507 218.366 122.603 213.963L123.018 194.146C123.018 193.955 123.177 193.827 123.369 193.827C123.528 193.827 123.688 193.987 123.688 194.178L123.273 213.963C123.177 218.015 126.4 221.43 130.453 221.557L143.568 222.004C143.76 222.004 143.887 222.164 143.887 222.355C143.887 222.483 143.792 222.611 143.696 222.642Z" fill="white"/>
<path d="M123.592 188.339C123.55 188.36 123.507 188.371 123.465 188.371C123.273 188.371 123.146 188.211 123.146 188.02L123.209 184.829C123.209 184.637 123.369 184.478 123.56 184.478C123.752 184.478 123.879 184.637 123.879 184.829L123.816 188.052C123.816 188.179 123.72 188.307 123.592 188.339Z" fill="white"/>
<path d="M134.697 55.0485C148.61 57.2504 196.508 64.1111 236.268 61.8774C238.087 61.7817 239.619 63.1857 239.683 65.0046L244.501 214.059C244.565 216.101 242.97 217.793 240.927 217.888C224.206 218.526 155.375 220.92 130.9 217.824C129.4 217.633 128.315 216.357 128.315 214.857L130.644 58.463C130.676 56.325 132.591 54.7294 134.697 55.0485Z" fill="url(#paint4_linear_950_69296)"/>
<path opacity="0.6" d="M136.101 58.9419C149.503 61.048 195.582 67.6535 233.843 65.5155C235.598 65.4198 237.066 66.76 237.13 68.5151L241.757 211.953C241.821 213.932 240.289 215.559 238.342 215.655C222.26 216.261 156.013 218.559 132.463 215.591C131.027 215.431 129.974 214.187 129.974 212.751L132.24 62.2287C132.272 60.1864 134.091 58.6547 136.101 58.9419Z" fill="white"/>
<g opacity="0.6">
<path d="M231.194 117.593C231.897 117.593 232.439 117.147 232.407 116.572C232.375 115.998 231.801 115.519 231.099 115.519L144.876 113.03C144.174 113.03 143.951 113.445 144.366 114.02L144.972 114.785C145.387 115.36 146.312 115.807 147.014 115.838L231.194 117.593Z" fill="white"/>
</g>
<g opacity="0.6">
<path d="M144.749 118.774C144.047 118.742 143.823 119.189 144.27 119.731L144.844 120.529C145.291 121.072 146.217 121.55 146.919 121.55L231.067 123.305C231.769 123.337 232.311 122.859 232.311 122.316C232.279 121.742 231.673 121.263 230.971 121.231L144.749 118.774Z" fill="white"/>
</g>
<g opacity="0.6">
<path d="M231.194 102.372C231.897 102.404 232.439 101.957 232.407 101.383C232.375 100.808 231.801 100.33 231.099 100.298L144.876 97.8405C144.174 97.8086 143.951 98.2553 144.366 98.8297L144.972 99.5956C145.387 100.138 146.312 100.617 147.014 100.649L231.194 102.372Z" fill="white"/>
</g>
<g opacity="0.6">
<path d="M144.749 103.553C144.047 103.553 143.823 103.999 144.27 104.542L144.844 105.308C145.291 105.882 146.217 106.361 146.919 106.361L231.067 108.116C231.769 108.116 232.311 107.669 232.311 107.095C232.279 106.552 231.673 106.074 230.971 106.042L144.749 103.553Z" fill="white"/>
</g>
<g opacity="0.6">
<path d="M162.715 134.92C162.012 134.888 161.598 135.431 161.757 136.133L162.044 137.314C162.204 137.984 162.906 138.558 163.608 138.558L229.599 139.26C230.301 139.26 230.876 138.686 230.876 137.984V137.824C230.876 137.122 230.301 136.516 229.599 136.516L162.715 134.92Z" fill="white"/>
</g>
<path fill-rule="evenodd" clip-rule="evenodd" d="M155.981 156.652C155.726 156.758 155.46 156.801 155.183 156.779L147.876 156.556C146.823 156.524 145.929 155.79 145.865 154.801L145.355 148.674C145.323 148.291 145.451 147.94 145.706 147.653C145.993 147.334 146.408 147.11 146.855 147.11C147.461 147.078 148.323 147.015 149.248 146.951C151.195 146.823 153.588 146.664 154.96 146.696C155.949 146.696 156.779 147.334 157.002 148.195C157.353 149.631 157.289 152.28 157.13 155.12C157.098 155.822 156.651 156.396 155.981 156.652ZM146.568 147.844C146.419 147.908 146.291 147.993 146.185 148.1C146.057 148.227 145.993 148.419 146.025 148.61L146.536 154.769C146.568 155.375 147.174 155.886 147.908 155.886L155.183 156.109C155.885 156.141 156.46 155.694 156.492 155.088C156.619 152.312 156.683 149.695 156.364 148.355C156.205 147.78 155.63 147.366 154.928 147.366C153.62 147.334 151.226 147.493 149.28 147.621C148.355 147.685 147.525 147.749 146.887 147.78C146.78 147.78 146.674 147.802 146.568 147.844Z" fill="white"/>
<path opacity="0.6" d="M147.652 148.355C149.184 148.291 152.535 148.036 154.098 148.036C154.768 148.036 155.343 148.451 155.502 149.025C155.79 150.174 155.694 152.408 155.598 154.482C155.566 155.12 154.992 155.599 154.29 155.567L148.482 155.407C147.748 155.376 147.174 154.865 147.11 154.227L146.695 149.344C146.663 148.834 147.078 148.387 147.652 148.355Z" fill="white"/>
<path fill-rule="evenodd" clip-rule="evenodd" d="M155.981 141.175C155.726 141.281 155.46 141.324 155.183 141.303L147.876 141.079C146.823 141.047 145.929 140.313 145.865 139.324L145.355 133.197C145.323 132.815 145.451 132.463 145.706 132.176C145.993 131.857 146.408 131.634 146.855 131.634C147.461 131.602 148.323 131.538 149.248 131.474C151.195 131.347 153.588 131.187 154.96 131.219C155.949 131.219 156.779 131.857 157.002 132.719C157.353 134.155 157.289 136.803 157.13 139.643C157.098 140.345 156.651 140.92 155.981 141.175ZM146.568 132.368C146.419 132.432 146.291 132.517 146.185 132.623C146.057 132.751 145.993 132.942 146.025 133.134L146.536 139.292C146.568 139.899 147.174 140.409 147.908 140.409L155.183 140.633C155.885 140.665 156.46 140.218 156.492 139.611C156.619 136.835 156.683 134.219 156.364 132.878C156.205 132.304 155.63 131.889 154.928 131.889C153.62 131.857 151.226 132.017 149.28 132.144C148.355 132.208 147.525 132.272 146.887 132.304C146.78 132.304 146.674 132.325 146.568 132.368Z" fill="white"/>
<path opacity="0.6" d="M147.652 132.879C149.184 132.815 152.535 132.56 154.098 132.56C154.768 132.56 155.343 132.974 155.502 133.549C155.79 134.698 155.694 136.931 155.598 139.006C155.566 139.644 154.992 140.122 154.29 140.09L148.482 139.931C147.748 139.899 147.174 139.388 147.11 138.75L146.695 133.868C146.663 133.357 147.078 132.911 147.652 132.879Z" fill="white"/>
<g opacity="0.6">
<path d="M162.395 150.557C161.693 150.525 161.247 151.068 161.438 151.77L161.693 152.95C161.885 153.62 162.587 154.195 163.289 154.195L229.248 154.865C229.95 154.865 230.524 154.322 230.524 153.62V153.429C230.524 152.727 229.95 152.153 229.248 152.121L162.395 150.557Z" fill="white"/>
</g>
<path fill-rule="evenodd" clip-rule="evenodd" d="M155.662 172.288C155.407 172.373 155.131 172.416 154.833 172.416L147.557 172.193C146.472 172.161 145.611 171.395 145.547 170.438L145.036 164.311C145.004 163.928 145.1 163.577 145.355 163.258C145.642 162.939 146.089 162.747 146.536 162.715C147.142 162.683 148.004 162.651 148.929 162.588C150.972 162.46 153.269 162.3 154.609 162.332C155.631 162.332 156.46 162.939 156.684 163.832C157.035 165.236 156.939 167.917 156.811 170.757C156.779 171.427 156.301 172.033 155.662 172.288ZM146.217 163.481C146.089 163.524 145.972 163.598 145.866 163.704C145.738 163.864 145.674 164.055 145.674 164.247L146.217 170.374C146.249 171.012 146.855 171.491 147.589 171.523L154.865 171.746C155.535 171.778 156.109 171.299 156.141 170.725C156.269 167.917 156.364 165.332 156.045 163.992C155.886 163.417 155.311 163.002 154.609 162.97C153.301 162.97 150.908 163.13 148.993 163.258C148.036 163.321 147.174 163.353 146.568 163.385C146.44 163.407 146.323 163.438 146.217 163.481Z" fill="white"/>
<path opacity="0.6" d="M147.334 163.991C148.865 163.928 152.216 163.64 153.779 163.672C154.45 163.672 155.024 164.087 155.184 164.662C155.471 165.81 155.375 168.044 155.279 170.118C155.247 170.725 154.673 171.235 153.971 171.203L148.131 171.012C147.429 171.012 146.855 170.501 146.791 169.863L146.376 164.949C146.344 164.47 146.759 164.023 147.334 163.991Z" fill="white"/>
<g opacity="0.6">
<path d="M162.076 166.161C161.374 166.161 160.927 166.704 161.087 167.374L161.374 168.554C161.534 169.256 162.268 169.799 162.97 169.831L228.929 170.501C229.631 170.501 230.205 169.927 230.205 169.225V169.065C230.205 168.363 229.631 167.789 228.929 167.757L162.076 166.161Z" fill="white"/>
</g>
<path fill-rule="evenodd" clip-rule="evenodd" d="M155.343 187.893C155.088 187.999 154.811 188.052 154.513 188.052L147.238 187.829C146.153 187.797 145.291 187.031 145.196 186.074L144.685 179.947C144.653 179.564 144.781 179.181 145.036 178.894C145.323 178.575 145.77 178.383 146.217 178.351C146.823 178.319 147.685 178.256 148.61 178.224C150.652 178.064 152.95 177.937 154.29 177.937C155.311 177.937 156.141 178.575 156.364 179.468C156.715 180.872 156.62 183.521 156.492 186.361C156.46 187.063 155.981 187.637 155.343 187.893ZM145.898 179.085C145.77 179.149 145.653 179.234 145.547 179.341C145.419 179.5 145.355 179.692 145.355 179.883L145.866 186.01C145.93 186.648 146.536 187.127 147.238 187.159L154.545 187.382C155.215 187.382 155.79 186.935 155.822 186.329C155.949 183.553 156.045 180.936 155.726 179.628C155.567 179.053 154.96 178.607 154.29 178.607C152.95 178.607 150.588 178.766 148.642 178.862C147.716 178.926 146.855 178.99 146.249 179.021C146.121 179.021 146.004 179.043 145.898 179.085Z" fill="white"/>
<path opacity="0.6" d="M147.014 179.627C148.546 179.532 151.865 179.276 153.46 179.276C154.13 179.276 154.705 179.723 154.864 180.298C155.12 181.414 155.056 183.68 154.96 185.754C154.928 186.361 154.354 186.839 153.652 186.839L147.812 186.648C147.11 186.616 146.504 186.137 146.472 185.499L146.057 180.585C146.025 180.074 146.44 179.627 147.014 179.627Z" fill="white"/>
<g opacity="0.6">
<path d="M161.757 181.797C161.055 181.765 160.608 182.308 160.768 183.01L161.055 184.191C161.214 184.861 161.916 185.435 162.619 185.435L228.61 186.137C229.312 186.137 229.886 185.563 229.886 184.861V184.701C229.886 183.999 229.312 183.393 228.61 183.393L161.757 181.797Z" fill="white"/>
</g>
<path fill-rule="evenodd" clip-rule="evenodd" d="M192.136 51.7935L180.552 50.549L179.818 39.859C179.659 37.721 181.031 35.7744 183.105 35.2C185.371 34.5937 188.594 34.5937 192.231 37.2423C199.379 42.4437 192.136 51.7935 192.136 51.7935ZM189.902 42.8905C189.934 41.2949 188.657 39.9547 187.062 39.9228C185.466 39.8909 184.158 41.1673 184.126 42.7628C184.094 44.3584 185.371 45.6986 186.966 45.7305C188.562 45.7624 189.87 44.486 189.902 42.8905Z" fill="url(#paint5_linear_950_69296)"/>
<path d="M181.925 46.1136C181.903 46.1349 181.872 46.1456 181.829 46.1456C181.669 46.1456 181.51 46.0179 181.478 45.8265L181.35 44.1352C181.35 43.9437 181.478 43.7842 181.669 43.7842C181.861 43.7523 182.02 43.9118 182.02 44.0714L182.148 45.7945C182.148 45.9222 182.084 46.0498 181.925 46.1136ZM181.701 42.7949C181.68 42.7949 181.648 42.7949 181.606 42.7949C181.414 42.8269 181.255 42.6992 181.255 42.5078L181.159 41.1994C180.999 39.1571 182.34 37.2425 184.35 36.7C185.754 36.3171 187.19 36.2852 188.626 36.6043C188.785 36.6681 188.913 36.8277 188.849 37.0191C188.817 37.2106 188.658 37.3063 188.466 37.2744C187.126 36.9553 185.818 36.9872 184.509 37.3382C182.85 37.8169 181.701 39.4124 181.829 41.1675L181.925 42.4439C181.925 42.6035 181.829 42.7311 181.701 42.7949Z" fill="white"/>
<path d="M164.597 57.0907L164.693 51.7298C164.725 49.8789 166.288 48.443 168.139 48.5387L204.996 50.581C206.623 50.6448 207.932 51.985 207.996 53.6125L208.187 58.7501L164.597 57.0907Z" fill="url(#paint6_linear_950_69296)"/>
<path d="M178.606 50.8039C178.563 50.8252 178.521 50.8358 178.478 50.8358L176.883 50.8039C176.691 50.8039 176.563 50.6444 176.563 50.4529C176.563 50.2614 176.723 50.1338 176.914 50.1338L178.478 50.1657C178.67 50.1657 178.829 50.3252 178.829 50.4848C178.797 50.6444 178.733 50.7401 178.606 50.8039Z" fill="white"/>
<path d="M166.735 55.4628C166.693 55.4841 166.65 55.4947 166.608 55.4947C166.416 55.4947 166.289 55.3352 166.289 55.1437L166.32 53.0057C166.352 51.2825 167.788 49.9423 169.48 49.9742L175.319 50.1018C175.511 50.1018 175.638 50.2614 175.638 50.4209C175.638 50.6124 175.479 50.772 175.287 50.772L169.48 50.6443C168.139 50.6124 167.023 51.6655 166.991 53.0057L166.959 55.1756C166.959 55.3033 166.863 55.4309 166.735 55.4628Z" fill="white"/>
<path d="M153.078 54.8892L217.569 56.2294C219.898 56.2614 221.845 57.9845 222.196 60.2821L222.228 60.6012C222.611 63.0902 220.632 65.3559 218.079 65.2921L151.929 63.9199C150.397 63.888 149.216 62.6116 149.312 61.0799L149.535 58.1122C149.663 56.2614 151.227 54.8573 153.078 54.8892Z" fill="url(#paint7_linear_950_69296)"/>
<path fill-rule="evenodd" clip-rule="evenodd" d="M158.725 80.9601C158.725 82.662 158.215 83.9597 157.194 84.8532C156.194 85.7467 154.758 86.1935 152.886 86.1935L151.514 86.1616V91.7778L148.354 91.7459V76.0459H153.109C154.939 76.0459 156.322 76.4607 157.258 77.2904C158.215 78.1201 158.704 79.3433 158.725 80.9601ZM151.514 83.4172L152.567 83.4492C153.545 83.4492 154.279 83.2471 154.769 82.8429C155.258 82.4387 155.492 81.8536 155.471 81.0878C155.471 80.3006 155.268 79.7156 154.864 79.3327C154.46 78.971 153.822 78.7796 152.95 78.7583H151.514V83.4172Z" fill="url(#paint8_linear_950_69296)"/>
<path fill-rule="evenodd" clip-rule="evenodd" d="M175.511 84.0552C175.532 86.7144 174.915 88.7567 173.66 90.182C172.405 91.5861 170.596 92.2669 168.235 92.2243C165.874 92.203 164.065 91.4691 162.81 90.0225C161.555 88.5971 160.917 86.5655 160.896 83.9276C160.896 81.2896 161.512 79.2792 162.746 77.8965C164.001 76.5137 165.799 75.8223 168.139 75.8223C170.501 75.8223 172.309 76.5349 173.564 77.9603C174.84 79.3643 175.489 81.396 175.511 84.0552ZM164.278 83.9595C164.299 85.7465 164.64 87.0973 165.299 88.0121C165.937 88.9056 166.905 89.363 168.203 89.3843C170.82 89.4268 172.107 87.6398 172.064 84.0233C172.043 80.428 170.745 78.6304 168.171 78.6304C166.873 78.6304 165.895 79.0771 165.235 79.9706C164.597 80.8641 164.278 82.1937 164.278 83.9595Z" fill="url(#paint9_linear_950_69296)"/>
<path d="M178.829 92.1604L178.67 76.1094H181.957L182.116 89.3842L188.498 89.448L188.562 92.288L178.829 92.1604Z" fill="url(#paint10_linear_950_69296)"/>
<path d="M191.306 92.3522L191.083 76.1416H194.434L194.689 92.3841L191.306 92.3522Z" fill="url(#paint11_linear_950_69296)"/>
<path d="M205.347 78.7899C204.049 78.7899 203.06 79.2792 202.379 80.2578C201.677 81.2364 201.348 82.5979 201.39 84.3424C201.454 87.9802 202.837 89.8203 205.539 89.8629C206.687 89.8842 208.07 89.6076 209.687 89.0332L209.751 91.969C208.411 92.5221 206.921 92.788 205.283 92.7668C202.922 92.7242 201.114 91.969 199.859 90.5011C198.582 89.0545 197.923 86.9803 197.88 84.2785C197.859 82.5979 198.135 81.1194 198.71 79.843C199.305 78.5665 200.167 77.5986 201.294 76.9391C202.422 76.2583 203.752 75.918 205.283 75.918C206.858 75.918 208.442 76.3115 210.038 77.0987L208.985 79.9068C208.389 79.609 207.772 79.3537 207.134 79.1409C206.517 78.9069 205.922 78.7899 205.347 78.7899Z" fill="url(#paint12_linear_950_69296)"/>
<path d="M218.143 82.9698L221.43 76.2048H225.227L219.962 86.2885L220.121 92.7344L216.643 92.7025L216.484 86.3523L210.835 76.1729H214.601L218.143 82.9698Z" fill="url(#paint13_linear_950_69296)"/>
<path opacity="0.2" d="M321.894 167.992H265.891C264.71 167.992 263.721 167.035 263.721 165.823C263.721 164.642 264.71 163.685 265.891 163.685H321.894C323.074 163.685 324.064 164.642 324.064 165.823C324.064 167.035 323.074 167.992 321.894 167.992Z" fill="white"/>
<path opacity="0.53" d="M328.627 176.48H272.624C271.411 176.48 270.454 175.523 270.454 174.311C270.454 173.13 271.411 172.141 272.624 172.141H328.627C329.807 172.141 330.797 173.13 330.797 174.311C330.797 175.523 329.807 176.48 328.627 176.48Z" fill="white"/>
<path opacity="0.53" d="M312.703 193.457H272.624C271.411 193.457 270.454 192.5 270.454 191.287C270.454 190.106 271.411 189.117 272.624 189.117H312.703C313.884 189.117 314.873 190.106 314.873 191.287C314.873 192.5 313.884 193.457 312.703 193.457Z" fill="white"/>
<path opacity="0.2" d="M334.913 184.969H278.91C277.698 184.969 276.74 184.011 276.74 182.799C276.74 181.618 277.698 180.629 278.91 180.629H334.913C336.094 180.629 337.051 181.618 337.051 182.799C337.051 184.011 336.094 184.969 334.913 184.969Z" fill="white"/>
<path opacity="0.2" d="M47.1505 37.1309H-8.85254C-10.0651 37.1309 -11.0225 36.1735 -11.0225 34.9609C-11.0225 33.7802 -10.0651 32.791 -8.85254 32.791H47.1505C48.3312 32.791 49.3205 33.7802 49.3205 34.9609C49.3205 36.1735 48.3312 37.1309 47.1505 37.1309Z" fill="white"/>
<path opacity="0.53" d="M53.852 45.6182H-2.11914C-3.33174 45.6182 -4.28906 44.6608 -4.28906 43.4482C-4.28906 42.2675 -3.33174 41.2783 -2.11914 41.2783H53.852C55.0646 41.2783 56.0219 42.2675 56.0219 43.4482C56.0219 44.6608 55.0646 45.6182 53.852 45.6182Z" fill="white"/>
<path opacity="0.53" d="M37.9286 62.5947H-2.11914C-3.33174 62.5947 -4.28906 61.6374 -4.28906 60.4248C-4.28906 59.2441 -3.33174 58.2549 -2.11914 58.2549H37.9286C39.1413 58.2549 40.0986 59.2441 40.0986 60.4248C40.0986 61.6374 39.1413 62.5947 37.9286 62.5947Z" fill="white"/>
<path opacity="0.2" d="M60.1382 54.1074H4.13508C2.95439 54.1074 1.99707 53.1501 1.99707 51.9375C1.99707 50.7568 2.95439 49.7676 4.13508 49.7676H60.1382C61.3508 49.7676 62.3081 50.7568 62.3081 51.9375C62.3081 53.1501 61.3508 54.1074 60.1382 54.1074Z" fill="white"/>
<path d="M139.177 97.3941C139.177 120.721 120.254 139.612 96.9273 139.612C73.6007 139.612 54.6777 120.721 54.6777 97.3941C54.6777 74.0675 73.6007 55.1445 96.9273 55.1445C120.254 55.1445 139.177 74.0675 139.177 97.3941Z" fill="url(#paint14_linear_950_69296)"/>
<path d="M137.773 97.3944C137.773 119.955 119.488 138.208 96.9271 138.208C74.3663 138.208 56.0815 119.955 56.0815 97.3944C56.0815 74.8336 74.3663 56.5488 96.9271 56.5488C119.488 56.5488 137.773 74.8336 137.773 97.3944Z" fill="url(#paint15_linear_950_69296)"/>
<path d="M59.3047 95.83C59.2834 95.83 59.2727 95.83 59.2727 95.83C59.0175 95.7981 58.8579 95.6066 58.8579 95.3832C58.9536 93.7558 59.1132 92.1603 59.4004 90.5647C59.4642 90.3414 59.6876 90.1818 59.911 90.2456C60.1343 90.2775 60.2939 90.5009 60.262 90.7243C59.9748 92.256 59.8152 93.8515 59.7195 95.4151C59.7195 95.6385 59.528 95.83 59.3047 95.83Z" fill="white"/>
<path d="M63.2619 80.8642C63.1981 80.8642 63.1342 80.8429 63.0704 80.8004C62.847 80.7047 62.7513 80.4494 62.8789 80.226C69.3887 67.3022 82.4401 59.2607 96.9275 59.2607C99.2251 59.2607 101.555 59.4841 103.82 59.899C104.044 59.9309 104.203 60.1542 104.139 60.3776C104.107 60.6329 103.884 60.7925 103.661 60.7286C101.459 60.3457 99.1932 60.1223 96.9275 60.1223C82.7912 60.1223 70.0269 67.9723 63.6448 80.6089C63.581 80.7685 63.4214 80.8642 63.2619 80.8642Z" fill="white"/>
<path opacity="0.78" d="M132.38 98.2877C132.38 117.37 116.903 132.847 97.8209 132.847C78.7383 132.847 63.2617 117.37 63.2617 98.2877C63.2617 79.2052 78.7383 63.7285 97.8209 63.7285C116.903 63.7285 132.38 79.2052 132.38 98.2877Z" fill="white"/>
<path d="M121.626 100.266L115.435 114.562C114.159 117.466 110.776 118.806 107.873 117.561C106.437 116.923 105.352 115.774 104.809 114.402C104.267 113.03 104.267 111.466 104.905 109.999L111.096 95.7027C112.34 92.7988 115.723 91.4585 118.626 92.7031C120.094 93.3413 121.147 94.4901 121.69 95.8622C122.232 97.2344 122.264 98.798 121.626 100.266Z" fill="url(#paint16_linear_950_69296)"/>
<path d="M118.531 107.414L115.435 114.562C114.159 117.466 110.776 118.806 107.873 117.561C106.437 116.923 105.352 115.774 104.809 114.402C104.267 113.03 104.267 111.466 104.905 109.999L108 102.851L118.531 107.414Z" fill="url(#paint17_linear_950_69296)"/>
<path d="M105.064 86.7359L89.4601 87.1827C86.301 87.2465 83.6524 84.7575 83.5886 81.5983C83.5247 80.0028 84.1311 78.5668 85.1522 77.4818C86.1414 76.4288 87.5774 75.7268 89.141 75.6948L104.745 75.28C107.904 75.1843 110.553 77.6733 110.649 80.8644C110.681 82.428 110.074 83.8959 109.085 84.9489C108.064 86.0339 106.628 86.704 105.064 86.7359Z" fill="url(#paint18_linear_950_69296)"/>
<path d="M97.2782 86.9595L89.4601 87.1829C86.301 87.2467 83.6524 84.7577 83.5886 81.5985C83.5247 80.003 84.1311 78.567 85.1522 77.482C86.1414 76.429 87.5774 75.727 89.141 75.6951L96.9591 75.4717L97.2782 86.9595Z" fill="url(#paint19_linear_950_69296)"/>
<path d="M89.3326 118.998L75.1324 112.584C72.2604 111.275 70.9521 107.861 72.2604 104.989C72.9305 103.553 74.1112 102.5 75.4834 101.989C76.8555 101.447 78.4192 101.479 79.8551 102.117L94.0873 108.531C96.9592 109.839 98.2356 113.254 96.9273 116.126C96.2891 117.594 95.1084 118.615 93.7362 119.157C92.3641 119.668 90.8005 119.668 89.3326 118.998Z" fill="url(#paint20_linear_950_69296)"/>
<path d="M82.2484 115.775L75.1324 112.584C72.2604 111.275 70.9521 107.861 72.2604 104.989C72.9305 103.553 74.1112 102.5 75.4834 101.989C76.8555 101.447 78.4192 101.479 79.8551 102.117L86.9712 105.34L82.2484 115.775Z" fill="url(#paint21_linear_950_69296)"/>
<path d="M111.032 163.29L111 146.09H95.3637L95.3956 162.269C95.3956 170.916 92.5875 179.341 87.4499 186.297L66.8356 214.091C65.7507 215.559 65.1763 217.314 65.1763 219.101V219.133C65.1763 223.792 68.9417 227.558 73.6007 227.558H132.986C137.645 227.558 141.411 223.792 141.411 219.133C141.411 217.314 140.836 215.559 139.751 214.091L118.371 185.468C113.617 179.053 111.032 171.267 111.032 163.29Z" fill="url(#paint22_linear_950_69296)"/>
<path opacity="0.49" d="M73.6005 225.451C70.0904 225.451 67.2822 222.611 67.2822 219.133C67.2822 217.761 67.6971 216.42 68.5267 215.336L89.141 187.573C94.5339 180.298 97.5015 171.299 97.5015 162.268L97.4696 148.228H108.894L108.926 163.289C108.926 171.682 111.67 179.979 116.68 186.712L138.06 215.336C138.858 216.42 139.304 217.761 139.304 219.133C139.304 222.611 136.464 225.451 132.986 225.451H73.6005Z" fill="white"/>
<path d="M111.478 149.185H94.9169C93.5767 149.185 92.4917 148.1 92.4917 146.759C92.4917 145.483 93.4809 144.43 94.7893 144.366L111.351 143.473C112.723 143.377 113.904 144.494 113.904 145.898V146.759C113.904 148.1 112.819 149.185 111.478 149.185Z" fill="url(#paint23_linear_950_69296)"/>
<path d="M68.5267 215.336C67.6971 216.42 67.2822 217.761 67.2822 219.133C67.2822 222.611 70.0904 225.451 73.6005 225.451H132.986C136.464 225.451 139.304 222.611 139.304 219.133C139.304 217.761 138.858 216.42 138.06 215.336L128.519 202.571H78.0042L68.5267 215.336Z" fill="url(#paint24_linear_950_69296)"/>
<path d="M78.7383 227.557C75.4515 227.557 72.771 224.877 72.771 221.59V178.894H86.0139L84.7056 221.59C84.7056 224.877 82.0251 227.557 78.7383 227.557Z" fill="url(#paint25_linear_950_69296)"/>
<path opacity="0.49" d="M78.7385 226.153C76.2176 226.153 74.1753 224.111 74.1753 221.59V178.894H84.5781L83.3017 221.558V221.59C83.3017 224.111 81.2594 226.153 78.7385 226.153Z" fill="white"/>
<path d="M86.0137 179.915H72.5794C71.4944 179.915 70.6328 179.021 70.6328 177.968C70.6328 176.915 71.4306 176.053 72.4836 175.99L85.8861 175.256C87.0349 175.224 87.9603 176.117 87.9603 177.234V177.968C87.9603 179.021 87.0987 179.915 86.0137 179.915Z" fill="url(#paint26_linear_950_69296)"/>
<path d="M74.1753 198.359V221.59C74.1753 224.111 76.2176 226.154 78.7385 226.154C81.2594 226.154 83.3017 224.111 83.3017 221.59V221.558L84.0038 198.359H74.1753Z" fill="url(#paint27_linear_950_69296)"/>
<path d="M60.5493 227.972C57.2625 227.972 54.582 225.292 54.582 222.005V179.309H67.8249L66.5166 222.005C66.5166 225.292 63.8361 227.972 60.5493 227.972Z" fill="url(#paint28_linear_950_69296)"/>
<path opacity="0.49" d="M60.5491 226.568C58.0281 226.568 55.9858 224.526 55.9858 222.005V179.309H66.3887L65.1123 221.973V222.005C65.1123 224.526 63.07 226.568 60.5491 226.568Z" fill="white"/>
<path d="M67.8248 180.329H54.3904C53.3054 180.329 52.4438 179.468 52.4438 178.383C52.4438 177.33 53.2416 176.468 54.2947 176.404L67.6971 175.702C68.8459 175.639 69.7713 176.532 69.7713 177.649V178.383C69.7713 179.468 68.9097 180.329 67.8248 180.329Z" fill="url(#paint29_linear_950_69296)"/>
<path d="M55.9858 198.806V222.005C55.9858 224.526 58.0281 226.568 60.5491 226.568C63.07 226.568 65.1123 224.526 65.1123 222.005V221.973L65.8143 198.806H55.9858Z" fill="url(#paint30_linear_950_69296)"/>
<path d="M254.816 134.766C254.816 134.766 254.801 134.781 254.772 134.81H254.685C254.641 134.81 254.51 134.854 254.51 134.897L254.641 134.941C254.641 134.984 254.685 135.028 254.685 135.072V135.115C254.554 135.988 253.768 138.388 252.896 141.487C252.896 141.516 252.881 141.53 252.852 141.53C250.888 148.469 248.052 158.898 247.223 163.699C247.223 163.699 245.695 164.353 243.339 164.79C239.935 166.099 234.786 166.273 229.985 165.008C229.985 165.008 227.411 144.061 230.553 125.864C230.553 125.864 238.713 123.857 247.528 123.289C247.572 123.289 247.615 123.115 247.659 123.115C248.401 123.071 249.099 122.896 249.797 122.896H250.365C250.452 122.896 250.539 122.896 250.626 122.896C250.976 122.896 251.674 123.333 252.416 123.638C252.459 123.682 252.503 123.769 252.503 123.769C252.503 123.769 252.634 123.9 252.677 123.9C252.765 123.944 252.852 124.031 252.983 124.075C252.983 124.075 252.997 124.089 253.027 124.118C253.027 124.118 253.041 124.118 253.07 124.118C253.128 124.147 253.187 124.177 253.245 124.206C253.245 124.206 253.259 124.22 253.288 124.249C253.347 124.278 253.419 124.307 253.507 124.337L253.463 124.38C253.55 124.424 253.681 124.467 253.768 124.511C253.856 124.555 253.899 124.598 253.899 124.642L253.943 124.555C253.972 124.584 254.001 124.613 254.03 124.642C254.059 124.642 254.074 124.642 254.074 124.642C254.554 124.948 254.99 125.253 255.427 125.602C255.456 125.631 255.47 125.646 255.47 125.646C257.434 128.919 258.35 134.33 254.816 134.766Z" fill="url(#paint31_linear_950_69296)"/>
<path d="M285.668 143.1L282.352 143.406C278.293 144.017 274.933 143.842 272.184 143.144C263.543 140.875 260.401 133.5 257.739 128.743C254.292 122.415 249.361 122.677 249.361 122.677L250.452 135.638C255.427 147.028 264.678 148.904 271.137 148.642C275.239 148.468 278.206 147.421 278.206 147.421C285.886 146.373 285.668 143.1 285.668 143.1Z" fill="url(#paint32_linear_950_69296)"/>
<path d="M250.714 123.246C250.685 123.217 250.656 123.202 250.626 123.202L250.714 123.246Z" fill="url(#paint33_linear_950_69296)"/>
<path d="M247.31 222.087C247.31 222.087 246.83 224.705 246.612 227.28C246.525 228.284 247.31 229.2 248.314 229.2C251.761 229.375 259.136 229.636 261.755 229.506C262.147 229.506 262.409 229.113 262.278 228.72C262.147 228.415 261.929 228.153 261.624 228.022L249.449 222.436L247.31 222.087Z" fill="url(#paint34_linear_950_69296)"/>
<path d="M246.917 220.559L247.266 223.701C247.266 223.701 249.404 224.661 250.888 223.57L249.972 220.079L246.917 220.559Z" fill="url(#paint35_linear_950_69296)"/>
<path d="M247.179 161.821C247.048 162.607 246.35 202.536 250.583 220.428C250.67 220.69 250.54 220.995 250.234 221.126C249.579 221.388 248.314 221.781 246.787 221.825C246.307 221.825 245.87 221.519 245.739 221.083C244.517 216.937 238.67 196.121 237.928 176.266C237.055 154.097 237.928 175.524 237.928 175.524L238.408 161.821H247.179Z" fill="url(#paint36_linear_950_69296)"/>
<path d="M233.302 223.44C233.302 223.44 232.56 224.793 231.862 228.284C231.731 228.895 232.168 229.506 232.822 229.593C233.957 229.681 235.702 229.855 237.099 229.812C237.753 229.812 238.233 229.244 238.146 228.633C238.015 227.324 237.535 225.23 236.051 223.615L233.302 223.44Z" fill="url(#paint37_linear_950_69296)"/>
<path d="M232.647 219.426L233.52 224.182C233.52 224.182 234.393 224.793 236.051 224.357L235.659 219.251L232.647 219.426Z" fill="url(#paint38_linear_950_69296)"/>
<path d="M230.292 163.044C226.8 184.078 231.077 215.061 232.517 221.127C232.604 221.52 232.866 221.782 233.259 221.869C233.914 221.956 234.961 222.044 236.008 221.738C236.357 221.651 236.619 221.302 236.619 220.953C236.794 216.065 236.445 185.954 239.718 174.041C239.892 173.43 240.241 172.906 240.765 172.557L247.049 168.062L247.529 160.818L230.292 163.044Z" fill="url(#paint39_linear_950_69296)"/>
<path d="M234.568 135.989L230.553 125.908C230.553 125.908 220.778 132.541 219.163 140.92C221.04 141.051 224.4 141.531 227.673 143.189C228.371 139.218 234.568 135.989 234.568 135.989Z" fill="url(#paint40_linear_950_69296)"/>
<path d="M241.943 114.648L238.626 124.293C238.582 124.424 238.626 124.598 238.801 124.685C239.673 125.209 242.946 126.649 246.874 124.162C247.31 123.9 247.572 123.463 247.659 122.983L248.707 114.648H241.943Z" fill="url(#paint41_linear_950_69296)"/>
<path d="M235.615 124.817L239.586 121.413L245.565 135.945L241.201 193.548L227.673 193.941C227.586 193.941 227.513 193.912 227.455 193.853C227.367 193.766 227.324 193.679 227.324 193.592L229.244 138.17C229.244 138.17 229.287 126.17 230.553 125.908C231.819 125.602 235.615 124.817 235.615 124.817Z" fill="url(#paint42_linear_950_69296)"/>
<path d="M254.641 134.81L254.511 134.897L254.641 134.941L254.685 135.072L254.729 135.116L253.638 146.549L248.925 194.29C248.896 194.377 248.852 194.45 248.794 194.508C248.707 194.566 248.619 194.595 248.532 194.595L241.201 193.548L243.339 164.877V164.834L245.739 135.203L247.965 123.29V123.246L248.052 121.413L249.928 123.159H249.885L250.452 123.202H250.67C251.019 123.29 252.503 123.857 252.503 123.857C252.503 123.857 253.027 124.075 253.245 124.206C253.274 124.206 253.289 124.221 253.289 124.25C253.376 124.279 253.449 124.308 253.507 124.337C253.507 124.337 253.594 124.381 253.638 124.381C253.769 124.468 254.074 124.555 254.074 124.642L254.816 134.767L254.729 134.81H254.641Z" fill="url(#paint43_linear_950_69296)"/>
<path d="M247.965 135.814V137.21L253.201 136.905V135.334L247.965 135.814Z" fill="url(#paint44_linear_950_69296)"/>
<path d="M245.216 139.261C245.187 139.261 245.172 139.261 245.172 139.261L240.59 136.818C240.561 136.789 240.532 136.745 240.503 136.687L239.892 132.497L238.233 132.192C238.175 132.192 238.132 132.163 238.102 132.105L236.357 126.388C236.357 126.301 236.357 126.213 236.444 126.213C236.531 126.17 236.619 126.213 236.619 126.301L238.364 131.93L240.066 132.236C240.11 132.236 240.153 132.279 240.153 132.323L240.808 136.599L245.303 139C245.347 139.043 245.39 139.13 245.347 139.174C245.317 139.232 245.274 139.261 245.216 139.261Z" fill="url(#paint45_linear_950_69296)"/>
<path d="M246.307 137.865C246.277 137.865 246.263 137.865 246.263 137.865C246.219 137.821 246.176 137.734 246.219 137.69L248.619 133.501L248.227 131.144C248.227 131.086 248.241 131.043 248.27 131.014L250.19 130.01L249.71 123.159C249.71 123.115 249.754 123.071 249.798 123.071C249.885 123.071 249.929 123.115 249.929 123.159L250.409 130.053C250.409 130.083 250.394 130.112 250.365 130.141L248.445 131.188L248.838 133.501C248.838 133.53 248.823 133.559 248.794 133.588L246.394 137.821C246.365 137.85 246.336 137.865 246.307 137.865Z" fill="url(#paint46_linear_950_69296)"/>
<path d="M243.121 145.239C243.121 145.239 232.124 151.436 228.458 146.156C227.673 145.065 227.498 143.974 227.673 142.926C224.4 141.268 221.04 140.788 219.207 140.657C218.683 143.188 218.945 145.85 220.429 148.599C226.931 160.469 244.561 147.945 244.561 147.945L243.121 145.239Z" fill="url(#paint47_linear_950_69296)"/>
<path d="M241.768 153.094L247.79 132.191C247.834 131.93 248.052 131.755 248.27 131.755C249.361 131.624 252.503 131.275 256.125 130.97C260.489 130.577 265.595 130.271 268.606 130.533C269.042 130.577 269.304 131.013 269.129 131.406C267.384 134.897 260.314 149.08 256.736 153.749C256.649 153.88 256.431 153.967 256.256 153.967L242.379 153.836C241.986 153.836 241.681 153.487 241.768 153.094Z" fill="url(#paint48_linear_950_69296)"/>
<path d="M256.78 129.137L261.1 128.439C261.318 128.396 261.537 128.614 261.449 128.832L261.013 130.141C260.969 130.228 260.882 130.316 260.751 130.316L256.605 130.883C256.387 130.927 256.213 130.708 256.256 130.534L256.518 129.399C256.518 129.268 256.649 129.181 256.78 129.137Z" fill="url(#paint49_linear_950_69296)"/>
<path d="M253.507 132.803L253.856 130.971C253.899 130.752 254.074 130.621 254.248 130.621L263.02 129.705C263.325 129.705 263.543 129.967 263.456 130.229L262.933 132.585C262.889 132.76 262.714 132.891 262.496 132.891L253.943 133.327C253.681 133.327 253.463 133.109 253.507 132.803Z" fill="url(#paint50_linear_950_69296)"/>
<path d="M243.252 148.032C243.252 148.032 242.379 144.585 242.728 143.406C243.077 142.184 243.732 140.613 245.914 140.963C248.052 141.312 250.627 142.228 250.627 142.228C250.627 142.228 250.496 143.799 248.837 143.275L249.885 144.061C249.885 144.061 249.71 145.37 248.314 144.672L249.274 145.719C249.274 145.719 248.663 146.767 247.659 146.112C246.612 145.414 246.132 148.425 243.252 148.032Z" fill="url(#paint51_linear_950_69296)"/>
<path d="M232.778 148.295C231.775 148.295 230.814 148.164 230.116 147.771C230.029 147.728 230.029 147.64 230.073 147.597C230.116 147.509 230.204 147.509 230.247 147.509C233.171 149.124 240.371 146.375 240.459 146.375C240.459 146.331 241.899 145.851 242.379 144.891C242.422 144.804 242.51 144.804 242.553 144.804C242.641 144.847 242.684 144.935 242.641 145.022C242.073 146.113 240.633 146.593 240.546 146.637C240.328 146.724 236.095 148.295 232.778 148.295Z" fill="url(#paint52_linear_950_69296)"/>
<path d="M228.807 153.88C228.764 153.88 228.676 153.793 228.676 153.706C228.676 153.662 228.764 153.575 228.807 153.575C237.142 153.269 241.899 149.473 241.942 149.429C241.986 149.386 242.073 149.386 242.117 149.429C242.204 149.516 242.161 149.604 242.117 149.647C242.073 149.691 237.273 153.88 228.851 153.88C228.851 153.88 228.836 153.88 228.807 153.88Z" fill="url(#paint53_linear_950_69296)"/>
<path d="M250.714 105.528C250.714 105.528 252.329 111.376 252.067 114.256C251.849 117.18 252.198 119.144 248.75 119.231C245.346 119.362 242.772 117.267 241.681 114.212C241.681 114.212 239.935 109.412 240.721 107.71C241.506 105.965 250.714 105.528 250.714 105.528Z" fill="url(#paint54_linear_950_69296)"/>
<path d="M237.099 105.877C237.841 105.397 238.321 105.572 238.583 105.79C238.67 105.834 238.757 105.877 238.844 105.834C238.844 105.746 239.412 99.7679 247.528 100.815C248.401 100.946 249.23 100.51 249.623 99.7679C250.583 98.066 252.416 95.5786 253.812 98.0223C255.733 101.47 256.344 106.008 250.801 106.968C250.452 107.026 250.118 107.07 249.798 107.099C247.485 107.666 244.91 107.841 243.906 108.103C242.292 108.496 243.557 112.249 243.557 112.249L243.121 112.205L242.205 112.074C242.074 112.03 241.986 112.205 241.943 112.336L241.768 114.867C241.725 114.998 241.637 115.085 241.55 115.129C241.114 115.172 240.066 115.129 238.408 113.907C236.837 112.729 237.579 112.161 238.103 111.899C238.233 111.856 238.233 111.681 238.146 111.55C235.964 109.194 235.833 106.663 237.099 105.877Z" fill="url(#paint55_linear_950_69296)"/>
<path d="M243.121 112.815C243.121 112.815 242.728 109.193 241.026 109.935C239.281 110.721 241.244 113.994 242.51 114.299L243.121 112.815Z" fill="url(#paint56_linear_950_69296)"/>
<path d="M252.242 105.876C252.213 105.847 252.183 105.833 252.154 105.833C252.111 105.789 252.111 105.702 252.154 105.658C253.333 104.742 253.987 103.651 254.074 102.472C254.249 100.421 252.678 98.6759 252.678 98.6759C252.634 98.6322 252.634 98.545 252.678 98.5013C252.722 98.4577 252.809 98.4577 252.853 98.545C252.896 98.5886 254.467 100.334 254.293 102.516C254.205 103.738 253.551 104.873 252.329 105.833C252.3 105.862 252.271 105.876 252.242 105.876Z" fill="white"/>
<path d="M282.09 146.985C282.09 146.985 280.344 144.497 281.915 143.101C283.486 141.748 287.152 138.475 288.898 140.046C290.643 141.574 292.52 145.065 291.909 145.676C291.254 146.243 288.461 149.603 282.09 146.985Z" fill="url(#paint57_linear_950_69296)"/>
<path d="M322.063 228.852C322.063 228.794 322.063 228.736 322.063 228.677C323.111 224.532 328.304 221.957 328.304 221.957L330.355 222.088C331.533 225.754 331.402 227.979 331.184 228.983C331.184 229.012 331.184 229.041 331.184 229.07C329.482 229.201 325.991 229.332 322.063 228.852Z" fill="url(#paint58_linear_950_69296)"/>
<path d="M331.184 229.069C331.097 229.418 330.835 229.68 330.529 229.723C328.129 230.247 324.289 229.811 322.674 229.636C322.325 229.549 322.063 229.243 322.063 228.851C325.991 229.331 329.482 229.2 331.184 229.069Z" fill="url(#paint59_linear_950_69296)"/>
<path d="M331.184 219.032L330.311 223.222C330.267 223.527 330.005 223.745 329.744 223.789C329.395 223.833 328.871 223.833 328.391 223.789C327.911 223.702 327.605 223.265 327.693 222.742L328.304 219.032H331.184Z" fill="url(#paint60_linear_950_69296)"/>
<path d="M313.161 229.026C315.43 228.939 316.609 228.677 317.219 228.415C317.219 228.648 317.205 228.881 317.176 229.113C317.176 229.375 317.001 229.593 316.783 229.593L304.302 229.506C303.91 229.506 303.691 229.026 303.866 228.677C305.481 228.808 309.626 229.113 313.161 229.026Z" fill="url(#paint61_linear_950_69296)"/>
<path d="M303.866 228.677C303.866 228.648 303.881 228.619 303.91 228.59C305.001 227.062 307.794 223.964 313.336 222.655L315.998 222.567C315.998 222.567 317.176 224.618 317.22 228.415C316.609 228.677 315.431 228.939 313.161 229.026C309.627 229.113 305.481 228.808 303.866 228.677Z" fill="url(#paint62_linear_950_69296)"/>
<path d="M316.609 218.683C316.565 218.858 315.998 221.825 315.78 223.004C315.736 223.265 315.518 223.484 315.256 223.484C314.82 223.527 314.078 223.527 313.467 223.353C313.118 223.265 312.899 222.916 312.899 222.524L313.205 217.811L316.609 218.683Z" fill="url(#paint63_linear_950_69296)"/>
<path d="M318.616 163.612C318.616 163.612 314.95 188.747 312.332 218.64C312.288 219.164 312.725 219.687 313.249 219.775C314.078 219.949 315.256 220.167 316.26 220.124C316.783 220.124 317.22 219.731 317.307 219.207C318.18 213.927 324.595 185.649 326.297 179.452C326.297 179.452 328.217 205.854 327.606 219.6C327.562 219.949 327.824 220.211 328.173 220.255C328.697 220.342 329.526 220.386 330.573 220.255C330.966 220.211 331.271 219.906 331.315 219.513C331.97 215.062 335.635 188.529 335.504 169.372C335.504 168.324 334.239 159.466 334.239 159.466L318.616 163.612Z" fill="url(#paint64_linear_950_69296)"/>
<path d="M317.22 121.413L316.696 134.548C315.329 135.014 314.005 135.392 312.725 135.683C311.939 133.108 310.237 130.01 308.797 127.697C314.034 125.864 317.22 121.413 317.22 121.413Z" fill="url(#paint65_linear_950_69296)"/>
<path d="M291.124 121.15C298.28 128.918 304.084 129.354 308.797 127.696C310.237 130.009 311.939 133.107 312.725 135.682C293.611 139.871 289.116 122.285 289.116 122.285L291.124 121.15Z" fill="url(#paint66_linear_950_69296)"/>
<path d="M289.683 120.364C289.683 120.364 288.854 119.448 287.327 119.753C285.8 120.015 284.447 120.539 283.487 119.753C282.527 118.924 282.221 120.015 282.221 120.015L285.058 122.197L289.683 120.364Z" fill="url(#paint67_linear_950_69296)"/>
<path d="M291.385 121.848C291.385 121.848 290.818 119.492 289.116 119.841C287.414 120.146 283.53 122.241 282.57 121.848C281.567 121.456 280.301 120.539 279.647 120.888L280.781 122.328C280.781 122.328 277.814 120.583 277.29 121.63L282.221 124.423C282.221 124.423 289.422 123.681 291.385 121.848Z" fill="url(#paint68_linear_950_69296)"/>
<path d="M334.762 165.095C335.155 164.92 335.417 164.615 335.46 164.222C335.94 159.509 338.297 130.271 323.46 118.227C323.46 118.227 322.587 116.001 315.605 121.456C308.579 126.954 312.332 132.715 313.99 140.613C316.041 150.214 319.619 158.025 318.005 163.96C317.918 164.353 318.136 164.789 318.529 164.92C323.983 166.928 329.395 166.971 334.762 165.095Z" fill="url(#paint69_linear_950_69296)"/>
<path d="M317.656 109.456C317.656 109.892 323.591 118.315 323.591 118.315C323.591 118.315 322.5 120.409 317.438 122.111L313.03 113.078L317.656 109.456Z" fill="url(#paint70_linear_950_69296)"/>
<path d="M316.87 140.091C316.87 140.091 305.612 149.517 293.48 145.415C292.695 145.153 291.865 145.197 291.167 145.589L287.676 147.422C286.236 148.208 284.403 147.684 283.53 146.244C283.05 145.459 282.658 144.498 282.57 143.626L289.422 140.876L288.898 140.047C288.898 140.047 292.258 139.742 293.131 142.142C293.131 142.142 301.204 146.331 311.939 134.549C311.939 134.549 315.081 137.124 316.87 140.091Z" fill="url(#paint71_linear_950_69296)"/>
<path d="M320.58 138.301C320.609 138.301 320.653 138.286 320.711 138.257C325.424 135.072 327.649 129.878 327.693 129.835C327.737 129.748 327.693 129.617 327.562 129.573C327.475 129.529 327.388 129.573 327.344 129.704C327.3 129.748 325.118 134.81 320.493 137.952C320.405 137.995 320.362 138.126 320.405 138.213C320.463 138.272 320.522 138.301 320.58 138.301Z" fill="url(#paint72_linear_950_69296)"/>
<path d="M291.909 145.676C291.909 145.676 289.029 148.469 288.505 148.033C288.287 147.902 287.807 147.378 287.327 146.811C286.978 146.375 286.934 145.807 287.239 145.371L287.894 144.324C288.549 143.32 289.945 143.102 290.818 143.887C291.254 144.28 291.691 144.847 291.909 145.676Z" fill="url(#paint73_linear_950_69296)"/>
<path d="M313.641 103.172C313.51 103.303 308.492 113.122 308.492 113.122L314.165 115.871L320.274 107.231C320.274 107.231 315.648 101.252 313.641 103.172Z" fill="url(#paint74_linear_950_69296)"/>
<path d="M317.7 108.278L314.907 112.991C314.849 113.049 314.79 113.107 314.732 113.165C314.383 113.515 313.248 114.387 312.332 113.165C311.59 112.118 310.892 111.158 310.106 110.765C309.67 110.503 309.103 110.722 308.885 111.158C308.448 112.074 307.532 113.951 306.964 115.74C306.834 116.176 307.052 116.656 307.488 116.831C308.623 117.311 310.892 118.14 312.899 118.446C313.248 118.489 313.598 118.358 313.772 118.053C314.645 116.875 317.089 113.558 317.918 112.729C318.703 111.944 320.1 112.249 320.754 112.424C321.016 112.511 321.278 112.467 321.496 112.336C322.151 111.944 323.285 110.983 322.238 109.325C321.976 108.889 322.107 108.365 322.5 108.06C323.242 107.58 324.027 106.707 323.285 105.223C322.544 103.783 321.147 103.609 320.231 103.739C319.838 103.783 319.402 103.565 319.227 103.216C319.183 103.041 319.052 102.867 318.791 102.823C318.311 102.736 317.961 102.299 318.049 101.776C318.223 100.947 318.092 99.8556 316.783 99.1573C314.339 97.8045 312.201 99.9865 311.634 101.819C311.11 103.696 313.816 105.005 315.561 105.223C316.827 105.398 317.525 106.75 317.787 107.492C317.874 107.754 317.874 108.016 317.7 108.278Z" fill="url(#paint75_linear_950_69296)"/>
<path d="M316.87 114.474C316.87 114.474 317.961 111.289 319.314 111.376C320.71 111.507 321.845 112.903 320.099 114.474C317.961 116.394 316.87 114.474 316.87 114.474Z" fill="url(#paint76_linear_950_69296)"/>
<path d="M312.419 101.906C312.39 101.906 312.361 101.891 312.332 101.862C312.245 101.818 312.201 101.731 312.245 101.644C313.597 99.1565 315.212 99.2874 315.256 99.331C315.343 99.331 315.43 99.4183 315.43 99.5056C315.387 99.5929 315.343 99.6365 315.256 99.6365C315.168 99.6365 313.772 99.5056 312.55 101.818C312.521 101.877 312.477 101.906 312.419 101.906Z" fill="white"/>
<path d="M316.696 120.627C316.696 120.627 312.855 125.165 313.03 130.402C314.863 135.071 319.707 155.887 320.405 165.531C321.06 175.175 318.921 189.882 318.921 189.882L314.732 194.595C314.732 194.595 318.921 165.706 316.608 158.025C314.296 150.301 305.655 127.347 316.303 119.798L316.696 120.627Z" fill="url(#paint77_linear_950_69296)"/>
<path d="M326.951 123.376C325.598 120.845 323.067 118.794 318.311 122.678C309.889 129.573 318.093 135.158 293.131 142.14L292.695 145.239C292.695 145.239 298.455 149.123 306.921 146.548C313.772 144.453 323.067 137.995 326.733 131.798C328.26 129.223 328.348 126.038 326.951 123.376Z" fill="url(#paint78_linear_950_69296)"/>
<path d="M317.438 122.11L313.03 131.536C313.03 131.536 319.096 155.537 319.532 158.592C319.969 161.603 319.62 182.899 318.922 189.881C324.9 194.245 337.293 194.594 337.293 194.594C337.293 194.594 339.912 159.901 337.293 144.497C334.675 129.092 326.471 118.051 322.893 117.31C321.933 118.575 317.438 122.11 317.438 122.11Z" fill="url(#paint79_linear_950_69296)"/>
<path d="M317.219 141.617C317.088 141.617 317.001 141.573 316.914 141.486C316.826 141.355 316.87 141.137 317.001 141.05C317.132 140.962 327.038 133.893 327.387 128.7C327.387 128.525 327.518 128.395 327.736 128.395C327.911 128.438 328.041 128.569 328.041 128.744C327.692 134.242 317.83 141.268 317.394 141.573C317.335 141.603 317.277 141.617 317.219 141.617Z" fill="url(#paint80_linear_950_69296)"/>
<path d="M316.215 125.078C316.128 125.078 316.055 125.063 315.997 125.034C315.866 124.903 315.823 124.729 315.954 124.554C316.041 124.38 319.008 120.234 322.063 119.797C323.023 119.681 323.881 119.928 324.638 120.539C324.812 120.67 324.812 120.888 324.681 121.019C324.594 121.15 324.376 121.194 324.245 121.063C323.634 120.539 322.936 120.365 322.15 120.452C319.357 120.845 316.521 124.903 316.477 124.947C316.39 125.034 316.303 125.078 316.215 125.078Z" fill="url(#paint81_linear_950_69296)"/>
</g>
<defs>
<linearGradient id="paint0_linear_950_69296" x1="-89.2354" y1="325.459" x2="203.743" y2="-58.28" gradientUnits="userSpaceOnUse">
<stop stop-color="#B37CFF"/>
<stop offset="1" stop-color="#F895E7"/>
</linearGradient>
<linearGradient id="paint1_linear_950_69296" x1="306.323" y1="19.0049" x2="360.198" y2="19.0049" gradientUnits="userSpaceOnUse">
<stop stop-color="#ED539F"/>
<stop offset="1" stop-color="#A061C2"/>
</linearGradient>
<linearGradient id="paint2_linear_950_69296" x1="255.731" y1="37.051" x2="303.405" y2="37.051" gradientUnits="userSpaceOnUse">
<stop stop-color="#ED539F"/>
<stop offset="1" stop-color="#A061C2"/>
</linearGradient>
<linearGradient id="paint3_linear_950_69296" x1="362.875" y1="139.544" x2="186.69" y2="361.235" gradientUnits="userSpaceOnUse">
<stop stop-color="#2B3582"/>
<stop offset="1" stop-color="#150E42"/>
</linearGradient>
<linearGradient id="paint4_linear_950_69296" x1="367.593" y1="92.5645" x2="259.777" y2="327.403" gradientUnits="userSpaceOnUse">
<stop stop-color="#53EAC9"/>
<stop offset="0.996" stop-color="#45AED8"/>
</linearGradient>
<linearGradient id="paint5_linear_950_69296" x1="219.379" y1="22.0924" x2="158.401" y2="102.307" gradientUnits="userSpaceOnUse">
<stop stop-color="#2B3582"/>
<stop offset="1" stop-color="#150E42"/>
</linearGradient>
<linearGradient id="paint6_linear_950_69296" x1="214.21" y1="24.5346" x2="161.069" y2="91.5032" gradientUnits="userSpaceOnUse">
<stop stop-color="#2B3582"/>
<stop offset="1" stop-color="#150E42"/>
</linearGradient>
<linearGradient id="paint7_linear_950_69296" x1="206.733" y1="28.892" x2="170.782" y2="91.7559" gradientUnits="userSpaceOnUse">
<stop stop-color="#53D8FF"/>
<stop offset="1" stop-color="#3840F7"/>
</linearGradient>
<linearGradient id="paint8_linear_950_69296" x1="168.957" y1="65.0801" x2="161.664" y2="121.435" gradientUnits="userSpaceOnUse">
<stop stop-color="#53D8FF"/>
<stop offset="1" stop-color="#3840F7"/>
</linearGradient>
<linearGradient id="paint9_linear_950_69296" x1="180.848" y1="65.8231" x2="172.994" y2="126.515" gradientUnits="userSpaceOnUse">
<stop stop-color="#53D8FF"/>
<stop offset="1" stop-color="#3840F7"/>
</linearGradient>
<linearGradient id="paint10_linear_950_69296" x1="199.915" y1="68.8105" x2="192.308" y2="127.59" gradientUnits="userSpaceOnUse">
<stop stop-color="#53D8FF"/>
<stop offset="1" stop-color="#3840F7"/>
</linearGradient>
<linearGradient id="paint11_linear_950_69296" x1="231.756" y1="74.2065" x2="224.476" y2="130.459" gradientUnits="userSpaceOnUse">
<stop stop-color="#53D8FF"/>
<stop offset="1" stop-color="#3840F7"/>
</linearGradient>
<linearGradient id="paint12_linear_950_69296" x1="218.353" y1="71.5925" x2="210.445" y2="132.699" gradientUnits="userSpaceOnUse">
<stop stop-color="#53D8FF"/>
<stop offset="1" stop-color="#3840F7"/>
</linearGradient>
<linearGradient id="paint13_linear_950_69296" x1="230.015" y1="73.9008" x2="222.312" y2="133.42" gradientUnits="userSpaceOnUse">
<stop stop-color="#53D8FF"/>
<stop offset="1" stop-color="#3840F7"/>
</linearGradient>
<linearGradient id="paint14_linear_950_69296" x1="175.391" y1="69.9689" x2="88.0434" y2="237.906" gradientUnits="userSpaceOnUse">
<stop stop-color="#53D8FF"/>
<stop offset="1" stop-color="#3840F7"/>
</linearGradient>
<linearGradient id="paint15_linear_950_69296" x1="186.881" y1="64.0082" x2="-45.2403" y2="414.678" gradientUnits="userSpaceOnUse">
<stop stop-color="#53D8FF"/>
<stop offset="1" stop-color="#3840F7"/>
</linearGradient>
<linearGradient id="paint16_linear_950_69296" x1="113.371" y1="90.432" x2="123.903" y2="94.9943" gradientUnits="userSpaceOnUse">
<stop stop-color="#E40045"/>
<stop offset="1" stop-color="#5C0E16"/>
</linearGradient>
<linearGradient id="paint17_linear_950_69296" x1="107.991" y1="102.853" x2="118.522" y2="107.416" gradientUnits="userSpaceOnUse">
<stop stop-color="#102792"/>
<stop offset="0.996" stop-color="#3EA7C4"/>
</linearGradient>
<linearGradient id="paint18_linear_950_69296" x1="110.482" y1="75.1125" x2="110.796" y2="86.5853" gradientUnits="userSpaceOnUse">
<stop stop-color="#E40045"/>
<stop offset="1" stop-color="#5C0E16"/>
</linearGradient>
<linearGradient id="paint19_linear_950_69296" x1="96.9508" y1="75.4825" x2="97.2641" y2="86.9553" gradientUnits="userSpaceOnUse">
<stop stop-color="#102792"/>
<stop offset="0.996" stop-color="#3EA7C4"/>
</linearGradient>
<linearGradient id="paint20_linear_950_69296" x1="99.3034" y1="110.909" x2="94.5747" y2="121.367" gradientUnits="userSpaceOnUse">
<stop stop-color="#E40045"/>
<stop offset="1" stop-color="#5C0E16"/>
</linearGradient>
<linearGradient id="paint21_linear_950_69296" x1="86.969" y1="105.332" x2="82.2402" y2="115.79" gradientUnits="userSpaceOnUse">
<stop stop-color="#102792"/>
<stop offset="0.996" stop-color="#3EA7C4"/>
</linearGradient>
<linearGradient id="paint22_linear_950_69296" x1="169.84" y1="151.013" x2="102.021" y2="376.2" gradientUnits="userSpaceOnUse">
<stop stop-color="#53D8FF"/>
<stop offset="1" stop-color="#3840F7"/>
</linearGradient>
<linearGradient id="paint23_linear_950_69296" x1="104.084" y1="140.306" x2="103.909" y2="152.699" gradientUnits="userSpaceOnUse">
<stop stop-color="#53D8FF"/>
<stop offset="1" stop-color="#3840F7"/>
</linearGradient>
<linearGradient id="paint24_linear_950_69296" x1="129.825" y1="190.465" x2="-45.2241" y2="457.863" gradientUnits="userSpaceOnUse">
<stop stop-color="#CB236D"/>
<stop offset="1" stop-color="#4C246D"/>
</linearGradient>
<linearGradient id="paint25_linear_950_69296" x1="174.467" y1="209.048" x2="159.486" y2="258.218" gradientUnits="userSpaceOnUse">
<stop stop-color="#53D8FF"/>
<stop offset="1" stop-color="#3840F7"/>
</linearGradient>
<linearGradient id="paint26_linear_950_69296" x1="78.0431" y1="175.819" x2="110.355" y2="147.701" gradientUnits="userSpaceOnUse">
<stop stop-color="#53D8FF"/>
<stop offset="1" stop-color="#3840F7"/>
</linearGradient>
<linearGradient id="paint27_linear_950_69296" x1="123.477" y1="209.189" x2="103.513" y2="275.479" gradientUnits="userSpaceOnUse">
<stop stop-color="#FDF53F"/>
<stop offset="1" stop-color="#D93C65"/>
</linearGradient>
<linearGradient id="paint28_linear_950_69296" x1="156.278" y1="209.474" x2="141.296" y2="258.644" gradientUnits="userSpaceOnUse">
<stop stop-color="#53D8FF"/>
<stop offset="1" stop-color="#3840F7"/>
</linearGradient>
<linearGradient id="paint29_linear_950_69296" x1="59.8535" y1="176.245" x2="92.1658" y2="148.127" gradientUnits="userSpaceOnUse">
<stop stop-color="#53D8FF"/>
<stop offset="1" stop-color="#3840F7"/>
</linearGradient>
<linearGradient id="paint30_linear_950_69296" x1="105.287" y1="209.613" x2="85.3226" y2="275.903" gradientUnits="userSpaceOnUse">
<stop stop-color="#FDF53F"/>
<stop offset="1" stop-color="#D93C65"/>
</linearGradient>
<linearGradient id="paint31_linear_950_69296" x1="229.004" y1="122.896" x2="257.218" y2="122.896" gradientUnits="userSpaceOnUse">
<stop stop-color="#2B3582"/>
<stop offset="1" stop-color="#150E42"/>
</linearGradient>
<linearGradient id="paint32_linear_950_69296" x1="289.031" y1="159.854" x2="294.409" y2="176.227" gradientUnits="userSpaceOnUse">
<stop stop-color="#53EAC9"/>
<stop offset="0.996" stop-color="#45AED8"/>
</linearGradient>
<linearGradient id="paint33_linear_950_69296" x1="250.605" y1="123.218" x2="250.715" y2="123.218" gradientUnits="userSpaceOnUse">
<stop stop-color="#2B3582"/>
<stop offset="1" stop-color="#150E42"/>
</linearGradient>
<linearGradient id="paint34_linear_950_69296" x1="269.908" y1="214.673" x2="200.549" y2="290.116" gradientUnits="userSpaceOnUse">
<stop stop-color="#2B3582"/>
<stop offset="1" stop-color="#150E42"/>
</linearGradient>
<linearGradient id="paint35_linear_950_69296" x1="246.913" y1="220.074" x2="250.871" y2="220.074" gradientUnits="userSpaceOnUse">
<stop stop-color="#F9B776"/>
<stop offset="1" stop-color="#F47960"/>
</linearGradient>
<linearGradient id="paint36_linear_950_69296" x1="370.318" y1="237.256" x2="326.73" y2="296.332" gradientUnits="userSpaceOnUse">
<stop stop-color="#2B3582"/>
<stop offset="1" stop-color="#150E42"/>
</linearGradient>
<linearGradient id="paint37_linear_950_69296" x1="260.069" y1="206.038" x2="201.203" y2="270.068" gradientUnits="userSpaceOnUse">
<stop stop-color="#2B3582"/>
<stop offset="1" stop-color="#150E42"/>
</linearGradient>
<linearGradient id="paint38_linear_950_69296" x1="232.649" y1="219.253" x2="236.066" y2="219.253" gradientUnits="userSpaceOnUse">
<stop stop-color="#F9B776"/>
<stop offset="1" stop-color="#F47960"/>
</linearGradient>
<linearGradient id="paint39_linear_950_69296" x1="340.809" y1="219.251" x2="301.232" y2="272.891" gradientUnits="userSpaceOnUse">
<stop stop-color="#2B3582"/>
<stop offset="1" stop-color="#150E42"/>
</linearGradient>
<linearGradient id="paint40_linear_950_69296" x1="205.166" y1="134.484" x2="283.287" y2="78.2623" gradientUnits="userSpaceOnUse">
<stop stop-color="#9CFFFB"/>
<stop offset="1" stop-color="#9BFFFA"/>
</linearGradient>
<linearGradient id="paint41_linear_950_69296" x1="224.149" y1="121.867" x2="229.149" y2="119.22" gradientUnits="userSpaceOnUse">
<stop stop-color="#F9B776"/>
<stop offset="1" stop-color="#F47960"/>
</linearGradient>
<linearGradient id="paint42_linear_950_69296" x1="227.336" y1="121.432" x2="245.543" y2="121.432" gradientUnits="userSpaceOnUse">
<stop stop-color="#9CFFFB"/>
<stop offset="1" stop-color="#9BFFFA"/>
</linearGradient>
<linearGradient id="paint43_linear_950_69296" x1="439.896" y1="106.447" x2="445.092" y2="122.264" gradientUnits="userSpaceOnUse">
<stop stop-color="#53EAC9"/>
<stop offset="0.996" stop-color="#45AED8"/>
</linearGradient>
<linearGradient id="paint44_linear_950_69296" x1="246.647" y1="137.932" x2="265.132" y2="124.629" gradientUnits="userSpaceOnUse">
<stop stop-color="#9CFFFB"/>
<stop offset="1" stop-color="#9BFFFA"/>
</linearGradient>
<linearGradient id="paint45_linear_950_69296" x1="228.456" y1="128.292" x2="240.591" y2="119.558" gradientUnits="userSpaceOnUse">
<stop stop-color="#53EAC9"/>
<stop offset="0.996" stop-color="#45AED8"/>
</linearGradient>
<linearGradient id="paint46_linear_950_69296" x1="246.2" y1="123.056" x2="250.412" y2="123.056" gradientUnits="userSpaceOnUse">
<stop stop-color="#9CFFFB"/>
<stop offset="1" stop-color="#9BFFFA"/>
</linearGradient>
<linearGradient id="paint47_linear_950_69296" x1="218.966" y1="140.637" x2="244.555" y2="140.637" gradientUnits="userSpaceOnUse">
<stop stop-color="#9CFFFB"/>
<stop offset="1" stop-color="#9BFFFA"/>
</linearGradient>
<linearGradient id="paint48_linear_950_69296" x1="263.773" y1="122.921" x2="281.301" y2="195.956" gradientUnits="userSpaceOnUse">
<stop stop-color="#FDF53F"/>
<stop offset="1" stop-color="#D93C65"/>
</linearGradient>
<linearGradient id="paint49_linear_950_69296" x1="262.015" y1="119.573" x2="258.913" y2="133.198" gradientUnits="userSpaceOnUse">
<stop stop-color="#53D8FF"/>
<stop offset="1" stop-color="#3840F7"/>
</linearGradient>
<linearGradient id="paint50_linear_950_69296" x1="260.493" y1="125.25" x2="259.023" y2="134.069" gradientUnits="userSpaceOnUse">
<stop stop-color="#53D8FF"/>
<stop offset="1" stop-color="#3840F7"/>
</linearGradient>
<linearGradient id="paint51_linear_950_69296" x1="242.655" y1="140.904" x2="250.627" y2="140.904" gradientUnits="userSpaceOnUse">
<stop stop-color="#F9B776"/>
<stop offset="1" stop-color="#F47960"/>
</linearGradient>
<linearGradient id="paint52_linear_950_69296" x1="230.044" y1="144.808" x2="242.648" y2="144.808" gradientUnits="userSpaceOnUse">
<stop stop-color="#53EAC9"/>
<stop offset="0.996" stop-color="#45AED8"/>
</linearGradient>
<linearGradient id="paint53_linear_950_69296" x1="228.687" y1="149.389" x2="242.169" y2="149.389" gradientUnits="userSpaceOnUse">
<stop stop-color="#53EAC9"/>
<stop offset="0.996" stop-color="#45AED8"/>
</linearGradient>
<linearGradient id="paint54_linear_950_69296" x1="255.998" y1="118.345" x2="233.304" y2="131.067" gradientUnits="userSpaceOnUse">
<stop stop-color="#F9B776"/>
<stop offset="1" stop-color="#F47960"/>
</linearGradient>
<linearGradient id="paint55_linear_950_69296" x1="247.126" y1="84.4974" x2="211.953" y2="118.483" gradientUnits="userSpaceOnUse">
<stop stop-color="#2B3582"/>
<stop offset="1" stop-color="#150E42"/>
</linearGradient>
<linearGradient id="paint56_linear_950_69296" x1="258.359" y1="106.76" x2="227.243" y2="124.204" gradientUnits="userSpaceOnUse">
<stop stop-color="#F9B776"/>
<stop offset="1" stop-color="#F47960"/>
</linearGradient>
<linearGradient id="paint57_linear_950_69296" x1="306.329" y1="126.979" x2="249.023" y2="200.296" gradientUnits="userSpaceOnUse">
<stop stop-color="#F9B776"/>
<stop offset="1" stop-color="#F47960"/>
</linearGradient>
<linearGradient id="paint58_linear_950_69296" x1="331.325" y1="221.939" x2="322.049" y2="221.939" gradientUnits="userSpaceOnUse">
<stop stop-color="#2B3582"/>
<stop offset="1" stop-color="#150E42"/>
</linearGradient>
<linearGradient id="paint59_linear_950_69296" x1="306.677" y1="214.369" x2="342.607" y2="242.581" gradientUnits="userSpaceOnUse">
<stop stop-color="#53D8FF"/>
<stop offset="1" stop-color="#3840F7"/>
</linearGradient>
<linearGradient id="paint60_linear_950_69296" x1="325.168" y1="215.13" x2="327.035" y2="231.432" gradientUnits="userSpaceOnUse">
<stop stop-color="#F9B776"/>
<stop offset="1" stop-color="#F47960"/>
</linearGradient>
<linearGradient id="paint61_linear_950_69296" x1="301.424" y1="222.502" x2="336.356" y2="249.929" gradientUnits="userSpaceOnUse">
<stop stop-color="#53D8FF"/>
<stop offset="1" stop-color="#3840F7"/>
</linearGradient>
<linearGradient id="paint62_linear_950_69296" x1="317.2" y1="222.571" x2="303.847" y2="222.571" gradientUnits="userSpaceOnUse">
<stop stop-color="#2B3582"/>
<stop offset="1" stop-color="#150E42"/>
</linearGradient>
<linearGradient id="paint63_linear_950_69296" x1="309.71" y1="216.855" x2="310.53" y2="232.861" gradientUnits="userSpaceOnUse">
<stop stop-color="#F9B776"/>
<stop offset="1" stop-color="#F47960"/>
</linearGradient>
<linearGradient id="paint64_linear_950_69296" x1="251.625" y1="150.078" x2="355.445" y2="22.7268" gradientUnits="userSpaceOnUse">
<stop stop-color="#2B3582"/>
<stop offset="1" stop-color="#150E42"/>
</linearGradient>
<linearGradient id="paint65_linear_950_69296" x1="292.021" y1="126.614" x2="307.965" y2="142.884" gradientUnits="userSpaceOnUse">
<stop stop-color="#9CFFFB"/>
<stop offset="1" stop-color="#9BFFFA"/>
</linearGradient>
<linearGradient id="paint66_linear_950_69296" x1="277.406" y1="127.029" x2="309.282" y2="142.885" gradientUnits="userSpaceOnUse">
<stop stop-color="#9CFFFB"/>
<stop offset="1" stop-color="#9BFFFA"/>
</linearGradient>
<linearGradient id="paint67_linear_950_69296" x1="280.126" y1="116.628" x2="286.031" y2="122.795" gradientUnits="userSpaceOnUse">
<stop stop-color="#F9B776"/>
<stop offset="1" stop-color="#F47960"/>
</linearGradient>
<linearGradient id="paint68_linear_950_69296" x1="279.806" y1="122.54" x2="315.57" y2="140.33" gradientUnits="userSpaceOnUse">
<stop stop-color="#F9B776"/>
<stop offset="1" stop-color="#F47960"/>
</linearGradient>
<linearGradient id="paint69_linear_950_69296" x1="263.342" y1="129.168" x2="312.803" y2="216.685" gradientUnits="userSpaceOnUse">
<stop stop-color="#2B3582"/>
<stop offset="1" stop-color="#150E42"/>
</linearGradient>
<linearGradient id="paint70_linear_950_69296" x1="331.535" y1="124.854" x2="326.135" y2="110.108" gradientUnits="userSpaceOnUse">
<stop stop-color="#F9B776"/>
<stop offset="1" stop-color="#F47960"/>
</linearGradient>
<linearGradient id="paint71_linear_950_69296" x1="292.11" y1="138.99" x2="353.062" y2="244.898" gradientUnits="userSpaceOnUse">
<stop stop-color="#F9B776"/>
<stop offset="1" stop-color="#F47960"/>
</linearGradient>
<linearGradient id="paint72_linear_950_69296" x1="320.393" y1="129.574" x2="327.699" y2="129.574" gradientUnits="userSpaceOnUse">
<stop stop-color="#FDF53F"/>
<stop offset="0.294" stop-color="#F2BF4A"/>
<stop offset="1" stop-color="#D93C65"/>
</linearGradient>
<linearGradient id="paint73_linear_950_69296" x1="291.899" y1="143.412" x2="287.034" y2="143.412" gradientUnits="userSpaceOnUse">
<stop stop-color="#F9B776"/>
<stop offset="1" stop-color="#F47960"/>
</linearGradient>
<linearGradient id="paint74_linear_950_69296" x1="304.379" y1="102.492" x2="300.063" y2="127.889" gradientUnits="userSpaceOnUse">
<stop stop-color="#F9B776"/>
<stop offset="1" stop-color="#F47960"/>
</linearGradient>
<linearGradient id="paint75_linear_950_69296" x1="326.127" y1="108.077" x2="315.768" y2="97.0725" gradientUnits="userSpaceOnUse">
<stop stop-color="#2B3582"/>
<stop offset="1" stop-color="#150E42"/>
</linearGradient>
<linearGradient id="paint76_linear_950_69296" x1="321.96" y1="132.901" x2="322.808" y2="113.217" gradientUnits="userSpaceOnUse">
<stop stop-color="#F9B776"/>
<stop offset="1" stop-color="#F47960"/>
</linearGradient>
<linearGradient id="paint77_linear_950_69296" x1="311.115" y1="119.792" x2="320.521" y2="119.792" gradientUnits="userSpaceOnUse">
<stop stop-color="#9CFFFB"/>
<stop offset="1" stop-color="#9BFFFA"/>
</linearGradient>
<linearGradient id="paint78_linear_950_69296" x1="329.121" y1="131.823" x2="284.329" y2="213.943" gradientUnits="userSpaceOnUse">
<stop stop-color="#53EAC9"/>
<stop offset="0.996" stop-color="#45AED8"/>
</linearGradient>
<linearGradient id="paint79_linear_950_69296" x1="445.43" y1="190.761" x2="396.121" y2="281.162" gradientUnits="userSpaceOnUse">
<stop stop-color="#53EAC9"/>
<stop offset="0.996" stop-color="#45AED8"/>
</linearGradient>
<linearGradient id="paint80_linear_950_69296" x1="316.875" y1="128.412" x2="328.026" y2="128.412" gradientUnits="userSpaceOnUse">
<stop stop-color="#53EAC9"/>
<stop offset="0.996" stop-color="#45AED8"/>
</linearGradient>
<linearGradient id="paint81_linear_950_69296" x1="315.875" y1="119.775" x2="324.773" y2="119.775" gradientUnits="userSpaceOnUse">
<stop stop-color="#53EAC9"/>
<stop offset="0.996" stop-color="#45AED8"/>
</linearGradient>
<clipPath id="clip0_950_69296">
<rect width="384" height="240" fill="white"/>
</clipPath>
</defs>
</svg>
