<svg width="22" height="22" viewBox="0 0 22 22" fill="none" xmlns="http://www.w3.org/2000/svg">
<path d="M22 4.3125V20.416C21.9987 20.8356 21.8309 21.2384 21.5342 21.5352C21.2375 21.8316 20.8354 21.9987 20.416 22H6.53906C6.11944 21.9987 5.71666 21.8319 5.41992 21.5352C5.12318 21.2384 4.95633 20.8357 4.95508 20.416V18.4326C4.95515 18.1043 5.22147 17.8379 5.5498 17.8379C5.87796 17.8381 6.14446 18.1044 6.14453 18.4326V20.4141C6.14521 20.5191 6.18649 20.6201 6.26074 20.6943C6.33527 20.7688 6.43662 20.8102 6.54199 20.8105H20.4121C20.5174 20.8102 20.6188 20.7687 20.6934 20.6943C20.7493 20.6383 20.7873 20.5668 20.8027 20.4902L20.8105 20.4131V5.15332H16.8467V1.18945H6.54199L6.46387 1.19727C6.38764 1.21277 6.31657 1.25086 6.26074 1.30664C6.20497 1.36254 6.16777 1.43347 6.15234 1.50977L6.14453 1.58789V3.56738C6.14453 3.89563 5.87801 4.1619 5.5498 4.16211C5.22142 4.16211 4.95508 3.89577 4.95508 3.56738V1.58398C4.95637 1.16454 5.12341 0.762508 5.41992 0.46582C5.71666 0.169145 6.11945 0.0012532 6.53906 0H17.6875L22 4.3125ZM5.5498 5.4502C5.79546 5.45026 6.01597 5.60196 6.10449 5.83105L7.10156 8.42383C7.25188 8.81465 7.29471 8.9129 7.34961 8.99023C7.40729 9.07131 7.4785 9.1425 7.55957 9.2002C7.63694 9.25518 7.73468 9.29774 8.12598 9.44824L10.7178 10.4453C10.9472 10.5336 11.0994 10.7542 11.0996 11C11.0995 11.2459 10.9473 11.4664 10.7178 11.5547L8.12598 12.5518C7.73459 12.7023 7.63695 12.7448 7.55957 12.7998C7.47841 12.8575 7.40735 12.9286 7.34961 13.0098C7.29459 13.0871 7.25208 13.1848 7.10156 13.5762L6.10449 16.168C6.01619 16.3975 5.79577 16.5497 5.5498 16.5498C5.30382 16.5498 5.08342 16.3976 4.99512 16.168L3.99805 13.5762C3.84761 13.1851 3.80497 13.0871 3.75 13.0098C3.69232 12.9287 3.62109 12.8575 3.54004 12.7998C3.4627 12.7449 3.36459 12.7021 2.97363 12.5518L0.380859 11.5547C0.151647 11.4662 6.16078e-05 11.2457 0 11C0.000199678 10.7544 0.151669 10.5337 0.380859 10.4453L2.97363 9.44824C3.3651 9.29768 3.46265 9.25523 3.54004 9.2002C3.62118 9.14246 3.69228 9.07139 3.75 8.99023C3.80494 8.91288 3.84764 8.81489 3.99805 8.42383L4.99512 5.83105L5.03418 5.74902C5.139 5.56656 5.33481 5.45023 5.5498 5.4502ZM13.9727 15.3604C14.301 15.3604 14.5674 15.6267 14.5674 15.9551C14.5672 16.2832 14.3008 16.5497 13.9727 16.5498H10.0088C9.68054 16.5498 9.41428 16.2833 9.41406 15.9551C9.41406 15.6267 9.68041 15.3604 10.0088 15.3604H13.9727ZM5.10742 8.85059C4.97873 9.18518 4.88083 9.45164 4.71875 9.67969C4.58415 9.86888 4.41867 10.0343 4.22949 10.1689C4.0014 10.3311 3.73509 10.4289 3.40039 10.5576L2.25098 10.999L3.40039 11.4414C3.73508 11.5701 4.00139 11.668 4.22949 11.8301C4.41881 11.9647 4.58406 12.131 4.71875 12.3203C4.88092 12.5484 4.97872 12.8148 5.10742 13.1494L5.54883 14.2979L5.99121 13.1494C6.11993 12.8147 6.21772 12.5484 6.37988 12.3203C6.51466 12.1308 6.68062 11.9648 6.87012 11.8301C7.09825 11.6679 7.36444 11.5702 7.69922 11.4414L8.84766 10.999L7.69922 10.5576C7.36448 10.4289 7.09823 10.3311 6.87012 10.1689C6.68081 10.0342 6.51454 9.86903 6.37988 9.67969C6.2178 9.4516 6.11992 9.18524 5.99121 8.85059L5.54883 7.70117L5.10742 8.85059ZM17.4414 11.3965C17.7697 11.3966 18.0361 11.6629 18.0361 11.9912C18.036 12.3194 17.7696 12.5859 17.4414 12.5859H12.4863C12.1581 12.5859 11.8917 12.3195 11.8916 11.9912C11.8916 11.6628 12.158 11.3965 12.4863 11.3965H17.4414ZM18.9277 7.43262C19.256 7.43275 19.5225 7.69904 19.5225 8.02734C19.5224 8.35561 19.256 8.62194 18.9277 8.62207H10.0088C9.68043 8.62207 9.41411 8.35569 9.41406 8.02734C9.41406 7.69896 9.68041 7.43262 10.0088 7.43262H18.9277ZM18.0361 3.96387H19.9688L18.0361 2.03125V3.96387Z" fill="url(#paint0_linear_1115_66801)"/>
<defs>
<linearGradient id="paint0_linear_1115_66801" x1="5.79734" y1="0.0991949" x2="21.1576" y2="21.6531" gradientUnits="userSpaceOnUse">
<stop stop-color="#EB2F96"/>
<stop offset="1" stop-color="#722ED1"/>
</linearGradient>
</defs>
</svg>
