<svg width="148" height="50" viewBox="0 0 148 50" fill="none" xmlns="http://www.w3.org/2000/svg">
<path d="M34.6509 7.87695V32.2529C34.6489 32.8881 34.3949 33.4962 33.9458 33.9453C33.4967 34.3944 32.8886 34.6484 32.2534 34.6504H11.2476C10.6124 34.6484 10.0043 34.3944 9.55518 33.9453C9.10605 33.4962 8.85206 32.8881 8.8501 32.2529V29.25C8.8501 28.7529 9.25343 28.3496 9.75049 28.3496C10.2475 28.3496 10.6509 28.7529 10.6509 29.25V32.25C10.6521 32.4087 10.7154 32.5606 10.8276 32.6729C10.9406 32.7858 11.0937 32.8491 11.2534 32.8496H32.2476C32.4073 32.8491 32.5604 32.7858 32.6733 32.6729C32.758 32.5882 32.815 32.481 32.8384 32.3652L32.8501 32.2471V9.15039H26.8501V3.15039H11.2534L11.1353 3.16211C11.0195 3.1855 10.9123 3.24245 10.8276 3.32715C10.7429 3.41185 10.686 3.51904 10.6626 3.63477L10.6509 3.75293V6.75C10.6509 7.24706 10.2475 7.65039 9.75049 7.65039C9.25343 7.65039 8.8501 7.24706 8.8501 6.75V3.74707C8.85206 3.11194 9.10605 2.50381 9.55518 2.05469C10.0043 1.60558 10.6124 1.35157 11.2476 1.34961H28.1235L34.6509 7.87695ZM9.75049 9.59961C10.1228 9.59961 10.4566 9.8293 10.5903 10.1768L12.0991 14.1006C12.3271 14.6934 12.3918 14.8408 12.4751 14.958C12.5625 15.0808 12.6697 15.188 12.7925 15.2754C12.9096 15.3587 13.0571 15.4234 13.6499 15.6514L17.5737 17.1602C17.9212 17.2939 18.1509 17.6277 18.1509 18C18.1509 18.3723 17.9212 18.7061 17.5737 18.8398L13.6499 20.3486C13.0571 20.5766 12.9096 20.6413 12.7925 20.7246C12.6697 20.812 12.5625 20.9192 12.4751 21.042C12.3918 21.1592 12.3271 21.3066 12.0991 21.8994L10.5903 25.8232C10.4566 26.1707 10.1228 26.4004 9.75049 26.4004C9.37816 26.4004 9.04438 26.1707 8.91064 25.8232L7.40186 21.8994C7.17386 21.3066 7.10919 21.1592 7.02588 21.042C6.93852 20.9192 6.83129 20.812 6.7085 20.7246C6.59133 20.6413 6.44387 20.5766 5.85107 20.3486L1.92725 18.8398C1.57978 18.7061 1.3501 18.3723 1.3501 18C1.3501 17.6277 1.57978 17.2939 1.92725 17.1602L5.85107 15.6514C6.44387 15.4234 6.59133 15.3587 6.7085 15.2754C6.83129 15.188 6.93852 15.0808 7.02588 14.958C7.10919 14.8408 7.17386 14.6934 7.40186 14.1006L8.91064 10.1768L8.96924 10.0527C9.12773 9.77571 9.42445 9.59961 9.75049 9.59961ZM22.5005 24.5996C22.9975 24.5996 23.4009 25.0029 23.4009 25.5C23.4009 25.9971 22.9975 26.4004 22.5005 26.4004H16.5005C16.0034 26.4004 15.6001 25.9971 15.6001 25.5C15.6001 25.0029 16.0034 24.5996 16.5005 24.5996H22.5005ZM9.08154 14.7461C8.88662 15.2529 8.73916 15.6556 8.49365 16.001C8.2896 16.288 8.03844 16.5391 7.75146 16.7432C7.40612 16.9887 7.00337 17.1361 6.49658 17.3311L4.75732 18L6.49658 18.6689C7.00337 18.8639 7.40612 19.0113 7.75146 19.2568C8.03844 19.4609 8.28959 19.712 8.49365 19.999C8.73916 20.3444 8.88662 20.7471 9.08154 21.2539L9.75049 22.9932L10.4194 21.2539C10.6144 20.7471 10.7618 20.3444 11.0073 19.999C11.2114 19.712 11.4625 19.4609 11.7495 19.2568C12.0949 19.0113 12.4976 18.8639 13.0044 18.6689L14.7437 18L13.0044 17.3311C12.4976 17.1361 12.0949 16.9887 11.7495 16.7432C11.4625 16.5391 11.2114 16.288 11.0073 16.001C10.7618 15.6556 10.6144 15.2529 10.4194 14.7461L9.75049 13.0068L9.08154 14.7461ZM27.7505 18.5996C28.2475 18.5996 28.6509 19.0029 28.6509 19.5C28.6509 19.9971 28.2475 20.4004 27.7505 20.4004H20.2505C19.7534 20.4004 19.3501 19.9971 19.3501 19.5C19.3501 19.0029 19.7534 18.5996 20.2505 18.5996H27.7505ZM30.0005 12.5996C30.4975 12.5996 30.9009 13.0029 30.9009 13.5C30.9009 13.9971 30.4975 14.4004 30.0005 14.4004H16.5005C16.0034 14.4004 15.6001 13.9971 15.6001 13.5C15.6001 13.0029 16.0034 12.5996 16.5005 12.5996H30.0005ZM28.6509 7.34961H31.5767L28.6509 4.42383V7.34961Z" fill="url(#paint0_linear_1140_16778)"/>
<path d="M41.339 4.86364H42.7372L45.1683 10.7997H45.2578L47.6889 4.86364H49.0872V12.5H47.9909V6.97408H47.9201L45.668 12.4888H44.7582L42.506 6.97035H42.4352V12.5H41.339V4.86364ZM53.2554 12.5H50.7833V4.86364H53.3337C54.0819 4.86364 54.7245 5.01651 55.2615 5.32227C55.7984 5.62553 56.2098 6.06179 56.4957 6.63104C56.784 7.1978 56.9282 7.87766 56.9282 8.67063C56.9282 9.46609 56.7828 10.1497 56.4919 10.7214C56.2036 11.2931 55.786 11.7331 55.2391 12.0414C54.6922 12.3471 54.031 12.5 53.2554 12.5ZM51.9355 11.4933H53.192C53.7737 11.4933 54.2572 11.3839 54.6425 11.1651C55.0278 10.9439 55.3161 10.6245 55.5076 10.2069C55.699 9.78675 55.7947 9.27468 55.7947 8.67063C55.7947 8.07156 55.699 7.56321 55.5076 7.1456C55.3186 6.72798 55.0365 6.41104 54.6611 6.19478C54.2858 5.97852 53.8197 5.87038 53.2629 5.87038H51.9355V11.4933ZM58.3819 12.5V4.86364H61.1039C61.6955 4.86364 62.1864 4.96555 62.5767 5.16939C62.9695 5.37322 63.2628 5.65536 63.4567 6.0158C63.6506 6.37376 63.7475 6.78764 63.7475 7.25746C63.7475 7.72479 63.6493 8.13619 63.453 8.49165C63.2591 8.84464 62.9657 9.11932 62.573 9.3157C62.1827 9.51207 61.6918 9.61026 61.1001 9.61026H59.0382V8.61843H60.9957C61.3686 8.61843 61.6719 8.56499 61.9055 8.4581C62.1417 8.35121 62.3145 8.19584 62.4238 7.99201C62.5332 7.78817 62.5879 7.54332 62.5879 7.25746C62.5879 6.9691 62.532 6.71928 62.4201 6.50799C62.3107 6.2967 62.138 6.13512 61.9018 6.02326C61.6682 5.90891 61.3612 5.85174 60.9808 5.85174H59.5341V12.5H58.3819ZM62.1516 9.05469L64.0384 12.5H62.7259L60.8764 9.05469H62.1516ZM65.1705 12.5V4.86364H67.8925C68.4866 4.86364 68.9787 4.97177 69.369 5.18803C69.7593 5.4043 70.0514 5.70011 70.2453 6.07546C70.4392 6.44833 70.5361 6.86843 70.5361 7.33576C70.5361 7.80558 70.4379 8.22816 70.2415 8.60352C70.0476 8.97638 69.7543 9.27219 69.3616 9.49094C68.9713 9.70721 68.4803 9.81534 67.8887 9.81534H66.0169V8.83842H67.7843C68.1597 8.83842 68.4642 8.77379 68.6979 8.64453C68.9315 8.51278 69.103 8.33381 69.2124 8.1076C69.3218 7.88139 69.3765 7.62411 69.3765 7.33576C69.3765 7.04741 69.3218 6.79137 69.2124 6.56765C69.103 6.34393 68.9303 6.16868 68.6941 6.0419C68.4605 5.91513 68.1522 5.85174 67.7694 5.85174H66.3227V12.5H65.1705Z" fill="#94969C"/>
<path d="M43.5522 18.5909V29.5H41.576V18.5909H43.5522ZM47.5652 24.706V29.5H45.637V21.3182H47.48V22.7085H47.5759C47.7641 22.2504 48.0642 21.8864 48.4761 21.6165C48.8916 21.3466 49.4047 21.2116 50.0155 21.2116C50.5802 21.2116 51.072 21.3324 51.491 21.5739C51.9136 21.8153 52.2403 22.1651 52.4711 22.6232C52.7055 23.0813 52.8209 23.6371 52.8174 24.2905V29.5H50.8891V24.5888C50.8891 24.0419 50.7471 23.614 50.463 23.305C50.1824 22.9961 49.7936 22.8416 49.2964 22.8416C48.9591 22.8416 48.659 22.9162 48.3962 23.0653C48.137 23.2109 47.9328 23.4222 47.7836 23.6992C47.638 23.9762 47.5652 24.3118 47.5652 24.706ZM58.8932 21.3182V22.8097H54.1897V21.3182H58.8932ZM55.3509 19.358H57.2792V27.0391C57.2792 27.2983 57.3183 27.4972 57.3964 27.6357C57.4781 27.7706 57.5846 27.8629 57.716 27.9126C57.8474 27.9624 57.993 27.9872 58.1528 27.9872C58.2735 27.9872 58.3836 27.9783 58.483 27.9606C58.586 27.9428 58.6641 27.9268 58.7174 27.9126L59.0423 29.4201C58.9394 29.4556 58.792 29.4947 58.6002 29.5373C58.412 29.5799 58.1812 29.6048 57.9077 29.6119C57.4248 29.6261 56.9898 29.5533 56.6027 29.3935C56.2156 29.2301 55.9085 28.978 55.6812 28.6371C55.4575 28.2962 55.3474 27.87 55.3509 27.3587V19.358ZM64.0701 29.6598C63.2498 29.6598 62.5413 29.4893 61.9448 29.1484C61.3517 28.804 60.8954 28.3175 60.5758 27.6889C60.2562 27.0568 60.0964 26.3129 60.0964 25.457C60.0964 24.6154 60.2562 23.8768 60.5758 23.2411C60.8989 22.6019 61.3499 22.1048 61.9288 21.7496C62.5076 21.391 63.1877 21.2116 63.9689 21.2116C64.4732 21.2116 64.949 21.2933 65.3965 21.4567C65.8475 21.6165 66.2452 21.8651 66.5896 22.2024C66.9377 22.5398 67.2111 22.9695 67.41 23.4915C67.6088 24.0099 67.7083 24.6278 67.7083 25.3452V25.9364H61.0019V24.6367H65.8599C65.8563 24.2674 65.7764 23.9389 65.6202 23.6513C65.4639 23.3601 65.2455 23.131 64.965 22.9641C64.688 22.7972 64.3649 22.7138 63.9955 22.7138C63.6014 22.7138 63.2551 22.8097 62.9568 23.0014C62.6585 23.1896 62.4259 23.4382 62.259 23.7472C62.0957 24.0526 62.0122 24.3881 62.0087 24.7539V25.8885C62.0087 26.3643 62.0957 26.7727 62.2697 27.1136C62.4437 27.451 62.6869 27.7102 62.9994 27.8913C63.3119 28.0689 63.6777 28.1577 64.0967 28.1577C64.3773 28.1577 64.6312 28.1186 64.8585 28.0405C65.0857 27.9588 65.2828 27.8398 65.4497 27.6836C65.6166 27.5273 65.7427 27.3338 65.8279 27.103L67.6284 27.3054C67.5147 27.7812 67.2981 28.1967 66.9785 28.5518C66.6624 28.9034 66.2576 29.1768 65.764 29.3722C65.2704 29.5639 64.7058 29.6598 64.0701 29.6598ZM71.2978 18.5909V29.5H69.3696V18.5909H71.2978ZM75.239 18.5909V29.5H73.3107V18.5909H75.239ZM77.2518 29.5V21.3182H79.1801V29.5H77.2518ZM78.2213 20.157C77.9159 20.157 77.6531 20.0558 77.4329 19.8533C77.2128 19.6474 77.1027 19.4006 77.1027 19.1129C77.1027 18.8217 77.2128 18.5749 77.4329 18.3725C77.6531 18.1665 77.9159 18.0636 78.2213 18.0636C78.5302 18.0636 78.793 18.1665 79.0096 18.3725C79.2298 18.5749 79.3399 18.8217 79.3399 19.1129C79.3399 19.4006 79.2298 19.6474 79.0096 19.8533C78.793 20.0558 78.5302 20.157 78.2213 20.157ZM90.6159 22.2717H88.6237C88.5669 21.945 88.4621 21.6555 88.3094 21.4034C88.1567 21.1477 87.9667 20.9311 87.7395 20.7536C87.5122 20.576 87.253 20.4428 86.9618 20.354C86.6741 20.2617 86.3634 20.2156 86.0296 20.2156C85.4366 20.2156 84.911 20.3647 84.4529 20.663C83.9948 20.9577 83.6361 21.391 83.3769 21.9627C83.1177 22.5309 82.9881 23.2251 82.9881 24.0455C82.9881 24.88 83.1177 25.5831 83.3769 26.1548C83.6397 26.723 83.9984 27.1527 84.4529 27.4439C84.911 27.7315 85.4348 27.8754 86.0243 27.8754C86.351 27.8754 86.6564 27.8327 86.9405 27.7475C87.2281 27.6587 87.4856 27.5291 87.7128 27.3587C87.9437 27.1882 88.1372 26.9787 88.2935 26.7301C88.4533 26.4815 88.5633 26.1974 88.6237 25.8778L90.6159 25.8885C90.5413 26.407 90.3797 26.8935 90.1312 27.348C89.8861 27.8026 89.5648 28.2038 89.167 28.5518C88.7693 28.8963 88.3041 29.1662 87.7714 29.3615C87.2388 29.5533 86.6475 29.6491 85.9976 29.6491C85.0388 29.6491 84.183 29.4272 83.4302 28.9833C82.6773 28.5394 82.0843 27.8984 81.6511 27.0604C81.2178 26.2223 81.0012 25.2173 81.0012 24.0455C81.0012 22.87 81.2196 21.8651 81.6564 21.0305C82.0932 20.1925 82.688 19.5515 83.4408 19.1076C84.1937 18.6637 85.0459 18.4418 85.9976 18.4418C86.6049 18.4418 87.1695 18.527 87.6915 18.6974C88.2136 18.8679 88.6787 19.1183 89.0871 19.4485C89.4955 19.7752 89.8311 20.1765 90.0939 20.6523C90.3602 21.1246 90.5342 21.6644 90.6159 22.2717ZM95.9393 29.6598C95.1403 29.6598 94.4478 29.484 93.8619 29.1325C93.276 28.7809 92.8214 28.2891 92.4983 27.657C92.1787 27.0249 92.0189 26.2862 92.0189 25.4411C92.0189 24.5959 92.1787 23.8555 92.4983 23.2198C92.8214 22.5842 93.276 22.0906 93.8619 21.739C94.4478 21.3874 95.1403 21.2116 95.9393 21.2116C96.7383 21.2116 97.4308 21.3874 98.0167 21.739C98.6027 22.0906 99.0554 22.5842 99.375 23.2198C99.6982 23.8555 99.8598 24.5959 99.8598 25.4411C99.8598 26.2862 99.6982 27.0249 99.375 27.657C99.0554 28.2891 98.6027 28.7809 98.0167 29.1325C97.4308 29.484 96.7383 29.6598 95.9393 29.6598ZM95.95 28.1151C96.3832 28.1151 96.7454 27.9961 97.0366 27.7582C97.3278 27.5167 97.5444 27.1935 97.6865 26.7887C97.8321 26.3839 97.9049 25.9329 97.9049 25.4357C97.9049 24.935 97.8321 24.4822 97.6865 24.0774C97.5444 23.669 97.3278 23.3441 97.0366 23.1026C96.7454 22.8612 96.3832 22.7404 95.95 22.7404C95.5061 22.7404 95.1368 22.8612 94.842 23.1026C94.5508 23.3441 94.3324 23.669 94.1868 24.0774C94.0448 24.4822 93.9738 24.935 93.9738 25.4357C93.9738 25.9329 94.0448 26.3839 94.1868 26.7887C94.3324 27.1935 94.5508 27.5167 94.842 27.7582C95.1368 27.9961 95.5061 28.1151 95.95 28.1151ZM103.455 24.706V29.5H101.526V21.3182H103.369V22.7085H103.465C103.654 22.2504 103.954 21.8864 104.366 21.6165C104.781 21.3466 105.294 21.2116 105.905 21.2116C106.47 21.2116 106.961 21.3324 107.38 21.5739C107.803 21.8153 108.13 22.1651 108.361 22.6232C108.595 23.0813 108.71 23.6371 108.707 24.2905V29.5H106.779V24.5888C106.779 24.0419 106.636 23.614 106.352 23.305C106.072 22.9961 105.683 22.8416 105.186 22.8416C104.848 22.8416 104.548 22.9162 104.286 23.0653C104.026 23.2109 103.822 23.4222 103.673 23.6992C103.527 23.9762 103.455 24.3118 103.455 24.706ZM114.783 21.3182V22.8097H110.079V21.3182H114.783ZM111.24 19.358H113.169V27.0391C113.169 27.2983 113.208 27.4972 113.286 27.6357C113.367 27.7706 113.474 27.8629 113.605 27.9126C113.737 27.9624 113.882 27.9872 114.042 27.9872C114.163 27.9872 114.273 27.9783 114.372 27.9606C114.475 27.9428 114.554 27.9268 114.607 27.9126L114.932 29.4201C114.829 29.4556 114.681 29.4947 114.49 29.5373C114.301 29.5799 114.071 29.6048 113.797 29.6119C113.314 29.6261 112.879 29.5533 112.492 29.3935C112.105 29.2301 111.798 28.978 111.571 28.6371C111.347 28.2962 111.237 27.87 111.24 27.3587V19.358ZM116.425 29.5V21.3182H118.295V22.6818H118.38C118.529 22.2095 118.785 21.8455 119.147 21.5898C119.513 21.3306 119.93 21.201 120.399 21.201C120.506 21.201 120.624 21.2063 120.756 21.217C120.891 21.2241 121.003 21.2365 121.091 21.2543V23.0281C121.01 22.9996 120.88 22.9748 120.703 22.9535C120.529 22.9286 120.36 22.9162 120.197 22.9162C119.845 22.9162 119.529 22.9925 119.248 23.1452C118.971 23.2944 118.753 23.5021 118.593 23.7685C118.433 24.0348 118.354 24.342 118.354 24.69V29.5H116.425ZM124.61 29.6651C124.092 29.6651 123.625 29.5728 123.21 29.3881C122.798 29.1999 122.471 28.9229 122.229 28.5572C121.991 28.1914 121.873 27.7404 121.873 27.2042C121.873 26.7425 121.958 26.3608 122.128 26.0589C122.299 25.7571 122.531 25.5156 122.826 25.3345C123.121 25.1534 123.453 25.0167 123.822 24.9244C124.195 24.8285 124.58 24.7592 124.978 24.7166C125.457 24.6669 125.846 24.6225 126.145 24.5835C126.443 24.5408 126.659 24.4769 126.794 24.3917C126.933 24.3029 127.002 24.1662 127.002 23.9815V23.9496C127.002 23.5483 126.883 23.2376 126.645 23.0174C126.407 22.7972 126.065 22.6871 125.617 22.6871C125.145 22.6871 124.77 22.7901 124.493 22.9961C124.22 23.2021 124.035 23.4453 123.939 23.7259L122.139 23.4702C122.281 22.973 122.515 22.5575 122.842 22.2237C123.169 21.8864 123.568 21.6342 124.04 21.4673C124.513 21.2969 125.035 21.2116 125.607 21.2116C126.001 21.2116 126.393 21.2578 126.784 21.3501C127.174 21.4425 127.531 21.5952 127.854 21.8082C128.178 22.0178 128.437 22.3036 128.632 22.6658C128.831 23.0281 128.93 23.4808 128.93 24.0241V29.5H127.077V28.3761H127.013C126.896 28.6033 126.73 28.8164 126.517 29.0153C126.308 29.2106 126.043 29.3686 125.724 29.4893C125.408 29.6065 125.037 29.6651 124.61 29.6651ZM125.111 28.2482C125.498 28.2482 125.834 28.1719 126.118 28.0192C126.402 27.8629 126.62 27.657 126.773 27.4013C126.929 27.1456 127.007 26.8668 127.007 26.565V25.6009C126.947 25.6506 126.844 25.6967 126.699 25.7393C126.556 25.782 126.397 25.8192 126.219 25.8512C126.042 25.8832 125.866 25.9116 125.692 25.9364C125.518 25.9613 125.367 25.9826 125.239 26.0004C124.951 26.0394 124.694 26.1033 124.467 26.1921C124.239 26.2809 124.06 26.4052 123.929 26.565C123.797 26.7212 123.732 26.9237 123.732 27.1722C123.732 27.5273 123.861 27.7955 124.12 27.9766C124.38 28.1577 124.71 28.2482 125.111 28.2482ZM134.468 29.6598C133.651 29.6598 132.95 29.4805 132.364 29.1218C131.782 28.7631 131.333 28.2678 131.017 27.6357C130.704 27 130.548 26.2685 130.548 25.4411C130.548 24.6101 130.708 23.8768 131.027 23.2411C131.347 22.6019 131.798 22.1048 132.38 21.7496C132.966 21.391 133.659 21.2116 134.458 21.2116C135.122 21.2116 135.709 21.3342 136.221 21.5792C136.736 21.8207 137.146 22.1634 137.451 22.6072C137.757 23.0476 137.931 23.5625 137.973 24.152H136.13C136.056 23.7578 135.878 23.4293 135.597 23.1665C135.32 22.9002 134.949 22.767 134.484 22.767C134.09 22.767 133.744 22.8736 133.445 23.0866C133.147 23.2962 132.915 23.598 132.748 23.9922C132.584 24.3864 132.503 24.8587 132.503 25.4091C132.503 25.9666 132.584 26.446 132.748 26.8473C132.911 27.245 133.14 27.5522 133.435 27.7688C133.733 27.9819 134.083 28.0884 134.484 28.0884C134.768 28.0884 135.022 28.0352 135.246 27.9286C135.473 27.8185 135.663 27.6605 135.816 27.4545C135.969 27.2486 136.073 26.9982 136.13 26.7035H137.973C137.927 27.2823 137.757 27.7955 137.462 28.2429C137.167 28.6868 136.766 29.0348 136.258 29.2869C135.75 29.5355 135.154 29.6598 134.468 29.6598ZM143.672 21.3182V22.8097H138.969V21.3182H143.672ZM140.13 19.358H142.058V27.0391C142.058 27.2983 142.097 27.4972 142.175 27.6357C142.257 27.7706 142.364 27.8629 142.495 27.9126C142.626 27.9624 142.772 27.9872 142.932 27.9872C143.052 27.9872 143.163 27.9783 143.262 27.9606C143.365 27.9428 143.443 27.9268 143.496 27.9126L143.821 29.4201C143.718 29.4556 143.571 29.4947 143.379 29.5373C143.191 29.5799 142.96 29.6048 142.687 29.6119C142.204 29.6261 141.769 29.5533 141.382 29.3935C140.995 29.2301 140.687 28.978 140.46 28.6371C140.236 28.2962 140.126 27.87 140.13 27.3587V19.358Z" fill="#FAFAFA"/>
<path d="M76.4791 47V40.0182H77.4984V42.6125H77.5598C77.6189 42.5034 77.7041 42.3773 77.8155 42.2341C77.9268 42.0909 78.0814 41.9659 78.2791 41.8591C78.4768 41.75 78.7382 41.6955 79.0632 41.6955C79.4859 41.6955 79.8632 41.8023 80.195 42.0159C80.5268 42.2295 80.7871 42.5375 80.9757 42.9398C81.1666 43.342 81.262 43.8261 81.262 44.392C81.262 44.958 81.1677 45.4432 80.9791 45.8477C80.7905 46.25 80.5314 46.5602 80.2018 46.7784C79.8723 46.9943 79.4961 47.1023 79.0734 47.1023C78.7552 47.1023 78.495 47.0489 78.2927 46.942C78.0927 46.8352 77.9359 46.7102 77.8223 46.567C77.7086 46.4239 77.6211 46.2966 77.5598 46.1852H77.4745V47H76.4791ZM77.478 44.3818C77.478 44.75 77.5314 45.0727 77.6382 45.35C77.745 45.6273 77.8995 45.8443 78.1018 46.0011C78.3041 46.1557 78.5518 46.233 78.845 46.233C79.1495 46.233 79.4041 46.1523 79.6086 45.9909C79.8132 45.8273 79.9677 45.6057 80.0723 45.3261C80.1791 45.0466 80.2325 44.7318 80.2325 44.3818C80.2325 44.0364 80.1802 43.7261 80.0757 43.4511C79.9734 43.1761 79.8189 42.9591 79.612 42.8C79.4075 42.6409 79.1518 42.5614 78.845 42.5614C78.5495 42.5614 78.2995 42.6375 78.095 42.7898C77.8927 42.942 77.7393 43.1545 77.6348 43.4273C77.5302 43.7 77.478 44.0182 77.478 44.3818ZM82.892 48.9636C82.7398 48.9636 82.6011 48.9511 82.4761 48.9261C82.3511 48.9034 82.258 48.8784 82.1966 48.8511L82.442 48.0159C82.6284 48.0659 82.7943 48.0875 82.9398 48.0807C83.0852 48.0739 83.2136 48.0193 83.325 47.917C83.4386 47.8148 83.5386 47.6477 83.625 47.4159L83.7511 47.0682L81.8352 41.7636H82.9261L84.2523 45.8273H84.3068L85.633 41.7636H86.7273L84.5693 47.6989C84.4693 47.9716 84.342 48.2023 84.1875 48.3909C84.033 48.5818 83.8489 48.725 83.6352 48.8205C83.4216 48.9159 83.1739 48.9636 82.892 48.9636Z" fill="#94969C"/>
<g clip-path="url(#clip0_1140_16778)">
<path d="M117.21 46.7446H116.845V46.3096H117.21V46.7446ZM116.845 49.1096V46.9946H117.21V49.1096H116.845Z" fill="#6D6E70"/>
<path d="M117.92 48.0354C117.92 48.2504 117.99 48.4304 118.125 48.5754C118.26 48.7204 118.43 48.7904 118.625 48.7904C118.805 48.7904 118.965 48.7154 119.1 48.5704C119.24 48.4254 119.305 48.2554 119.305 48.0604C119.305 47.8504 119.235 47.6754 119.1 47.5254C118.965 47.3754 118.8 47.3054 118.615 47.3054C118.42 47.3054 118.26 47.3754 118.12 47.5154C117.985 47.6554 117.915 47.8304 117.915 48.0304L117.92 48.0354ZM119.29 49.1054V48.8454C119.195 48.9454 119.09 49.0204 118.975 49.0754C118.86 49.1254 118.735 49.1554 118.605 49.1554C118.3 49.1554 118.045 49.0504 117.845 48.8354C117.645 48.6254 117.54 48.3554 117.54 48.0404C117.54 47.8904 117.565 47.7504 117.615 47.6154C117.665 47.4804 117.74 47.3654 117.83 47.2654C117.93 47.1554 118.045 47.0704 118.165 47.0204C118.285 46.9654 118.425 46.9404 118.58 46.9404C118.72 46.9404 118.845 46.9654 118.965 47.0204C119.085 47.0704 119.19 47.1504 119.29 47.2554V46.3154H119.66V49.1154H119.29V49.1054Z" fill="#6D6E70"/>
<path d="M121.67 47.8436C121.625 47.6686 121.545 47.5336 121.435 47.4386C121.325 47.3436 121.19 47.2936 121.03 47.2936C120.87 47.2936 120.73 47.3436 120.615 47.4386C120.5 47.5386 120.415 47.6686 120.37 47.8386H121.67V47.8436ZM120.36 48.1886C120.39 48.3636 120.47 48.5086 120.59 48.6186C120.715 48.7286 120.86 48.7836 121.025 48.7836C121.145 48.7836 121.255 48.7536 121.355 48.6936C121.455 48.6336 121.535 48.5486 121.59 48.4386H122.005C121.91 48.6736 121.78 48.8536 121.61 48.9786C121.44 49.1036 121.245 49.1636 121.02 49.1636C120.87 49.1636 120.73 49.1336 120.605 49.0786C120.48 49.0236 120.37 48.9386 120.265 48.8286C120.17 48.7236 120.095 48.6036 120.04 48.4686C119.985 48.3286 119.96 48.1886 119.96 48.0486C119.96 47.8986 119.985 47.7586 120.035 47.6336C120.085 47.5036 120.155 47.3836 120.25 47.2786C120.35 47.1636 120.465 47.0786 120.595 47.0186C120.72 46.9586 120.86 46.9336 121.01 46.9336C121.19 46.9336 121.355 46.9786 121.51 47.0636C121.665 47.1486 121.79 47.2686 121.89 47.4236C121.95 47.5186 121.995 47.6236 122.02 47.7386C122.05 47.8536 122.06 47.9836 122.06 48.1336V48.1936H120.345L120.36 48.1886Z" fill="#6D6E70"/>
<path d="M122.671 48.0354C122.671 48.2504 122.741 48.4304 122.876 48.5754C123.011 48.7204 123.181 48.7904 123.376 48.7904C123.556 48.7904 123.716 48.7154 123.851 48.5704C123.991 48.4254 124.056 48.2554 124.056 48.0604C124.056 47.8504 123.991 47.6754 123.851 47.5254C123.716 47.3754 123.551 47.3054 123.366 47.3054C123.171 47.3054 123.011 47.3754 122.871 47.5154C122.736 47.6554 122.666 47.8304 122.666 48.0304L122.671 48.0354ZM124.041 49.1054V48.8454C123.946 48.9454 123.841 49.0204 123.726 49.0754C123.611 49.1254 123.486 49.1554 123.356 49.1554C123.051 49.1554 122.796 49.0504 122.596 48.8354C122.396 48.6254 122.291 48.3554 122.291 48.0404C122.291 47.8904 122.316 47.7504 122.366 47.6154C122.416 47.4804 122.486 47.3654 122.581 47.2654C122.681 47.1554 122.796 47.0704 122.916 47.0204C123.036 46.9654 123.176 46.9404 123.331 46.9404C123.471 46.9404 123.596 46.9654 123.716 47.0204C123.831 47.0704 123.941 47.1504 124.036 47.2554V47.0004H124.406V49.1154H124.036L124.041 49.1054Z" fill="#6D6E70"/>
<path d="M124.695 48.4209H125.04C125.04 48.5309 125.07 48.6259 125.13 48.6959C125.19 48.7709 125.265 48.8059 125.355 48.8059C125.44 48.8059 125.51 48.7759 125.565 48.7259C125.62 48.6709 125.645 48.6009 125.645 48.5159C125.645 48.4409 125.625 48.3759 125.585 48.3259C125.545 48.2759 125.485 48.2309 125.395 48.1959C125.365 48.1809 125.325 48.1659 125.27 48.1459C125.125 48.0909 125.035 48.0459 124.995 48.0109C124.92 47.9509 124.87 47.8809 124.835 47.8059C124.8 47.7309 124.785 47.6409 124.785 47.5409C124.785 47.3709 124.84 47.2259 124.96 47.1009C125.075 46.9809 125.215 46.9209 125.385 46.9209C125.56 46.9209 125.695 46.9709 125.8 47.0809C125.905 47.1859 125.96 47.3359 125.97 47.5259H125.615C125.61 47.4459 125.585 47.3859 125.54 47.3409C125.495 47.2959 125.44 47.2759 125.365 47.2759C125.3 47.2759 125.245 47.3009 125.2 47.3459C125.155 47.3909 125.135 47.4509 125.135 47.5209C125.135 47.6409 125.235 47.7359 125.43 47.8109C125.485 47.8309 125.53 47.8509 125.56 47.8609C125.715 47.9259 125.825 48.0059 125.895 48.1059C125.96 48.2009 125.995 48.3309 125.995 48.4959C125.995 48.6859 125.935 48.8409 125.81 48.9709C125.685 49.0959 125.53 49.1609 125.345 49.1609C125.155 49.1609 125.005 49.0959 124.885 48.9609C124.77 48.8309 124.705 48.6459 124.695 48.4159V48.4209Z" fill="#6D6E70"/>
<path d="M128.474 47.4648L128.579 47.2448H128.824L128.554 48.3498C128.549 48.3698 128.544 48.3898 128.544 48.4098C128.539 48.4298 128.539 48.4448 128.539 48.4648C128.539 48.5248 128.554 48.5698 128.589 48.5998C128.619 48.6298 128.669 48.6448 128.729 48.6448C128.789 48.6448 128.849 48.6298 128.919 48.5948C128.984 48.5598 129.054 48.5148 129.114 48.4498C129.214 48.3548 129.289 48.2348 129.344 48.0898C129.399 47.9498 129.429 47.7998 129.429 47.6398C129.429 47.3098 129.314 47.0398 129.074 46.8298C128.839 46.6248 128.529 46.5198 128.149 46.5198C127.984 46.5198 127.834 46.5398 127.694 46.5748C127.554 46.6098 127.424 46.6648 127.304 46.7398C127.069 46.8848 126.884 47.0798 126.754 47.3148C126.624 47.5548 126.559 47.8148 126.559 48.1048C126.559 48.3298 126.599 48.5298 126.674 48.6998C126.749 48.8698 126.869 49.0148 127.029 49.1448C127.154 49.2448 127.299 49.3198 127.469 49.3748C127.639 49.4298 127.814 49.4548 128.004 49.4548C128.214 49.4548 128.414 49.4248 128.614 49.3598C128.809 49.2948 128.994 49.2048 129.154 49.0898L129.254 49.2498C129.069 49.3898 128.879 49.4998 128.669 49.5698C128.464 49.6398 128.249 49.6798 128.024 49.6798C127.789 49.6798 127.574 49.6498 127.379 49.5898C127.184 49.5298 127.009 49.4398 126.859 49.3198C126.669 49.1698 126.529 48.9948 126.434 48.7948C126.339 48.5948 126.294 48.3698 126.294 48.1148C126.294 47.9048 126.324 47.7048 126.389 47.5148C126.454 47.3248 126.549 47.1498 126.669 46.9948C126.849 46.7648 127.069 46.5948 127.319 46.4748C127.574 46.3548 127.854 46.2998 128.164 46.2998C128.364 46.2998 128.559 46.3298 128.739 46.3848C128.919 46.4448 129.079 46.5248 129.209 46.6298C129.369 46.7598 129.494 46.9048 129.574 47.0748C129.659 47.2448 129.699 47.4248 129.699 47.6198C129.699 47.8448 129.659 48.0448 129.579 48.2248C129.499 48.4048 129.389 48.5548 129.239 48.6798C129.154 48.7498 129.064 48.7998 128.964 48.8398C128.864 48.8748 128.759 48.8948 128.654 48.8948C128.534 48.8948 128.439 48.8698 128.379 48.8198C128.319 48.7698 128.284 48.6948 128.284 48.5948V48.5598C128.214 48.6748 128.139 48.7598 128.044 48.8148C127.954 48.8698 127.849 48.8948 127.724 48.8948C127.534 48.8948 127.389 48.8398 127.289 48.7298C127.189 48.6198 127.139 48.4648 127.139 48.2548C127.139 47.9548 127.224 47.6998 127.394 47.4948C127.564 47.2898 127.774 47.1898 128.024 47.1898C128.129 47.1898 128.219 47.2148 128.294 47.2598C128.369 47.3098 128.429 47.3798 128.474 47.4748V47.4648ZM128.299 48.1948L128.409 47.7398C128.389 47.6248 128.344 47.5398 128.284 47.4798C128.219 47.4198 128.139 47.3848 128.044 47.3848C127.874 47.3848 127.729 47.4698 127.614 47.6348C127.499 47.7998 127.439 48.0048 127.439 48.2498C127.439 48.3848 127.469 48.4898 127.529 48.5598C127.589 48.6348 127.674 48.6698 127.784 48.6698C127.904 48.6698 128.014 48.6248 128.109 48.5348C128.204 48.4448 128.269 48.3298 128.304 48.1898L128.299 48.1948Z" fill="#6D6E70"/>
<path d="M131.235 47.6743L130.82 49.1093H130.615L129.91 46.9893H130.3L130.72 48.3893L131.13 46.9893H131.355L131.765 48.3893L132.185 46.9893H132.575L131.865 49.1093H131.66L131.235 47.6743Z" fill="#6D6E70"/>
<path d="M133.07 48.0498C133.07 48.2598 133.135 48.4398 133.265 48.5798C133.395 48.7198 133.555 48.7898 133.745 48.7898C133.935 48.7898 134.095 48.7198 134.22 48.5748C134.35 48.4348 134.41 48.2548 134.41 48.0448C134.41 47.8298 134.345 47.6548 134.22 47.5148C134.09 47.3748 133.93 47.3048 133.74 47.3048C133.55 47.3048 133.39 47.3748 133.26 47.5198C133.13 47.6598 133.065 47.8398 133.065 48.0498H133.07ZM132.69 48.0548C132.69 47.9048 132.715 47.7648 132.765 47.6348C132.815 47.5048 132.885 47.3898 132.98 47.2848C133.085 47.1698 133.2 47.0848 133.325 47.0198C133.455 46.9598 133.585 46.9248 133.725 46.9248C133.875 46.9248 134.01 46.9498 134.135 47.0098C134.26 47.0648 134.375 47.1448 134.48 47.2548C134.58 47.3598 134.655 47.4798 134.71 47.6148C134.765 47.7498 134.79 47.8848 134.79 48.0298C134.79 48.1748 134.765 48.3148 134.715 48.4548C134.665 48.5898 134.595 48.7098 134.505 48.8148C134.4 48.9348 134.285 49.0248 134.155 49.0848C134.025 49.1448 133.89 49.1748 133.745 49.1748C133.595 49.1748 133.46 49.1448 133.33 49.0898C133.205 49.0348 133.09 48.9498 132.99 48.8398C132.895 48.7348 132.82 48.6148 132.765 48.4748C132.71 48.3398 132.685 48.1948 132.685 48.0548H132.69Z" fill="#6D6E70"/>
<path d="M135.474 49.11H135.104V46.995H135.449V47.24C135.509 47.145 135.579 47.075 135.659 47.03C135.739 46.985 135.829 46.96 135.934 46.96V47.36C135.769 47.375 135.654 47.425 135.579 47.51C135.509 47.6 135.474 47.74 135.474 47.935V49.115V49.11Z" fill="#6D6E70"/>
<path d="M136.2 49.1097V46.3047H136.565V47.9747L137.29 46.9897H137.72L136.97 47.9947L137.855 49.1097H137.385L136.565 48.0347V49.1097H136.2Z" fill="#6D6E70"/>
<path d="M110.25 39.0646C108.825 39.0646 107.865 39.8046 107.865 40.9846C107.865 43.2846 111.145 42.5696 111.145 43.7946C111.145 44.1946 110.8 44.4146 110.23 44.4146C109.58 44.4146 108.68 44.0346 108.05 43.4396L107.495 44.6346C108.19 45.2546 109.2 45.6646 110.215 45.6646C111.58 45.6646 112.625 44.9796 112.625 43.7046C112.635 41.3646 109.355 42.0346 109.355 40.8396C109.355 40.4896 109.67 40.3096 110.14 40.3096C110.63 40.3096 111.405 40.5696 112.055 40.9796L112.59 39.7646C111.975 39.3396 111.11 39.0596 110.25 39.0596V39.0646Z" fill="white"/>
<path d="M117.38 45.6249H118.955L117.645 43.4799C118.395 43.1099 118.795 42.3849 118.795 41.3849C118.795 39.9449 117.88 39.1299 116.27 39.1299H113.595V45.6249H114.985V43.7699H116.4L117.375 45.6249H117.38ZM114.985 42.5449V40.3449H116.27C117.035 40.3449 117.475 40.7049 117.475 41.4299C117.475 42.1699 117.035 42.5449 116.27 42.5449H114.985Z" fill="white"/>
<path d="M126.655 45.6249V39.1299H125.105L123.32 43.0999L121.525 39.1299H119.97V45.6249H121.225V41.2449L122.86 44.9649H123.77L125.405 41.2449V45.6249H126.655Z" fill="white"/>
<path d="M127.42 39.1299V40.1099H129.36V45.6249H130.4V40.1099H132.355V39.1299H127.42Z" fill="#0CA1B6"/>
<path d="M134.49 40.6495C133.1 40.6595 132.125 41.6695 132.125 43.1645C132.125 44.6495 133.075 45.6595 134.52 45.6595C135.33 45.6595 135.995 45.3545 136.455 44.8245L135.92 44.2195C135.575 44.5895 135.11 44.7945 134.6 44.7945C133.86 44.7945 133.305 44.3195 133.15 43.5595H136.685C136.81 41.7795 136.14 40.6445 134.495 40.6445L134.49 40.6495ZM133.125 42.7845C133.23 41.9945 133.76 41.5045 134.495 41.5045C135.26 41.5045 135.76 41.9845 135.795 42.7845H133.12H133.125Z" fill="#0CA1B6"/>
<path d="M141.035 42.1453L141.59 41.4603C141.16 40.9403 140.5 40.6553 139.655 40.6553C138.265 40.6553 137.3 41.6753 137.3 43.1703C137.3 44.6553 138.265 45.6653 139.655 45.6653C140.545 45.6653 141.22 45.3303 141.645 44.7453L141.08 44.1503C140.765 44.5403 140.29 44.7453 139.7 44.7453C138.89 44.7453 138.31 44.1053 138.31 43.1703C138.31 42.2353 138.89 41.5903 139.7 41.5903C140.265 41.5803 140.71 41.7953 141.035 42.1453Z" fill="#0CA1B6"/>
<path d="M145.485 40.6494C144.685 40.6494 144.085 40.9544 143.75 41.6494V38.7344H142.74V45.6194H143.75V43.1894C143.75 42.3194 144.25 41.6594 145.085 41.6494C145.79 41.6494 146.21 42.1044 146.21 42.8444V45.6194H147.22V42.5494C147.22 41.3694 146.57 40.6494 145.48 40.6494H145.485Z" fill="#0CA1B6"/>
<path fill-rule="evenodd" clip-rule="evenodd" d="M98.6498 47.9813L97.9298 48.7413L97.1648 47.9463L95.2998 49.9013H100.485L98.6498 47.9813Z" fill="white"/>
<path fill-rule="evenodd" clip-rule="evenodd" d="M97.625 38.0851C95.67 40.1451 93.845 42.0701 91.85 44.1451L94.575 47.0101L91.835 49.8651L94.49 49.9151L97.355 46.9101L94.805 44.2451L97.455 41.4601L97.56 41.3501L97.625 41.2801V38.0801V38.0851Z" fill="white"/>
<path fill-rule="evenodd" clip-rule="evenodd" d="M98.8103 43.235C98.5503 42.97 98.2353 42.835 97.8603 42.835C97.4853 42.835 97.1653 42.97 96.9003 43.235C96.6403 43.515 96.5153 43.85 96.5153 44.245C96.5103 44.64 96.6403 44.97 96.9003 45.24C97.1653 45.52 97.4853 45.655 97.8603 45.655C98.2353 45.655 98.5553 45.52 98.8103 45.24C99.0703 44.97 99.2053 44.64 99.2003 44.245C99.2053 43.85 99.0703 43.515 98.8103 43.235Z" fill="#EF7F1A"/>
<path fill-rule="evenodd" clip-rule="evenodd" d="M98.3096 38.0851C100.265 40.1451 102.09 42.0701 104.085 44.1451L101.36 47.0101L104.1 49.8651L101.445 49.9151L98.5796 46.9101L101.13 44.2451L98.4796 41.4601L98.3746 41.3501L98.3096 41.2801V38.0801V38.0851Z" fill="white"/>
<path fill-rule="evenodd" clip-rule="evenodd" d="M138.184 48.1959H147.259V48.0459H138.184V48.1959Z" fill="#6D6E70"/>
<path fill-rule="evenodd" clip-rule="evenodd" d="M107.52 48.1959H116.23V48.0459H107.52V48.1959Z" fill="#6D6E70"/>
</g>
<defs>
<linearGradient id="paint0_linear_1140_16778" x1="10.1254" y1="1.49976" x2="33.3757" y2="34.1252" gradientUnits="userSpaceOnUse">
<stop stop-color="#EB2F96"/>
<stop offset="1" stop-color="#722ED1"/>
</linearGradient>
<clipPath id="clip0_1140_16778">
<rect width="55.5" height="12" fill="white" transform="translate(91.7998 38)"/>
</clipPath>
</defs>
</svg>
