<svg width="118" height="82" viewBox="0 0 118 82" fill="none" xmlns="http://www.w3.org/2000/svg">
<path d="M77.7397 9.37598V36.8408C77.7376 37.5565 77.4528 38.2429 76.9468 38.749C76.4407 39.255 75.7542 39.5398 75.0386 39.542H51.3706C50.6551 39.5398 49.9694 39.2549 49.4634 38.749C48.9573 38.2429 48.6716 37.5566 48.6694 36.8408V33.458C48.6695 32.898 49.124 32.4434 49.6841 32.4434C50.2439 32.4436 50.6977 32.8981 50.6978 33.458V36.8379C50.6991 37.0167 50.7706 37.1879 50.897 37.3145C51.0242 37.4417 51.1975 37.5131 51.3774 37.5137H75.0327C75.2125 37.5131 75.385 37.4416 75.5122 37.3145C75.6076 37.219 75.6724 37.0982 75.6987 36.9678L75.7124 36.835V10.8096H68.9507V4.04883H51.3774C51.1976 4.04937 51.0242 4.12186 50.897 4.24902C50.8017 4.34445 50.7377 4.4654 50.7114 4.5957L50.6978 4.72852V8.10547C50.6978 8.66539 50.2439 9.11988 49.6841 9.12012C49.124 9.12012 48.6694 8.66553 48.6694 8.10547V4.72266C48.6716 4.00694 48.9573 3.32056 49.4634 2.81445C49.9694 2.30858 50.6551 2.02371 51.3706 2.02148H70.3853L77.7397 9.37598ZM49.6841 11.3174C50.1035 11.3176 50.4798 11.5754 50.6304 11.9668L52.3306 16.3877C52.5875 17.0557 52.6595 17.2225 52.7534 17.3545C52.8518 17.4927 52.9726 17.6135 53.1108 17.7119C53.2429 17.8058 53.4097 17.8779 54.0776 18.1348L58.4985 19.835C58.8901 19.9856 59.1479 20.3626 59.1479 20.7822C59.1477 21.2016 58.89 21.5779 58.4985 21.7285L54.0776 23.4287C53.4097 23.6856 53.2429 23.7577 53.1108 23.8516C52.9726 23.9499 52.8518 24.0708 52.7534 24.209C52.6596 24.341 52.5875 24.5079 52.3306 25.1758L50.6304 29.5967C50.4798 29.9881 50.1034 30.2459 49.6841 30.2461C49.2645 30.2461 48.8875 29.9882 48.7368 29.5967L47.0366 25.1758C46.7797 24.5078 46.7076 24.341 46.6138 24.209C46.5154 24.0707 46.3946 23.9499 46.2563 23.8516C46.1243 23.7577 45.9576 23.6856 45.2896 23.4287L40.8687 21.7285C40.4773 21.5779 40.2195 21.2016 40.2192 20.7822C40.2192 20.3627 40.4771 19.9856 40.8687 19.835L45.2896 18.1348C45.9575 17.8779 46.1243 17.8058 46.2563 17.7119C46.3946 17.6136 46.5154 17.4927 46.6138 17.3545C46.7076 17.2225 46.7797 17.0557 47.0366 16.3877L48.7368 11.9668L48.8042 11.8262C48.9829 11.5147 49.3171 11.3174 49.6841 11.3174ZM64.0503 28.2188C64.6102 28.219 65.064 28.6725 65.064 29.2324C65.0639 29.7923 64.6101 30.2459 64.0503 30.2461H57.2896C56.7295 30.2461 56.2759 29.7925 56.2759 29.2324C56.2759 28.6724 56.7295 28.2188 57.2896 28.2188H64.0503ZM48.9302 17.1162C48.7106 17.6871 48.5437 18.1402 48.2671 18.5293C48.0372 18.8526 47.7545 19.1353 47.4312 19.3652C47.0421 19.6418 46.589 19.8087 46.0181 20.0283L44.0581 20.7812L46.0181 21.5352C46.589 21.7547 47.0421 21.9216 47.4312 22.1982C47.7545 22.4282 48.0372 22.7108 48.2671 23.0342C48.5438 23.4233 48.7105 23.8771 48.9302 24.4482L49.6831 26.4062L50.437 24.4482C50.6567 23.8772 50.8234 23.4233 51.1001 23.0342C51.33 22.7108 51.6127 22.4282 51.936 22.1982C52.3252 21.9216 52.779 21.7548 53.3501 21.5352L55.3081 20.7812L53.3501 20.0283C52.779 19.8087 52.3252 19.6419 51.936 19.3652C51.6127 19.1353 51.33 18.8526 51.1001 18.5293C50.8235 18.1402 50.6566 17.6871 50.437 17.1162L49.6831 15.1562L48.9302 17.1162ZM69.9653 21.458C70.5251 21.4583 70.9789 21.9118 70.979 22.4717C70.979 23.0316 70.5252 23.4851 69.9653 23.4854H61.5142C60.9543 23.4851 60.5005 23.0316 60.5005 22.4717C60.5006 21.9118 60.9544 21.4583 61.5142 21.458H69.9653ZM72.5005 14.6973C73.0603 14.6974 73.515 15.1511 73.5151 15.7109C73.5151 16.2709 73.0604 16.7245 72.5005 16.7246H57.2896C56.7295 16.7246 56.2759 16.271 56.2759 15.7109C56.2761 15.151 56.7296 14.6973 57.2896 14.6973H72.5005ZM70.979 8.78125H74.2778L70.979 5.48242V8.78125Z" fill="url(#paint0_linear_1059_12145)"/>
<path d="M7.6112 49.0978V60.5703H5.53294V49.0978H7.6112ZM11.8315 55.5287V60.5703H9.80364V51.966H11.7419V53.428H11.8427C12.0406 52.9463 12.3562 52.5635 12.7894 52.2797C13.2263 51.9958 13.766 51.8539 14.4083 51.8539C15.0021 51.8539 15.5193 51.9809 15.96 52.2348C16.4044 52.4888 16.748 52.8566 16.9907 53.3384C17.2372 53.8202 17.3586 54.4046 17.3549 55.0918V60.5703H15.327V55.4055C15.327 54.8303 15.1776 54.3803 14.8789 54.0554C14.5838 53.7305 14.1749 53.5681 13.6521 53.5681C13.2973 53.5681 12.9817 53.6465 12.7054 53.8033C12.4328 53.9565 12.218 54.1787 12.0612 54.47C11.9081 54.7613 11.8315 55.1142 11.8315 55.5287ZM23.7444 51.966V53.5345H18.7981V51.966H23.7444ZM20.0193 49.9045H22.0471V57.9823C22.0471 58.2549 22.0882 58.464 22.1703 58.6097C22.2562 58.7516 22.3683 58.8487 22.5064 58.901C22.6446 58.9533 22.7977 58.9794 22.9658 58.9794C23.0928 58.9794 23.2085 58.9701 23.3131 58.9514C23.4214 58.9327 23.5036 58.9159 23.5596 58.901L23.9013 60.4863C23.793 60.5236 23.638 60.5647 23.4363 60.6095C23.2384 60.6543 22.9957 60.6805 22.7081 60.688C22.2002 60.7029 21.7427 60.6263 21.3357 60.4583C20.9286 60.2865 20.6056 60.0213 20.3666 59.6628C20.1313 59.3043 20.0155 58.8562 20.0193 58.3184V49.9045ZM29.1887 60.7384C28.3261 60.7384 27.581 60.5591 26.9536 60.2006C26.3299 59.8383 25.8501 59.3267 25.514 58.6657C25.1778 58.001 25.0098 57.2186 25.0098 56.3186C25.0098 55.4335 25.1778 54.6567 25.514 53.9882C25.8538 53.316 26.3281 52.7932 26.9368 52.4197C27.5455 52.0425 28.2607 51.8539 29.0823 51.8539C29.6126 51.8539 30.113 51.9398 30.5836 52.1116C31.0579 52.2797 31.4761 52.5411 31.8384 52.8959C32.2044 53.2506 32.4919 53.7025 32.7011 54.2515C32.9102 54.7967 33.0148 55.4465 33.0148 56.2009V56.8227H25.9621V55.4559H31.0709C31.0672 55.0675 30.9832 54.722 30.8188 54.4195C30.6545 54.1133 30.4249 53.8724 30.1298 53.6969C29.8385 53.5214 29.4987 53.4336 29.1103 53.4336C28.6958 53.4336 28.3317 53.5345 28.018 53.7361C27.7043 53.9341 27.4596 54.1955 27.2841 54.5204C27.1123 54.8415 27.0246 55.1945 27.0208 55.5791V56.7723C27.0208 57.2727 27.1123 57.7022 27.2953 58.0607C27.4783 58.4155 27.7341 58.6881 28.0628 58.8786C28.3914 59.0653 28.7761 59.1587 29.2167 59.1587C29.5118 59.1587 29.7788 59.1176 30.0178 59.0354C30.2568 58.9495 30.4641 58.8244 30.6396 58.6601C30.8151 58.4958 30.9477 58.2923 31.0373 58.0495L32.9307 58.2624C32.8112 58.7628 32.5834 59.1997 32.2473 59.5732C31.9149 59.9429 31.4892 60.2305 30.9701 60.4359C30.451 60.6375 29.8572 60.7384 29.1887 60.7384ZM36.7897 49.0978V60.5703H34.7618V49.0978H36.7897ZM40.9344 49.0978V60.5703H38.9065V49.0978H40.9344ZM43.0512 60.5703V51.966H45.079V60.5703H43.0512ZM44.0707 50.7448C43.7495 50.7448 43.4732 50.6383 43.2416 50.4255C43.0101 50.2089 42.8943 49.9493 42.8943 49.6468C42.8943 49.3406 43.0101 49.081 43.2416 48.8682C43.4732 48.6516 43.7495 48.5433 44.0707 48.5433C44.3956 48.5433 44.672 48.6516 44.8998 48.8682C45.1313 49.081 45.2471 49.3406 45.2471 49.6468C45.2471 49.9493 45.1313 50.2089 44.8998 50.4255C44.672 50.6383 44.3956 50.7448 44.0707 50.7448ZM57.1054 52.9687H55.0103C54.9506 52.6251 54.8404 52.3207 54.6798 52.0556C54.5193 51.7867 54.3195 51.5589 54.0804 51.3722C53.8414 51.1854 53.5688 51.0454 53.2626 50.952C52.9601 50.8549 52.6333 50.8064 52.2823 50.8064C51.6586 50.8064 51.1059 50.9632 50.6241 51.2769C50.1424 51.5869 49.7652 52.0425 49.4926 52.6438C49.22 53.2413 49.0836 53.9714 49.0836 54.8341C49.0836 55.7117 49.22 56.4511 49.4926 57.0524C49.7689 57.6499 50.1461 58.1018 50.6241 58.408C51.1059 58.7105 51.6567 58.8618 52.2767 58.8618C52.6202 58.8618 52.9414 58.817 53.2402 58.7273C53.5427 58.634 53.8134 58.4976 54.0524 58.3184C54.2952 58.1391 54.4987 57.9188 54.663 57.6574C54.8311 57.396 54.9469 57.0972 55.0103 56.7611L57.1054 56.7723C57.027 57.3175 56.8571 57.8292 56.5957 58.3072C56.338 58.7852 56 59.2072 55.5817 59.5732C55.1635 59.9354 54.6742 60.2193 54.1141 60.4247C53.5539 60.6263 52.9321 60.7272 52.2487 60.7272C51.2403 60.7272 50.3403 60.4938 49.5486 60.0269C48.7569 59.5601 48.1332 58.886 47.6776 58.0047C47.222 57.1233 46.9942 56.0665 46.9942 54.8341C46.9942 53.5979 47.2239 52.5411 47.6832 51.6635C48.1425 50.7821 48.7681 50.108 49.5598 49.6412C50.3515 49.1744 51.2478 48.941 52.2487 48.941C52.8873 48.941 53.4811 49.0306 54.03 49.2099C54.579 49.3891 55.0682 49.6524 55.4977 49.9997C55.9272 50.3433 56.2801 50.7653 56.5564 51.2657C56.8365 51.7624 57.0195 52.3301 57.1054 52.9687ZM62.7037 60.7384C61.8635 60.7384 61.1352 60.5535 60.5191 60.1838C59.9029 59.8141 59.4248 59.2968 59.085 58.6321C58.7489 57.9673 58.5808 57.1906 58.5808 56.3017C58.5808 55.4129 58.7489 54.6343 59.085 53.9658C59.4248 53.2973 59.9029 52.7782 60.5191 52.4085C61.1352 52.0388 61.8635 51.8539 62.7037 51.8539C63.544 51.8539 64.2723 52.0388 64.8884 52.4085C65.5046 52.7782 65.9808 53.2973 66.3169 53.9658C66.6567 54.6343 66.8267 55.4129 66.8267 56.3017C66.8267 57.1906 66.6567 57.9673 66.3169 58.6321C65.9808 59.2968 65.5046 59.8141 64.8884 60.1838C64.2723 60.5535 63.544 60.7384 62.7037 60.7384ZM62.715 59.1138C63.1706 59.1138 63.5515 58.9887 63.8577 58.7385C64.164 58.4846 64.3918 58.1447 64.5411 57.719C64.6943 57.2933 64.7708 56.819 64.7708 56.2961C64.7708 55.7696 64.6943 55.2934 64.5411 54.8677C64.3918 54.4382 64.164 54.0965 63.8577 53.8426C63.5515 53.5886 63.1706 53.4616 62.715 53.4616C62.2481 53.4616 61.8597 53.5886 61.5498 53.8426C61.2435 54.0965 61.0139 54.4382 60.8608 54.8677C60.7114 55.2934 60.6367 55.7696 60.6367 56.2961C60.6367 56.819 60.7114 57.2933 60.8608 57.719C61.0139 58.1447 61.2435 58.4846 61.5498 58.7385C61.8597 58.9887 62.2481 59.1138 62.715 59.1138ZM70.6072 55.5287V60.5703H68.5794V51.966H70.5176V53.428H70.6184C70.8163 52.9463 71.1319 52.5635 71.5651 52.2797C72.0021 51.9958 72.5417 51.8539 73.184 51.8539C73.7778 51.8539 74.2951 51.9809 74.7357 52.2348C75.1801 52.4888 75.5237 52.8566 75.7665 53.3384C76.0129 53.8202 76.1343 54.4046 76.1306 55.0918V60.5703H74.1027V55.4055C74.1027 54.8303 73.9534 54.3803 73.6546 54.0554C73.3596 53.7305 72.9506 53.5681 72.4278 53.5681C72.073 53.5681 71.7575 53.6465 71.4811 53.8033C71.2085 53.9565 70.9937 54.1787 70.8369 54.47C70.6838 54.7613 70.6072 55.1142 70.6072 55.5287ZM82.5202 51.966V53.5345H77.5738V51.966H82.5202ZM78.795 49.9045H80.8228V57.9823C80.8228 58.2549 80.8639 58.464 80.9461 58.6097C81.032 58.7516 81.144 58.8487 81.2822 58.901C81.4204 58.9533 81.5735 58.9794 81.7415 58.9794C81.8685 58.9794 81.9843 58.9701 82.0888 58.9514C82.1971 58.9327 82.2793 58.9159 82.3353 58.901L82.677 60.4863C82.5687 60.5236 82.4137 60.5647 82.2121 60.6095C82.0141 60.6543 81.7714 60.6805 81.4838 60.688C80.9759 60.7029 80.5185 60.6263 80.1114 60.4583C79.7043 60.2865 79.3813 60.0213 79.1423 59.6628C78.907 59.3043 78.7912 58.8562 78.795 58.3184V49.9045ZM84.2477 60.5703V51.966H86.2139V53.4H86.3035C86.4604 52.9033 86.7293 52.5205 87.1102 52.2517C87.4948 51.979 87.9336 51.8427 88.4266 51.8427C88.5386 51.8427 88.6637 51.8483 88.8019 51.8595C88.9438 51.867 89.0615 51.8801 89.1548 51.8987V53.7641C89.0689 53.7343 88.9326 53.7081 88.7459 53.6857C88.5629 53.6596 88.3855 53.6465 88.2137 53.6465C87.844 53.6465 87.5116 53.7268 87.2166 53.8874C86.9253 54.0442 86.6956 54.2627 86.5276 54.5428C86.3595 54.8229 86.2755 55.1459 86.2755 55.5119V60.5703H84.2477ZM92.8556 60.744C92.3103 60.744 91.8192 60.6469 91.3823 60.4527C90.9491 60.2547 90.6055 59.9635 90.3516 59.5788C90.1013 59.1941 89.9762 58.7199 89.9762 58.1559C89.9762 57.6705 90.0659 57.269 90.2451 56.9516C90.4244 56.6341 90.669 56.3802 90.979 56.1897C91.2889 55.9992 91.6381 55.8555 92.0265 55.7584C92.4186 55.6575 92.8238 55.5847 93.2421 55.5399C93.7462 55.4876 94.1552 55.4409 94.4689 55.3999C94.7826 55.355 95.0104 55.2878 95.1523 55.1982C95.2979 55.1048 95.3708 54.9611 95.3708 54.7669V54.7332C95.3708 54.3112 95.2457 53.9845 94.9954 53.7529C94.7452 53.5214 94.3848 53.4056 93.9143 53.4056C93.4176 53.4056 93.0236 53.5139 92.7323 53.7305C92.4448 53.9471 92.2506 54.2029 92.1497 54.498L90.2563 54.2291C90.4057 53.7062 90.6522 53.2693 90.9958 52.9183C91.3393 52.5635 91.7595 52.2983 92.2562 52.1228C92.7529 51.9436 93.3018 51.8539 93.9031 51.8539C94.3176 51.8539 94.7303 51.9025 95.1411 51.9996C95.5519 52.0967 95.9272 52.2573 96.267 52.4813C96.6069 52.7017 96.8795 53.0023 97.0849 53.3832C97.294 53.7641 97.3986 54.2403 97.3986 54.8117V60.5703H95.4492V59.3883H95.382C95.2587 59.6273 95.0851 59.8514 94.861 60.0605C94.6407 60.2659 94.3624 60.4321 94.0263 60.5591C93.694 60.6823 93.3037 60.744 92.8556 60.744ZM93.3821 59.2539C93.7892 59.2539 94.1421 59.1736 94.4409 59.013C94.7396 58.8487 94.9693 58.6321 95.1299 58.3632C95.2942 58.0943 95.3764 57.8012 95.3764 57.4837V56.4698C95.3129 56.5221 95.2046 56.5706 95.0515 56.6154C94.9021 56.6603 94.734 56.6995 94.5473 56.7331C94.3606 56.7667 94.1757 56.7966 93.9927 56.8227C93.8097 56.8489 93.651 56.8713 93.5166 56.8899C93.2141 56.931 92.9433 56.9982 92.7043 57.0916C92.4653 57.185 92.2767 57.3157 92.1385 57.4837C92.0004 57.648 91.9313 57.8609 91.9313 58.1223C91.9313 58.4958 92.0676 58.7777 92.3402 58.9682C92.6128 59.1587 92.9601 59.2539 93.3821 59.2539ZM103.222 60.7384C102.363 60.7384 101.626 60.5498 101.01 60.1726C100.397 59.7954 99.9248 59.2744 99.5924 58.6097C99.2638 57.9412 99.0995 57.1719 99.0995 56.3017C99.0995 55.4279 99.2675 54.6567 99.6037 53.9882C99.9398 53.316 100.414 52.7932 101.027 52.4197C101.643 52.0425 102.371 51.8539 103.211 51.8539C103.91 51.8539 104.528 51.9828 105.065 52.2404C105.607 52.4944 106.038 52.8548 106.359 53.3216C106.681 53.7847 106.864 54.3262 106.908 54.9461H104.97C104.892 54.5316 104.705 54.1861 104.41 53.9098C104.119 53.6297 103.728 53.4896 103.239 53.4896C102.825 53.4896 102.461 53.6017 102.147 53.8258C101.833 54.0461 101.589 54.3635 101.413 54.7781C101.241 55.1926 101.155 55.6893 101.155 56.2681C101.155 56.8545 101.241 57.3586 101.413 57.7806C101.585 58.1989 101.826 58.5219 102.136 58.7497C102.449 58.9738 102.817 59.0858 103.239 59.0858C103.538 59.0858 103.805 59.0298 104.04 58.9178C104.279 58.802 104.479 58.6358 104.64 58.4192C104.8 58.2026 104.91 57.9393 104.97 57.6294H106.908C106.86 58.2381 106.681 58.7777 106.371 59.2483C106.061 59.7151 105.639 60.0811 105.105 60.3462C104.571 60.6077 103.943 60.7384 103.222 60.7384ZM112.902 51.966V53.5345H107.955V51.966H112.902ZM109.176 49.9045H111.204V57.9823C111.204 58.2549 111.245 58.464 111.328 58.6097C111.413 58.7516 111.525 58.8487 111.664 58.901C111.802 58.9533 111.955 58.9794 112.123 58.9794C112.25 58.9794 112.366 58.9701 112.47 58.9514C112.579 58.9327 112.661 58.9159 112.717 58.901L113.058 60.4863C112.95 60.5236 112.795 60.5647 112.594 60.6095C112.396 60.6543 112.153 60.6805 111.865 60.688C111.357 60.7029 110.9 60.6263 110.493 60.4583C110.086 60.2865 109.763 60.0213 109.524 59.6628C109.288 59.3043 109.173 58.8562 109.176 58.3184V49.9045Z" fill="#FAFAFA"/>
<path d="M29.2409 79.7041V73.1484H30.198V75.5844H30.2556C30.3111 75.482 30.3911 75.3635 30.4957 75.2291C30.6003 75.0946 30.7454 74.9773 30.931 74.877C31.1167 74.7745 31.3621 74.7233 31.6673 74.7233C32.0642 74.7233 32.4184 74.8236 32.73 75.0242C33.0416 75.2248 33.2859 75.514 33.463 75.8917C33.6423 76.2694 33.7319 76.7239 33.7319 77.2553C33.7319 77.7867 33.6434 78.2423 33.4662 78.6222C33.2891 78.9999 33.0458 79.2912 32.7364 79.496C32.427 79.6988 32.0738 79.8001 31.6769 79.8001C31.3781 79.8001 31.1338 79.75 30.9438 79.6497C30.756 79.5494 30.6088 79.432 30.5021 79.2976C30.3954 79.1631 30.3132 79.0436 30.2556 78.9391H30.1756V79.7041H29.2409ZM30.1788 77.2457C30.1788 77.5914 30.2289 77.8945 30.3292 78.1548C30.4295 78.4152 30.5746 78.619 30.7646 78.7662C30.9545 78.9113 31.1871 78.9839 31.4624 78.9839C31.7484 78.9839 31.9874 78.9081 32.1794 78.7566C32.3715 78.6029 32.5166 78.3949 32.6148 78.1324C32.7151 77.8699 32.7652 77.5744 32.7652 77.2457C32.7652 76.9213 32.7161 76.6301 32.618 76.3718C32.5219 76.1136 32.3768 75.9098 32.1826 75.7604C31.9906 75.6111 31.7505 75.5364 31.4624 75.5364C31.185 75.5364 30.9502 75.6079 30.7582 75.7508C30.5682 75.8938 30.4242 76.0933 30.326 76.3494C30.2279 76.6055 30.1788 76.9043 30.1788 77.2457ZM35.2624 81.5479C35.1195 81.5479 34.9893 81.5362 34.8719 81.5127C34.7545 81.4913 34.667 81.4679 34.6094 81.4423L34.8399 80.658C35.0149 80.705 35.1707 80.7252 35.3073 80.7188C35.4438 80.7124 35.5644 80.6612 35.669 80.5652C35.7757 80.4691 35.8696 80.3123 35.9507 80.0946L36.0691 79.7681L34.2701 74.7873H35.2944L36.5396 78.6029H36.5909L37.8361 74.7873H38.8636L36.8373 80.3603C36.7434 80.6164 36.6239 80.833 36.4788 81.0101C36.3337 81.1894 36.1609 81.3238 35.9603 81.4134C35.7597 81.5031 35.5271 81.5479 35.2624 81.5479Z" fill="#94969C"/>
<g clip-path="url(#clip0_1059_12145)">
<path d="M67.4858 78.7815H67.1431V78.373H67.4858V78.7815ZM67.1431 81.0022V79.0162H67.4858V81.0022H67.1431Z" fill="#6D6E70"/>
<path d="M68.1527 79.993C68.1527 80.1948 68.2184 80.3638 68.3452 80.5C68.472 80.6361 68.6316 80.7019 68.8147 80.7019C68.9837 80.7019 69.1339 80.6315 69.2607 80.4953C69.3921 80.3592 69.4532 80.1995 69.4532 80.0164C69.4532 79.8192 69.3874 79.6549 69.2607 79.5141C69.1339 79.3732 68.979 79.3075 68.8053 79.3075C68.6222 79.3075 68.472 79.3732 68.3405 79.5047C68.2137 79.6361 68.148 79.8005 68.148 79.9883L68.1527 79.993ZM69.4391 80.9976V80.7535C69.3499 80.8474 69.2513 80.9178 69.1433 80.9695C69.0353 81.0164 68.918 81.0446 68.7959 81.0446C68.5095 81.0446 68.2701 80.946 68.0823 80.7441C67.8945 80.5469 67.7959 80.2934 67.7959 79.9976C67.7959 79.8568 67.8194 79.7253 67.8663 79.5986C67.9133 79.4718 67.9837 79.3638 68.0682 79.2699C68.1621 79.1667 68.2701 79.0868 68.3828 79.0399C68.4954 78.9883 68.6269 78.9648 68.7724 78.9648C68.9039 78.9648 69.0213 78.9883 69.1339 79.0399C69.2466 79.0868 69.3452 79.162 69.4391 79.2606V78.3779H69.7865V81.007H69.4391V80.9976Z" fill="#6D6E70"/>
<path d="M71.674 79.8134C71.6317 79.6491 71.5566 79.5224 71.4533 79.4332C71.35 79.344 71.2233 79.297 71.0731 79.297C70.9228 79.297 70.7914 79.344 70.6834 79.4332C70.5754 79.5271 70.4956 79.6491 70.4533 79.8087H71.674V79.8134ZM70.4439 80.1374C70.4721 80.3017 70.5472 80.4379 70.6599 80.5411C70.7773 80.6444 70.9134 80.6961 71.0684 80.6961C71.181 80.6961 71.2843 80.6679 71.3782 80.6116C71.4721 80.5552 71.5472 80.4754 71.5989 80.3721H71.9885C71.8993 80.5928 71.7773 80.7618 71.6177 80.8792C71.458 80.9965 71.2749 81.0529 71.0637 81.0529C70.9228 81.0529 70.7914 81.0247 70.674 80.9731C70.5566 80.9214 70.4533 80.8416 70.3547 80.7383C70.2655 80.6397 70.1951 80.5271 70.1435 80.4003C70.0918 80.2688 70.0684 80.1374 70.0684 80.0059C70.0684 79.8651 70.0918 79.7336 70.1388 79.6163C70.1857 79.4942 70.2515 79.3815 70.3407 79.2829C70.4346 79.1749 70.5425 79.0951 70.6646 79.0388C70.782 78.9825 70.9134 78.959 71.0543 78.959C71.2233 78.959 71.3782 79.0012 71.5238 79.0811C71.6693 79.1609 71.7867 79.2735 71.8806 79.4191C71.9369 79.5083 71.9792 79.6069 72.0026 79.7149C72.0308 79.8228 72.0402 79.9449 72.0402 80.0857V80.1421H70.4299L70.4439 80.1374Z" fill="#6D6E70"/>
<path d="M72.6132 79.993C72.6132 80.1949 72.6789 80.3639 72.8056 80.5001C72.9324 80.6362 73.092 80.7019 73.2751 80.7019C73.4441 80.7019 73.5944 80.6315 73.7211 80.4954C73.8526 80.3592 73.9136 80.1996 73.9136 80.0165C73.9136 79.8193 73.8526 79.655 73.7211 79.5141C73.5944 79.3733 73.4394 79.3076 73.2657 79.3076C73.0826 79.3076 72.9324 79.3733 72.8009 79.5047C72.6742 79.6362 72.6085 79.8005 72.6085 79.9883L72.6132 79.993ZM73.8995 80.9977V80.7536C73.8103 80.8475 73.7117 80.9179 73.6038 80.9695C73.4958 81.0165 73.3784 81.0447 73.2563 81.0447C72.97 81.0447 72.7305 80.9461 72.5427 80.7442C72.3549 80.547 72.2563 80.2935 72.2563 79.9977C72.2563 79.8569 72.2798 79.7254 72.3268 79.5986C72.3737 79.4719 72.4394 79.3639 72.5286 79.27C72.6225 79.1667 72.7305 79.0869 72.8432 79.04C72.9559 78.9883 73.0873 78.9648 73.2329 78.9648C73.3643 78.9648 73.4817 78.9883 73.5944 79.04C73.7024 79.0869 73.8056 79.162 73.8948 79.2606V79.0212H74.2423V81.0071H73.8948L73.8995 80.9977Z" fill="#6D6E70"/>
<path d="M74.5142 80.3547H74.8381C74.8381 80.458 74.8663 80.5472 74.9226 80.613C74.9789 80.6834 75.0494 80.7162 75.1339 80.7162C75.2137 80.7162 75.2794 80.6881 75.3311 80.6411C75.3827 80.5895 75.4062 80.5238 75.4062 80.4439C75.4062 80.3735 75.3874 80.3125 75.3498 80.2655C75.3123 80.2186 75.2559 80.1763 75.1714 80.1435C75.1433 80.1294 75.1057 80.1153 75.0541 80.0965C74.9179 80.0449 74.8334 80.0026 74.7959 79.9698C74.7254 79.9134 74.6785 79.8477 74.6456 79.7773C74.6128 79.7069 74.5987 79.6223 74.5987 79.5284C74.5987 79.3688 74.6503 79.2327 74.763 79.1153C74.871 79.0026 75.0024 78.9463 75.162 78.9463C75.3264 78.9463 75.4531 78.9932 75.5517 79.0965C75.6503 79.1951 75.702 79.336 75.7113 79.5144H75.378C75.3733 79.4392 75.3498 79.3829 75.3076 79.3407C75.2653 79.2984 75.2137 79.2796 75.1433 79.2796C75.0822 79.2796 75.0306 79.3031 74.9883 79.3454C74.9461 79.3876 74.9273 79.4439 74.9273 79.5097C74.9273 79.6223 75.0212 79.7115 75.2043 79.782C75.2559 79.8007 75.2982 79.8195 75.3264 79.8289C75.4719 79.89 75.5752 79.9651 75.6409 80.059C75.702 80.1482 75.7348 80.2702 75.7348 80.4252C75.7348 80.6036 75.6785 80.7491 75.5611 80.8712C75.4437 80.9885 75.2982 81.0496 75.1245 81.0496C74.9461 81.0496 74.8052 80.9885 74.6926 80.8618C74.5846 80.7397 74.5235 80.566 74.5142 80.35V80.3547Z" fill="#6D6E70"/>
<path d="M78.0631 79.4572L78.1617 79.2506H78.3917L78.1382 80.2882C78.1335 80.3069 78.1288 80.3257 78.1288 80.3445C78.1241 80.3633 78.1241 80.3774 78.1241 80.3961C78.1241 80.4525 78.1382 80.4947 78.171 80.5229C78.1992 80.5511 78.2462 80.5652 78.3025 80.5652C78.3588 80.5652 78.4152 80.5511 78.4809 80.5182C78.5419 80.4853 78.6077 80.4431 78.664 80.3821C78.7579 80.2929 78.8283 80.1802 78.88 80.044C78.9316 79.9126 78.9598 79.7717 78.9598 79.6215C78.9598 79.3116 78.8518 79.0581 78.6264 78.8609C78.4058 78.6684 78.1147 78.5699 77.7579 78.5699C77.603 78.5699 77.4621 78.5886 77.3307 78.6215C77.1992 78.6544 77.0771 78.706 76.9645 78.7764C76.7438 78.9126 76.5701 79.0957 76.448 79.3163C76.326 79.5417 76.2649 79.7858 76.2649 80.0581C76.2649 80.2694 76.3025 80.4572 76.3729 80.6168C76.4433 80.7764 76.556 80.9126 76.7063 81.0346C76.8236 81.1285 76.9598 81.199 77.1194 81.2506C77.279 81.3022 77.4433 81.3257 77.6217 81.3257C77.8189 81.3257 78.0067 81.2976 78.1945 81.2365C78.3776 81.1755 78.5513 81.091 78.7016 80.983L78.7955 81.1332C78.6217 81.2647 78.4433 81.368 78.2462 81.4337C78.0537 81.4994 77.8518 81.537 77.6405 81.537C77.4199 81.537 77.218 81.5088 77.0349 81.4525C76.8518 81.3961 76.6875 81.3116 76.5466 81.199C76.3682 81.0581 76.2368 80.8938 76.1476 80.706C76.0584 80.5182 76.0161 80.3069 76.0161 80.0675C76.0161 79.8703 76.0443 79.6825 76.1053 79.5041C76.1663 79.3257 76.2555 79.1614 76.3682 79.0159C76.5372 78.7999 76.7438 78.6403 76.9786 78.5276C77.218 78.4149 77.4809 78.3633 77.772 78.3633C77.9598 78.3633 78.1429 78.3915 78.3119 78.4431C78.4809 78.4994 78.6311 78.5745 78.7532 78.6731C78.9034 78.7952 79.0208 78.9314 79.0959 79.091C79.1757 79.2506 79.2133 79.4196 79.2133 79.6027C79.2133 79.814 79.1757 80.0018 79.1006 80.1708C79.0255 80.3398 78.9222 80.4807 78.7814 80.598C78.7016 80.6638 78.6171 80.7107 78.5232 80.7483C78.4293 80.7811 78.3307 80.7999 78.2321 80.7999C78.1194 80.7999 78.0302 80.7764 77.9739 80.7295C77.9175 80.6825 77.8847 80.6121 77.8847 80.5182V80.4853C77.8189 80.5933 77.7485 80.6731 77.6593 80.7248C77.5748 80.7764 77.4762 80.7999 77.3588 80.7999C77.1804 80.7999 77.0443 80.7483 76.9504 80.645C76.8565 80.5417 76.8095 80.3961 76.8095 80.199C76.8095 79.9173 76.8894 79.6778 77.049 79.4853C77.2086 79.2929 77.4058 79.199 77.6405 79.199C77.7391 79.199 77.8236 79.2224 77.894 79.2647C77.9645 79.3116 78.0208 79.3774 78.0631 79.4666V79.4572ZM77.8987 80.1426L78.002 79.7154C77.9832 79.6074 77.941 79.5276 77.8847 79.4713C77.8236 79.4149 77.7485 79.3821 77.6593 79.3821C77.4997 79.3821 77.3635 79.4619 77.2555 79.6168C77.1476 79.7717 77.0912 79.9642 77.0912 80.1943C77.0912 80.321 77.1194 80.4196 77.1757 80.4853C77.2321 80.5558 77.3119 80.5886 77.4152 80.5886C77.5279 80.5886 77.6311 80.5464 77.7203 80.4619C77.8095 80.3774 77.8706 80.2694 77.9034 80.1379L77.8987 80.1426Z" fill="#6D6E70"/>
<path d="M80.6548 79.6539L80.2651 81.0014H80.0726L79.4106 79.0107H79.7768L80.1712 80.3253L80.5562 79.0107H80.7675L81.1524 80.3253L81.5468 79.0107H81.913L81.2463 81.0014H81.0538L80.6548 79.6539Z" fill="#6D6E70"/>
<path d="M82.3781 80.0065C82.3781 80.2037 82.4391 80.3727 82.5612 80.5042C82.6833 80.6356 82.8335 80.7014 83.0119 80.7014C83.1903 80.7014 83.3405 80.6356 83.4579 80.4995C83.58 80.368 83.6363 80.199 83.6363 80.0018C83.6363 79.8 83.5753 79.6356 83.4579 79.5042C83.3359 79.3727 83.1856 79.307 83.0072 79.307C82.8288 79.307 82.6786 79.3727 82.5565 79.5089C82.4344 79.6403 82.3734 79.8094 82.3734 80.0065H82.3781ZM82.0213 80.0112C82.0213 79.8704 82.0448 79.7389 82.0917 79.6169C82.1387 79.4948 82.2044 79.3868 82.2936 79.2882C82.3922 79.1802 82.5002 79.1004 82.6175 79.0394C82.7396 78.9831 82.8617 78.9502 82.9931 78.9502C83.134 78.9502 83.2607 78.9737 83.3781 79.03C83.4955 79.0817 83.6035 79.1568 83.702 79.2601C83.7959 79.3586 83.8664 79.4713 83.918 79.5981C83.9697 79.7248 83.9931 79.8516 83.9931 79.9878C83.9931 80.1239 83.9697 80.2554 83.9227 80.3868C83.8758 80.5136 83.81 80.6263 83.7255 80.7248C83.6269 80.8375 83.5189 80.922 83.3969 80.9784C83.2748 81.0347 83.1481 81.0629 83.0119 81.0629C82.8711 81.0629 82.7443 81.0347 82.6222 80.9831C82.5049 80.9314 82.3969 80.8516 82.303 80.7483C82.2138 80.6497 82.1434 80.537 82.0917 80.4056C82.0401 80.2788 82.0166 80.1427 82.0166 80.0112H82.0213Z" fill="#6D6E70"/>
<path d="M84.636 81.0022H84.2886V79.0163H84.6125V79.2463C84.6689 79.1571 84.7346 79.0914 84.8097 79.0491C84.8848 79.0069 84.9693 78.9834 85.0679 78.9834V79.359C84.913 79.3731 84.805 79.42 84.7346 79.4998C84.6689 79.5843 84.636 79.7158 84.636 79.8989V81.0069V81.0022Z" fill="#6D6E70"/>
<path d="M85.3169 81.002V78.3682H85.6596V79.9362L86.3404 79.0114H86.7441L86.0399 79.955L86.8709 81.002H86.4296L85.6596 79.9926V81.002H85.3169Z" fill="#6D6E70"/>
<path d="M60.9511 71.5701C59.6131 71.5701 58.7117 72.265 58.7117 73.3729C58.7117 75.5326 61.7915 74.8612 61.7915 76.0114C61.7915 76.387 61.4675 76.5936 60.9323 76.5936C60.322 76.5936 59.4769 76.2368 58.8854 75.6781L58.3643 76.8002C59.0168 77.3823 59.9652 77.7673 60.9182 77.7673C62.1999 77.7673 63.1812 77.1241 63.1812 75.9269C63.1905 73.7297 60.1107 74.3589 60.1107 73.2368C60.1107 72.9082 60.4065 72.7391 60.8478 72.7391C61.3079 72.7391 62.0356 72.9833 62.6459 73.3682L63.1483 72.2274C62.5708 71.8283 61.7586 71.5654 60.9511 71.5654V71.5701Z" fill="white"/>
<path d="M67.6458 77.7295H69.1247L67.8946 75.7154C68.5988 75.3679 68.9744 74.6872 68.9744 73.7482C68.9744 72.3961 68.1153 71.6309 66.6035 71.6309H64.0918V77.7295H65.397V75.9877H66.7256L67.6411 77.7295H67.6458ZM65.397 74.8374V72.7717H66.6035C67.3218 72.7717 67.735 73.1097 67.735 73.7905C67.735 74.4853 67.3218 74.8374 66.6035 74.8374H65.397Z" fill="white"/>
<path d="M76.3546 77.7295V71.6309H74.8992L73.2232 75.3586L71.5377 71.6309H70.0776V77.7295H71.256V73.6168L72.7913 77.1097H73.6457L75.1809 73.6168V77.7295H76.3546Z" fill="white"/>
<path d="M77.0728 71.6309V72.551H78.8944V77.7295H79.8709V72.551H81.7066V71.6309H77.0728Z" fill="#0CA1B6"/>
<path d="M83.7109 73.0584C82.4057 73.0678 81.4902 74.0162 81.4902 75.4199C81.4902 76.8143 82.3823 77.7626 83.7391 77.7626C84.4996 77.7626 85.124 77.4762 85.556 76.9786L85.0536 76.4105C84.7297 76.7579 84.2931 76.9504 83.8142 76.9504C83.1193 76.9504 82.5982 76.5044 82.4527 75.7908H85.7719C85.8893 74.1194 85.2602 73.0537 83.7156 73.0537L83.7109 73.0584ZM82.4292 75.0631C82.5278 74.3213 83.0254 73.8612 83.7156 73.8612C84.4339 73.8612 84.9034 74.3119 84.9362 75.0631H82.4245H82.4292Z" fill="#0CA1B6"/>
<path d="M89.8567 74.4625L90.3778 73.8193C89.974 73.3311 89.3543 73.0635 88.5609 73.0635C87.2557 73.0635 86.3496 74.0212 86.3496 75.425C86.3496 76.8193 87.2557 77.7677 88.5609 77.7677C89.3966 77.7677 90.0304 77.4531 90.4294 76.9039L89.8989 76.3452C89.6031 76.7114 89.1571 76.9039 88.6031 76.9039C87.8426 76.9039 87.298 76.3029 87.298 75.425C87.298 74.547 87.8426 73.9414 88.6031 73.9414C89.1336 73.932 89.5515 74.1339 89.8567 74.4625Z" fill="#0CA1B6"/>
<path d="M94.0355 73.0579C93.2843 73.0579 92.7209 73.3443 92.4064 73.9969V71.2598H91.458V77.7246H92.4064V75.4429C92.4064 74.626 92.8758 74.0062 93.6599 73.9969C94.3219 73.9969 94.7162 74.4241 94.7162 75.1189V77.7246H95.6646V74.8419C95.6646 73.7339 95.0543 73.0579 94.0308 73.0579H94.0355Z" fill="#0CA1B6"/>
<path fill-rule="evenodd" clip-rule="evenodd" d="M50.0586 79.942L49.3826 80.6557L48.6643 79.9092L46.9131 81.7449H51.7816L50.0586 79.942Z" fill="white"/>
<path fill-rule="evenodd" clip-rule="evenodd" d="M49.0963 70.6502C47.2606 72.5845 45.547 74.392 43.6738 76.3403L46.2324 79.0305L43.6597 81.7112L46.1526 81.7582L48.8428 78.9366L46.4484 76.4342L48.9367 73.8192L49.0353 73.7159L49.0963 73.6502V70.6455V70.6502Z" fill="white"/>
<path fill-rule="evenodd" clip-rule="evenodd" d="M50.2093 75.4859C49.9651 75.2371 49.6694 75.1104 49.3172 75.1104C48.9651 75.1104 48.6647 75.2371 48.4158 75.4859C48.1717 75.7488 48.0543 76.0634 48.0543 76.4343C48.0496 76.8052 48.1717 77.115 48.4158 77.3686C48.6647 77.6315 48.9651 77.7582 49.3172 77.7582C49.6694 77.7582 49.9698 77.6315 50.2093 77.3686C50.4534 77.115 50.5802 76.8052 50.5755 76.4343C50.5802 76.0634 50.4534 75.7488 50.2093 75.4859Z" fill="#EF7F1A"/>
<path fill-rule="evenodd" clip-rule="evenodd" d="M49.7393 70.6502C51.5749 72.5845 53.2886 74.392 55.1618 76.3403L52.6031 79.0305L55.1759 81.7112L52.6829 81.7582L49.9928 78.9366L52.3871 76.4342L49.8989 73.8192L49.8003 73.7159L49.7393 73.6502V70.6455V70.6502Z" fill="white"/>
<path fill-rule="evenodd" clip-rule="evenodd" d="M87.1802 80.1438H95.7013V80.0029H87.1802V80.1438Z" fill="#6D6E70"/>
<path fill-rule="evenodd" clip-rule="evenodd" d="M58.3872 80.1438H66.5656V80.0029H58.3872V80.1438Z" fill="#6D6E70"/>
</g>
<defs>
<linearGradient id="paint0_linear_1059_12145" x1="50.1065" y1="2.19066" x2="76.303" y2="38.9503" gradientUnits="userSpaceOnUse">
<stop stop-color="#EB2F96"/>
<stop offset="1" stop-color="#722ED1"/>
</linearGradient>
<clipPath id="clip0_1059_12145">
<rect width="52.1127" height="11.2676" fill="white" transform="translate(43.627 70.5703)"/>
</clipPath>
</defs>
</svg>
