<svg width="149" height="36" viewBox="0 0 149 36" fill="none" xmlns="http://www.w3.org/2000/svg">
<path d="M34.6509 7.87695V32.2529C34.6489 32.8881 34.3949 33.4962 33.9458 33.9453C33.4967 34.3944 32.8886 34.6484 32.2534 34.6504H11.2476C10.6124 34.6484 10.0043 34.3944 9.55518 33.9453C9.10605 33.4962 8.85206 32.8881 8.8501 32.2529V29.25C8.8501 28.7529 9.25343 28.3496 9.75049 28.3496C10.2475 28.3496 10.6509 28.7529 10.6509 29.25V32.25C10.6521 32.4087 10.7154 32.5606 10.8276 32.6729C10.9406 32.7858 11.0937 32.8491 11.2534 32.8496H32.2476C32.4073 32.8491 32.5604 32.7858 32.6733 32.6729C32.758 32.5882 32.815 32.481 32.8384 32.3652L32.8501 32.2471V9.15039H26.8501V3.15039H11.2534L11.1353 3.16211C11.0195 3.1855 10.9123 3.24245 10.8276 3.32715C10.7429 3.41185 10.686 3.51904 10.6626 3.63477L10.6509 3.75293V6.75C10.6509 7.24706 10.2475 7.65039 9.75049 7.65039C9.25343 7.65039 8.8501 7.24706 8.8501 6.75V3.74707C8.85206 3.11194 9.10605 2.50381 9.55518 2.05469C10.0043 1.60558 10.6124 1.35157 11.2476 1.34961H28.1235L34.6509 7.87695ZM9.75049 9.59961C10.1228 9.59961 10.4566 9.8293 10.5903 10.1768L12.0991 14.1006C12.3271 14.6934 12.3918 14.8408 12.4751 14.958C12.5625 15.0808 12.6697 15.188 12.7925 15.2754C12.9096 15.3587 13.0571 15.4234 13.6499 15.6514L17.5737 17.1602C17.9212 17.2939 18.1509 17.6277 18.1509 18C18.1509 18.3723 17.9212 18.7061 17.5737 18.8398L13.6499 20.3486C13.0571 20.5766 12.9096 20.6413 12.7925 20.7246C12.6697 20.812 12.5625 20.9192 12.4751 21.042C12.3918 21.1592 12.3271 21.3066 12.0991 21.8994L10.5903 25.8232C10.4566 26.1707 10.1228 26.4004 9.75049 26.4004C9.37816 26.4004 9.04438 26.1707 8.91064 25.8232L7.40186 21.8994C7.17386 21.3066 7.10919 21.1592 7.02588 21.042C6.93852 20.9192 6.83129 20.812 6.7085 20.7246C6.59133 20.6413 6.44387 20.5766 5.85107 20.3486L1.92725 18.8398C1.57978 18.7061 1.3501 18.3723 1.3501 18C1.3501 17.6277 1.57978 17.2939 1.92725 17.1602L5.85107 15.6514C6.44387 15.4234 6.59133 15.3587 6.7085 15.2754C6.83129 15.188 6.93852 15.0808 7.02588 14.958C7.10919 14.8408 7.17386 14.6934 7.40186 14.1006L8.91064 10.1768L8.96924 10.0527C9.12773 9.77571 9.42445 9.59961 9.75049 9.59961ZM22.5005 24.5996C22.9975 24.5996 23.4009 25.0029 23.4009 25.5C23.4009 25.9971 22.9975 26.4004 22.5005 26.4004H16.5005C16.0034 26.4004 15.6001 25.9971 15.6001 25.5C15.6001 25.0029 16.0034 24.5996 16.5005 24.5996H22.5005ZM9.08154 14.7461C8.88662 15.2529 8.73916 15.6556 8.49365 16.001C8.2896 16.288 8.03844 16.5391 7.75146 16.7432C7.40612 16.9887 7.00337 17.1361 6.49658 17.3311L4.75732 18L6.49658 18.6689C7.00337 18.8639 7.40612 19.0113 7.75146 19.2568C8.03844 19.4609 8.28959 19.712 8.49365 19.999C8.73916 20.3444 8.88662 20.7471 9.08154 21.2539L9.75049 22.9932L10.4194 21.2539C10.6144 20.7471 10.7618 20.3444 11.0073 19.999C11.2114 19.712 11.4625 19.4609 11.7495 19.2568C12.0949 19.0113 12.4976 18.8639 13.0044 18.6689L14.7437 18L13.0044 17.3311C12.4976 17.1361 12.0949 16.9887 11.7495 16.7432C11.4625 16.5391 11.2114 16.288 11.0073 16.001C10.7618 15.6556 10.6144 15.2529 10.4194 14.7461L9.75049 13.0068L9.08154 14.7461ZM27.7505 18.5996C28.2475 18.5996 28.6509 19.0029 28.6509 19.5C28.6509 19.9971 28.2475 20.4004 27.7505 20.4004H20.2505C19.7534 20.4004 19.3501 19.9971 19.3501 19.5C19.3501 19.0029 19.7534 18.5996 20.2505 18.5996H27.7505ZM30.0005 12.5996C30.4975 12.5996 30.9009 13.0029 30.9009 13.5C30.9009 13.9971 30.4975 14.4004 30.0005 14.4004H16.5005C16.0034 14.4004 15.6001 13.9971 15.6001 13.5C15.6001 13.0029 16.0034 12.5996 16.5005 12.5996H30.0005ZM28.6509 7.34961H31.5767L28.6509 4.42383V7.34961Z" fill="url(#paint0_linear_1059_10993)"/>
<path d="M41.339 4.86364H42.7372L45.1683 10.7997H45.2578L47.6889 4.86364H49.0872V12.5H47.9909V6.97408H47.9201L45.668 12.4888H44.7582L42.506 6.97035H42.4352V12.5H41.339V4.86364ZM53.2554 12.5H50.7833V4.86364H53.3337C54.0819 4.86364 54.7245 5.01651 55.2615 5.32227C55.7984 5.62553 56.2098 6.06179 56.4957 6.63104C56.784 7.1978 56.9282 7.87766 56.9282 8.67063C56.9282 9.46609 56.7828 10.1497 56.4919 10.7214C56.2036 11.2931 55.786 11.7331 55.2391 12.0414C54.6922 12.3471 54.031 12.5 53.2554 12.5ZM51.9355 11.4933H53.192C53.7737 11.4933 54.2572 11.3839 54.6425 11.1651C55.0278 10.9439 55.3161 10.6245 55.5076 10.2069C55.699 9.78675 55.7947 9.27468 55.7947 8.67063C55.7947 8.07156 55.699 7.56321 55.5076 7.1456C55.3186 6.72798 55.0365 6.41104 54.6611 6.19478C54.2858 5.97852 53.8197 5.87038 53.2629 5.87038H51.9355V11.4933ZM58.3819 12.5V4.86364H61.1039C61.6955 4.86364 62.1864 4.96555 62.5767 5.16939C62.9695 5.37322 63.2628 5.65536 63.4567 6.0158C63.6506 6.37376 63.7475 6.78764 63.7475 7.25746C63.7475 7.72479 63.6493 8.13619 63.453 8.49165C63.2591 8.84464 62.9657 9.11932 62.573 9.3157C62.1827 9.51207 61.6918 9.61026 61.1001 9.61026H59.0382V8.61843H60.9957C61.3686 8.61843 61.6719 8.56499 61.9055 8.4581C62.1417 8.35121 62.3145 8.19584 62.4238 7.99201C62.5332 7.78817 62.5879 7.54332 62.5879 7.25746C62.5879 6.9691 62.532 6.71928 62.4201 6.50799C62.3107 6.2967 62.138 6.13512 61.9018 6.02326C61.6682 5.90891 61.3612 5.85174 60.9808 5.85174H59.5341V12.5H58.3819ZM62.1516 9.05469L64.0384 12.5H62.7259L60.8764 9.05469H62.1516ZM65.1705 12.5V4.86364H67.8925C68.4866 4.86364 68.9787 4.97177 69.369 5.18803C69.7593 5.4043 70.0514 5.70011 70.2453 6.07546C70.4392 6.44833 70.5361 6.86843 70.5361 7.33576C70.5361 7.80558 70.4379 8.22816 70.2415 8.60352C70.0476 8.97638 69.7543 9.27219 69.3616 9.49094C68.9713 9.70721 68.4803 9.81534 67.8887 9.81534H66.0169V8.83842H67.7843C68.1597 8.83842 68.4642 8.77379 68.6979 8.64453C68.9315 8.51278 69.103 8.33381 69.2124 8.1076C69.3218 7.88139 69.3765 7.62411 69.3765 7.33576C69.3765 7.04741 69.3218 6.79137 69.2124 6.56765C69.103 6.34393 68.9303 6.16868 68.6941 6.0419C68.4605 5.91513 68.1522 5.85174 67.7694 5.85174H66.3227V12.5H65.1705Z" fill="#94969C"/>
<path d="M43.5522 18.5909V29.5H41.576V18.5909H43.5522ZM47.5652 24.706V29.5H45.637V21.3182H47.48V22.7085H47.5759C47.7641 22.2504 48.0642 21.8864 48.4761 21.6165C48.8916 21.3466 49.4047 21.2116 50.0155 21.2116C50.5802 21.2116 51.072 21.3324 51.491 21.5739C51.9136 21.8153 52.2403 22.1651 52.4711 22.6232C52.7055 23.0813 52.8209 23.6371 52.8174 24.2905V29.5H50.8891V24.5888C50.8891 24.0419 50.7471 23.614 50.463 23.305C50.1824 22.9961 49.7936 22.8416 49.2964 22.8416C48.9591 22.8416 48.659 22.9162 48.3962 23.0653C48.137 23.2109 47.9328 23.4222 47.7836 23.6992C47.638 23.9762 47.5652 24.3118 47.5652 24.706ZM58.8932 21.3182V22.8097H54.1897V21.3182H58.8932ZM55.3509 19.358H57.2792V27.0391C57.2792 27.2983 57.3183 27.4972 57.3964 27.6357C57.4781 27.7706 57.5846 27.8629 57.716 27.9126C57.8474 27.9624 57.993 27.9872 58.1528 27.9872C58.2735 27.9872 58.3836 27.9783 58.483 27.9606C58.586 27.9428 58.6641 27.9268 58.7174 27.9126L59.0423 29.4201C58.9394 29.4556 58.792 29.4947 58.6002 29.5373C58.412 29.5799 58.1812 29.6048 57.9077 29.6119C57.4248 29.6261 56.9898 29.5533 56.6027 29.3935C56.2156 29.2301 55.9085 28.978 55.6812 28.6371C55.4575 28.2962 55.3474 27.87 55.3509 27.3587V19.358ZM64.0701 29.6598C63.2498 29.6598 62.5413 29.4893 61.9448 29.1484C61.3517 28.804 60.8954 28.3175 60.5758 27.6889C60.2562 27.0568 60.0964 26.3129 60.0964 25.457C60.0964 24.6154 60.2562 23.8768 60.5758 23.2411C60.8989 22.6019 61.3499 22.1048 61.9288 21.7496C62.5076 21.391 63.1877 21.2116 63.9689 21.2116C64.4732 21.2116 64.949 21.2933 65.3965 21.4567C65.8475 21.6165 66.2452 21.8651 66.5896 22.2024C66.9377 22.5398 67.2111 22.9695 67.41 23.4915C67.6088 24.0099 67.7083 24.6278 67.7083 25.3452V25.9364H61.0019V24.6367H65.8599C65.8563 24.2674 65.7764 23.9389 65.6202 23.6513C65.4639 23.3601 65.2455 23.131 64.965 22.9641C64.688 22.7972 64.3649 22.7138 63.9955 22.7138C63.6014 22.7138 63.2551 22.8097 62.9568 23.0014C62.6585 23.1896 62.4259 23.4382 62.259 23.7472C62.0957 24.0526 62.0122 24.3881 62.0087 24.7539V25.8885C62.0087 26.3643 62.0957 26.7727 62.2697 27.1136C62.4437 27.451 62.6869 27.7102 62.9994 27.8913C63.3119 28.0689 63.6777 28.1577 64.0967 28.1577C64.3773 28.1577 64.6312 28.1186 64.8585 28.0405C65.0857 27.9588 65.2828 27.8398 65.4497 27.6836C65.6166 27.5273 65.7427 27.3338 65.8279 27.103L67.6284 27.3054C67.5147 27.7812 67.2981 28.1967 66.9785 28.5518C66.6624 28.9034 66.2576 29.1768 65.764 29.3722C65.2704 29.5639 64.7058 29.6598 64.0701 29.6598ZM71.2978 18.5909V29.5H69.3696V18.5909H71.2978ZM75.239 18.5909V29.5H73.3107V18.5909H75.239ZM77.2518 29.5V21.3182H79.1801V29.5H77.2518ZM78.2213 20.157C77.9159 20.157 77.6531 20.0558 77.4329 19.8533C77.2128 19.6474 77.1027 19.4006 77.1027 19.1129C77.1027 18.8217 77.2128 18.5749 77.4329 18.3725C77.6531 18.1665 77.9159 18.0636 78.2213 18.0636C78.5302 18.0636 78.793 18.1665 79.0096 18.3725C79.2298 18.5749 79.3399 18.8217 79.3399 19.1129C79.3399 19.4006 79.2298 19.6474 79.0096 19.8533C78.793 20.0558 78.5302 20.157 78.2213 20.157ZM90.6159 22.2717H88.6237C88.5669 21.945 88.4621 21.6555 88.3094 21.4034C88.1567 21.1477 87.9667 20.9311 87.7395 20.7536C87.5122 20.576 87.253 20.4428 86.9618 20.354C86.6741 20.2617 86.3634 20.2156 86.0296 20.2156C85.4366 20.2156 84.911 20.3647 84.4529 20.663C83.9948 20.9577 83.6361 21.391 83.3769 21.9627C83.1177 22.5309 82.9881 23.2251 82.9881 24.0455C82.9881 24.88 83.1177 25.5831 83.3769 26.1548C83.6397 26.723 83.9984 27.1527 84.4529 27.4439C84.911 27.7315 85.4348 27.8754 86.0243 27.8754C86.351 27.8754 86.6564 27.8327 86.9405 27.7475C87.2281 27.6587 87.4856 27.5291 87.7128 27.3587C87.9437 27.1882 88.1372 26.9787 88.2935 26.7301C88.4533 26.4815 88.5633 26.1974 88.6237 25.8778L90.6159 25.8885C90.5413 26.407 90.3797 26.8935 90.1312 27.348C89.8861 27.8026 89.5648 28.2038 89.167 28.5518C88.7693 28.8963 88.3041 29.1662 87.7714 29.3615C87.2388 29.5533 86.6475 29.6491 85.9976 29.6491C85.0388 29.6491 84.183 29.4272 83.4302 28.9833C82.6773 28.5394 82.0843 27.8984 81.6511 27.0604C81.2178 26.2223 81.0012 25.2173 81.0012 24.0455C81.0012 22.87 81.2196 21.8651 81.6564 21.0305C82.0932 20.1925 82.688 19.5515 83.4408 19.1076C84.1937 18.6637 85.0459 18.4418 85.9976 18.4418C86.6049 18.4418 87.1695 18.527 87.6915 18.6974C88.2136 18.8679 88.6787 19.1183 89.0871 19.4485C89.4955 19.7752 89.8311 20.1765 90.0939 20.6523C90.3602 21.1246 90.5342 21.6644 90.6159 22.2717ZM95.9393 29.6598C95.1403 29.6598 94.4478 29.484 93.8619 29.1325C93.276 28.7809 92.8214 28.2891 92.4983 27.657C92.1787 27.0249 92.0189 26.2862 92.0189 25.4411C92.0189 24.5959 92.1787 23.8555 92.4983 23.2198C92.8214 22.5842 93.276 22.0906 93.8619 21.739C94.4478 21.3874 95.1403 21.2116 95.9393 21.2116C96.7383 21.2116 97.4308 21.3874 98.0167 21.739C98.6027 22.0906 99.0554 22.5842 99.375 23.2198C99.6982 23.8555 99.8598 24.5959 99.8598 25.4411C99.8598 26.2862 99.6982 27.0249 99.375 27.657C99.0554 28.2891 98.6027 28.7809 98.0167 29.1325C97.4308 29.484 96.7383 29.6598 95.9393 29.6598ZM95.95 28.1151C96.3832 28.1151 96.7454 27.9961 97.0366 27.7582C97.3278 27.5167 97.5444 27.1935 97.6865 26.7887C97.8321 26.3839 97.9049 25.9329 97.9049 25.4357C97.9049 24.935 97.8321 24.4822 97.6865 24.0774C97.5444 23.669 97.3278 23.3441 97.0366 23.1026C96.7454 22.8612 96.3832 22.7404 95.95 22.7404C95.5061 22.7404 95.1368 22.8612 94.842 23.1026C94.5508 23.3441 94.3324 23.669 94.1868 24.0774C94.0448 24.4822 93.9738 24.935 93.9738 25.4357C93.9738 25.9329 94.0448 26.3839 94.1868 26.7887C94.3324 27.1935 94.5508 27.5167 94.842 27.7582C95.1368 27.9961 95.5061 28.1151 95.95 28.1151ZM103.455 24.706V29.5H101.526V21.3182H103.369V22.7085H103.465C103.654 22.2504 103.954 21.8864 104.366 21.6165C104.781 21.3466 105.294 21.2116 105.905 21.2116C106.47 21.2116 106.961 21.3324 107.38 21.5739C107.803 21.8153 108.13 22.1651 108.361 22.6232C108.595 23.0813 108.71 23.6371 108.707 24.2905V29.5H106.779V24.5888C106.779 24.0419 106.636 23.614 106.352 23.305C106.072 22.9961 105.683 22.8416 105.186 22.8416C104.848 22.8416 104.548 22.9162 104.286 23.0653C104.026 23.2109 103.822 23.4222 103.673 23.6992C103.527 23.9762 103.455 24.3118 103.455 24.706ZM114.783 21.3182V22.8097H110.079V21.3182H114.783ZM111.24 19.358H113.169V27.0391C113.169 27.2983 113.208 27.4972 113.286 27.6357C113.367 27.7706 113.474 27.8629 113.605 27.9126C113.737 27.9624 113.882 27.9872 114.042 27.9872C114.163 27.9872 114.273 27.9783 114.372 27.9606C114.475 27.9428 114.554 27.9268 114.607 27.9126L114.932 29.4201C114.829 29.4556 114.681 29.4947 114.49 29.5373C114.301 29.5799 114.071 29.6048 113.797 29.6119C113.314 29.6261 112.879 29.5533 112.492 29.3935C112.105 29.2301 111.798 28.978 111.571 28.6371C111.347 28.2962 111.237 27.87 111.24 27.3587V19.358ZM116.425 29.5V21.3182H118.295V22.6818H118.38C118.529 22.2095 118.785 21.8455 119.147 21.5898C119.513 21.3306 119.93 21.201 120.399 21.201C120.506 21.201 120.624 21.2063 120.756 21.217C120.891 21.2241 121.003 21.2365 121.091 21.2543V23.0281C121.01 22.9996 120.88 22.9748 120.703 22.9535C120.529 22.9286 120.36 22.9162 120.197 22.9162C119.845 22.9162 119.529 22.9925 119.248 23.1452C118.971 23.2944 118.753 23.5021 118.593 23.7685C118.433 24.0348 118.354 24.342 118.354 24.69V29.5H116.425ZM124.61 29.6651C124.092 29.6651 123.625 29.5728 123.21 29.3881C122.798 29.1999 122.471 28.9229 122.229 28.5572C121.991 28.1914 121.873 27.7404 121.873 27.2042C121.873 26.7425 121.958 26.3608 122.128 26.0589C122.299 25.7571 122.531 25.5156 122.826 25.3345C123.121 25.1534 123.453 25.0167 123.822 24.9244C124.195 24.8285 124.58 24.7592 124.978 24.7166C125.457 24.6669 125.846 24.6225 126.145 24.5835C126.443 24.5408 126.659 24.4769 126.794 24.3917C126.933 24.3029 127.002 24.1662 127.002 23.9815V23.9496C127.002 23.5483 126.883 23.2376 126.645 23.0174C126.407 22.7972 126.065 22.6871 125.617 22.6871C125.145 22.6871 124.77 22.7901 124.493 22.9961C124.22 23.2021 124.035 23.4453 123.939 23.7259L122.139 23.4702C122.281 22.973 122.515 22.5575 122.842 22.2237C123.169 21.8864 123.568 21.6342 124.04 21.4673C124.513 21.2969 125.035 21.2116 125.607 21.2116C126.001 21.2116 126.393 21.2578 126.784 21.3501C127.174 21.4425 127.531 21.5952 127.854 21.8082C128.178 22.0178 128.437 22.3036 128.632 22.6658C128.831 23.0281 128.93 23.4808 128.93 24.0241V29.5H127.077V28.3761H127.013C126.896 28.6033 126.73 28.8164 126.517 29.0153C126.308 29.2106 126.043 29.3686 125.724 29.4893C125.408 29.6065 125.037 29.6651 124.61 29.6651ZM125.111 28.2482C125.498 28.2482 125.834 28.1719 126.118 28.0192C126.402 27.8629 126.62 27.657 126.773 27.4013C126.929 27.1456 127.007 26.8668 127.007 26.565V25.6009C126.947 25.6506 126.844 25.6967 126.699 25.7393C126.556 25.782 126.397 25.8192 126.219 25.8512C126.042 25.8832 125.866 25.9116 125.692 25.9364C125.518 25.9613 125.367 25.9826 125.239 26.0004C124.951 26.0394 124.694 26.1033 124.467 26.1921C124.239 26.2809 124.06 26.4052 123.929 26.565C123.797 26.7212 123.732 26.9237 123.732 27.1722C123.732 27.5273 123.861 27.7955 124.12 27.9766C124.38 28.1577 124.71 28.2482 125.111 28.2482ZM134.468 29.6598C133.651 29.6598 132.95 29.4805 132.364 29.1218C131.782 28.7631 131.333 28.2678 131.017 27.6357C130.704 27 130.548 26.2685 130.548 25.4411C130.548 24.6101 130.708 23.8768 131.027 23.2411C131.347 22.6019 131.798 22.1048 132.38 21.7496C132.966 21.391 133.659 21.2116 134.458 21.2116C135.122 21.2116 135.709 21.3342 136.221 21.5792C136.736 21.8207 137.146 22.1634 137.451 22.6072C137.757 23.0476 137.931 23.5625 137.973 24.152H136.13C136.056 23.7578 135.878 23.4293 135.597 23.1665C135.32 22.9002 134.949 22.767 134.484 22.767C134.09 22.767 133.744 22.8736 133.445 23.0866C133.147 23.2962 132.915 23.598 132.748 23.9922C132.584 24.3864 132.503 24.8587 132.503 25.4091C132.503 25.9666 132.584 26.446 132.748 26.8473C132.911 27.245 133.14 27.5522 133.435 27.7688C133.733 27.9819 134.083 28.0884 134.484 28.0884C134.768 28.0884 135.022 28.0352 135.246 27.9286C135.473 27.8185 135.663 27.6605 135.816 27.4545C135.969 27.2486 136.073 26.9982 136.13 26.7035H137.973C137.927 27.2823 137.757 27.7955 137.462 28.2429C137.167 28.6868 136.766 29.0348 136.258 29.2869C135.75 29.5355 135.154 29.6598 134.468 29.6598ZM143.672 21.3182V22.8097H138.969V21.3182H143.672ZM140.13 19.358H142.058V27.0391C142.058 27.2983 142.097 27.4972 142.175 27.6357C142.257 27.7706 142.364 27.8629 142.495 27.9126C142.626 27.9624 142.772 27.9872 142.932 27.9872C143.052 27.9872 143.163 27.9783 143.262 27.9606C143.365 27.9428 143.443 27.9268 143.496 27.9126L143.821 29.4201C143.718 29.4556 143.571 29.4947 143.379 29.5373C143.191 29.5799 142.96 29.6048 142.687 29.6119C142.204 29.6261 141.769 29.5533 141.382 29.3935C140.995 29.2301 140.687 28.978 140.46 28.6371C140.236 28.2962 140.126 27.87 140.13 27.3587V19.358Z" fill="#FAFAFA"/>
<defs>
<linearGradient id="paint0_linear_1059_10993" x1="10.1254" y1="1.49976" x2="33.3757" y2="34.1252" gradientUnits="userSpaceOnUse">
<stop stop-color="#EB2F96"/>
<stop offset="1" stop-color="#722ED1"/>
</linearGradient>
</defs>
</svg>
