<svg width="592" height="512" viewBox="0 0 592 512" fill="none" xmlns="http://www.w3.org/2000/svg">
<rect width="592" height="512" fill="#0C111D"/>
<path d="M20 26C20 22.6863 22.6863 20 26 20H566C569.314 20 572 22.6863 572 26V66H20V26Z" fill="#1F242F"/>
<path d="M33.1477 49V37.3636H37.5114C38.4053 37.3636 39.1553 37.5303 39.7614 37.8636C40.3712 38.197 40.8314 38.6553 41.142 39.2386C41.4564 39.8182 41.6136 40.4773 41.6136 41.2159C41.6136 41.9621 41.4564 42.625 41.142 43.2045C40.8277 43.7841 40.3636 44.2405 39.75 44.5739C39.1364 44.9034 38.3807 45.0682 37.483 45.0682H34.5909V43.3352H37.1989C37.7216 43.3352 38.1496 43.2443 38.483 43.0625C38.8163 42.8807 39.0625 42.6307 39.2216 42.3125C39.3845 41.9943 39.4659 41.6288 39.4659 41.2159C39.4659 40.803 39.3845 40.4394 39.2216 40.125C39.0625 39.8106 38.8144 39.5663 38.4773 39.392C38.1439 39.214 37.714 39.125 37.1875 39.125H35.2557V49H33.1477ZM43.3537 49V40.2727H45.348V41.7273H45.4389C45.598 41.2235 45.8707 40.8352 46.2571 40.5625C46.6473 40.286 47.0923 40.1477 47.5923 40.1477C47.706 40.1477 47.8329 40.1534 47.973 40.1648C48.117 40.1723 48.2363 40.1856 48.331 40.2045V42.0966C48.2438 42.0663 48.1056 42.0398 47.9162 42.017C47.7306 41.9905 47.5507 41.9773 47.3764 41.9773C47.0014 41.9773 46.6643 42.0587 46.3651 42.2216C46.0696 42.3807 45.8366 42.6023 45.6662 42.8864C45.4957 43.1705 45.4105 43.4981 45.4105 43.8693V49H43.3537ZM53.2017 49.1705C52.3267 49.1705 51.571 48.9886 50.9347 48.625C50.3021 48.2576 49.8153 47.7386 49.4744 47.0682C49.1335 46.3939 48.9631 45.6004 48.9631 44.6875C48.9631 43.7898 49.1335 43.0019 49.4744 42.3239C49.8191 41.642 50.3002 41.1117 50.9176 40.733C51.535 40.3504 52.2604 40.1591 53.0938 40.1591C53.6316 40.1591 54.1392 40.2462 54.6165 40.4205C55.0975 40.5909 55.5218 40.8561 55.8892 41.2159C56.2604 41.5758 56.5521 42.0341 56.7642 42.5909C56.9763 43.1439 57.0824 43.803 57.0824 44.5682V45.1989H49.929V43.8125H55.1108C55.107 43.4186 55.0218 43.0682 54.8551 42.7614C54.6884 42.4508 54.4555 42.2064 54.1562 42.0284C53.8608 41.8504 53.5161 41.7614 53.1222 41.7614C52.7017 41.7614 52.3324 41.8636 52.0142 42.0682C51.696 42.2689 51.4479 42.5341 51.2699 42.8636C51.0956 43.1894 51.0066 43.5473 51.0028 43.9375V45.1477C51.0028 45.6553 51.0956 46.0909 51.2812 46.4545C51.4669 46.8144 51.7263 47.0909 52.0597 47.2841C52.393 47.4735 52.7831 47.5682 53.2301 47.5682C53.5294 47.5682 53.8002 47.5265 54.0426 47.4432C54.285 47.3561 54.4953 47.2292 54.6733 47.0625C54.8513 46.8958 54.9858 46.6894 55.0767 46.4432L56.9972 46.6591C56.8759 47.1667 56.6449 47.6098 56.304 47.9886C55.9669 48.3636 55.535 48.6553 55.0085 48.8636C54.482 49.0682 53.8797 49.1705 53.2017 49.1705ZM58.8224 49V40.2727H60.7884V41.7557H60.8906C61.0724 41.2557 61.3736 40.8655 61.794 40.5852C62.2145 40.3011 62.7164 40.1591 63.2997 40.1591C63.8906 40.1591 64.3887 40.303 64.794 40.5909C65.2031 40.875 65.491 41.2633 65.6577 41.7557H65.7486C65.9418 41.2708 66.2675 40.8845 66.7259 40.5966C67.188 40.3049 67.7353 40.1591 68.3679 40.1591C69.1709 40.1591 69.8262 40.4129 70.3338 40.9205C70.8414 41.428 71.0952 42.1686 71.0952 43.142V49H69.0327V43.4602C69.0327 42.9186 68.8887 42.5227 68.6009 42.2727C68.313 42.0189 67.9607 41.892 67.544 41.892C67.0478 41.892 66.6596 42.0473 66.3793 42.358C66.1027 42.6648 65.9645 43.0644 65.9645 43.5568V49H63.9474V43.375C63.9474 42.9242 63.8111 42.5644 63.5384 42.2955C63.2694 42.0265 62.9171 41.892 62.4815 41.892C62.1861 41.892 61.9171 41.9678 61.6747 42.1193C61.4323 42.267 61.2391 42.4773 61.0952 42.75C60.9512 43.0189 60.8793 43.3333 60.8793 43.6932V49H58.8224ZM73.1818 49V40.2727H75.2386V49H73.1818ZM74.2159 39.0341C73.8902 39.0341 73.6098 38.9261 73.375 38.7102C73.1402 38.4905 73.0227 38.2273 73.0227 37.9205C73.0227 37.6098 73.1402 37.3466 73.375 37.1307C73.6098 36.911 73.8902 36.8011 74.2159 36.8011C74.5455 36.8011 74.8258 36.911 75.0568 37.1307C75.2917 37.3466 75.4091 37.6098 75.4091 37.9205C75.4091 38.2273 75.2917 38.4905 75.0568 38.7102C74.8258 38.9261 74.5455 39.0341 74.2159 39.0341ZM81.2173 49.1705C80.3423 49.1705 79.5866 48.9886 78.9503 48.625C78.3177 48.2576 77.831 47.7386 77.4901 47.0682C77.1491 46.3939 76.9787 45.6004 76.9787 44.6875C76.9787 43.7898 77.1491 43.0019 77.4901 42.3239C77.8348 41.642 78.3158 41.1117 78.9332 40.733C79.5507 40.3504 80.276 40.1591 81.1094 40.1591C81.6473 40.1591 82.1548 40.2462 82.6321 40.4205C83.1132 40.5909 83.5374 40.8561 83.9048 41.2159C84.276 41.5758 84.5677 42.0341 84.7798 42.5909C84.992 43.1439 85.098 43.803 85.098 44.5682V45.1989H77.9446V43.8125H83.1264C83.1226 43.4186 83.0374 43.0682 82.8707 42.7614C82.7041 42.4508 82.4711 42.2064 82.1719 42.0284C81.8764 41.8504 81.5317 41.7614 81.1378 41.7614C80.7173 41.7614 80.348 41.8636 80.0298 42.0682C79.7116 42.2689 79.4635 42.5341 79.2855 42.8636C79.1113 43.1894 79.0223 43.5473 79.0185 43.9375V45.1477C79.0185 45.6553 79.1113 46.0909 79.2969 46.4545C79.4825 46.8144 79.742 47.0909 80.0753 47.2841C80.4086 47.4735 80.7988 47.5682 81.2457 47.5682C81.545 47.5682 81.8158 47.5265 82.0582 47.4432C82.3007 47.3561 82.5109 47.2292 82.6889 47.0625C82.867 46.8958 83.0014 46.6894 83.0923 46.4432L85.0128 46.6591C84.8916 47.1667 84.6605 47.6098 84.3196 47.9886C83.9825 48.3636 83.5507 48.6553 83.0241 48.8636C82.4976 49.0682 81.8954 49.1705 81.2173 49.1705ZM86.8381 49V40.2727H88.8324V41.7273H88.9233C89.0824 41.2235 89.3551 40.8352 89.7415 40.5625C90.1316 40.286 90.5767 40.1477 91.0767 40.1477C91.1903 40.1477 91.3172 40.1534 91.4574 40.1648C91.6013 40.1723 91.7206 40.1856 91.8153 40.2045V42.0966C91.7282 42.0663 91.59 42.0398 91.4006 42.017C91.215 41.9905 91.035 41.9773 90.8608 41.9773C90.4858 41.9773 90.1487 42.0587 89.8494 42.2216C89.554 42.3807 89.321 42.6023 89.1506 42.8864C88.9801 43.1705 88.8949 43.4981 88.8949 43.8693V49H86.8381ZM97.2415 49V37.3636H99.3494V42.2898H104.741V37.3636H106.855V49H104.741V44.0568H99.3494V49H97.2415ZM112.92 49.1705C112.045 49.1705 111.29 48.9886 110.653 48.625C110.021 48.2576 109.534 47.7386 109.193 47.0682C108.852 46.3939 108.682 45.6004 108.682 44.6875C108.682 43.7898 108.852 43.0019 109.193 42.3239C109.538 41.642 110.019 41.1117 110.636 40.733C111.254 40.3504 111.979 40.1591 112.812 40.1591C113.35 40.1591 113.858 40.2462 114.335 40.4205C114.816 40.5909 115.241 40.8561 115.608 41.2159C115.979 41.5758 116.271 42.0341 116.483 42.5909C116.695 43.1439 116.801 43.803 116.801 44.5682V45.1989H109.648V43.8125H114.83C114.826 43.4186 114.741 43.0682 114.574 42.7614C114.407 42.4508 114.174 42.2064 113.875 42.0284C113.58 41.8504 113.235 41.7614 112.841 41.7614C112.42 41.7614 112.051 41.8636 111.733 42.0682C111.415 42.2689 111.167 42.5341 110.989 42.8636C110.814 43.1894 110.725 43.5473 110.722 43.9375V45.1477C110.722 45.6553 110.814 46.0909 111 46.4545C111.186 46.8144 111.445 47.0909 111.778 47.2841C112.112 47.4735 112.502 47.5682 112.949 47.5682C113.248 47.5682 113.519 47.5265 113.761 47.4432C114.004 47.3561 114.214 47.2292 114.392 47.0625C114.57 46.8958 114.705 46.6894 114.795 46.4432L116.716 46.6591C116.595 47.1667 116.364 47.6098 116.023 47.9886C115.686 48.3636 115.254 48.6553 114.727 48.8636C114.201 49.0682 113.598 49.1705 112.92 49.1705ZM121.053 49.1761C120.5 49.1761 120.001 49.0777 119.558 48.8807C119.119 48.6799 118.77 48.3845 118.513 47.9943C118.259 47.6042 118.132 47.1231 118.132 46.5511C118.132 46.0587 118.223 45.6515 118.405 45.3295C118.587 45.0076 118.835 44.75 119.149 44.5568C119.464 44.3636 119.818 44.2178 120.212 44.1193C120.609 44.017 121.02 43.9432 121.445 43.8977C121.956 43.8447 122.371 43.7973 122.689 43.7557C123.007 43.7102 123.238 43.642 123.382 43.5511C123.53 43.4564 123.604 43.3106 123.604 43.1136V43.0795C123.604 42.6515 123.477 42.3201 123.223 42.0852C122.969 41.8504 122.604 41.733 122.126 41.733C121.623 41.733 121.223 41.8428 120.928 42.0625C120.636 42.2822 120.439 42.5417 120.337 42.8409L118.416 42.5682C118.568 42.0379 118.818 41.5947 119.166 41.2386C119.515 40.8788 119.941 40.6098 120.445 40.4318C120.948 40.25 121.505 40.1591 122.115 40.1591C122.536 40.1591 122.954 40.2083 123.371 40.3068C123.787 40.4053 124.168 40.5682 124.513 40.7955C124.857 41.0189 125.134 41.3239 125.342 41.7102C125.554 42.0966 125.661 42.5795 125.661 43.1591V49H123.683V47.8011H123.615C123.49 48.0436 123.314 48.2708 123.087 48.483C122.863 48.6913 122.581 48.8598 122.24 48.9886C121.903 49.1136 121.507 49.1761 121.053 49.1761ZM121.587 47.6648C122 47.6648 122.357 47.5833 122.661 47.4205C122.964 47.2538 123.196 47.0341 123.359 46.7614C123.526 46.4886 123.609 46.1913 123.609 45.8693V44.8409C123.545 44.8939 123.435 44.9432 123.28 44.9886C123.128 45.0341 122.958 45.0739 122.768 45.108C122.579 45.142 122.392 45.1723 122.206 45.1989C122.02 45.2254 121.859 45.2481 121.723 45.267C121.416 45.3087 121.142 45.3769 120.899 45.4716C120.657 45.5663 120.465 45.6989 120.325 45.8693C120.185 46.036 120.115 46.2519 120.115 46.517C120.115 46.8958 120.253 47.1818 120.53 47.375C120.806 47.5682 121.159 47.6648 121.587 47.6648ZM129.786 37.3636V49H127.729V37.3636H129.786ZM136.259 40.2727V41.8636H131.241V40.2727H136.259ZM132.48 38.1818H134.537V46.375C134.537 46.6515 134.579 46.8636 134.662 47.0114C134.749 47.1553 134.863 47.2538 135.003 47.3068C135.143 47.3598 135.298 47.3864 135.469 47.3864C135.598 47.3864 135.715 47.3769 135.821 47.358C135.931 47.339 136.014 47.322 136.071 47.3068L136.418 48.9148C136.308 48.9527 136.151 48.9943 135.946 49.0398C135.745 49.0852 135.499 49.1117 135.207 49.1193C134.692 49.1345 134.228 49.0568 133.815 48.8864C133.402 48.7121 133.075 48.4432 132.832 48.0795C132.594 47.7159 132.476 47.2614 132.48 46.7159V38.1818ZM140.223 43.8864V49H138.166V37.3636H140.178V41.7557H140.28C140.484 41.2633 140.801 40.875 141.229 40.5909C141.661 40.303 142.21 40.1591 142.876 40.1591C143.482 40.1591 144.011 40.286 144.462 40.5398C144.912 40.7936 145.261 41.1648 145.507 41.6534C145.757 42.142 145.882 42.7386 145.882 43.4432V49H143.825V43.7614C143.825 43.1742 143.674 42.7178 143.371 42.392C143.071 42.0625 142.651 41.8977 142.109 41.8977C141.746 41.8977 141.42 41.9773 141.132 42.1364C140.848 42.2917 140.625 42.517 140.462 42.8125C140.303 43.108 140.223 43.4659 140.223 43.8864ZM153.533 49H151.283L155.379 37.3636H157.982L162.084 49H159.834L156.726 39.75H156.635L153.533 49ZM153.607 44.4375H159.743V46.1307H153.607V44.4375ZM165.582 37.3636V49H163.526V37.3636H165.582ZM169.754 37.3636V49H167.697V37.3636H169.754ZM171.869 49V40.2727H173.926V49H171.869ZM172.903 39.0341C172.578 39.0341 172.297 38.9261 172.062 38.7102C171.828 38.4905 171.71 38.2273 171.71 37.9205C171.71 37.6098 171.828 37.3466 172.062 37.1307C172.297 36.911 172.578 36.8011 172.903 36.8011C173.233 36.8011 173.513 36.911 173.744 37.1307C173.979 37.3466 174.097 37.6098 174.097 37.9205C174.097 38.2273 173.979 38.4905 173.744 38.7102C173.513 38.9261 173.233 39.0341 172.903 39.0341ZM178.553 49.1761C178 49.1761 177.501 49.0777 177.058 48.8807C176.619 48.6799 176.27 48.3845 176.013 47.9943C175.759 47.6042 175.632 47.1231 175.632 46.5511C175.632 46.0587 175.723 45.6515 175.905 45.3295C176.087 45.0076 176.335 44.75 176.649 44.5568C176.964 44.3636 177.318 44.2178 177.712 44.1193C178.109 44.017 178.52 43.9432 178.945 43.8977C179.456 43.8447 179.871 43.7973 180.189 43.7557C180.507 43.7102 180.738 43.642 180.882 43.5511C181.03 43.4564 181.104 43.3106 181.104 43.1136V43.0795C181.104 42.6515 180.977 42.3201 180.723 42.0852C180.469 41.8504 180.104 41.733 179.626 41.733C179.123 41.733 178.723 41.8428 178.428 42.0625C178.136 42.2822 177.939 42.5417 177.837 42.8409L175.916 42.5682C176.068 42.0379 176.318 41.5947 176.666 41.2386C177.015 40.8788 177.441 40.6098 177.945 40.4318C178.448 40.25 179.005 40.1591 179.615 40.1591C180.036 40.1591 180.454 40.2083 180.871 40.3068C181.287 40.4053 181.668 40.5682 182.013 40.7955C182.357 41.0189 182.634 41.3239 182.842 41.7102C183.054 42.0966 183.161 42.5795 183.161 43.1591V49H181.183V47.8011H181.115C180.99 48.0436 180.814 48.2708 180.587 48.483C180.363 48.6913 180.081 48.8598 179.74 48.9886C179.403 49.1136 179.007 49.1761 178.553 49.1761ZM179.087 47.6648C179.5 47.6648 179.857 47.5833 180.161 47.4205C180.464 47.2538 180.696 47.0341 180.859 46.7614C181.026 46.4886 181.109 46.1913 181.109 45.8693V44.8409C181.045 44.8939 180.935 44.9432 180.78 44.9886C180.628 45.0341 180.458 45.0739 180.268 45.108C180.079 45.142 179.892 45.1723 179.706 45.1989C179.52 45.2254 179.359 45.2481 179.223 45.267C178.916 45.3087 178.642 45.3769 178.399 45.4716C178.157 45.5663 177.965 45.6989 177.825 45.8693C177.685 46.036 177.615 46.2519 177.615 46.517C177.615 46.8958 177.753 47.1818 178.03 47.375C178.306 47.5682 178.659 47.6648 179.087 47.6648ZM187.286 43.8864V49H185.229V40.2727H187.195V41.7557H187.297C187.498 41.267 187.818 40.8788 188.257 40.5909C188.7 40.303 189.248 40.1591 189.899 40.1591C190.501 40.1591 191.026 40.2879 191.473 40.5455C191.924 40.803 192.272 41.1761 192.518 41.6648C192.768 42.1534 192.892 42.7462 192.888 43.4432V49H190.831V43.7614C190.831 43.178 190.679 42.7216 190.376 42.392C190.077 42.0625 189.662 41.8977 189.132 41.8977C188.772 41.8977 188.452 41.9773 188.172 42.1364C187.895 42.2917 187.678 42.517 187.518 42.8125C187.363 43.108 187.286 43.4659 187.286 43.8864ZM198.786 49.1705C197.914 49.1705 197.166 48.9792 196.541 48.5966C195.92 48.214 195.441 47.6856 195.104 47.0114C194.77 46.3333 194.604 45.553 194.604 44.6705C194.604 43.7841 194.774 43.0019 195.115 42.3239C195.456 41.642 195.937 41.1117 196.558 40.733C197.183 40.3504 197.922 40.1591 198.774 40.1591C199.482 40.1591 200.109 40.2898 200.655 40.5511C201.204 40.8087 201.642 41.1742 201.967 41.6477C202.293 42.1174 202.479 42.6667 202.524 43.2955H200.558C200.479 42.875 200.289 42.5246 199.99 42.2443C199.695 41.9602 199.299 41.8182 198.803 41.8182C198.382 41.8182 198.013 41.9318 197.695 42.1591C197.376 42.3826 197.128 42.7045 196.95 43.125C196.776 43.5455 196.689 44.0492 196.689 44.6364C196.689 45.2311 196.776 45.7424 196.95 46.1705C197.125 46.5947 197.369 46.9223 197.683 47.1534C198.001 47.3807 198.375 47.4943 198.803 47.4943C199.106 47.4943 199.376 47.4375 199.615 47.3239C199.857 47.2064 200.06 47.0379 200.223 46.8182C200.386 46.5985 200.498 46.3314 200.558 46.017H202.524C202.475 46.6345 202.293 47.1818 201.979 47.6591C201.664 48.1326 201.236 48.5038 200.695 48.7727C200.153 49.0379 199.517 49.1705 198.786 49.1705ZM208.077 49.1705C207.202 49.1705 206.446 48.9886 205.81 48.625C205.177 48.2576 204.69 47.7386 204.349 47.0682C204.009 46.3939 203.838 45.6004 203.838 44.6875C203.838 43.7898 204.009 43.0019 204.349 42.3239C204.694 41.642 205.175 41.1117 205.793 40.733C206.41 40.3504 207.135 40.1591 207.969 40.1591C208.507 40.1591 209.014 40.2462 209.491 40.4205C209.973 40.5909 210.397 40.8561 210.764 41.2159C211.135 41.5758 211.427 42.0341 211.639 42.5909C211.851 43.1439 211.957 43.803 211.957 44.5682V45.1989H204.804V43.8125H209.986C209.982 43.4186 209.897 43.0682 209.73 42.7614C209.563 42.4508 209.33 42.2064 209.031 42.0284C208.736 41.8504 208.391 41.7614 207.997 41.7614C207.577 41.7614 207.207 41.8636 206.889 42.0682C206.571 42.2689 206.323 42.5341 206.145 42.8636C205.971 43.1894 205.882 43.5473 205.878 43.9375V45.1477C205.878 45.6553 205.971 46.0909 206.156 46.4545C206.342 46.8144 206.601 47.0909 206.935 47.2841C207.268 47.4735 207.658 47.5682 208.105 47.5682C208.404 47.5682 208.675 47.5265 208.918 47.4432C209.16 47.3561 209.37 47.2292 209.548 47.0625C209.726 46.8958 209.861 46.6894 209.952 46.4432L211.872 46.6591C211.751 47.1667 211.52 47.6098 211.179 47.9886C210.842 48.3636 210.41 48.6553 209.884 48.8636C209.357 49.0682 208.755 49.1705 208.077 49.1705Z" fill="#CECFD2"/>
<path d="M232 32.5H253C258.799 32.5 263.5 37.201 263.5 43C263.5 48.799 258.799 53.5 253 53.5H232C226.201 53.5 221.5 48.799 221.5 43C221.5 37.201 226.201 32.5 232 32.5Z" fill="#161B26"/>
<path d="M232 32.5H253C258.799 32.5 263.5 37.201 263.5 43C263.5 48.799 258.799 53.5 253 53.5H232C226.201 53.5 221.5 48.799 221.5 43C221.5 37.201 226.201 32.5 232 32.5Z" stroke="#333741"/>
<path d="M230.927 38.2727L233.356 45.3807H233.454L235.883 38.2727H237.306L234.165 47H232.644L229.503 38.2727H230.927ZM238.447 47V46.0455L241.4 42.9858C241.715 42.6534 241.975 42.3622 242.18 42.1122C242.387 41.8594 242.542 41.6193 242.644 41.392C242.747 41.1648 242.798 40.9233 242.798 40.6676C242.798 40.3778 242.73 40.1278 242.593 39.9176C242.457 39.7045 242.271 39.5412 242.035 39.4276C241.799 39.3111 241.534 39.2528 241.238 39.2528C240.926 39.2528 240.653 39.3168 240.42 39.4446C240.187 39.5724 240.008 39.7528 239.883 39.9858C239.758 40.2187 239.695 40.4915 239.695 40.804H238.438C238.438 40.2727 238.561 39.8082 238.805 39.4105C239.049 39.0128 239.384 38.7045 239.811 38.4858C240.237 38.2642 240.721 38.1534 241.264 38.1534C241.812 38.1534 242.295 38.2628 242.713 38.4815C243.133 38.6974 243.461 38.9929 243.697 39.3679C243.933 39.7401 244.051 40.1605 244.051 40.6293C244.051 40.9531 243.99 41.2699 243.867 41.5795C243.748 41.8892 243.539 42.2344 243.241 42.6151C242.943 42.9929 242.528 43.4517 241.997 43.9915L240.262 45.8068V45.8707H244.191V47H238.447ZM246.663 47.081C246.43 47.081 246.23 46.9986 246.062 46.8338C245.894 46.6662 245.811 46.4645 245.811 46.2287C245.811 45.9957 245.894 45.7969 246.062 45.6321C246.23 45.4645 246.43 45.3807 246.663 45.3807C246.896 45.3807 247.096 45.4645 247.264 45.6321C247.431 45.7969 247.515 45.9957 247.515 46.2287C247.515 46.3849 247.475 46.5284 247.396 46.6591C247.319 46.7869 247.217 46.8892 247.089 46.9659C246.961 47.0426 246.819 47.081 246.663 47.081ZM251.927 47.1449C251.253 47.142 250.678 46.9645 250.201 46.6122C249.724 46.2599 249.358 45.7472 249.106 45.0739C248.853 44.4006 248.726 43.5895 248.726 42.6406C248.726 41.6946 248.853 40.8864 249.106 40.2159C249.361 39.5455 249.728 39.0341 250.205 38.6818C250.685 38.3295 251.259 38.1534 251.927 38.1534C252.594 38.1534 253.167 38.331 253.644 38.6861C254.121 39.0384 254.486 39.5497 254.739 40.2202C254.995 40.8878 255.123 41.6946 255.123 42.6406C255.123 43.5923 254.996 44.4048 254.743 45.0781C254.491 45.7486 254.126 46.2614 253.648 46.6165C253.171 46.9688 252.597 47.1449 251.927 47.1449ZM251.927 46.0071C252.518 46.0071 252.979 45.7188 253.312 45.142C253.647 44.5653 253.814 43.7315 253.814 42.6406C253.814 41.9162 253.738 41.304 253.584 40.804C253.434 40.3011 253.216 39.9205 252.932 39.6619C252.651 39.4006 252.316 39.2699 251.927 39.2699C251.339 39.2699 250.877 39.5597 250.542 40.1392C250.206 40.7187 250.037 41.5526 250.035 42.6406C250.035 43.3679 250.11 43.983 250.26 44.4858C250.414 44.9858 250.631 45.3651 250.912 45.6236C251.194 45.8793 251.532 46.0071 251.927 46.0071Z" fill="#CECFD2"/>
<mask id="path-5-inside-1_948_6154" fill="white">
<path d="M20 65H370V497H20V65Z"/>
</mask>
<path d="M20 65H370V497H20V65Z" fill="#161B26"/>
<path d="M20 65V64H19V65H20ZM370 65H371V64H370V65ZM370 497V498H371V497H370ZM20 497H19V498H20V497ZM20 65V66H370V65V64H20V65ZM370 65H369V497H370H371V65H370ZM370 497V496H20V497V498H370V497ZM20 497H21V65H20H19V497H20Z" fill="#333741" mask="url(#path-5-inside-1_948_6154)"/>
<path d="M176.199 166.35H208.999C209.309 166.35 209.608 166.465 209.839 166.673L231.427 186.102C231.568 186.229 231.649 186.41 231.649 186.6V229.8C231.649 233.031 229.03 235.65 225.799 235.65H176.199C172.968 235.65 170.349 233.031 170.349 229.8V172.2C170.349 168.969 172.968 166.35 176.199 166.35Z" stroke="#333741" stroke-width="2.7"/>
<path d="M209 165.9V179.4C209 183.377 212.224 186.6 216.2 186.6H232" stroke="#333741" stroke-width="2.7"/>
<rect x="159.601" y="197.2" width="46.8" height="29.2" rx="3.6" fill="#D92D20"/>
<path d="M166.499 218.8V205.709H171.663C172.656 205.709 173.502 205.899 174.201 206.278C174.9 206.653 175.433 207.175 175.799 207.844C176.17 208.509 176.355 209.276 176.355 210.145C176.355 211.014 176.168 211.781 175.793 212.446C175.418 213.111 174.874 213.629 174.163 213.999C173.455 214.37 172.599 214.555 171.593 214.555H168.301V212.337H171.146C171.678 212.337 172.117 212.246 172.462 212.063C172.812 211.875 173.072 211.617 173.242 211.289C173.417 210.957 173.504 210.575 173.504 210.145C173.504 209.71 173.417 209.331 173.242 209.007C173.072 208.679 172.812 208.426 172.462 208.247C172.113 208.063 171.67 207.972 171.133 207.972H169.266V218.8H166.499ZM182.794 218.8H178.153V205.709H182.832C184.149 205.709 185.282 205.971 186.232 206.495C187.183 207.015 187.914 207.763 188.425 208.739C188.941 209.715 189.198 210.882 189.198 212.242C189.198 213.605 188.941 214.777 188.425 215.757C187.914 216.737 187.178 217.489 186.22 218.014C185.265 218.538 184.123 218.8 182.794 218.8ZM180.921 216.428H182.678C183.497 216.428 184.185 216.283 184.743 215.994C185.306 215.7 185.727 215.246 186.009 214.632C186.294 214.014 186.437 213.217 186.437 212.242C186.437 211.274 186.294 210.484 186.009 209.87C185.727 209.256 185.308 208.805 184.75 208.515C184.191 208.225 183.503 208.08 182.685 208.08H180.921V216.428ZM191.249 218.8V205.709H199.916V207.991H194.016V211.11H199.341V213.392H194.016V218.8H191.249Z" fill="white"/>
<path d="M156.359 272V261.818H162.464V262.912H157.592V266.352H162.007V267.446H157.592V272H156.359ZM165.809 261.818V272H164.576V261.818H165.809ZM169.295 261.818V272H168.122V261.818H169.295ZM174.646 272.159C173.91 272.159 173.275 271.997 172.742 271.672C172.211 271.344 171.802 270.886 171.514 270.3C171.229 269.71 171.086 269.024 171.086 268.241C171.086 267.459 171.229 266.77 171.514 266.173C171.802 265.573 172.203 265.106 172.717 264.771C173.234 264.433 173.837 264.264 174.526 264.264C174.924 264.264 175.317 264.33 175.705 264.463C176.092 264.596 176.445 264.811 176.764 265.109C177.082 265.404 177.335 265.795 177.524 266.283C177.713 266.77 177.808 267.37 177.808 268.082V268.58H171.921V267.565H176.614C176.614 267.134 176.528 266.75 176.356 266.412C176.187 266.074 175.945 265.807 175.63 265.612C175.319 265.416 174.951 265.318 174.526 265.318C174.059 265.318 173.655 265.434 173.313 265.666C172.975 265.895 172.715 266.193 172.533 266.561C172.35 266.929 172.259 267.323 172.259 267.744V268.42C172.259 268.997 172.359 269.486 172.558 269.887C172.76 270.285 173.04 270.588 173.398 270.797C173.756 271.002 174.172 271.105 174.646 271.105C174.954 271.105 175.232 271.062 175.481 270.976C175.733 270.886 175.95 270.754 176.132 270.578C176.314 270.399 176.455 270.177 176.555 269.912L177.688 270.23C177.569 270.615 177.368 270.953 177.087 271.244C176.805 271.533 176.457 271.758 176.043 271.92C175.628 272.08 175.163 272.159 174.646 272.159ZM183.689 272V261.818H187.129C187.928 261.818 188.581 261.962 189.088 262.251C189.599 262.536 189.976 262.922 190.222 263.409C190.467 263.896 190.59 264.44 190.59 265.04C190.59 265.64 190.467 266.185 190.222 266.675C189.98 267.166 189.605 267.557 189.098 267.849C188.591 268.137 187.941 268.281 187.149 268.281H184.683V267.188H187.109C187.656 267.188 188.095 267.093 188.427 266.904C188.758 266.715 188.999 266.46 189.148 266.138C189.3 265.814 189.377 265.447 189.377 265.04C189.377 264.632 189.3 264.268 189.148 263.946C188.999 263.625 188.757 263.373 188.422 263.19C188.087 263.005 187.643 262.912 187.09 262.912H184.922V272H183.689ZM192.417 272V264.364H193.55V265.517H193.63C193.769 265.139 194.021 264.833 194.385 264.597C194.75 264.362 195.161 264.244 195.618 264.244C195.705 264.244 195.812 264.246 195.941 264.249C196.071 264.253 196.169 264.258 196.235 264.264V265.457C196.195 265.447 196.104 265.433 195.961 265.413C195.822 265.389 195.675 265.378 195.519 265.378C195.148 265.378 194.816 265.456 194.525 265.612C194.236 265.764 194.008 265.976 193.839 266.248C193.673 266.516 193.59 266.823 193.59 267.168V272H192.417ZM200.595 272.159C199.859 272.159 199.224 271.997 198.691 271.672C198.16 271.344 197.751 270.886 197.463 270.3C197.178 269.71 197.035 269.024 197.035 268.241C197.035 267.459 197.178 266.77 197.463 266.173C197.751 265.573 198.152 265.106 198.666 264.771C199.183 264.433 199.786 264.264 200.476 264.264C200.873 264.264 201.266 264.33 201.654 264.463C202.042 264.596 202.395 264.811 202.713 265.109C203.031 265.404 203.285 265.795 203.473 266.283C203.662 266.77 203.757 267.37 203.757 268.082V268.58H197.87V267.565H202.564C202.564 267.134 202.477 266.75 202.305 266.412C202.136 266.074 201.894 265.807 201.579 265.612C201.268 265.416 200.9 265.318 200.476 265.318C200.008 265.318 199.604 265.434 199.263 265.666C198.924 265.895 198.664 266.193 198.482 266.561C198.3 266.929 198.209 267.323 198.209 267.744V268.42C198.209 268.997 198.308 269.486 198.507 269.887C198.709 270.285 198.989 270.588 199.347 270.797C199.705 271.002 200.121 271.105 200.595 271.105C200.903 271.105 201.182 271.062 201.43 270.976C201.682 270.886 201.899 270.754 202.081 270.578C202.264 270.399 202.405 270.177 202.504 269.912L203.638 270.23C203.518 270.615 203.318 270.953 203.036 271.244C202.754 271.533 202.406 271.758 201.992 271.92C201.578 272.08 201.112 272.159 200.595 272.159ZM211.554 264.364L208.73 272H207.536L204.713 264.364H205.985L208.093 270.449H208.173L210.281 264.364H211.554ZM213.102 272V264.364H214.275V272H213.102ZM213.699 263.091C213.47 263.091 213.273 263.013 213.107 262.857C212.945 262.701 212.864 262.514 212.864 262.295C212.864 262.077 212.945 261.889 213.107 261.734C213.273 261.578 213.47 261.5 213.699 261.5C213.927 261.5 214.123 261.578 214.285 261.734C214.451 261.889 214.534 262.077 214.534 262.295C214.534 262.514 214.451 262.701 214.285 262.857C214.123 263.013 213.927 263.091 213.699 263.091ZM219.626 272.159C218.89 272.159 218.256 271.997 217.722 271.672C217.192 271.344 216.782 270.886 216.494 270.3C216.209 269.71 216.066 269.024 216.066 268.241C216.066 267.459 216.209 266.77 216.494 266.173C216.782 265.573 217.183 265.106 217.697 264.771C218.214 264.433 218.817 264.264 219.507 264.264C219.905 264.264 220.297 264.33 220.685 264.463C221.073 264.596 221.426 264.811 221.744 265.109C222.062 265.404 222.316 265.795 222.505 266.283C222.694 266.77 222.788 267.37 222.788 268.082V268.58H216.902V267.565H221.595C221.595 267.134 221.509 266.75 221.336 266.412C221.167 266.074 220.925 265.807 220.611 265.612C220.299 265.416 219.931 265.318 219.507 265.318C219.04 265.318 218.635 265.434 218.294 265.666C217.956 265.895 217.696 266.193 217.513 266.561C217.331 266.929 217.24 267.323 217.24 267.744V268.42C217.24 268.997 217.339 269.486 217.538 269.887C217.74 270.285 218.02 270.588 218.378 270.797C218.736 271.002 219.152 271.105 219.626 271.105C219.934 271.105 220.213 271.062 220.461 270.976C220.713 270.886 220.93 270.754 221.113 270.578C221.295 270.399 221.436 270.177 221.535 269.912L222.669 270.23C222.549 270.615 222.349 270.953 222.067 271.244C221.785 271.533 221.437 271.758 221.023 271.92C220.609 272.08 220.143 272.159 219.626 272.159ZM226.303 272L223.976 264.364H225.209L226.86 270.21H226.939L228.57 264.364H229.823L231.434 270.19H231.513L233.164 264.364H234.397L232.07 272H230.917L229.246 266.134H229.127L227.456 272H226.303Z" fill="#CECFD2"/>
<g opacity="0.2">
<path d="M163.75 426.666V405.833M163.75 364.166V343.333M153.333 353.75H174.167M153.333 416.25H174.167M199.167 347.5L191.941 366.287C190.766 369.342 190.179 370.869 189.265 372.154C188.455 373.293 187.46 374.288 186.321 375.098C185.036 376.011 183.509 376.599 180.454 377.774L161.667 385L180.454 392.225C183.509 393.4 185.036 393.988 186.321 394.902C187.46 395.711 188.455 396.706 189.265 397.845C190.179 399.13 190.766 400.658 191.941 403.713L199.167 422.5L206.393 403.713C207.568 400.658 208.155 399.13 209.069 397.845C209.879 396.706 210.874 395.711 212.012 394.902C213.297 393.988 214.825 393.4 217.88 392.225L236.667 385L217.88 377.774C214.825 376.599 213.297 376.011 212.012 375.098C210.874 374.288 209.879 373.293 209.069 372.154C208.155 370.869 207.568 369.342 206.393 366.287L199.167 347.5Z" stroke="#CECFD2" stroke-width="5.55556" stroke-linecap="round" stroke-linejoin="round"/>
</g>
<mask id="path-14-inside-2_948_6154" fill="white">
<path d="M370 65H572V101H370V65Z"/>
</mask>
<path d="M370 65H572V101H370V65Z" fill="#1F242F"/>
<path d="M572 65H573V64H572V65ZM572 101V102H573V101H572ZM370 65V66H572V65V64H370V65ZM572 65H571V101H572H573V65H572ZM572 101V100H370V101V102H572V101Z" fill="#333741" mask="url(#path-14-inside-2_948_6154)"/>
<path d="M393.575 81.1293H392.024C391.964 80.7978 391.853 80.5062 391.691 80.2543C391.529 80.0024 391.33 79.7886 391.094 79.6129C390.859 79.4373 390.596 79.3047 390.304 79.2152C390.016 79.1257 389.709 79.081 389.384 79.081C388.798 79.081 388.272 79.2285 387.808 79.5234C387.348 79.8184 386.983 80.2509 386.714 80.821C386.449 81.3911 386.317 82.0871 386.317 82.9091C386.317 83.7377 386.449 84.437 386.714 85.0071C386.983 85.5772 387.349 86.008 387.813 86.2997C388.277 86.5914 388.799 86.7372 389.379 86.7372C389.701 86.7372 390.006 86.6941 390.294 86.608C390.586 86.5185 390.849 86.3875 391.085 86.2152C391.32 86.0429 391.519 85.8324 391.681 85.5838C391.847 85.3319 391.961 85.0436 392.024 84.7188L393.575 84.7237C393.492 85.2242 393.332 85.6849 393.093 86.1058C392.858 86.5234 392.554 86.8847 392.183 87.1896C391.815 87.4912 391.394 87.7249 390.92 87.8906C390.446 88.0563 389.929 88.1392 389.369 88.1392C388.488 88.1392 387.702 87.9304 387.013 87.5128C386.323 87.0919 385.78 86.4903 385.382 85.7081C384.988 84.9259 384.79 83.9929 384.79 82.9091C384.79 81.822 384.989 80.889 385.387 80.1101C385.785 79.3279 386.328 78.728 387.018 78.3104C387.707 77.8894 388.491 77.679 389.369 77.679C389.91 77.679 390.413 77.7569 390.881 77.9126C391.351 78.0651 391.774 78.2905 392.148 78.5888C392.523 78.8838 392.833 79.245 393.078 79.6726C393.323 80.0968 393.489 80.5824 393.575 81.1293ZM398.511 88.1541C397.795 88.1541 397.17 87.9901 396.637 87.6619C396.103 87.3338 395.689 86.8748 395.394 86.2848C395.099 85.6948 394.951 85.0054 394.951 84.2166C394.951 83.4245 395.099 82.7318 395.394 82.1385C395.689 81.5452 396.103 81.0845 396.637 80.7564C397.17 80.4283 397.795 80.2642 398.511 80.2642C399.227 80.2642 399.852 80.4283 400.385 80.7564C400.919 81.0845 401.333 81.5452 401.628 82.1385C401.923 82.7318 402.07 83.4245 402.07 84.2166C402.07 85.0054 401.923 85.6948 401.628 86.2848C401.333 86.8748 400.919 87.3338 400.385 87.6619C399.852 87.9901 399.227 88.1541 398.511 88.1541ZM398.516 86.9062C398.98 86.9062 399.364 86.7836 399.669 86.5384C399.974 86.2931 400.2 85.9666 400.345 85.5589C400.494 85.1513 400.569 84.7022 400.569 84.2116C400.569 83.7244 400.494 83.277 400.345 82.8693C400.2 82.4583 399.974 82.1286 399.669 81.88C399.364 81.6314 398.98 81.5071 398.516 81.5071C398.048 81.5071 397.661 81.6314 397.352 81.88C397.048 82.1286 396.82 82.4583 396.671 82.8693C396.526 83.277 396.453 83.7244 396.453 84.2116C396.453 84.7022 396.526 85.1513 396.671 85.5589C396.82 85.9666 397.048 86.2931 397.352 86.5384C397.661 86.7836 398.048 86.9062 398.516 86.9062ZM405.216 83.4659V88H403.73V80.3636H405.157V81.6065H405.251C405.427 81.2022 405.702 80.8774 406.076 80.6321C406.454 80.3868 406.93 80.2642 407.503 80.2642C408.024 80.2642 408.479 80.3736 408.87 80.5923C409.261 80.8078 409.565 81.1293 409.78 81.5568C409.996 81.9844 410.103 82.513 410.103 83.1428V88H408.617V83.3217C408.617 82.7682 408.473 82.3357 408.184 82.0241C407.896 81.7093 407.5 81.5518 406.996 81.5518C406.651 81.5518 406.345 81.6264 406.076 81.7756C405.811 81.9247 405.601 82.1435 405.445 82.4318C405.292 82.7169 405.216 83.0616 405.216 83.4659ZM415.662 80.3636V81.5568H411.49V80.3636H415.662ZM412.609 78.5341H414.096V85.7578C414.096 86.0462 414.139 86.2633 414.225 86.4091C414.311 86.5516 414.422 86.6494 414.558 86.7024C414.697 86.7521 414.848 86.777 415.01 86.777C415.13 86.777 415.234 86.7687 415.324 86.7521C415.413 86.7356 415.483 86.7223 415.532 86.7124L415.801 87.9403C415.715 87.9735 415.592 88.0066 415.433 88.0398C415.274 88.0762 415.075 88.0961 414.836 88.0994C414.445 88.1061 414.081 88.0365 413.743 87.8906C413.404 87.7448 413.131 87.5194 412.922 87.2145C412.713 86.9096 412.609 86.5268 412.609 86.0661V78.5341ZM417.306 88V80.3636H418.743V81.5767H418.822C418.961 81.1657 419.207 80.8426 419.558 80.6072C419.913 80.3686 420.314 80.2493 420.761 80.2493C420.854 80.2493 420.963 80.2526 421.089 80.2592C421.219 80.2659 421.32 80.2741 421.393 80.2841V81.706C421.333 81.6894 421.227 81.6712 421.074 81.6513C420.922 81.6281 420.769 81.6165 420.617 81.6165C420.266 81.6165 419.952 81.6911 419.677 81.8402C419.406 81.986 419.19 82.1899 419.031 82.4517C418.872 82.7102 418.792 83.0052 418.792 83.3366V88H417.306ZM424.833 88.169C424.349 88.169 423.912 88.0795 423.52 87.9006C423.129 87.7183 422.819 87.4548 422.591 87.1101C422.365 86.7654 422.253 86.3428 422.253 85.8423C422.253 85.4115 422.336 85.0568 422.501 84.7784C422.667 84.5 422.891 84.2796 423.172 84.1172C423.454 83.9548 423.769 83.8321 424.117 83.7493C424.465 83.6664 424.82 83.6035 425.181 83.5604C425.638 83.5073 426.01 83.4643 426.295 83.4311C426.58 83.3946 426.787 83.3366 426.916 83.2571C427.045 83.1776 427.11 83.0483 427.11 82.8693V82.8345C427.11 82.4003 426.987 82.0639 426.742 81.8253C426.5 81.5866 426.139 81.4673 425.658 81.4673C425.158 81.4673 424.763 81.5784 424.475 81.8004C424.19 82.0192 423.993 82.2628 423.883 82.5312L422.486 82.2131C422.652 81.7491 422.894 81.3745 423.212 81.0895C423.534 80.8011 423.903 80.5923 424.321 80.4631C424.738 80.3305 425.178 80.2642 425.638 80.2642C425.943 80.2642 426.266 80.3007 426.608 80.3736C426.952 80.4432 427.274 80.5724 427.572 80.7614C427.874 80.9503 428.121 81.2204 428.313 81.5717C428.505 81.9197 428.601 82.3722 428.601 82.929V88H427.15V86.956H427.09C426.994 87.1482 426.85 87.3371 426.657 87.5227C426.465 87.7083 426.218 87.8625 425.917 87.9851C425.615 88.1077 425.254 88.169 424.833 88.169ZM425.156 86.9759C425.567 86.9759 425.918 86.8946 426.21 86.7322C426.505 86.5698 426.729 86.3577 426.881 86.0959C427.037 85.8307 427.115 85.5473 427.115 85.2457V84.2614C427.062 84.3144 426.959 84.3641 426.807 84.4105C426.657 84.4536 426.487 84.4917 426.295 84.5249C426.102 84.5547 425.915 84.5829 425.733 84.6094C425.55 84.6326 425.398 84.6525 425.275 84.669C424.987 84.7055 424.724 84.7668 424.485 84.853C424.25 84.9392 424.061 85.0634 423.918 85.2259C423.779 85.3849 423.709 85.5971 423.709 85.8622C423.709 86.2301 423.845 86.5085 424.117 86.6974C424.389 86.883 424.735 86.9759 425.156 86.9759ZM433.798 88.1541C433.059 88.1541 432.422 87.9867 431.889 87.652C431.359 87.3139 430.951 86.8482 430.666 86.255C430.381 85.6617 430.238 84.9822 430.238 84.2166C430.238 83.4411 430.384 82.7566 430.676 82.1634C430.967 81.5668 431.378 81.1011 431.909 80.7663C432.439 80.4316 433.064 80.2642 433.783 80.2642C434.363 80.2642 434.88 80.3719 435.334 80.5874C435.788 80.7995 436.154 81.0978 436.433 81.4822C436.715 81.8667 436.882 82.3158 436.935 82.8295H435.488C435.409 82.4716 435.226 82.1634 434.941 81.9048C434.66 81.6463 434.282 81.517 433.808 81.517C433.394 81.517 433.031 81.6264 432.719 81.8452C432.411 82.0606 432.171 82.3688 431.998 82.7699C431.826 83.1676 431.74 83.6383 431.74 84.1818C431.74 84.7386 431.824 85.2192 431.993 85.6236C432.162 86.0279 432.401 86.3411 432.709 86.5632C433.021 86.7853 433.387 86.8963 433.808 86.8963C434.09 86.8963 434.345 86.8449 434.574 86.7422C434.806 86.6361 434.999 86.4853 435.155 86.2898C435.314 86.0942 435.425 85.8589 435.488 85.5838H436.935C436.882 86.0777 436.721 86.5185 436.453 86.9062C436.184 87.294 435.825 87.599 435.374 87.821C434.926 88.0431 434.401 88.1541 433.798 88.1541ZM442.089 80.3636V81.5568H437.918V80.3636H442.089ZM439.037 78.5341H440.523V85.7578C440.523 86.0462 440.566 86.2633 440.653 86.4091C440.739 86.5516 440.85 86.6494 440.986 86.7024C441.125 86.7521 441.276 86.777 441.438 86.777C441.557 86.777 441.662 86.7687 441.751 86.7521C441.841 86.7356 441.91 86.7223 441.96 86.7124L442.229 87.9403C442.142 87.9735 442.02 88.0066 441.861 88.0398C441.702 88.0762 441.503 88.0961 441.264 88.0994C440.873 88.1061 440.508 88.0365 440.17 87.8906C439.832 87.7448 439.559 87.5194 439.35 87.2145C439.141 86.9096 439.037 86.5268 439.037 86.0661V78.5341ZM447.558 88V77.8182H453.942V79.1406H449.094V82.2429H453.608V83.5604H449.094V86.6776H454.001V88H447.558ZM457.361 83.4659V88H455.874V80.3636H457.301V81.6065H457.396C457.571 81.2022 457.846 80.8774 458.221 80.6321C458.599 80.3868 459.074 80.2642 459.648 80.2642C460.168 80.2642 460.624 80.3736 461.015 80.5923C461.406 80.8078 461.709 81.1293 461.925 81.5568C462.14 81.9844 462.248 82.513 462.248 83.1428V88H460.761V83.3217C460.761 82.7682 460.617 82.3357 460.329 82.0241C460.04 81.7093 459.644 81.5518 459.141 81.5518C458.796 81.5518 458.489 81.6264 458.221 81.7756C457.956 81.9247 457.745 82.1435 457.589 82.4318C457.437 82.7169 457.361 83.0616 457.361 83.4659ZM467.806 80.3636V81.5568H463.635V80.3636H467.806ZM464.754 78.5341H466.24V85.7578C466.24 86.0462 466.283 86.2633 466.369 86.4091C466.455 86.5516 466.567 86.6494 466.702 86.7024C466.842 86.7521 466.992 86.777 467.155 86.777C467.274 86.777 467.379 86.7687 467.468 86.7521C467.558 86.7356 467.627 86.7223 467.677 86.7124L467.945 87.9403C467.859 87.9735 467.737 88.0066 467.577 88.0398C467.418 88.0762 467.219 88.0961 466.981 88.0994C466.59 88.1061 466.225 88.0365 465.887 87.8906C465.549 87.7448 465.276 87.5194 465.067 87.2145C464.858 86.9096 464.754 86.5268 464.754 86.0661V78.5341ZM469.45 88V80.3636H470.937V88H469.45ZM470.201 79.1854C469.943 79.1854 469.721 79.0992 469.535 78.9268C469.353 78.7512 469.262 78.5424 469.262 78.3004C469.262 78.0552 469.353 77.8464 469.535 77.674C469.721 77.4983 469.943 77.4105 470.201 77.4105C470.46 77.4105 470.68 77.4983 470.862 77.674C471.048 77.8464 471.141 78.0552 471.141 78.3004C471.141 78.5424 471.048 78.7512 470.862 78.9268C470.68 79.0992 470.46 79.1854 470.201 79.1854ZM476.501 80.3636V81.5568H472.33V80.3636H476.501ZM473.449 78.5341H474.935V85.7578C474.935 86.0462 474.978 86.2633 475.065 86.4091C475.151 86.5516 475.262 86.6494 475.398 86.7024C475.537 86.7521 475.688 86.777 475.85 86.777C475.969 86.777 476.074 86.7687 476.163 86.7521C476.253 86.7356 476.322 86.7223 476.372 86.7124L476.641 87.9403C476.554 87.9735 476.432 88.0066 476.273 88.0398C476.114 88.0762 475.915 88.0961 475.676 88.0994C475.285 88.1061 474.92 88.0365 474.582 87.8906C474.244 87.7448 473.971 87.5194 473.762 87.2145C473.553 86.9096 473.449 86.5268 473.449 86.0661V78.5341ZM478.146 88V80.3636H479.632V88H478.146ZM478.896 79.1854C478.638 79.1854 478.416 79.0992 478.23 78.9268C478.048 78.7512 477.957 78.5424 477.957 78.3004C477.957 78.0552 478.048 77.8464 478.23 77.674C478.416 77.4983 478.638 77.4105 478.896 77.4105C479.155 77.4105 479.375 77.4983 479.558 77.674C479.743 77.8464 479.836 78.0552 479.836 78.3004C479.836 78.5424 479.743 78.7512 479.558 78.9268C479.375 79.0992 479.155 79.1854 478.896 79.1854ZM484.923 88.1541C484.171 88.1541 483.523 87.9934 482.979 87.6719C482.439 87.3471 482.022 86.8913 481.727 86.3047C481.435 85.7147 481.289 85.0237 481.289 84.2315C481.289 83.4493 481.435 82.7599 481.727 82.1634C482.022 81.5668 482.433 81.1011 482.96 80.7663C483.49 80.4316 484.11 80.2642 484.819 80.2642C485.25 80.2642 485.667 80.3355 486.072 80.478C486.476 80.6205 486.839 80.8442 487.161 81.1491C487.482 81.4541 487.736 81.8501 487.921 82.3374C488.107 82.8213 488.2 83.4096 488.2 84.1023V84.6293H482.129V83.5156H486.743C486.743 83.1245 486.663 82.7782 486.504 82.4766C486.345 82.1716 486.121 81.9313 485.833 81.7557C485.548 81.58 485.213 81.4922 484.829 81.4922C484.411 81.4922 484.047 81.5949 483.735 81.8004C483.427 82.0026 483.188 82.2678 483.019 82.5959C482.853 82.9207 482.771 83.2737 482.771 83.6548V84.5249C482.771 85.0353 482.86 85.4695 483.039 85.8274C483.221 86.1854 483.475 86.4588 483.8 86.6477C484.125 86.8333 484.504 86.9261 484.938 86.9261C485.22 86.9261 485.477 86.8864 485.709 86.8068C485.941 86.724 486.141 86.6013 486.31 86.4389C486.479 86.2765 486.609 86.076 486.698 85.8374L488.105 86.0909C487.992 86.5052 487.79 86.8681 487.499 87.1797C487.21 87.4879 486.847 87.7282 486.41 87.9006C485.976 88.0696 485.48 88.1541 484.923 88.1541ZM495.571 82.228L494.224 82.4666C494.168 82.2943 494.078 82.1302 493.955 81.9744C493.836 81.8187 493.674 81.6911 493.468 81.5916C493.263 81.4922 493.006 81.4425 492.698 81.4425C492.277 81.4425 491.925 81.5369 491.644 81.7259C491.362 81.9115 491.221 82.1518 491.221 82.4467C491.221 82.7019 491.316 82.9074 491.504 83.0632C491.693 83.219 491.998 83.3466 492.419 83.446L493.632 83.7244C494.335 83.8868 494.859 84.1371 495.203 84.4751C495.548 84.8132 495.72 85.2524 495.72 85.7926C495.72 86.25 495.588 86.6577 495.323 87.0156C495.061 87.3703 494.695 87.6487 494.224 87.8509C493.757 88.053 493.215 88.1541 492.598 88.1541C491.743 88.1541 491.045 87.9718 490.505 87.6072C489.965 87.2393 489.633 86.7173 489.511 86.0412L490.948 85.8224C491.037 86.197 491.221 86.4804 491.499 86.6726C491.778 86.8615 492.141 86.956 492.588 86.956C493.075 86.956 493.465 86.8549 493.757 86.6527C494.048 86.4472 494.194 86.197 494.194 85.902C494.194 85.6634 494.105 85.4628 493.926 85.3004C493.75 85.138 493.48 85.0154 493.115 84.9325L491.823 84.6491C491.11 84.4867 490.583 84.2282 490.242 83.8736C489.904 83.5189 489.735 83.0698 489.735 82.5263C489.735 82.0755 489.86 81.6811 490.112 81.343C490.364 81.005 490.712 80.7415 491.156 80.5526C491.601 80.3603 492.109 80.2642 492.683 80.2642C493.508 80.2642 494.158 80.4432 494.632 80.8011C495.106 81.1558 495.419 81.6314 495.571 82.228Z" fill="#F5F5F6"/>
<mask id="path-17-inside-3_948_6154" fill="white">
<path d="M370 101H572V137H370V101Z"/>
</mask>
<path d="M572 137V138H573V137H572ZM572 101H571V137H572H573V101H572ZM572 137V136H370V137V138H572V137Z" fill="#1F242F" mask="url(#path-17-inside-3_948_6154)"/>
<path d="M385.426 117H384.193C384.12 116.645 383.993 116.334 383.81 116.065C383.631 115.797 383.413 115.571 383.154 115.389C382.899 115.204 382.616 115.064 382.304 114.972C381.992 114.879 381.668 114.832 381.33 114.832C380.713 114.832 380.155 114.988 379.654 115.3C379.157 115.611 378.761 116.07 378.466 116.677C378.174 117.283 378.028 118.027 378.028 118.909C378.028 119.791 378.174 120.535 378.466 121.141C378.761 121.748 379.157 122.207 379.654 122.518C380.155 122.83 380.713 122.986 381.33 122.986C381.668 122.986 381.992 122.939 382.304 122.847C382.616 122.754 382.899 122.616 383.154 122.434C383.413 122.248 383.631 122.021 383.81 121.753C383.993 121.481 384.12 121.17 384.193 120.818H385.426C385.333 121.339 385.164 121.804 384.919 122.215C384.674 122.626 384.369 122.976 384.004 123.264C383.64 123.549 383.23 123.766 382.776 123.915C382.326 124.065 381.843 124.139 381.33 124.139C380.461 124.139 379.689 123.927 379.013 123.503C378.337 123.079 377.805 122.475 377.417 121.693C377.029 120.911 376.835 119.983 376.835 118.909C376.835 117.835 377.029 116.907 377.417 116.125C377.805 115.343 378.337 114.74 379.013 114.315C379.689 113.891 380.461 113.679 381.33 113.679C381.843 113.679 382.326 113.754 382.776 113.903C383.23 114.052 383.64 114.271 384.004 114.559C384.369 114.844 384.674 115.192 384.919 115.603C385.164 116.011 385.333 116.476 385.426 117ZM390.362 124.159C389.672 124.159 389.067 123.995 388.547 123.667C388.03 123.339 387.626 122.88 387.334 122.29C387.046 121.7 386.901 121.01 386.901 120.222C386.901 119.426 387.046 118.732 387.334 118.138C387.626 117.545 388.03 117.085 388.547 116.756C389.067 116.428 389.672 116.264 390.362 116.264C391.051 116.264 391.654 116.428 392.171 116.756C392.692 117.085 393.096 117.545 393.384 118.138C393.676 118.732 393.822 119.426 393.822 120.222C393.822 121.01 393.676 121.7 393.384 122.29C393.096 122.88 392.692 123.339 392.171 123.667C391.654 123.995 391.051 124.159 390.362 124.159ZM390.362 123.105C390.885 123.105 391.316 122.971 391.654 122.702C391.992 122.434 392.243 122.081 392.405 121.643C392.567 121.206 392.649 120.732 392.649 120.222C392.649 119.711 392.567 119.236 392.405 118.795C392.243 118.354 391.992 117.998 391.654 117.726C391.316 117.454 390.885 117.318 390.362 117.318C389.838 117.318 389.407 117.454 389.069 117.726C388.731 117.998 388.481 118.354 388.318 118.795C388.156 119.236 388.075 119.711 388.075 120.222C388.075 120.732 388.156 121.206 388.318 121.643C388.481 122.081 388.731 122.434 389.069 122.702C389.407 122.971 389.838 123.105 390.362 123.105ZM396.786 119.406V124H395.613V116.364H396.746V117.557H396.846C397.025 117.169 397.297 116.857 397.661 116.622C398.026 116.384 398.496 116.264 399.073 116.264C399.59 116.264 400.043 116.37 400.43 116.582C400.818 116.791 401.12 117.109 401.335 117.537C401.551 117.961 401.658 118.498 401.658 119.148V124H400.485V119.227C400.485 118.627 400.329 118.16 400.018 117.825C399.706 117.487 399.279 117.318 398.735 117.318C398.361 117.318 398.026 117.399 397.731 117.562C397.439 117.724 397.209 117.961 397.04 118.273C396.871 118.584 396.786 118.962 396.786 119.406ZM407.123 116.364V117.358H403.166V116.364H407.123ZM404.319 114.534H405.493V121.812C405.493 122.144 405.541 122.393 405.637 122.558C405.736 122.721 405.862 122.83 406.015 122.886C406.171 122.939 406.335 122.966 406.507 122.966C406.636 122.966 406.742 122.959 406.825 122.946C406.908 122.929 406.974 122.916 407.024 122.906L407.263 123.96C407.183 123.99 407.072 124.02 406.93 124.05C406.787 124.083 406.606 124.099 406.388 124.099C406.056 124.099 405.731 124.028 405.413 123.886C405.098 123.743 404.836 123.526 404.628 123.234C404.422 122.943 404.319 122.575 404.319 122.131V114.534ZM408.888 124V116.364H410.022V117.517H410.101C410.241 117.139 410.492 116.833 410.857 116.597C411.222 116.362 411.633 116.244 412.09 116.244C412.176 116.244 412.284 116.246 412.413 116.249C412.542 116.253 412.64 116.258 412.706 116.264V117.457C412.667 117.447 412.576 117.433 412.433 117.413C412.294 117.389 412.146 117.378 411.991 117.378C411.619 117.378 411.288 117.456 410.996 117.612C410.708 117.764 410.479 117.976 410.31 118.248C410.144 118.516 410.062 118.823 410.062 119.168V124H408.888ZM416.344 124.179C415.861 124.179 415.421 124.088 415.027 123.906C414.633 123.72 414.319 123.453 414.087 123.105C413.855 122.754 413.739 122.33 413.739 121.832C413.739 121.395 413.826 121.04 413.998 120.768C414.17 120.493 414.401 120.278 414.689 120.122C414.977 119.966 415.295 119.85 415.643 119.774C415.995 119.695 416.348 119.632 416.702 119.585C417.166 119.526 417.543 119.481 417.831 119.451C418.123 119.418 418.335 119.363 418.467 119.287C418.603 119.211 418.671 119.078 418.671 118.889V118.849C418.671 118.359 418.537 117.978 418.268 117.706C418.003 117.434 417.601 117.298 417.06 117.298C416.5 117.298 416.061 117.421 415.743 117.666C415.425 117.911 415.201 118.173 415.072 118.452L413.958 118.054C414.157 117.59 414.422 117.229 414.754 116.97C415.088 116.708 415.453 116.526 415.847 116.423C416.245 116.317 416.636 116.264 417.021 116.264C417.266 116.264 417.548 116.294 417.866 116.354C418.187 116.41 418.497 116.528 418.795 116.707C419.097 116.886 419.347 117.156 419.546 117.517C419.745 117.878 419.844 118.362 419.844 118.969V124H418.671V122.966H418.612C418.532 123.132 418.399 123.309 418.214 123.498C418.028 123.687 417.781 123.848 417.473 123.98C417.165 124.113 416.789 124.179 416.344 124.179ZM416.523 123.125C416.987 123.125 417.379 123.034 417.697 122.852C418.018 122.669 418.26 122.434 418.423 122.146C418.588 121.857 418.671 121.554 418.671 121.236V120.162C418.621 120.222 418.512 120.276 418.343 120.326C418.177 120.372 417.985 120.414 417.766 120.45C417.551 120.483 417.34 120.513 417.135 120.54C416.933 120.563 416.769 120.583 416.643 120.599C416.338 120.639 416.053 120.704 415.788 120.793C415.526 120.879 415.314 121.01 415.151 121.186C414.992 121.358 414.913 121.594 414.913 121.892C414.913 122.3 415.063 122.608 415.365 122.817C415.67 123.022 416.056 123.125 416.523 123.125ZM425.088 124.159C424.372 124.159 423.756 123.99 423.239 123.652C422.722 123.314 422.324 122.848 422.046 122.255C421.767 121.662 421.628 120.984 421.628 120.222C421.628 119.446 421.771 118.762 422.056 118.168C422.344 117.572 422.745 117.106 423.259 116.771C423.776 116.433 424.379 116.264 425.068 116.264C425.605 116.264 426.089 116.364 426.52 116.562C426.951 116.761 427.304 117.04 427.579 117.398C427.854 117.756 428.025 118.173 428.091 118.651H426.918C426.828 118.303 426.629 117.994 426.321 117.726C426.016 117.454 425.605 117.318 425.088 117.318C424.631 117.318 424.23 117.437 423.885 117.676C423.544 117.911 423.277 118.245 423.085 118.675C422.896 119.103 422.801 119.605 422.801 120.182C422.801 120.772 422.894 121.286 423.08 121.723C423.269 122.161 423.534 122.5 423.875 122.742C424.22 122.984 424.624 123.105 425.088 123.105C425.393 123.105 425.67 123.052 425.919 122.946C426.167 122.84 426.378 122.688 426.55 122.489C426.722 122.29 426.845 122.051 426.918 121.773H428.091C428.025 122.223 427.861 122.629 427.599 122.991C427.34 123.349 426.997 123.634 426.57 123.846C426.146 124.055 425.652 124.159 425.088 124.159ZM433.127 116.364V117.358H429.17V116.364H433.127ZM430.323 114.534H431.497V121.812C431.497 122.144 431.545 122.393 431.641 122.558C431.74 122.721 431.866 122.83 432.019 122.886C432.174 122.939 432.338 122.966 432.511 122.966C432.64 122.966 432.746 122.959 432.829 122.946C432.912 122.929 432.978 122.916 433.028 122.906L433.267 123.96C433.187 123.99 433.076 124.02 432.933 124.05C432.791 124.083 432.61 124.099 432.392 124.099C432.06 124.099 431.735 124.028 431.417 123.886C431.102 123.743 430.84 123.526 430.632 123.234C430.426 122.943 430.323 122.575 430.323 122.131V114.534ZM447.58 118.909C447.58 119.983 447.386 120.911 446.998 121.693C446.61 122.475 446.078 123.079 445.402 123.503C444.726 123.927 443.954 124.139 443.085 124.139C442.217 124.139 441.445 123.927 440.769 123.503C440.093 123.079 439.561 122.475 439.173 121.693C438.785 120.911 438.591 119.983 438.591 118.909C438.591 117.835 438.785 116.907 439.173 116.125C439.561 115.343 440.093 114.74 440.769 114.315C441.445 113.891 442.217 113.679 443.085 113.679C443.954 113.679 444.726 113.891 445.402 114.315C446.078 114.74 446.61 115.343 446.998 116.125C447.386 116.907 447.58 117.835 447.58 118.909ZM446.387 118.909C446.387 118.027 446.239 117.283 445.944 116.677C445.652 116.07 445.256 115.611 444.756 115.3C444.259 114.988 443.702 114.832 443.085 114.832C442.469 114.832 441.91 114.988 441.41 115.3C440.913 115.611 440.517 116.07 440.222 116.677C439.93 117.283 439.784 118.027 439.784 118.909C439.784 119.791 439.93 120.535 440.222 121.141C440.517 121.748 440.913 122.207 441.41 122.518C441.91 122.83 442.469 122.986 443.085 122.986C443.702 122.986 444.259 122.83 444.756 122.518C445.256 122.207 445.652 121.748 445.944 121.141C446.239 120.535 446.387 119.791 446.387 118.909ZM452.894 116.364V117.358H448.778V116.364H452.894ZM450.011 124V115.31C450.011 114.872 450.114 114.508 450.319 114.216C450.525 113.924 450.791 113.705 451.119 113.56C451.448 113.414 451.794 113.341 452.159 113.341C452.447 113.341 452.682 113.364 452.865 113.411C453.047 113.457 453.183 113.5 453.272 113.54L452.934 114.554C452.874 114.534 452.792 114.509 452.686 114.479C452.583 114.45 452.447 114.435 452.278 114.435C451.89 114.435 451.61 114.532 451.438 114.728C451.269 114.924 451.184 115.21 451.184 115.588V124H450.011ZM457.939 116.364V117.358H453.823V116.364H457.939ZM455.056 124V115.31C455.056 114.872 455.158 114.508 455.364 114.216C455.569 113.924 455.836 113.705 456.164 113.56C456.493 113.414 456.839 113.341 457.203 113.341C457.492 113.341 457.727 113.364 457.909 113.411C458.092 113.457 458.228 113.5 458.317 113.54L457.979 114.554C457.919 114.534 457.837 114.509 457.73 114.479C457.628 114.45 457.492 114.435 457.323 114.435C456.935 114.435 456.655 114.532 456.483 114.728C456.314 114.924 456.229 115.21 456.229 115.588V124H455.056ZM462.471 124.159C461.735 124.159 461.1 123.997 460.567 123.672C460.036 123.344 459.627 122.886 459.339 122.3C459.054 121.71 458.911 121.024 458.911 120.241C458.911 119.459 459.054 118.77 459.339 118.173C459.627 117.573 460.028 117.106 460.542 116.771C461.059 116.433 461.662 116.264 462.352 116.264C462.749 116.264 463.142 116.33 463.53 116.463C463.918 116.596 464.271 116.811 464.589 117.109C464.907 117.404 465.161 117.795 465.349 118.283C465.538 118.77 465.633 119.37 465.633 120.082V120.58H459.746V119.565H464.44C464.44 119.134 464.353 118.75 464.181 118.412C464.012 118.074 463.77 117.807 463.455 117.612C463.144 117.416 462.776 117.318 462.352 117.318C461.884 117.318 461.48 117.434 461.138 117.666C460.8 117.895 460.54 118.193 460.358 118.561C460.176 118.929 460.085 119.323 460.085 119.744V120.42C460.085 120.997 460.184 121.486 460.383 121.887C460.585 122.285 460.865 122.588 461.223 122.797C461.581 123.002 461.997 123.105 462.471 123.105C462.779 123.105 463.058 123.062 463.306 122.976C463.558 122.886 463.775 122.754 463.957 122.578C464.14 122.399 464.281 122.177 464.38 121.912L465.513 122.23C465.394 122.615 465.194 122.953 464.912 123.244C464.63 123.533 464.282 123.758 463.868 123.92C463.454 124.08 462.988 124.159 462.471 124.159ZM467.418 124V116.364H468.551V117.517H468.631C468.77 117.139 469.022 116.833 469.386 116.597C469.751 116.362 470.162 116.244 470.619 116.244C470.705 116.244 470.813 116.246 470.942 116.249C471.072 116.253 471.17 116.258 471.236 116.264V117.457C471.196 117.447 471.105 117.433 470.962 117.413C470.823 117.389 470.676 117.378 470.52 117.378C470.149 117.378 469.817 117.456 469.526 117.612C469.237 117.764 469.009 117.976 468.839 118.248C468.674 118.516 468.591 118.823 468.591 119.168V124H467.418Z" fill="#CECFD2"/>
<mask id="path-20-inside-4_948_6154" fill="white">
<path d="M370 137H572V173H370V137Z"/>
</mask>
<path d="M572 173V174H573V173H572ZM572 137H571V173H572H573V137H572ZM572 173V172H370V173V174H572V173Z" fill="#1F242F" mask="url(#path-20-inside-4_948_6154)"/>
<rect x="376" y="149" width="152" height="12" rx="4" fill="#61646C"/>
<mask id="path-23-inside-5_948_6154" fill="white">
<path d="M370 173H572V209H370V173Z"/>
</mask>
<path d="M572 209V210H573V209H572ZM572 173H571V209H572H573V173H572ZM572 209V208H370V209V210H572V209Z" fill="#1F242F" mask="url(#path-23-inside-5_948_6154)"/>
<rect x="376" y="185.4" width="107" height="11.2" rx="4" fill="#61646C"/>
<mask id="path-26-inside-6_948_6154" fill="white">
<path d="M370 209H572V245H370V209Z"/>
</mask>
<path d="M572 245V246H573V245H572ZM572 209H571V245H572H573V209H572ZM572 245V244H370V245V246H572V245Z" fill="#1F242F" mask="url(#path-26-inside-6_948_6154)"/>
<path d="M377.233 232V221.818H380.673C381.472 221.818 382.125 221.962 382.632 222.251C383.143 222.536 383.52 222.922 383.766 223.409C384.011 223.896 384.134 224.44 384.134 225.04C384.134 225.64 384.011 226.185 383.766 226.675C383.524 227.166 383.149 227.557 382.642 227.849C382.135 228.137 381.485 228.281 380.693 228.281H378.227V227.188H380.653C381.2 227.188 381.639 227.093 381.971 226.904C382.302 226.715 382.543 226.46 382.692 226.138C382.844 225.814 382.92 225.447 382.92 225.04C382.92 224.632 382.844 224.268 382.692 223.946C382.543 223.625 382.301 223.373 381.966 223.19C381.631 223.005 381.187 222.912 380.634 222.912H378.466V232H377.233ZM385.961 232V224.364H387.094V225.517H387.174C387.313 225.139 387.565 224.833 387.929 224.597C388.294 224.362 388.705 224.244 389.162 224.244C389.248 224.244 389.356 224.246 389.485 224.249C389.615 224.253 389.712 224.258 389.779 224.264V225.457C389.739 225.447 389.648 225.433 389.505 225.413C389.366 225.389 389.219 225.378 389.063 225.378C388.692 225.378 388.36 225.456 388.069 225.612C387.78 225.764 387.551 225.976 387.382 226.248C387.217 226.516 387.134 226.823 387.134 227.168V232H385.961ZM394.039 232.159C393.35 232.159 392.745 231.995 392.225 231.667C391.708 231.339 391.303 230.88 391.012 230.29C390.723 229.7 390.579 229.01 390.579 228.222C390.579 227.426 390.723 226.732 391.012 226.138C391.303 225.545 391.708 225.085 392.225 224.756C392.745 224.428 393.35 224.264 394.039 224.264C394.729 224.264 395.332 224.428 395.849 224.756C396.369 225.085 396.774 225.545 397.062 226.138C397.354 226.732 397.5 227.426 397.5 228.222C397.5 229.01 397.354 229.7 397.062 230.29C396.774 230.88 396.369 231.339 395.849 231.667C395.332 231.995 394.729 232.159 394.039 232.159ZM394.039 231.105C394.563 231.105 394.994 230.971 395.332 230.702C395.67 230.434 395.92 230.081 396.083 229.643C396.245 229.206 396.326 228.732 396.326 228.222C396.326 227.711 396.245 227.236 396.083 226.795C395.92 226.354 395.67 225.998 395.332 225.726C394.994 225.454 394.563 225.318 394.039 225.318C393.516 225.318 393.085 225.454 392.747 225.726C392.409 225.998 392.158 226.354 391.996 226.795C391.834 227.236 391.752 227.711 391.752 228.222C391.752 228.732 391.834 229.206 391.996 229.643C392.158 230.081 392.409 230.434 392.747 230.702C393.085 230.971 393.516 231.105 394.039 231.105ZM402.174 232.159C401.538 232.159 400.976 231.998 400.489 231.677C400.002 231.352 399.62 230.895 399.345 230.305C399.07 229.711 398.933 229.01 398.933 228.202C398.933 227.4 399.07 226.704 399.345 226.114C399.62 225.524 400.003 225.068 400.494 224.746C400.984 224.425 401.551 224.264 402.194 224.264C402.691 224.264 403.084 224.347 403.372 224.513C403.664 224.675 403.886 224.861 404.039 225.07C404.194 225.275 404.315 225.444 404.401 225.577H404.501V221.818H405.674V232H404.541V230.827H404.401C404.315 230.966 404.193 231.142 404.034 231.354C403.874 231.562 403.647 231.75 403.352 231.915C403.057 232.078 402.665 232.159 402.174 232.159ZM402.333 231.105C402.804 231.105 403.202 230.982 403.526 230.737C403.851 230.489 404.098 230.146 404.267 229.708C404.436 229.267 404.521 228.759 404.521 228.182C404.521 227.612 404.438 227.113 404.272 226.685C404.106 226.254 403.861 225.92 403.536 225.681C403.212 225.439 402.811 225.318 402.333 225.318C401.836 225.318 401.422 225.446 401.09 225.701C400.762 225.953 400.515 226.296 400.35 226.73C400.187 227.161 400.106 227.645 400.106 228.182C400.106 228.725 400.189 229.219 400.355 229.663C400.524 230.104 400.772 230.455 401.1 230.717C401.432 230.976 401.843 231.105 402.333 231.105ZM412.798 228.878V224.364H413.972V232H412.798V230.707H412.719C412.54 231.095 412.262 231.425 411.884 231.697C411.506 231.965 411.029 232.099 410.452 232.099C409.975 232.099 409.55 231.995 409.179 231.786C408.808 231.574 408.516 231.256 408.304 230.832C408.092 230.404 407.986 229.866 407.986 229.216V224.364H409.159V229.136C409.159 229.693 409.315 230.137 409.627 230.469C409.941 230.8 410.343 230.966 410.83 230.966C411.121 230.966 411.418 230.891 411.72 230.742C412.025 230.593 412.28 230.364 412.485 230.056C412.694 229.748 412.798 229.355 412.798 228.878ZM419.223 232.159C418.507 232.159 417.891 231.99 417.374 231.652C416.857 231.314 416.459 230.848 416.18 230.255C415.902 229.662 415.763 228.984 415.763 228.222C415.763 227.446 415.905 226.762 416.19 226.168C416.479 225.572 416.88 225.106 417.393 224.771C417.911 224.433 418.514 224.264 419.203 224.264C419.74 224.264 420.224 224.364 420.655 224.562C421.086 224.761 421.439 225.04 421.714 225.398C421.989 225.756 422.16 226.173 422.226 226.651H421.053C420.963 226.303 420.764 225.994 420.456 225.726C420.151 225.454 419.74 225.318 419.223 225.318C418.766 225.318 418.365 225.437 418.02 225.676C417.679 225.911 417.412 226.245 417.219 226.675C417.031 227.103 416.936 227.605 416.936 228.182C416.936 228.772 417.029 229.286 417.214 229.723C417.403 230.161 417.669 230.5 418.01 230.742C418.355 230.984 418.759 231.105 419.223 231.105C419.528 231.105 419.805 231.052 420.053 230.946C420.302 230.84 420.512 230.688 420.685 230.489C420.857 230.29 420.98 230.051 421.053 229.773H422.226C422.16 230.223 421.996 230.629 421.734 230.991C421.475 231.349 421.132 231.634 420.705 231.846C420.28 232.055 419.786 232.159 419.223 232.159ZM427.262 224.364V225.358H423.305V224.364H427.262ZM424.458 222.534H425.631V229.812C425.631 230.144 425.679 230.393 425.776 230.558C425.875 230.721 426.001 230.83 426.153 230.886C426.309 230.939 426.473 230.966 426.646 230.966C426.775 230.966 426.881 230.959 426.964 230.946C427.047 230.929 427.113 230.916 427.163 230.906L427.401 231.96C427.322 231.99 427.211 232.02 427.068 232.05C426.926 232.083 426.745 232.099 426.526 232.099C426.195 232.099 425.87 232.028 425.552 231.886C425.237 231.743 424.975 231.526 424.766 231.234C424.561 230.943 424.458 230.575 424.458 230.131V222.534ZM440.084 225C439.974 224.665 439.83 224.365 439.651 224.1C439.476 223.832 439.265 223.603 439.02 223.414C438.778 223.225 438.503 223.081 438.195 222.982C437.886 222.882 437.548 222.832 437.18 222.832C436.577 222.832 436.029 222.988 435.535 223.3C435.041 223.611 434.648 224.07 434.357 224.677C434.065 225.283 433.919 226.027 433.919 226.909C433.919 227.791 434.067 228.535 434.362 229.141C434.656 229.748 435.056 230.207 435.56 230.518C436.063 230.83 436.63 230.986 437.26 230.986C437.843 230.986 438.357 230.862 438.801 230.613C439.249 230.361 439.597 230.006 439.845 229.549C440.097 229.088 440.223 228.546 440.223 227.923L440.601 228.003H437.538V226.909H441.416V228.003C441.416 228.841 441.237 229.571 440.879 230.19C440.525 230.81 440.034 231.291 439.408 231.632C438.785 231.97 438.069 232.139 437.26 232.139C436.358 232.139 435.566 231.927 434.884 231.503C434.204 231.079 433.674 230.475 433.293 229.693C432.915 228.911 432.726 227.983 432.726 226.909C432.726 226.104 432.834 225.379 433.049 224.737C433.268 224.09 433.576 223.54 433.974 223.086C434.371 222.632 434.842 222.284 435.386 222.042C435.929 221.8 436.527 221.679 437.18 221.679C437.717 221.679 438.218 221.76 438.682 221.923C439.149 222.082 439.565 222.309 439.93 222.604C440.298 222.895 440.604 223.245 440.849 223.653C441.095 224.057 441.264 224.506 441.357 225H440.084ZM443.369 232V224.364H444.502V225.517H444.582C444.721 225.139 444.973 224.833 445.338 224.597C445.702 224.362 446.113 224.244 446.57 224.244C446.657 224.244 446.764 224.246 446.894 224.249C447.023 224.253 447.121 224.258 447.187 224.264V225.457C447.147 225.447 447.056 225.433 446.914 225.413C446.774 225.389 446.627 225.378 446.471 225.378C446.1 225.378 445.768 225.456 445.477 225.612C445.188 225.764 444.96 225.976 444.791 226.248C444.625 226.516 444.542 226.823 444.542 227.168V232H443.369ZM451.448 232.159C450.758 232.159 450.153 231.995 449.633 231.667C449.116 231.339 448.712 230.88 448.42 230.29C448.132 229.7 447.987 229.01 447.987 228.222C447.987 227.426 448.132 226.732 448.42 226.138C448.712 225.545 449.116 225.085 449.633 224.756C450.153 224.428 450.758 224.264 451.448 224.264C452.137 224.264 452.74 224.428 453.257 224.756C453.778 225.085 454.182 225.545 454.47 226.138C454.762 226.732 454.908 227.426 454.908 228.222C454.908 229.01 454.762 229.7 454.47 230.29C454.182 230.88 453.778 231.339 453.257 231.667C452.74 231.995 452.137 232.159 451.448 232.159ZM451.448 231.105C451.971 231.105 452.402 230.971 452.74 230.702C453.078 230.434 453.329 230.081 453.491 229.643C453.653 229.206 453.735 228.732 453.735 228.222C453.735 227.711 453.653 227.236 453.491 226.795C453.329 226.354 453.078 225.998 452.74 225.726C452.402 225.454 451.971 225.318 451.448 225.318C450.924 225.318 450.493 225.454 450.155 225.726C449.817 225.998 449.567 226.354 449.404 226.795C449.242 227.236 449.161 227.711 449.161 228.222C449.161 228.732 449.242 229.206 449.404 229.643C449.567 230.081 449.817 230.434 450.155 230.702C450.493 230.971 450.924 231.105 451.448 231.105ZM461.511 228.878V224.364H462.685V232H461.511V230.707H461.432C461.253 231.095 460.974 231.425 460.597 231.697C460.219 231.965 459.741 232.099 459.165 232.099C458.688 232.099 458.263 231.995 457.892 231.786C457.521 231.574 457.229 231.256 457.017 230.832C456.805 230.404 456.699 229.866 456.699 229.216V224.364H457.872V229.136C457.872 229.693 458.028 230.137 458.339 230.469C458.654 230.8 459.055 230.966 459.543 230.966C459.834 230.966 460.131 230.891 460.433 230.742C460.737 230.593 460.993 230.364 461.198 230.056C461.407 229.748 461.511 229.355 461.511 228.878ZM464.834 234.864V224.364H465.967V225.577H466.106C466.193 225.444 466.312 225.275 466.464 225.07C466.62 224.861 466.842 224.675 467.131 224.513C467.422 224.347 467.817 224.264 468.314 224.264C468.957 224.264 469.523 224.425 470.014 224.746C470.505 225.068 470.887 225.524 471.162 226.114C471.438 226.704 471.575 227.4 471.575 228.202C471.575 229.01 471.438 229.711 471.162 230.305C470.887 230.895 470.506 231.352 470.019 231.677C469.532 231.998 468.97 232.159 468.334 232.159C467.843 232.159 467.45 232.078 467.155 231.915C466.86 231.75 466.633 231.562 466.474 231.354C466.315 231.142 466.193 230.966 466.106 230.827H466.007V234.864H464.834ZM465.987 228.182C465.987 228.759 466.072 229.267 466.241 229.708C466.41 230.146 466.657 230.489 466.981 230.737C467.306 230.982 467.704 231.105 468.175 231.105C468.665 231.105 469.074 230.976 469.403 230.717C469.734 230.455 469.983 230.104 470.148 229.663C470.317 229.219 470.402 228.725 470.402 228.182C470.402 227.645 470.319 227.161 470.153 226.73C469.991 226.296 469.744 225.953 469.412 225.701C469.084 225.446 468.672 225.318 468.175 225.318C467.697 225.318 467.296 225.439 466.971 225.681C466.647 225.92 466.401 226.254 466.236 226.685C466.07 227.113 465.987 227.612 465.987 228.182Z" fill="#CECFD2"/>
<mask id="path-29-inside-7_948_6154" fill="white">
<path d="M370 245H572V281H370V245Z"/>
</mask>
<path d="M572 281V282H573V281H572ZM572 245H571V281H572H573V245H572ZM572 281V280H370V281V282H572V281Z" fill="#1F242F" mask="url(#path-29-inside-7_948_6154)"/>
<rect x="376" y="257" width="152" height="12" rx="4" fill="#61646C"/>
<mask id="path-32-inside-8_948_6154" fill="white">
<path d="M370 281H572V317H370V281Z"/>
</mask>
<path d="M572 317V318H573V317H572ZM572 281H571V317H572H573V281H572ZM572 317V316H370V317V318H572V317Z" fill="#1F242F" mask="url(#path-32-inside-8_948_6154)"/>
<rect x="376" y="293.4" width="107" height="11.2" rx="4" fill="#61646C"/>
<mask id="path-35-inside-9_948_6154" fill="white">
<path d="M370 317H572V353H370V317Z"/>
</mask>
<path d="M572 353V354H573V353H572ZM572 317H571V353H572H573V317H572ZM572 353V352H370V353V354H572V353Z" fill="#1F242F" mask="url(#path-35-inside-9_948_6154)"/>
<rect x="376" y="329" width="173" height="12" rx="4" fill="#61646C"/>
<mask id="path-38-inside-10_948_6154" fill="white">
<path d="M370 353H572V389H370V353Z"/>
</mask>
<path d="M572 389V390H573V389H572ZM572 353H571V389H572H573V353H572ZM572 389V388H370V389V390H572V389Z" fill="#1F242F" mask="url(#path-38-inside-10_948_6154)"/>
<path d="M376.676 366.912V365.818H384.312V366.912H381.111V376H379.878V366.912H376.676ZM386.056 376V368.364H387.23V376H386.056ZM386.653 367.091C386.424 367.091 386.227 367.013 386.061 366.857C385.899 366.701 385.818 366.514 385.818 366.295C385.818 366.077 385.899 365.889 386.061 365.734C386.227 365.578 386.424 365.5 386.653 365.5C386.882 365.5 387.077 365.578 387.24 365.734C387.405 365.889 387.488 366.077 387.488 366.295C387.488 366.514 387.405 366.701 387.24 366.857C387.077 367.013 386.882 367.091 386.653 367.091ZM389.379 376V368.364H390.512V369.517H390.592C390.731 369.139 390.983 368.833 391.347 368.597C391.712 368.362 392.123 368.244 392.58 368.244C392.666 368.244 392.774 368.246 392.903 368.249C393.033 368.253 393.13 368.258 393.197 368.264V369.457C393.157 369.447 393.066 369.433 392.923 369.413C392.784 369.389 392.637 369.378 392.481 369.378C392.11 369.378 391.778 369.456 391.487 369.612C391.198 369.764 390.969 369.976 390.8 370.248C390.635 370.516 390.552 370.823 390.552 371.168V376H389.379ZM397.557 376.159C396.821 376.159 396.186 375.997 395.653 375.672C395.122 375.344 394.713 374.886 394.425 374.3C394.14 373.71 393.997 373.024 393.997 372.241C393.997 371.459 394.14 370.77 394.425 370.173C394.713 369.573 395.114 369.106 395.628 368.771C396.145 368.433 396.748 368.264 397.438 368.264C397.835 368.264 398.228 368.33 398.616 368.463C399.004 368.596 399.357 368.811 399.675 369.109C399.993 369.404 400.246 369.795 400.435 370.283C400.624 370.77 400.719 371.37 400.719 372.082V372.58H394.832V371.565H399.526C399.526 371.134 399.439 370.75 399.267 370.412C399.098 370.074 398.856 369.807 398.541 369.612C398.23 369.416 397.862 369.318 397.438 369.318C396.97 369.318 396.566 369.434 396.224 369.666C395.886 369.895 395.626 370.193 395.444 370.561C395.262 370.929 395.17 371.323 395.17 371.744V372.42C395.17 372.997 395.27 373.486 395.469 373.887C395.671 374.285 395.951 374.588 396.309 374.797C396.667 375.002 397.083 375.105 397.557 375.105C397.865 375.105 398.143 375.062 398.392 374.976C398.644 374.886 398.861 374.754 399.043 374.578C399.226 374.399 399.366 374.177 399.466 373.912L400.599 374.23C400.48 374.615 400.28 374.953 399.998 375.244C399.716 375.533 399.368 375.758 398.954 375.92C398.54 376.08 398.074 376.159 397.557 376.159ZM405.387 376.159C404.751 376.159 404.189 375.998 403.702 375.677C403.214 375.352 402.833 374.895 402.558 374.305C402.283 373.711 402.146 373.01 402.146 372.202C402.146 371.4 402.283 370.704 402.558 370.114C402.833 369.524 403.216 369.068 403.707 368.746C404.197 368.425 404.764 368.264 405.407 368.264C405.904 368.264 406.297 368.347 406.585 368.513C406.877 368.675 407.099 368.861 407.251 369.07C407.407 369.275 407.528 369.444 407.614 369.577H407.714V365.818H408.887V376H407.754V374.827H407.614C407.528 374.966 407.406 375.142 407.246 375.354C407.087 375.562 406.86 375.75 406.565 375.915C406.27 376.078 405.878 376.159 405.387 376.159ZM405.546 375.105C406.017 375.105 406.415 374.982 406.739 374.737C407.064 374.489 407.311 374.146 407.48 373.708C407.649 373.267 407.734 372.759 407.734 372.182C407.734 371.612 407.651 371.113 407.485 370.685C407.319 370.254 407.074 369.92 406.749 369.681C406.424 369.439 406.023 369.318 405.546 369.318C405.049 369.318 404.635 369.446 404.303 369.701C403.975 369.953 403.728 370.296 403.562 370.73C403.4 371.161 403.319 371.645 403.319 372.182C403.319 372.725 403.402 373.219 403.567 373.663C403.737 374.104 403.985 374.455 404.313 374.717C404.645 374.976 405.056 375.105 405.546 375.105ZM415.295 376V365.818H416.528V374.906H421.261V376H415.295ZM424.403 365.818V376H423.17V365.818H424.403ZM436.381 368.364C436.322 367.86 436.08 367.469 435.655 367.19C435.231 366.912 434.711 366.773 434.094 366.773C433.644 366.773 433.249 366.846 432.911 366.991C432.576 367.137 432.314 367.338 432.126 367.593C431.94 367.848 431.847 368.138 431.847 368.463C431.847 368.735 431.912 368.969 432.041 369.164C432.174 369.356 432.343 369.517 432.548 369.646C432.754 369.772 432.969 369.877 433.194 369.96C433.42 370.039 433.627 370.104 433.816 370.153L434.85 370.432C435.115 370.501 435.41 370.598 435.735 370.72C436.063 370.843 436.376 371.01 436.675 371.222C436.976 371.431 437.225 371.7 437.42 372.028C437.616 372.356 437.714 372.759 437.714 373.236C437.714 373.786 437.569 374.283 437.281 374.727C436.996 375.171 436.578 375.524 436.028 375.786C435.481 376.048 434.817 376.179 434.035 376.179C433.305 376.179 432.674 376.061 432.14 375.826C431.61 375.591 431.193 375.263 430.888 374.842C430.586 374.421 430.415 373.932 430.376 373.375H431.648C431.681 373.759 431.811 374.078 432.036 374.33C432.265 374.578 432.553 374.764 432.901 374.886C433.252 375.006 433.63 375.065 434.035 375.065C434.505 375.065 434.928 374.989 435.302 374.837C435.677 374.681 435.974 374.465 436.192 374.19C436.411 373.912 436.52 373.587 436.52 373.216C436.52 372.878 436.426 372.603 436.237 372.391C436.048 372.179 435.8 372.006 435.491 371.874C435.183 371.741 434.85 371.625 434.492 371.526L433.239 371.168C432.444 370.939 431.814 370.612 431.35 370.188C430.886 369.764 430.654 369.209 430.654 368.523C430.654 367.953 430.808 367.455 431.116 367.031C431.428 366.604 431.845 366.272 432.369 366.037C432.896 365.798 433.484 365.679 434.134 365.679C434.79 365.679 435.374 365.797 435.884 366.032C436.394 366.264 436.799 366.582 437.097 366.987C437.399 367.391 437.558 367.85 437.574 368.364H436.381ZM444.394 372.878V368.364H445.567V376H444.394V374.707H444.315C444.136 375.095 443.857 375.425 443.479 375.697C443.102 375.965 442.624 376.099 442.048 376.099C441.57 376.099 441.146 375.995 440.775 375.786C440.404 375.574 440.112 375.256 439.9 374.832C439.688 374.404 439.582 373.866 439.582 373.216V368.364H440.755V373.136C440.755 373.693 440.911 374.137 441.222 374.469C441.537 374.8 441.938 374.966 442.425 374.966C442.717 374.966 443.014 374.891 443.315 374.742C443.62 374.593 443.875 374.364 444.081 374.056C444.29 373.748 444.394 373.355 444.394 372.878ZM447.716 376V368.364H448.85V369.557H448.949C449.108 369.149 449.365 368.833 449.72 368.607C450.075 368.379 450.501 368.264 450.998 368.264C451.501 368.264 451.921 368.379 452.256 368.607C452.594 368.833 452.857 369.149 453.046 369.557H453.126C453.321 369.162 453.614 368.849 454.006 368.617C454.397 368.382 454.866 368.264 455.412 368.264C456.095 368.264 456.654 368.478 457.088 368.906C457.522 369.33 457.739 369.991 457.739 370.889V376H456.566V370.889C456.566 370.326 456.412 369.923 456.104 369.681C455.795 369.439 455.432 369.318 455.015 369.318C454.478 369.318 454.062 369.481 453.767 369.805C453.472 370.127 453.324 370.535 453.324 371.028V376H452.131V370.77C452.131 370.336 451.99 369.986 451.709 369.721C451.427 369.452 451.064 369.318 450.62 369.318C450.315 369.318 450.03 369.399 449.765 369.562C449.503 369.724 449.291 369.95 449.128 370.238C448.969 370.523 448.89 370.853 448.89 371.227V376H447.716ZM459.884 376V368.364H461.018V369.557H461.117C461.276 369.149 461.533 368.833 461.888 368.607C462.243 368.379 462.669 368.264 463.166 368.264C463.669 368.264 464.089 368.379 464.423 368.607C464.762 368.833 465.025 369.149 465.214 369.557H465.294C465.489 369.162 465.782 368.849 466.173 368.617C466.565 368.382 467.034 368.264 467.58 368.264C468.263 368.264 468.822 368.478 469.256 368.906C469.69 369.33 469.907 369.991 469.907 370.889V376H468.734V370.889C468.734 370.326 468.58 369.923 468.271 369.681C467.963 369.439 467.6 369.318 467.183 369.318C466.646 369.318 466.23 369.481 465.935 369.805C465.64 370.127 465.492 370.535 465.492 371.028V376H464.299V370.77C464.299 370.336 464.158 369.986 463.877 369.721C463.595 369.452 463.232 369.318 462.788 369.318C462.483 369.318 462.198 369.399 461.933 369.562C461.671 369.724 461.459 369.95 461.296 370.238C461.137 370.523 461.058 370.853 461.058 371.227V376H459.884ZM474.3 376.179C473.816 376.179 473.376 376.088 472.982 375.906C472.588 375.72 472.274 375.453 472.042 375.105C471.81 374.754 471.694 374.33 471.694 373.832C471.694 373.395 471.781 373.04 471.953 372.768C472.125 372.493 472.356 372.278 472.644 372.122C472.932 371.966 473.251 371.85 473.599 371.774C473.95 371.695 474.303 371.632 474.657 371.585C475.122 371.526 475.498 371.481 475.786 371.451C476.078 371.418 476.29 371.363 476.422 371.287C476.558 371.211 476.626 371.078 476.626 370.889V370.849C476.626 370.359 476.492 369.978 476.224 369.706C475.958 369.434 475.556 369.298 475.015 369.298C474.455 369.298 474.016 369.421 473.698 369.666C473.38 369.911 473.156 370.173 473.027 370.452L471.913 370.054C472.112 369.59 472.377 369.229 472.709 368.97C473.043 368.708 473.408 368.526 473.802 368.423C474.2 368.317 474.591 368.264 474.976 368.264C475.221 368.264 475.503 368.294 475.821 368.354C476.142 368.41 476.452 368.528 476.751 368.707C477.052 368.886 477.302 369.156 477.501 369.517C477.7 369.878 477.8 370.362 477.8 370.969V376H476.626V374.966H476.567C476.487 375.132 476.354 375.309 476.169 375.498C475.983 375.687 475.736 375.848 475.428 375.98C475.12 376.113 474.744 376.179 474.3 376.179ZM474.479 375.125C474.943 375.125 475.334 375.034 475.652 374.852C475.973 374.669 476.215 374.434 476.378 374.146C476.543 373.857 476.626 373.554 476.626 373.236V372.162C476.577 372.222 476.467 372.276 476.298 372.326C476.132 372.372 475.94 372.414 475.721 372.45C475.506 372.483 475.296 372.513 475.09 372.54C474.888 372.563 474.724 372.583 474.598 372.599C474.293 372.639 474.008 372.704 473.743 372.793C473.481 372.879 473.269 373.01 473.106 373.186C472.947 373.358 472.868 373.594 472.868 373.892C472.868 374.3 473.019 374.608 473.32 374.817C473.625 375.022 474.011 375.125 474.479 375.125ZM479.941 376V368.364H481.075V369.517H481.154C481.293 369.139 481.545 368.833 481.91 368.597C482.274 368.362 482.685 368.244 483.143 368.244C483.229 368.244 483.337 368.246 483.466 368.249C483.595 368.253 483.693 368.258 483.759 368.264V369.457C483.719 369.447 483.628 369.433 483.486 369.413C483.347 369.389 483.199 369.378 483.043 369.378C482.672 369.378 482.341 369.456 482.049 369.612C481.761 369.764 481.532 369.976 481.363 370.248C481.197 370.516 481.114 370.823 481.114 371.168V376H479.941ZM486.138 378.864C485.939 378.864 485.762 378.847 485.606 378.814C485.45 378.784 485.343 378.754 485.283 378.724L485.581 377.69C485.866 377.763 486.118 377.79 486.337 377.77C486.556 377.75 486.75 377.652 486.919 377.477C487.091 377.304 487.248 377.024 487.391 376.636L487.61 376.04L484.786 368.364H486.059L488.167 374.449H488.246L490.354 368.364H491.627L488.385 377.114C488.239 377.508 488.059 377.835 487.843 378.093C487.628 378.355 487.378 378.549 487.093 378.675C486.811 378.801 486.493 378.864 486.138 378.864Z" fill="#CECFD2"/>
<mask id="path-41-inside-11_948_6154" fill="white">
<path d="M370 389H572V425H370V389Z"/>
</mask>
<path d="M572 425V426H573V425H572ZM572 389H571V425H572H573V389H572ZM572 425V424H370V425V426H572V425Z" fill="#1F242F" mask="url(#path-41-inside-11_948_6154)"/>
<rect x="376" y="401" width="110" height="12" rx="4" fill="#61646C"/>
<mask id="path-44-inside-12_948_6154" fill="white">
<path d="M370 425H572V461H370V425Z"/>
</mask>
<path d="M572 461V462H573V461H572ZM572 425H571V461H572H573V425H572ZM572 461V460H370V461V462H572V461Z" fill="#1F242F" mask="url(#path-44-inside-12_948_6154)"/>
<rect x="376" y="437" width="156" height="12" rx="4" fill="#61646C"/>
<mask id="path-47-inside-13_948_6154" fill="white">
<path d="M370 461H572V497H370V461Z"/>
</mask>
<path d="M572 497V498H573V497H572ZM572 461H571V497H572H573V461H572ZM572 497V496H370V497V498H572V497Z" fill="#1F242F" mask="url(#path-47-inside-13_948_6154)"/>
<rect x="376" y="473" width="73" height="12" rx="4" fill="#61646C"/>
</svg>
