<svg width="13" height="12" viewBox="0 0 13 12" fill="none" xmlns="http://www.w3.org/2000/svg">
<g clip-path="url(#clip0_743_56220)">
<path d="M2.75 11V8.5M2.75 3.5V1M1.5 2.25H4M1.5 9.75H4M7 1.5L6.13291 3.75443C5.9919 4.12105 5.9214 4.30435 5.81176 4.45854C5.71459 4.5952 5.5952 4.71459 5.45854 4.81177C5.30435 4.9214 5.12105 4.99191 4.75443 5.13291L2.5 6L4.75443 6.86709C5.12105 7.00809 5.30435 7.0786 5.45854 7.18823C5.5952 7.28541 5.71459 7.4048 5.81177 7.54146C5.9214 7.69565 5.99191 7.87895 6.13291 8.24557L7 10.5L7.86709 8.24557C8.00809 7.87895 8.0786 7.69565 8.18824 7.54146C8.28541 7.4048 8.4048 7.28541 8.54146 7.18823C8.69565 7.0786 8.87895 7.00809 9.24557 6.86709L11.5 6L9.24557 5.13291C8.87895 4.99191 8.69565 4.9214 8.54146 4.81176C8.4048 4.71459 8.28541 4.5952 8.18823 4.45854C8.0786 4.30435 8.00809 4.12105 7.86709 3.75443L7 1.5Z" stroke="#9E77ED" stroke-width="1.5" stroke-linecap="round" stroke-linejoin="round"/>
</g>
<defs>
<clipPath id="clip0_743_56220">
<rect width="12" height="12" fill="white" transform="translate(0.5)"/>
</clipPath>
</defs>
</svg>
